<?xml version="1.0" encoding="UTF-8"?>
<svg width="60px" height="60px" viewBox="0 0 60 60" version="1.1" xmlns="http://www.w3.org/2000/svg" xmlns:xlink="http://www.w3.org/1999/xlink">
    <!-- Generator: Sketch 53.2 (72643) - https://sketchapp.com -->
    <title>Artboard</title>
    <desc>Created with Sketch.</desc>
    <defs>
        <path d="M4.08041212,0.3 L1.83064242,0.3216 L13.0836121,9.3852 L13.2571152,0.3 L4.08041212,0.3 Z M0.254690909,10.5116 L10.6269576,11.7044 L13.2571152,11.7044 L0.533284848,1.0396 L0.254690909,10.5116 Z" id="path-1"></path>
        <path d="M4.08041212,0.3 L1.83064242,0.3216 L13.0836121,9.3852 L13.2571152,0.3 L4.08041212,0.3 Z M0.254690909,10.5116 L10.6269576,11.7044 L13.2571152,11.7044 L0.533284848,1.0396 L0.254690909,10.5116 Z" id="path-3"></path>
        <path d="M4.08041212,0.3 L1.83064242,0.3216 L13.0836121,9.3852 L13.2571152,0.3 L4.08041212,0.3 Z M0.254690909,10.5116 L10.6269576,11.7044 L13.2571152,11.7044 L0.533284848,1.0396 L0.254690909,10.5116 Z" id="path-5"></path>
        <path d="M4.08041212,0.3 L1.83064242,0.3216 L13.0836121,9.3852 L13.2571152,0.3 L4.08041212,0.3 Z M0.254690909,10.5116 L10.6269576,11.7044 L13.2571152,11.7044 L0.533284848,1.0396 L0.254690909,10.5116 Z" id="path-7"></path>
        <path d="M4.08041212,0.3 L1.83064242,0.3216 L13.0836121,9.3852 L13.2571152,0.3 L4.08041212,0.3 Z M0.254690909,10.5116 L10.6269576,11.7044 L13.2571152,11.7044 L0.533284848,1.0396 L0.254690909,10.5116 Z" id="path-9"></path>
        <path d="M4.08041212,0.3 L1.83064242,0.3216 L13.0836121,9.3852 L13.2571152,0.3 L4.08041212,0.3 Z M0.254690909,10.5116 L10.6269576,11.7044 L13.2571152,11.7044 L0.533284848,1.0396 L0.254690909,10.5116 Z" id="path-11"></path>
        <path d="M4.08041212,0.3 L1.83064242,0.3216 L13.0836121,9.3852 L13.2571152,0.3 L4.08041212,0.3 Z M0.254690909,10.5116 L10.6269576,11.7044 L13.2571152,11.7044 L0.533284848,1.0396 L0.254690909,10.5116 Z" id="path-13"></path>
        <path d="M4.08041212,0.3 L1.83064242,0.3216 L13.0836121,9.3852 L13.2571152,0.3 L4.08041212,0.3 Z M0.254690909,10.5116 L10.6269576,11.7044 L13.2571152,11.7044 L0.533284848,1.0396 L0.254690909,10.5116 Z" id="path-15"></path>
        <path d="M4.08041212,0.3 L1.83064242,0.3216 L13.0836121,9.3852 L13.2571152,0.3 M0.254690909,10.5116 L10.6269576,11.7044 L13.2571152,11.7044 L0.533284848,1.0396" id="path-17"></path>
        <path d="M4.08041212,0.3 L1.83064242,0.3216 L13.0836121,9.3852 L13.2571152,0.3 M0.254690909,10.5116 L10.6269576,11.7044 L13.2571152,11.7044 L0.533284848,1.0396" id="path-19"></path>
        <path d="M4.08041212,0.3 L1.83064242,0.3216 L13.0836121,9.3852 L13.2571152,0.3 L4.08041212,0.3 Z M0.254690909,10.5116 L10.6269576,11.7044 L13.2571152,11.7044 L0.533284848,1.0396 L0.254690909,10.5116 Z" id="path-21"></path>
        <path d="M4.08041212,0.3 L1.83064242,0.3216 L13.0836121,9.3852 L13.2571152,0.3 L4.08041212,0.3 Z M0.254690909,10.5116 L10.6269576,11.7044 L13.2571152,11.7044 L0.533284848,1.0396 L0.254690909,10.5116 Z" id="path-23"></path>
        <path d="M4.08041212,0.3 L1.83064242,0.3216 L13.0836121,9.3852 L13.2571152,0.3 M0.254690909,10.5116 L10.6269576,11.7044 L13.2571152,11.7044 L0.533284848,1.0396" id="path-25"></path>
    </defs>
    <g id="Artboard" stroke="none" stroke-width="1" fill="none" fill-rule="evenodd">
        <g id="Group-14" transform="translate(3.000000, 36.000000)" fill="#B03232" stroke="#B03232" stroke-width="0.3">
            <g id="Group-80" transform="translate(3.260870, 7.827259)">
                <path d="M18.3595652,10.8622759 C18.2247826,10.8622759 18.115,10.7577931 18.115,10.6295172 L18.115,0.588310345 C18.115,0.459517241 18.2247826,0.355551724 18.3595652,0.355551724 C18.4943478,0.355551724 18.6041304,0.459517241 18.6041304,0.588310345 L18.6041304,10.6295172 C18.6041304,10.7577931 18.4943478,10.8622759 18.3595652,10.8622759" id="Fill-66"></path>
                <path d="M13.8493478,10.8622759 C13.7145652,10.8622759 13.6047826,10.7577931 13.6047826,10.6295172 L13.6047826,0.588310345 C13.6047826,0.459517241 13.7145652,0.355551724 13.8493478,0.355551724 C13.9841304,0.355551724 14.093913,0.459517241 14.093913,0.588310345 L14.093913,10.6295172 C14.093913,10.7577931 13.9841304,10.8622759 13.8493478,10.8622759" id="Fill-69"></path>
                <path d="M9.33913043,10.8622759 C9.20434783,10.8622759 9.09456522,10.7577931 9.09456522,10.6295172 L9.09456522,0.588310345 C9.09456522,0.459517241 9.20434783,0.355551724 9.33913043,0.355551724 C9.47391304,0.355551724 9.58369565,0.459517241 9.58369565,0.588310345 L9.58369565,10.6295172 C9.58369565,10.7577931 9.47391304,10.8622759 9.33913043,10.8622759" id="Fill-72"></path>
                <path d="M4.82940217,10.8622759 C4.69461957,10.8622759 4.58483696,10.7577931 4.58483696,10.6295172 L4.58483696,0.588310345 C4.58483696,0.459517241 4.69461957,0.355551724 4.82940217,0.355551724 C4.96418478,0.355551724 5.07396739,0.459517241 5.07396739,0.588310345 L5.07396739,10.6295172 C5.07396739,10.7577931 4.96418478,10.8622759 4.82940217,10.8622759" id="Fill-75"></path>
                <path d="M0.319184783,10.8622759 C0.184402174,10.8622759 0.0746195652,10.7577931 0.0746195652,10.6295172 L0.0746195652,0.588310345 C0.0746195652,0.459517241 0.184402174,0.355551724 0.319184783,0.355551724 C0.453967391,0.355551724 0.56375,0.459517241 0.56375,0.588310345 L0.56375,10.6295172 C0.56375,10.7577931 0.453967391,10.8622759 0.319184783,10.8622759" id="Fill-78"></path>
            </g>
            <path d="M0.746956522,8.64775862 C0.740434783,8.64775862 0.734456522,8.64775862 0.727934783,8.64724138 C0.708913043,8.64568966 0.690434783,8.64206897 0.6725,8.63689655 C0.630652174,8.62396552 0.592065217,8.60017241 0.561086957,8.56706897 C0.552391304,8.5562069 0.54423913,8.54586207 0.536630435,8.53396552 C0.51326087,8.49672414 0.502391304,8.45586207 0.502391304,8.41448276 C0.502391304,8.39741379 0.504565217,8.38034483 0.508913043,8.3637931 C0.520869565,8.31155172 0.552391304,8.26293103 0.600217391,8.22827586 C0.600217391,8.22827586 0.60076087,8.22827586 0.60076087,8.22775862 L0.601304348,8.22775862 L0.601847826,8.22775862 L0.602934783,8.22724138 L12.4197826,0.0481034483 C12.4328261,0.0377586207 12.4475,0.03 12.4632609,0.0227586207 C12.496413,0.00827586207 12.5322826,2.66453526e-14 12.5676087,2.66453526e-14 C12.6023913,2.66453526e-14 12.6388043,0.00827586207 12.6708696,0.0222413793 C12.6871739,0.0294827586 12.7018478,0.0377586207 12.7154348,0.0481034483 L24.5322826,8.22724138 C24.6176087,8.2862069 24.6534783,8.39172414 24.6208696,8.48689655 C24.5877174,8.58310345 24.4942391,8.64775862 24.3882609,8.64775862 L0.750217391,8.64775862 L0.748043478,8.64775862 L0.746956522,8.64775862 Z M1.49913043,8.18275862 L23.636087,8.18275862 L12.5676087,0.520862069 L1.49913043,8.18275862 Z" id="Fill-81"></path>
            <g id="Group-85" transform="translate(0.000000, 18.172086)">
                <path d="M24.3882609,0.789789474 L0.746956522,0.789789474 C0.612173913,0.789789474 0.502391304,0.630315789 0.502391304,0.434526316 C0.502391304,0.237947368 0.612173913,0.0792631579 0.746956522,0.0792631579 L24.3882609,0.0792631579 C24.5230435,0.0792631579 24.6328261,0.237947368 24.6328261,0.434526316 C24.6328261,0.630315789 24.5230435,0.789789474 24.3882609,0.789789474" id="Fill-83"></path>
            </g>
            <path d="M12.5676087,6.4485 C11.7328261,6.4485 11.0540217,5.80246552 11.0540217,5.00798276 C11.0540217,4.21401724 11.7328261,3.56746552 12.5676087,3.56746552 C13.4023913,3.56746552 14.0811957,4.21401724 14.0811957,5.00798276 C14.0811957,5.80246552 13.4023913,6.4485 12.5676087,6.4485 M12.5676087,4.0847069 C12.0328261,4.0847069 11.5975,4.49901724 11.5975,5.00798276 C11.5975,5.51694828 12.0328261,5.93125862 12.5676087,5.93125862 C13.1018478,5.93125862 13.5377174,5.51694828 13.5377174,5.00798276 C13.5377174,4.49901724 13.1018478,4.0847069 12.5676087,4.0847069" id="Fill-86"></path>
        </g>
        <g id="chat" transform="translate(35.000000, 9.000000)" fill="#B03232" fill-rule="nonzero" stroke="#B03232" stroke-width="0.1">
            <path d="M3.33333333,7.54232143 L7.66666667,7.54232143 C7.851,7.54232143 8,7.39832143 8,7.22089286 C8,7.04346429 7.851,6.89946429 7.66666667,6.89946429 L3.33333333,6.89946429 C3.149,6.89946429 3,7.04346429 3,7.22089286 C3,7.39832143 3.149,7.54232143 3.33333333,7.54232143 Z" id="Path"></path>
            <path d="M12,8.82803571 L3.33333333,8.82803571 C3.149,8.82803571 3,8.97203571 3,9.14946429 C3,9.32689286 3.149,9.47089286 3.33333333,9.47089286 L12,9.47089286 C12.1843333,9.47089286 12.3333333,9.32689286 12.3333333,9.14946429 C12.3333333,8.97203571 12.1843333,8.82803571 12,8.82803571 Z" id="Path"></path>
            <path d="M12,10.7566071 L3.33333333,10.7566071 C3.149,10.7566071 3,10.9006071 3,11.0780357 C3,11.2554643 3.149,11.3994643 3.33333333,11.3994643 L12,11.3994643 C12.1843333,11.3994643 12.3333333,11.2554643 12.3333333,11.0780357 C12.3333333,10.9006071 12.1843333,10.7566071 12,10.7566071 Z" id="Path"></path>
            <path d="M18.024,0.171964286 L6.64333333,0.149464286 C5.55333333,0.149464286 4.66666667,1.00446429 4.66666667,2.05553571 L4.66666667,3.70253571 L1.97666667,3.708 C0.886666667,3.708 0,4.563 0,5.61407143 L0,12.4093929 C0,13.4604643 0.886666667,14.3151429 1.97666667,14.3151429 L4,14.3151429 L4,17.5294286 C4,17.6621786 4.08466667,17.7814286 4.21333333,17.8293214 C4.25233333,17.8437857 4.293,17.8508571 4.33333333,17.8508571 C4.42533333,17.8508571 4.51566667,17.8138929 4.58,17.74575 L7.81466667,14.3145 L13.3566667,14.2926429 C14.4466667,14.2926429 15.3333333,13.4376429 15.3333333,12.3868929 L15.3333333,12.3505714 L17.0866667,14.2103571 C17.151,14.2785 17.2413333,14.3154643 17.3333333,14.3154643 C17.3736667,14.3154643 17.4143333,14.3083929 17.4533333,14.2939286 C17.582,14.2460357 17.6666667,14.1267857 17.6666667,13.9940357 L17.6666667,10.77975 L18.0233333,10.77975 C19.1133333,10.77975 20,9.92475 20,8.874 L20,2.07803571 C20,1.02728571 19.1136667,0.172285714 18.024,0.171964286 Z M14.6666667,12.3865714 C14.6666667,13.0831071 14.079,13.6494643 13.3553333,13.6494643 L7.66533333,13.6719643 C7.572,13.6722857 7.48266667,13.7105357 7.42,13.7770714 L4.66666667,16.6978929 L4.66666667,13.9933929 C4.66666667,13.8159643 4.51766667,13.6719643 4.33333333,13.6719643 L1.97666667,13.6719643 C1.25433333,13.6719643 0.666666667,13.1052857 0.666666667,12.4090714 L0.666666667,5.61375 C0.666666667,4.91721429 1.25433333,4.35053571 1.97733333,4.35053571 L5,4.34442857 C5,4.34442857 5,4.34442857 5,4.34442857 C5.00033333,4.34442857 5.00033333,4.34442857 5.00066667,4.34442857 L13.3566667,4.32771429 C14.079,4.32771429 14.6666667,4.89439286 14.6666667,5.59092857 L14.6666667,11.5183929 L14.6666667,12.3865714 Z M19.3333333,8.87335714 C19.3333333,9.56989286 18.7456667,10.13625 18.0233333,10.13625 L17.3333333,10.13625 C17.149,10.13625 17,10.28025 17,10.4576786 L17,13.1621786 L15.3333333,11.3943214 L15.3333333,5.59125 C15.3333333,4.54017857 14.4466667,3.68517857 13.356,3.68517857 L5.33333333,3.70092857 L5.33333333,2.05521429 C5.33333333,1.35867857 5.921,0.792 6.64266667,0.792 L18.023,0.8145 C18.0233333,0.8145 18.0233333,0.8145 18.0236667,0.8145 C18.746,0.8145 19.3336667,1.38117857 19.3336667,2.07771429 L19.3336667,8.87335714 L19.3333333,8.87335714 Z" id="Shape"></path>
        </g>
        <g id="Group-50-Copy" transform="translate(35.000000, 36.000000)">
            <g id="Group-6" fill="#B03232" stroke="#B03232" stroke-width="0.2">
                <path d="M17.1464244,15.5225227 C17.0917305,15.5225227 17.0370366,15.50489 16.992955,15.4684492 L2.48356724,3.5997145 C2.38356724,3.51821246 2.37173051,3.37519205 2.45662847,3.27919205 C2.5439754,3.18436756 2.69254683,3.17339613 2.79091418,3.25333083 L17.2998938,15.1224574 C17.3998938,15.2039594 17.4117305,15.346588 17.3268325,15.442588 C17.2794856,15.4954859 17.212955,15.5225227 17.1464244,15.5225227" id="Fill-1"></path>
                <g id="Group-5">
                    <path d="M9.92734694,19.0605061 C4.45346939,19.0605061 0,14.7851755 0,9.53025306 C0,4.27533061 4.45346939,0 9.92734694,0 C15.4012245,0 19.8542857,4.27533061 19.8542857,9.53025306 C19.8542857,14.7851755 15.4012245,19.0605061 9.92734694,19.0605061 M9.92734694,0.454922449 C4.71428571,0.454922449 0.473877551,4.52571429 0.473877551,9.53025306 C0.473877551,14.5344 4.71428571,18.6059755 9.92734694,18.6059755 C15.14,18.6059755 19.3808163,14.5344 19.3808163,9.53025306 C19.3808163,4.52571429 15.14,0.454922449 9.92734694,0.454922449" id="Fill-3"></path>
                </g>
            </g>
            <g id="Group-49" transform="translate(3.000000, 4.000000)">
                <g id="Group-9">
                    <mask id="mask-2" fill="white">
                        <use xlink:href="#path-1"></use>
                    </mask>
                    <g id="Clip-8"></g>
                    <path d="M1.52093333,8.80756 C1.52093333,9.31636 2.62212121,9.72956 3.98047273,9.72956 C5.33882424,9.72956 6.44001212,9.31636 6.44001212,8.80756 L6.44001212,7.56756 L1.52093333,7.56756 L1.52093333,8.80756 Z" id="Fill-7" fill="#FFFFFF" mask="url(#mask-2)"></path>
                </g>
                <g id="Group-12">
                    <mask id="mask-4" fill="white">
                        <use xlink:href="#path-3"></use>
                    </mask>
                    <g id="Clip-11"></g>
                    <path d="M3.98034909,9.89192 C2.70730667,9.89192 1.35390061,9.51192 1.35390061,8.80752 L1.35390061,7.56712 C1.35390061,7.47752 1.42849455,7.40512 1.5208097,7.40512 L6.43988848,7.40512 C6.53220364,7.40512 6.6072097,7.47752 6.6072097,7.56712 L6.6072097,8.80752 C6.6072097,9.51192 5.25339152,9.89192 3.98034909,9.89192 L3.98034909,9.89192 Z M1.68813091,7.72952 L1.68813091,8.80752 C1.68813091,9.16592 2.66897939,9.56712 3.98034909,9.56712 C5.29171879,9.56712 6.27256727,9.16592 6.27256727,8.80752 L6.27256727,7.72952 L1.68813091,7.72952 Z" id="Fill-10" stroke="#B03232" stroke-width="0.4" fill="#B03232" mask="url(#mask-4)"></path>
                </g>
                <g id="Group-15">
                    <mask id="mask-6" fill="white">
                        <use xlink:href="#path-5"></use>
                    </mask>
                    <g id="Clip-14"></g>
                    <path d="M1.52093333,7.0724 C1.52093333,7.5808 2.62212121,7.994 3.98047273,7.994 C5.33882424,7.994 6.44001212,7.5808 6.44001212,7.0724 L6.44001212,5.832 L1.52093333,5.832 L1.52093333,7.0724 Z" id="Fill-13" fill="#FFFFFF" mask="url(#mask-6)"></path>
                </g>
                <g id="Group-18">
                    <mask id="mask-8" fill="white">
                        <use xlink:href="#path-7"></use>
                    </mask>
                    <g id="Clip-17"></g>
                    <path d="M3.98034909,8.1556 C2.70730667,8.1556 1.35390061,7.7756 1.35390061,7.0724 L1.35390061,5.832 C1.35390061,5.7424 1.42849455,5.6696 1.5208097,5.6696 L6.43988848,5.6696 C6.53220364,5.6696 6.6072097,5.7424 6.6072097,5.832 L6.6072097,7.0724 C6.6072097,7.7756 5.25339152,8.1556 3.98034909,8.1556 L3.98034909,8.1556 Z M1.68813091,5.9948 L1.68813091,7.0724 C1.68813091,7.4308 2.66897939,7.8312 3.98034909,7.8312 C5.29171879,7.8312 6.27256727,7.4308 6.27256727,7.0724 L6.27256727,5.9948 L1.68813091,5.9948 Z" id="Fill-16" stroke="#B03232" stroke-width="0.4" fill="#B03232" mask="url(#mask-8)"></path>
                </g>
                <g id="Group-21">
                    <mask id="mask-10" fill="white">
                        <use xlink:href="#path-9"></use>
                    </mask>
                    <g id="Clip-20"></g>
                    <path d="M1.52093333,5.33644 C1.52093333,5.84484 2.62212121,6.25804 3.98047273,6.25804 C5.33882424,6.25804 6.44001212,5.84484 6.44001212,5.33644 L6.44001212,4.09604 L1.52093333,4.09604 L1.52093333,5.33644 Z" id="Fill-19" fill="#FFFFFF" mask="url(#mask-10)"></path>
                </g>
                <g id="Group-24">
                    <mask id="mask-12" fill="white">
                        <use xlink:href="#path-11"></use>
                    </mask>
                    <g id="Clip-23"></g>
                    <path d="M3.98034909,6.42004 C2.70730667,6.42004 1.35390061,6.04004 1.35390061,5.33684 L1.35390061,4.09604 C1.35390061,4.00684 1.42849455,3.93404 1.5208097,3.93404 L6.43988848,3.93404 C6.53220364,3.93404 6.6072097,4.00684 6.6072097,4.09604 L6.6072097,5.33684 C6.6072097,6.04004 5.25339152,6.42004 3.98034909,6.42004 L3.98034909,6.42004 Z M1.68813091,4.25884 L1.68813091,5.33684 C1.68813091,5.69484 2.66897939,6.09524 3.98034909,6.09524 C5.29171879,6.09524 6.27256727,5.69484 6.27256727,5.33684 L6.27256727,4.25884 L1.68813091,4.25884 Z" id="Fill-22" stroke="#B03232" stroke-width="0.5" fill="#B03232" mask="url(#mask-12)"></path>
                </g>
                <g id="Group-27">
                    <mask id="mask-14" fill="white">
                        <use xlink:href="#path-13"></use>
                    </mask>
                    <g id="Clip-26"></g>
                    <path d="M1.52093333,3.60052 C1.52093333,4.10892 2.62212121,4.52212 3.98047273,4.52212 C5.33882424,4.52212 6.44001212,4.10892 6.44001212,3.60052 L6.44001212,2.36052 L1.52093333,2.36052 L1.52093333,3.60052 Z" id="Fill-25" fill="#FFFFFF" mask="url(#mask-14)"></path>
                </g>
                <g id="Group-30">
                    <mask id="mask-16" fill="white">
                        <use xlink:href="#path-15"></use>
                    </mask>
                    <g id="Clip-29"></g>
                    <path d="M3.98034909,4.68412 C2.70730667,4.68412 1.35390061,4.30412 1.35390061,3.60092 L1.35390061,2.36052 C1.35390061,2.27092 1.42849455,2.19812 1.5208097,2.19812 L6.43988848,2.19812 C6.53220364,2.19812 6.6072097,2.27092 6.6072097,2.36052 L6.6072097,3.60092 C6.6072097,4.30412 5.25339152,4.68412 3.98034909,4.68412 L3.98034909,4.68412 Z M1.68813091,2.52292 L1.68813091,3.60092 C1.68813091,3.95932 2.66897939,4.35972 3.98034909,4.35972 C5.29171879,4.35972 6.27256727,3.95932 6.27256727,3.60092 L6.27256727,2.52292 L1.68813091,2.52292 Z" id="Fill-28" stroke="#B03232" stroke-width="0.4" fill="#333333" mask="url(#mask-16)"></path>
                </g>
                <g id="Group-33">
                    <mask id="mask-18" fill="white">
                        <use xlink:href="#path-17"></use>
                    </mask>
                    <g id="Clip-32"></g>
                    <path d="M6.43980606,2.1638 C6.43980606,2.6722 5.33861818,3.0854 3.98026667,3.0854 C2.62191515,3.0854 1.52072727,2.6722 1.52072727,2.1638 C1.52072727,1.655 2.62191515,1.2418 3.98026667,1.2418 C5.33861818,1.2418 6.43980606,1.655 6.43980606,2.1638" id="Fill-31" fill="#FFFFFF" mask="url(#mask-18)"></path>
                </g>
                <g id="Group-36">
                    <mask id="mask-20" fill="white">
                        <use xlink:href="#path-19"></use>
                    </mask>
                    <g id="Clip-35"></g>
                    <path d="M3.98034909,3.2474 C2.70730667,3.2474 1.35390061,2.8674 1.35390061,2.1642 C1.35390061,1.4598 2.70730667,1.0798 3.98034909,1.0798 C5.25339152,1.0798 6.6072097,1.4598 6.6072097,2.1642 C6.6072097,2.8674 5.25339152,3.2474 3.98034909,3.2474 M3.98034909,1.4046 C2.66897939,1.4046 1.68813091,1.8058 1.68813091,2.1642 C1.68813091,2.5226 2.66897939,2.923 3.98034909,2.923 C5.29171879,2.923 6.27256727,2.5226 6.27256727,2.1642 C6.27256727,1.8058 5.29171879,1.4046 3.98034909,1.4046" id="Fill-34" stroke="#B03232" stroke-width="0.4" fill="#B03232" mask="url(#mask-20)"></path>
                </g>
                <g id="Group-39">
                    <mask id="mask-22" fill="white">
                        <use xlink:href="#path-21"></use>
                    </mask>
                    <g id="Clip-38"></g>
                    <path d="M7.24958303,8.34896 C7.24958303,9.07336 8.35077091,9.66056 9.70953455,9.66056 C11.0678861,9.66056 12.1690739,9.07336 12.1690739,8.34896 L12.1690739,6.58416 L7.24958303,6.58416 L7.24958303,8.34896 Z" id="Fill-37" fill="#FFFFFF" mask="url(#mask-22)"></path>
                </g>
                <g id="Group-42">
                    <mask id="mask-24" fill="white">
                        <use xlink:href="#path-23"></use>
                    </mask>
                    <g id="Clip-41"></g>
                    <path d="M9.70941091,9.89192 C8.43636848,9.89192 7.0825503,9.35072 7.0825503,8.34872 L7.0825503,6.58352 C7.0825503,6.45592 7.15755636,6.35272 7.24987152,6.35272 L12.1689503,6.35272 C12.2612655,6.35272 12.3358594,6.45592 12.3358594,6.58352 L12.3358594,8.34872 C12.3358594,9.35072 10.9824533,9.89192 9.70941091,9.89192 L9.70941091,9.89192 Z M7.41719273,6.81472 L7.41719273,8.34872 C7.41719273,8.85832 8.39804121,9.42992 9.70941091,9.42992 C11.0207806,9.42992 12.0016291,8.85832 12.0016291,8.34872 L12.0016291,6.81472 L7.41719273,6.81472 Z" id="Fill-40" stroke="#B03232" stroke-width="0.4" fill="#B03232" mask="url(#mask-24)"></path>
                </g>
                <g id="Group-45">
                    <mask id="mask-26" fill="white">
                        <use xlink:href="#path-25"></use>
                    </mask>
                    <g id="Clip-44"></g>
                    <path d="M12.1688679,6.48684 C12.1688679,6.99564 11.06768,7.40844 9.70932848,7.40844 C8.35097697,7.40844 7.24978909,6.99564 7.24978909,6.48684 C7.24978909,5.97844 8.35097697,5.56524 9.70932848,5.56524 C11.06768,5.56524 12.1688679,5.97844 12.1688679,6.48684" id="Fill-43" stroke="#B03232" stroke-width="0.7" fill="#FFFFFF" mask="url(#mask-26)"></path>
                </g>
                <g id="Group-48" fill="#B03232">
                    <path d="M9.70941091,7.57084 C8.43636848,7.57084 7.0825503,7.19084 7.0825503,6.48764 C7.0825503,5.78244 8.43636848,5.40324 9.70941091,5.40324 C10.9824533,5.40324 12.3358594,5.78244 12.3358594,6.48764 C12.3358594,7.19084 10.9824533,7.57084 9.70941091,7.57084 M9.70941091,5.72764 C8.39804121,5.72764 7.41719273,6.12924 7.41719273,6.48764 C7.41719273,6.84564 8.39804121,7.24604 9.70941091,7.24604 C11.0207806,7.24604 12.0016291,6.84564 12.0016291,6.48764 C12.0016291,6.12924 11.0207806,5.72764 9.70941091,5.72764" id="Fill-46"></path>
                </g>
            </g>
        </g>
        <g id="Top-Counseling" transform="translate(5.000000, 7.000000)">
            <g id="Group-13">
                <path d="M10.4392195,17.2106919 C6.78124651,17.2106919 6.47589515,13.9023405 6.47362488,13.8688541 L6.47248975,6.64712432 C6.47248975,6.53020541 6.56670596,6.43655676 6.68305732,6.43655676 C6.79940867,6.43655676 6.89305732,6.53020541 6.89305732,6.64712432 L6.89305732,13.851827 C6.90327353,13.9556919 7.1751384,16.7895568 10.4392195,16.7895568 C13.7225979,16.7895568 13.9973006,13.9556919 14.0069492,13.8348 L14.0063816,6.64712432 C14.0063816,6.53020541 14.1005979,6.43655676 14.2169492,6.43655676 C14.332733,6.43655676 14.4269492,6.53020541 14.4269492,6.64712432 L14.4269492,13.851827 C14.4241114,13.9023405 14.1164897,17.2106919 10.4392195,17.2106919" id="Fill-1" fill="#333333"></path>
                <path d="M10.4392195,17.2106919 C6.78124651,17.2106919 6.47589515,13.9023405 6.47362488,13.8688541 L6.47248975,6.64712432 C6.47248975,6.53020541 6.56670596,6.43655676 6.68305732,6.43655676 C6.79940867,6.43655676 6.89305732,6.53020541 6.89305732,6.64712432 L6.89305732,13.851827 C6.90327353,13.9556919 7.1751384,16.7895568 10.4392195,16.7895568 C13.7225979,16.7895568 13.9973006,13.9556919 14.0069492,13.8348 L14.0063816,6.64712432 C14.0063816,6.53020541 14.1005979,6.43655676 14.2169492,6.43655676 C14.332733,6.43655676 14.4269492,6.53020541 14.4269492,6.64712432 L14.4269492,13.851827 C14.4241114,13.9023405 14.1164897,17.2106919 10.4392195,17.2106919 Z" id="Stroke-3" stroke="#B03232" stroke-width="0.3" fill="#B03232"></path>
                <path d="M10.082787,13.3397108 C9.96643569,13.3397108 9.87221948,13.2454946 9.87221948,13.1291432 C9.87221948,13.0127919 9.96643569,12.9185757 10.082787,12.9185757 C10.4182195,12.9185757 10.6906519,12.6455757 10.6906519,12.3112784 C10.6906519,11.9758459 10.4182195,11.7022784 10.082787,11.7022784 C9.96643569,11.7022784 9.87221948,11.6080622 9.87221948,11.4917108 C9.87221948,11.3753595 9.96643569,11.2817108 10.082787,11.2817108 C10.649787,11.2817108 11.1112195,11.7431432 11.1112195,12.3112784 C11.1112195,12.8782784 10.649787,13.3397108 10.082787,13.3397108" id="Fill-5" fill="#333333"></path>
                <path d="M10.082787,13.3397108 C9.96643569,13.3397108 9.87221948,13.2454946 9.87221948,13.1291432 C9.87221948,13.0127919 9.96643569,12.9185757 10.082787,12.9185757 C10.4182195,12.9185757 10.6906519,12.6455757 10.6906519,12.3112784 C10.6906519,11.9758459 10.4182195,11.7022784 10.082787,11.7022784 C9.96643569,11.7022784 9.87221948,11.6080622 9.87221948,11.4917108 C9.87221948,11.3753595 9.96643569,11.2817108 10.082787,11.2817108 C10.649787,11.2817108 11.1112195,11.7431432 11.1112195,12.3112784 C11.1112195,12.8782784 10.649787,13.3397108 10.082787,13.3397108 Z" id="Stroke-7" stroke="#B03232" stroke-width="0.3" fill="#B03232"></path>
                <path d="M8.64116542,11.8193676 C8.22286813,11.8193676 7.88176002,11.4782595 7.88176002,11.0599622 C7.88176002,10.6422324 8.22286813,10.3011243 8.64116542,10.3011243 C9.05946272,10.3011243 9.40057083,10.6422324 9.40057083,11.0599622 C9.40057083,11.4782595 9.05946272,11.8193676 8.64116542,11.8193676 M8.64116542,10.7216919 C8.45443569,10.7216919 8.30289515,10.8738 8.30289515,11.0599622 C8.30289515,11.2466919 8.45443569,11.3982324 8.64116542,11.3982324 C8.82732759,11.3982324 8.97943569,11.2466919 8.97943569,11.0599622 C8.97943569,10.8738 8.82732759,10.7216919 8.64116542,10.7216919" id="Fill-9" fill="#333333"></path>
                <path d="M8.64116542,11.8193676 C8.22286813,11.8193676 7.88176002,11.4782595 7.88176002,11.0599622 C7.88176002,10.6422324 8.22286813,10.3011243 8.64116542,10.3011243 C9.05946272,10.3011243 9.40057083,10.6422324 9.40057083,11.0599622 C9.40057083,11.4782595 9.05946272,11.8193676 8.64116542,11.8193676 Z M8.64116542,10.7216919 C8.45443569,10.7216919 8.30289515,10.8738 8.30289515,11.0599622 C8.30289515,11.2466919 8.45443569,11.3982324 8.64116542,11.3982324 C8.82732759,11.3982324 8.97943569,11.2466919 8.97943569,11.0599622 C8.97943569,10.8738 8.82732759,10.7216919 8.64116542,10.7216919 Z" id="Stroke-11" stroke="#B03232" stroke-width="0.3" fill="#B03232"></path>
                <path d="M12.2976627,11.8193676 C11.879933,11.8193676 11.5388249,11.4782595 11.5388249,11.0599622 C11.5388249,10.6422324 11.879933,10.3011243 12.2976627,10.3011243 C12.71596,10.3011243 13.0570681,10.6422324 13.0570681,11.0599622 C13.0570681,11.4782595 12.71596,11.8193676 12.2976627,11.8193676 M12.2976627,10.7216919 C12.1115006,10.7216919 11.9593925,10.8738 11.9593925,11.0599622 C11.9593925,11.2466919 12.1115006,11.3982324 12.2976627,11.3982324 C12.4838249,11.3982324 12.6365006,11.2466919 12.6365006,11.0599622 C12.6365006,10.8738 12.4838249,10.7216919 12.2976627,10.7216919" id="Fill-13" fill="#333333"></path>
                <path d="M12.2976627,11.8193676 C11.879933,11.8193676 11.5388249,11.4782595 11.5388249,11.0599622 C11.5388249,10.6422324 11.879933,10.3011243 12.2976627,10.3011243 C12.71596,10.3011243 13.0570681,10.6422324 13.0570681,11.0599622 C13.0570681,11.4782595 12.71596,11.8193676 12.2976627,11.8193676 Z M12.2976627,10.7216919 C12.1115006,10.7216919 11.9593925,10.8738 11.9593925,11.0599622 C11.9593925,11.2466919 12.1115006,11.3982324 12.2976627,11.3982324 C12.4838249,11.3982324 12.6365006,11.2466919 12.6365006,11.0599622 C12.6365006,10.8738 12.4838249,10.7216919 12.2976627,10.7216919 Z" id="Stroke-15" stroke="#B03232" stroke-width="0.3" fill="#B03232"></path>
                <path d="M6.23399786,13.6512486 L5.95134921,13.6512486 C5.62045732,13.6512486 5.35143029,13.3822216 5.35143029,13.0524649 L5.35143029,10.7600595 C5.35143029,10.4303027 5.62045732,10.1618432 5.95134921,10.1618432 L6.23399786,10.1618432 C6.56432218,10.1618432 6.83278164,10.4303027 6.83278164,10.7600595 L6.83278164,13.0524649 C6.83278164,13.3822216 6.56432218,13.6512486 6.23399786,13.6512486 L6.23399786,13.6512486 Z M5.95134921,10.5824108 C5.85486272,10.5824108 5.77313299,10.663573 5.77313299,10.7600595 L5.77313299,13.0524649 C5.77313299,13.1506541 5.85259245,13.2306811 5.95134921,13.2306811 L6.23399786,13.2306811 C6.33218705,13.2306811 6.41164651,13.1506541 6.41164651,13.0524649 L6.41164651,10.7600595 C6.41164651,10.6624378 6.33218705,10.5824108 6.23399786,10.5824108 L5.95134921,10.5824108 Z" id="Fill-17" fill="#333333"></path>
                <path d="M6.23399786,13.6512486 L5.95134921,13.6512486 C5.62045732,13.6512486 5.35143029,13.3822216 5.35143029,13.0524649 L5.35143029,10.7600595 C5.35143029,10.4303027 5.62045732,10.1618432 5.95134921,10.1618432 L6.23399786,10.1618432 C6.56432218,10.1618432 6.83278164,10.4303027 6.83278164,10.7600595 L6.83278164,13.0524649 C6.83278164,13.3822216 6.56432218,13.6512486 6.23399786,13.6512486 Z M5.95134921,10.5824108 C5.85486272,10.5824108 5.77313299,10.663573 5.77313299,10.7600595 L5.77313299,13.0524649 C5.77313299,13.1506541 5.85259245,13.2306811 5.95134921,13.2306811 L6.23399786,13.2306811 C6.33218705,13.2306811 6.41164651,13.1506541 6.41164651,13.0524649 L6.41164651,10.7600595 C6.41164651,10.6624378 6.33218705,10.5824108 6.23399786,10.5824108 L5.95134921,10.5824108 Z" id="Stroke-19" stroke="#B03232" stroke-width="0.3" fill="#B03232"></path>
                <path d="M14.904387,13.6512486 L14.6217384,13.6512486 C14.2908465,13.6512486 14.0218195,13.3822216 14.0218195,13.0524649 L14.0218195,10.7600595 C14.0218195,10.4303027 14.2908465,10.1618432 14.6217384,10.1618432 L14.904387,10.1618432 C15.2352789,10.1618432 15.5037384,10.4303027 15.5037384,10.7600595 L15.5037384,13.0524649 C15.5037384,13.3822216 15.2352789,13.6512486 14.904387,13.6512486 L14.904387,13.6512486 Z M14.6217384,10.5824108 C14.5252519,10.5824108 14.4435222,10.663573 14.4435222,10.7600595 L14.4435222,13.0524649 C14.4435222,13.1506541 14.5229816,13.2306811 14.6217384,13.2306811 L14.904387,13.2306811 C15.0031438,13.2306811 15.0826033,13.1506541 15.0826033,13.0524649 L15.0826033,10.7600595 C15.0826033,10.663573 15.0008735,10.5824108 14.904387,10.5824108 L14.6217384,10.5824108 Z" id="Fill-21" fill="#333333"></path>
                <path d="M14.904387,13.6512486 L14.6217384,13.6512486 C14.2908465,13.6512486 14.0218195,13.3822216 14.0218195,13.0524649 L14.0218195,10.7600595 C14.0218195,10.4303027 14.2908465,10.1618432 14.6217384,10.1618432 L14.904387,10.1618432 C15.2352789,10.1618432 15.5037384,10.4303027 15.5037384,10.7600595 L15.5037384,13.0524649 C15.5037384,13.3822216 15.2352789,13.6512486 14.904387,13.6512486 Z M14.6217384,10.5824108 C14.5252519,10.5824108 14.4435222,10.663573 14.4435222,10.7600595 L14.4435222,13.0524649 C14.4435222,13.1506541 14.5229816,13.2306811 14.6217384,13.2306811 L14.904387,13.2306811 C15.0031438,13.2306811 15.0826033,13.1506541 15.0826033,13.0524649 L15.0826033,10.7600595 C15.0826033,10.663573 15.0008735,10.5824108 14.904387,10.5824108 L14.6217384,10.5824108 Z" id="Stroke-23" stroke="#B03232" stroke-width="0.3" fill="#B03232"></path>
                <path d="M10.2590735,14.9576189 C9.23972218,14.9576189 8.56545191,14.5160514 8.52345191,14.4882405 C8.42696542,14.4235378 8.40199245,14.2935649 8.46612759,14.1965108 C8.53139786,14.0994568 8.66250596,14.0744838 8.75728975,14.1386189 C8.81291137,14.1755108 10.1268303,15.0240243 11.8550735,14.1267 C11.9583708,14.0716459 12.085506,14.1136459 12.1388573,14.2163757 C12.1922087,14.319673 12.1524789,14.4468081 12.0491816,14.5001595 C11.3879654,14.8435378 10.7783979,14.9576189 10.2590735,14.9576189" id="Fill-25" fill="#333333"></path>
                <path d="M10.2590735,14.9576189 C9.23972218,14.9576189 8.56545191,14.5160514 8.52345191,14.4882405 C8.42696542,14.4235378 8.40199245,14.2935649 8.46612759,14.1965108 C8.53139786,14.0994568 8.66250596,14.0744838 8.75728975,14.1386189 C8.81291137,14.1755108 10.1268303,15.0240243 11.8550735,14.1267 C11.9583708,14.0716459 12.085506,14.1136459 12.1388573,14.2163757 C12.1922087,14.319673 12.1524789,14.4468081 12.0491816,14.5001595 C11.3879654,14.8435378 10.7783979,14.9576189 10.2590735,14.9576189 Z" id="Stroke-27" stroke="#B03232" stroke-width="0.3" fill="#B03232"></path>
                <path d="M10.3355816,7.82034324 C10.3174195,7.82034324 10.2992573,7.81750541 10.2805276,7.8123973 L3.97825732,6.11820811 C3.88517624,6.09323514 3.8210411,6.00866757 3.82217624,5.91218108 C3.82331137,5.81626216 3.89085191,5.7333973 3.98393299,5.71069459 L10.2334195,4.20947838 C10.266906,4.2021 10.30096,4.2021 10.3338789,4.21061351 L16.4953925,5.76461351 C16.587906,5.78788378 16.6531762,5.87074865 16.6543114,5.9661 C16.6548789,6.06201892 16.5907438,6.14601892 16.4976627,6.17155946 L10.3900681,7.8123973 C10.371906,7.81750541 10.3537438,7.82034324 10.3355816,7.82034324 L10.3355816,7.82034324 Z M4.88579786,5.92693784 L10.3355816,7.39182973 L15.6088519,5.97461351 L10.2810952,4.63118108 L4.88579786,5.92693784 Z" id="Fill-29" fill="#333333"></path>
                <path d="M10.3355816,7.82034324 C10.3174195,7.82034324 10.2992573,7.81750541 10.2805276,7.8123973 L3.97825732,6.11820811 C3.88517624,6.09323514 3.8210411,6.00866757 3.82217624,5.91218108 C3.82331137,5.81626216 3.89085191,5.7333973 3.98393299,5.71069459 L10.2334195,4.20947838 C10.266906,4.2021 10.30096,4.2021 10.3338789,4.21061351 L16.4953925,5.76461351 C16.587906,5.78788378 16.6531762,5.87074865 16.6543114,5.9661 C16.6548789,6.06201892 16.5907438,6.14601892 16.4976627,6.17155946 L10.3900681,7.8123973 C10.371906,7.81750541 10.3537438,7.82034324 10.3355816,7.82034324 Z M4.88579786,5.92693784 L10.3355816,7.39182973 L15.6088519,5.97461351 L10.2810952,4.63118108 L4.88579786,5.92693784 Z" id="Stroke-31" stroke="#B03232" stroke-width="0.3" fill="#B03232"></path>
                <path d="M10.4885411,9.27972973 C8.23700056,9.27972973 6.70229786,8.63043243 6.60808164,8.59013514 C6.53146002,8.55721622 6.48151407,8.48172973 6.48094651,8.3982973 L6.47243299,6.64735135 C6.47186542,6.58208108 6.50308164,6.52078378 6.55359515,6.47991892 C6.60581137,6.43962162 6.67108164,6.42713514 6.73691948,6.44302703 L10.3358654,7.39256757 L14.0642168,6.44302703 C14.1249465,6.42486486 14.1930546,6.43962162 14.2441357,6.48048649 C14.2957843,6.52078378 14.3258654,6.58151351 14.3258654,6.64621622 L14.3258654,8.48002703 C14.3258654,8.57027027 14.2679735,8.65086486 14.1822708,8.67924324 C12.8382708,9.12705405 11.5788384,9.27972973 10.4885411,9.27972973 L10.4885411,9.27972973 Z M6.90151407,8.253 C7.53208164,8.48627027 10.445406,9.4272973 13.9058654,8.32621622 L13.9058654,6.91751351 L10.3869465,7.8137027 C10.3528925,7.82278378 10.3160006,7.82164865 10.2819465,7.81313514 L6.89413569,6.91978378 L6.90151407,8.253 Z" id="Fill-33" fill="#333333"></path>
                <path d="M10.4885411,9.27972973 C8.23700056,9.27972973 6.70229786,8.63043243 6.60808164,8.59013514 C6.53146002,8.55721622 6.48151407,8.48172973 6.48094651,8.3982973 L6.47243299,6.64735135 C6.47186542,6.58208108 6.50308164,6.52078378 6.55359515,6.47991892 C6.60581137,6.43962162 6.67108164,6.42713514 6.73691948,6.44302703 L10.3358654,7.39256757 L14.0642168,6.44302703 C14.1249465,6.42486486 14.1930546,6.43962162 14.2441357,6.48048649 C14.2957843,6.52078378 14.3258654,6.58151351 14.3258654,6.64621622 L14.3258654,8.48002703 C14.3258654,8.57027027 14.2679735,8.65086486 14.1822708,8.67924324 C12.8382708,9.12705405 11.5788384,9.27972973 10.4885411,9.27972973 Z M6.90151407,8.253 C7.53208164,8.48627027 10.445406,9.4272973 13.9058654,8.32621622 L13.9058654,6.91751351 L10.3869465,7.8137027 C10.3528925,7.82278378 10.3160006,7.82164865 10.2819465,7.81313514 L6.89413569,6.91978378 L6.90151407,8.253 Z" id="Stroke-35" stroke="#B03232" stroke-width="0.3" fill="#B03232"></path>
                <path d="M4.14052488,6.01235676 L4.14052488,9.21968108" id="Stroke-39" stroke="#333333" stroke-width="0.3"></path>
                <path d="M4.14109245,9.42996486 C4.0247411,9.42996486 3.93052488,9.33574865 3.93052488,9.21996486 L3.93052488,6.01264054 C3.93052488,5.89572162 4.0247411,5.80150541 4.14109245,5.80150541 C4.25687624,5.80150541 4.35109245,5.89572162 4.35109245,6.01264054 L4.35109245,9.21996486 C4.35109245,9.33574865 4.25687624,9.42996486 4.14109245,9.42996486" id="Fill-41" fill="#333333"></path>
                <path d="M4.14109245,9.42996486 C4.0247411,9.42996486 3.93052488,9.33574865 3.93052488,9.21996486 L3.93052488,6.01264054 C3.93052488,5.89572162 4.0247411,5.80150541 4.14109245,5.80150541 C4.25687624,5.80150541 4.35109245,5.89572162 4.35109245,6.01264054 L4.35109245,9.21996486 C4.35109245,9.33574865 4.25687624,9.42996486 4.14109245,9.42996486 Z" id="Stroke-43" stroke="#B03232" stroke-width="0.3" fill="#B03232"></path>
                <path d="M4.45813569,10.839973 L3.88375732,10.839973 C3.71405461,10.839973 3.5585411,10.7537027 3.46829786,10.6095405 C3.37862218,10.4653784 3.36897353,10.2871622 3.44332488,10.1344865 L3.97456813,9.18664865 C4.01146002,9.12137838 4.08070326,9.07994595 4.15618975,9.07937838 L4.15732488,9.07937838 C4.23281137,9.07937838 4.30148705,9.11910811 4.33951407,9.18267568 L4.88891948,10.1151892 C4.97291948,10.2792162 4.96667624,10.458 4.87586542,10.6055676 C4.78675732,10.752 4.63067624,10.839973 4.45813569,10.839973 L4.45813569,10.839973 Z M4.16243299,9.71164865 L3.81564921,10.3297297 C3.80713569,10.3495946 3.81735191,10.3745676 3.82529786,10.3864865 C3.83267624,10.398973 3.85027083,10.4188378 3.88375732,10.4188378 L4.45813569,10.4188378 C4.49275732,10.4188378 4.50978434,10.3984054 4.51716272,10.3859189 C4.52510867,10.3734324 4.53589245,10.3473243 4.52000056,10.3178108 L4.16243299,9.71164865 Z" id="Fill-45" fill="#333333"></path>
                <path d="M4.45813569,10.839973 L3.88375732,10.839973 C3.71405461,10.839973 3.5585411,10.7537027 3.46829786,10.6095405 C3.37862218,10.4653784 3.36897353,10.2871622 3.44332488,10.1344865 L3.97456813,9.18664865 C4.01146002,9.12137838 4.08070326,9.07994595 4.15618975,9.07937838 L4.15732488,9.07937838 C4.23281137,9.07937838 4.30148705,9.11910811 4.33951407,9.18267568 L4.88891948,10.1151892 C4.97291948,10.2792162 4.96667624,10.458 4.87586542,10.6055676 C4.78675732,10.752 4.63067624,10.839973 4.45813569,10.839973 Z M4.16243299,9.71164865 L3.81564921,10.3297297 C3.80713569,10.3495946 3.81735191,10.3745676 3.82529786,10.3864865 C3.83267624,10.398973 3.85027083,10.4188378 3.88375732,10.4188378 L4.45813569,10.4188378 C4.49275732,10.4188378 4.50978434,10.3984054 4.51716272,10.3859189 C4.52510867,10.3734324 4.53589245,10.3473243 4.52000056,10.3178108 L4.16243299,9.71164865 Z" id="Stroke-47" stroke="#B03232" stroke-width="0.3" fill="#B03232"></path>
                <path d="M10.2380168,20.8677568 C8.10680056,20.8677568 5.97785461,20.1974595 4.16844921,18.8602703 C4.07480056,18.791027 4.05436813,18.6587838 4.12417894,18.5657027 C4.19455732,18.4720541 4.32623299,18.4538919 4.41817894,18.5214324 C7.85196272,21.0601622 12.487287,21.0913784 15.9539897,18.5969189 C16.0470708,18.5288108 16.1804492,18.5498108 16.2485573,18.6445946 C16.3160979,18.7393784 16.2950979,18.8704865 16.2003141,18.9385946 C14.4119087,20.2252703 12.3243952,20.8677568 10.2380168,20.8677568" id="Fill-49" stroke="#B03232" stroke-width="0.3" fill="#B03232"></path>
                <path d="M15.6858708,20.8638973 C15.6716816,20.8638973 15.6569249,20.8627622 15.6427357,20.8593568 C15.5292222,20.8360865 15.4554384,20.7248432 15.4798438,20.6107622 L15.8288979,18.9313297 L14.0949789,18.5709243 C13.9814654,18.5476541 13.9082492,18.4358432 13.9315195,18.3223297 C13.9553573,18.2082486 14.0694384,18.131627 14.1806816,18.1588703 L16.12006,18.5618432 C16.1745465,18.5731946 16.2222222,18.6055459 16.2534384,18.6526541 C16.2846546,18.6997622 16.2943033,18.7559514 16.2835195,18.8104378 L15.8907627,20.6964649 C15.8708979,20.7957892 15.7834925,20.8638973 15.6858708,20.8638973" id="Fill-51" stroke="#B03232" stroke-width="0.3" fill="#B03232"></path>
                <path d="M18.2998033,16.7850162 C18.2561006,16.7850162 18.2123979,16.7713946 18.1749384,16.7441514 C18.0812897,16.6749081 18.0614249,16.5426649 18.1301006,16.4495838 C20.6693979,13.0152324 20.7000465,8.37990811 18.2061546,4.91320541 C18.1380465,4.81898919 18.1596141,4.68788108 18.2538303,4.61920541 C18.3474789,4.5510973 18.4791546,4.5720973 18.5478303,4.66744865 C21.1489925,8.28342162 21.1172087,13.1179622 18.4689384,16.6998811 C18.427506,16.7549351 18.3633708,16.7850162 18.2998033,16.7850162" id="Fill-53" stroke="#B03232" stroke-width="0.3" fill="#B03232"></path>
                <path d="M17.973906,6.94015946 C17.9591492,6.94015946 17.94496,6.93902432 17.9307708,6.93561892 C17.8172573,6.91234865 17.7434735,6.80110541 17.7678789,6.68702432 L18.1714195,4.74764595 C18.1946897,4.63356486 18.3076357,4.55978108 18.4194465,4.58475405 L20.3054735,4.97637568 C20.418987,4.99964595 20.4922033,5.11145676 20.468933,5.22553784 C20.4450952,5.33961892 20.3321492,5.41283514 20.2197708,5.38842973 L18.5403384,5.03880811 L18.1787979,6.77272703 C18.158933,6.87205135 18.0715276,6.94015946 17.973906,6.94015946" id="Fill-55" stroke="#B03232" stroke-width="0.3" fill="#B03232"></path>
                <g id="Group-59" transform="translate(3.972922, 0.000000)" fill="#B03232" stroke="#B03232" stroke-width="0.3">
                    <path d="M12.2107054,2.77875405 C12.1670027,2.77875405 12.1233,2.76513243 12.0858405,2.73788919 C8.65148919,0.198591892 4.01616486,0.168510811 0.548894595,2.66183514 C0.454678378,2.72880811 0.323002703,2.70724054 0.255462162,2.61359189 C0.187354054,2.51880811 0.208921622,2.3877 0.303137838,2.31959189 C3.91911081,-0.279867568 8.75421892,-0.249786486 12.3355703,2.39905135 C12.4292189,2.46772703 12.4490838,2.59997027 12.3798405,2.69305135 C12.3384081,2.74867297 12.274273,2.77875405 12.2107054,2.77875405" id="Fill-57"></path>
                </g>
                <path d="M6.33928164,3.10465135 C6.32509245,3.10465135 6.31033569,3.10351622 6.29614651,3.10011081 L4.35676813,2.69657027 C4.24268705,2.6733 4.1700384,2.56205676 4.19387624,2.44797568 L4.58549786,0.562516216 C4.60876813,0.448435135 4.72284921,0.372948649 4.83409245,0.399624324 C4.94817353,0.422894595 5.02082218,0.534705405 4.99755191,0.648218919 L4.64849786,2.32765135 L6.38184921,2.68862432 C6.49536272,2.71246216 6.56857894,2.82313784 6.5447411,2.93721892 C6.52430867,3.03654324 6.43690326,3.10465135 6.33928164,3.10465135" id="Fill-60" stroke="#B03232" stroke-width="0.3" fill="#B03232"></path>
                <path d="M2.09972218,16.6785973 C2.03445191,16.6785973 1.96974921,16.6479486 1.92888434,16.5911919 C-0.671710251,12.9763541 -0.639926468,8.14067838 2.00777624,4.55875946 C2.07872218,4.46567838 2.21039786,4.44751622 2.30177624,4.51448919 C2.39542488,4.58373243 2.41528975,4.71597568 2.34661407,4.80905676 C-0.192683224,8.24340811 -0.223331873,12.8793 2.27112759,16.3454351 C2.33866813,16.4402189 2.31766813,16.571327 2.22288434,16.6394351 C2.18599245,16.6661108 2.14228975,16.6785973 2.09972218,16.6785973" id="Fill-62" stroke="#B03232" stroke-width="0.3" fill="#B03232"></path>
                <path d="M2.09972218,16.6785973 C2.08553299,16.6785973 2.07077624,16.6774622 2.05715461,16.6740568 L0.171695154,16.2824351 C0.0576140729,16.2585973 -0.0161697109,16.1473541 0.00823569452,16.033273 C0.0315059648,15.9191919 0.146722181,15.8454081 0.256830289,15.8703811 L1.93683029,16.2194351 L2.29723569,14.4866514 C2.32107353,14.3725703 2.43345191,14.2965162 2.54583029,14.3237595 C2.6593438,14.3470297 2.73256002,14.458273 2.70872218,14.5717865 L2.30518164,16.5111649 C2.29496542,16.5656514 2.26147894,16.6138946 2.2149384,16.6439757 C2.18088434,16.6666784 2.14001948,16.6785973 2.09972218,16.6785973" id="Fill-64" stroke="#B03232" stroke-width="0.3" fill="#B03232"></path>
            </g>
        </g>
    </g>
</svg>