<svg xmlns="http://www.w3.org/2000/svg" width="62" height="36" viewBox="0 0 62 36">
  <metadata><?xpacket begin="﻿" id="W5M0MpCehiHzreSzNTczkc9d"?>
<x:xmpmeta xmlns:x="adobe:ns:meta/" x:xmptk="Adobe XMP Core 5.6-c138 79.159824, 2016/09/14-01:09:01        ">
   <rdf:RDF xmlns:rdf="http://www.w3.org/1999/02/22-rdf-syntax-ns#">
      <rdf:Description rdf:about=""/>
   </rdf:RDF>
</x:xmpmeta>
                                                                                                    
                                                                                                    
                                                                                                    
                                                                                                    
                                                                                                    
                                                                                                    
                                                                                                    
                                                                                                    
                                                                                                    
                                                                                                    
                                                                                                    
                                                                                                    
                                                                                                    
                                                                                                    
                                                                                                    
                                                                                                    
                                                                                                    
                                                                                                    
                                                                                                    
                                                                                                    
                           
<?xpacket end="w"?></metadata>
<defs>
    <style>
      .cls-1, .cls-2, .cls-3 {
        fill-rule: evenodd;
      }

      .cls-2, .cls-3 {
        fill: #666;
      }

      .cls-3 {
        stroke: #666;
        stroke-width: 1px;
      }
    </style>
  </defs>
  <path class="cls-1" d="M18,10a8,8,0,1,0,8,8A8,8,0,0,0,18,10Zm0.8,12.8H17.2V16.4h1.6v6.4Zm0-8H17.2V13.2h1.6v1.6Z"/>
  <path class="cls-1" d="M911.84,347.186h1.777v6.1H911.84v-6.1Z"/>
  <path class="cls-1" d="M911.84,343.864h1.777v1.778H911.84v-1.778Z"/>
  <path class="cls-2" d="M913,342a7,7,0,1,1-7,7,7.008,7.008,0,0,1,7-7m0-1a8,8,0,1,0,8,8,8,8,0,0,0-8-8h0Z"/>
  <path class="cls-2" d="M42.84,16.186h1.778v6.1H42.84v-6.1Z"/>
  <path class="cls-2" d="M42.84,12.864h1.778v1.778H42.84V12.864Z"/>
  <path class="cls-3" d="M44,11a7,7,0,1,1-7,7,7.008,7.008,0,0,1,7-7m0-1a8,8,0,1,0,8,8,8,8,0,0,0-8-8h0Z"/>
</svg>
