<svg xmlns="http://www.w3.org/2000/svg" width="321" height="40" viewBox="0 0 321 40">
  <metadata><?xpacket begin="﻿" id="W5M0MpCehiHzreSzNTczkc9d"?>
<x:xmpmeta xmlns:x="adobe:ns:meta/" x:xmptk="Adobe XMP Core 5.6-c138 79.159824, 2016/09/14-01:09:01        ">
   <rdf:RDF xmlns:rdf="http://www.w3.org/1999/02/22-rdf-syntax-ns#">
      <rdf:Description rdf:about=""/>
   </rdf:RDF>
</x:xmpmeta>
                                                                                                    
                                                                                                    
                                                                                                    
                                                                                                    
                                                                                                    
                                                                                                    
                                                                                                    
                                                                                                    
                                                                                                    
                                                                                                    
                                                                                                    
                                                                                                    
                                                                                                    
                                                                                                    
                                                                                                    
                                                                                                    
                                                                                                    
                                                                                                    
                                                                                                    
                                                                                                    
                           
<?xpacket end="w"?></metadata>
<defs>
    <style>
      .cls-1, .cls-4 {
        fill: #fff;
      }

      .cls-1, .cls-2, .cls-3, .cls-5 {
        fill-rule: evenodd;
      }

      .cls-2, .cls-3, .cls-6, .cls-7, .cls-8 {
        fill: none;
      }

      .cls-2, .cls-3 {
        stroke: #fff;
      }

      .cls-2 {
        stroke-width: 1.5px;
      }

      .cls-3 {
        stroke-linecap: round;
        stroke-linejoin: round;
        stroke-width: 1.8px;
      }

      .cls-5 {
        fill: #00a5b5;
      }

      .cls-6 {
        stroke: #0592a0;
      }

      .cls-6, .cls-7, .cls-8 {
        stroke-width: 1px;
      }

      .cls-7 {
        stroke: #666;
      }

      .cls-8 {
        stroke: #ccc;
      }
    </style>
  </defs>
  <path id="Shiksha_logo_white" class="cls-1" d="M60.1,28.985a12.324,12.324,0,0,1-3.44-.454,0.157,0.157,0,0,0-.094-0.045,1.458,1.458,0,0,1-1.041-1.453v-2.18a8.972,8.972,0,0,0,4.254,1.09A11.086,11.086,0,0,0,61,25.849H61.09a1.492,1.492,0,0,0,.588-0.318,0.808,0.808,0,0,0,.181-0.228,1.21,1.21,0,0,0,.136-0.545,1.1,1.1,0,0,0-.408-0.817,0.34,0.34,0,0,1-.181-0.094A0.045,0.045,0,0,0,61.36,23.8a0.436,0.436,0,0,1-.226-0.094c-1.086-.5-2.172-0.954-3.259-1.453a6.7,6.7,0,0,1-1.131-.636,3.323,3.323,0,0,1-1.494-2.727V18.847c0-.136.046-0.272,0.046-0.409a4,4,0,0,1,3.529-3.405,10.91,10.91,0,0,1,1.131-.136,10.536,10.536,0,0,1,3.756.454,2.178,2.178,0,0,1,.317.136,0.708,0.708,0,0,1,.272.636v2.453H64.266a14.117,14.117,0,0,0-3.123-.636h-1c-0.226.045-.408,0.045-0.589,0.094a0.494,0.494,0,0,0-.227.045,0.342,0.342,0,0,0-.226.094H59.056a0.1,0.1,0,0,0-.094.045,0.753,0.753,0,0,0-.227.544,0.8,0.8,0,0,0,.362.681H59c1.086,0.544,2.217,1,3.3,1.5a5.811,5.811,0,0,1,1.357.862,3.882,3.882,0,0,1,1.312,2.361V24.3a2.028,2.028,0,0,1-.045.909A4.125,4.125,0,0,1,61.447,28.8a12.166,12.166,0,0,1-1.267.181Zm-45.253,0a12.325,12.325,0,0,1-3.44-.454,0.157,0.157,0,0,0-.094-0.045,1.458,1.458,0,0,1-1.041-1.453v-2.18a8.971,8.971,0,0,0,4.254,1.09,11.086,11.086,0,0,0,1.218-.094h0.094a1.492,1.492,0,0,0,.589-0.318,0.817,0.817,0,0,0,.181-0.228,1.21,1.21,0,0,0,.136-0.545,1.1,1.1,0,0,0-.408-0.817,0.342,0.342,0,0,1-.181-0.094A0.044,0.044,0,0,0,16.11,23.8a0.436,0.436,0,0,1-.226-0.094c-1.086-.5-2.172-0.954-3.259-1.453a6.709,6.709,0,0,1-1.131-.636A3.323,3.323,0,0,1,10,18.892V18.438a4,4,0,0,1,3.53-3.405,10.913,10.913,0,0,1,1.131-.136,10.535,10.535,0,0,1,3.756.454,2.2,2.2,0,0,1,.317.136,0.708,0.708,0,0,1,.271.636v2.453H18.96a14.113,14.113,0,0,0-3.122-.636h-1c-0.226.045-.408,0.045-0.589,0.094a0.491,0.491,0,0,0-.227.045,0.342,0.342,0,0,0-.226.094H13.756c-0.046,0-.094.045-0.046,0.045a0.754,0.754,0,0,0-.226.544,0.8,0.8,0,0,0,.362.681H13.752c1.086,0.544,2.217,1,3.3,1.5a5.81,5.81,0,0,1,1.357.862,3.883,3.883,0,0,1,1.312,2.361V24.3a2.026,2.026,0,0,1-.045.909A4.126,4.126,0,0,1,16.2,28.8a12.159,12.159,0,0,1-1.267.181Zm72.091-.135a6.781,6.781,0,0,1-4.073-2.5,7.072,7.072,0,0,1,.094-8.991,6.825,6.825,0,0,1,9.372-1.135V15.176H95V28.708a4.064,4.064,0,0,1-2.67-1.181,6.2,6.2,0,0,1-4,1.45,7.523,7.523,0,0,1-1.393-.128h0Zm1.312-10.944a4.065,4.065,0,0,0-3.936,4.087,4,4,0,1,0,4.015-4.084ZM51.729,28.758a2.084,2.084,0,0,1-1.674-.726l-4.254-5.9c0-.045,4.254-5.948,4.254-5.948a2.156,2.156,0,0,1,1.674-.727h2.53l-4.843,6.583,4.843,6.72ZM77.3,28.664a1.054,1.054,0,0,1-1.131-1.09V19.9a1.5,1.5,0,0,0-1.131-1.68,5.366,5.366,0,0,0-3.575,0,1.529,1.529,0,0,0-1.218,1.726v8.719H67.254V10.409h2.987v5.172c0.272-.094.5-0.136,0.725-0.227a6.865,6.865,0,0,1,6.155.591,4.284,4.284,0,0,1,2.037,3.543V28.66Zm-34.529,0V10.41h2.987V28.664H42.768Zm-4.8,0a1.054,1.054,0,0,1-1.131-1.09V15.223h2.987V28.664H37.971Zm-15.932,0V10.41h2.987v5.172c0.272-.094.5-0.136,0.725-0.227a6.865,6.865,0,0,1,6.155.591,4.284,4.284,0,0,1,2.037,3.543v9.128H32.085a1.054,1.054,0,0,1-1.131-1.09V19.853a1.5,1.5,0,0,0-1.131-1.681,5.365,5.365,0,0,0-3.576,0A1.528,1.528,0,0,0,25.029,19.9v8.764ZM36.611,11.817A1.81,1.81,0,0,1,38.376,10a1.761,1.761,0,0,1,1.72,1.771,1.7,1.7,0,0,1-1.675,1.771,1.771,1.771,0,0,1-1.81-1.725v0Z"/>
  <path class="cls-1" d="M120.357,24.009H105.645A0.65,0.65,0,0,1,105,23.351V22.136a0.65,0.65,0,0,1,.642-0.658h14.712a0.65,0.65,0,0,1,.641.658v1.215A0.65,0.65,0,0,1,120.357,24.009Zm0-5.741H105.645A0.65,0.65,0,0,1,105,17.61V16.4a0.65,0.65,0,0,1,.642-0.658h14.712A0.65,0.65,0,0,1,121,16.4V17.61A0.65,0.65,0,0,1,120.357,18.269Zm0-5.741H105.645A0.65,0.65,0,0,1,105,11.87V10.654A0.65,0.65,0,0,1,105.645,10h14.712a0.65,0.65,0,0,1,.641.658V11.87A0.65,0.65,0,0,1,120.357,12.528Z"/>
  <path class="cls-2" d="M148,23.17v1.609h-5.714a2.287,2.287,0,0,1-4.572,0H132V23.17c3.906-1.209,1.755-8.087,5.49-10.156a1.587,1.587,0,0,0,.836-1.392V11.614a1.675,1.675,0,0,1,3.348,0v0.009a1.6,1.6,0,0,0,.836,1.392C146.245,15.084,144.094,21.962,148,23.17Z"/>
  <path id="Polygon_1" data-name="Polygon 1" class="cls-3" d="M159.879,10.792h15.242a1.09,1.09,0,0,1,1.089,1.091V22.788a1.09,1.09,0,0,1-1.089,1.09h-4.576l-2.793,3.338-2.965-3.338h-4.908a1.09,1.09,0,0,1-1.089-1.09v-10.9A1.09,1.09,0,0,1,159.879,10.792Z"/>
  <path class="cls-1" d="M164.509,20.12l-0.332-1.278h-1.668l-0.332,1.278h-1.045l1.615-5.392h1.187l1.62,5.392h-1.045Zm-0.563-2.234q-0.46-1.736-.519-1.965c-0.038-.152-0.065-0.271-0.082-0.359q-0.1.47-.591,2.324h1.192Zm5.142,0.742a1.492,1.492,0,0,1-.446,1.146,1.738,1.738,0,0,1-1.241.419,2.561,2.561,0,0,1-1.3-.323V18.812a4.849,4.849,0,0,0,.784.342,2.013,2.013,0,0,0,.587.1,0.747,0.747,0,0,0,.491-0.144,0.6,0.6,0,0,0,.095-0.706,0.917,0.917,0,0,0-.222-0.237,5.283,5.283,0,0,0-.593-0.364,2.8,2.8,0,0,1-.629-0.444,1.652,1.652,0,0,1-.335-0.5,1.63,1.63,0,0,1-.125-0.661,1.506,1.506,0,0,1,.412-1.12,1.547,1.547,0,0,1,1.138-.408,2.275,2.275,0,0,1,.68.1,4.237,4.237,0,0,1,.678.278l-0.312.885a4.33,4.33,0,0,0-.606-0.246,1.7,1.7,0,0,0-.472-0.07,0.567,0.567,0,0,0-.422.15,0.6,0.6,0,0,0-.087.656,0.726,0.726,0,0,0,.188.216,5.873,5.873,0,0,0,.616.377,2.488,2.488,0,0,1,.879.722A1.575,1.575,0,0,1,169.088,18.628Zm4.768,1.492h-1.1l-1.2-2.262-0.409.344V20.12h-0.971V14.751h0.971v2.457l0.381-.633,1.239-1.824h1.078l-1.6,2.376Z"/>
  <path class="cls-1" d="M204.788,25.159l-3.933-3.927-0.562-.561c-0.022-.023-0.048-0.038-0.072-0.059a7.037,7.037,0,0,0,.853-4.747,7.087,7.087,0,1,0-3.489,7.359c0.024,0.027.042,0.058,0.069,0.084l0.562,0.561,3.932,3.927a0.606,0.606,0,0,0,.856,0l1.784-1.781A0.6,0.6,0,0,0,204.788,25.159ZM194.1,22.2a5.127,5.127,0,1,1,5.133-5.127A5.131,5.131,0,0,1,194.1,22.2Z"/>
  <rect class="cls-4" x="218.688" y="16.188" width="14.312" height="2.625"/>
  <path class="cls-1" d="M224.947,24l-6.263-6.5,6.263-6.5h-2.684l-6.257,6.477L222.263,24"/>
  <path class="cls-5" d="M244.99,18.817l1.349-1.639,3.294,2.8,5.75-6.994L257,14.365l-7.1,8.643Z"/>
  <rect class="cls-6" x="243" y="10" width="16" height="16"/>
  <rect id="Rectangle_1_copy" data-name="Rectangle 1 copy" class="cls-7" x="269" y="10" width="16" height="16"/>
  <rect id="Rectangle_1_copy_2" data-name="Rectangle 1 copy 2" class="cls-8" x="295" y="10" width="16" height="16"/>
</svg>
