<?xml version="1.0" encoding="utf-8"?>
<!-- Generator: Adobe Illustrator 20.0.0, SVG Export Plug-In . SVG Version: 6.00 Build 0)  -->
<svg version="1.1" id="Layer_1" xmlns="http://www.w3.org/2000/svg" xmlns:xlink="http://www.w3.org/1999/xlink" x="0px" y="0px"
	 width="394px" height="40px" viewBox="0 0 394 40" style="enable-background:new 0 0 394 40;" xml:space="preserve">
<style type="text/css">
	.st0{fill:#FFFFFF;}
	.st1{fill:none;stroke:#FFFFFF;stroke-width:1.5;}
	.st2{fill:none;stroke:#FFFFFF;stroke-width:1.8;stroke-linecap:round;stroke-linejoin:round;}
	.st3{fill:#00A5B5;}
	.st4{fill:none;stroke:#0592A0;}
	.st5{fill:none;stroke:#666666;}
	.st6{fill:none;stroke:#E02727;}
	.st7{fill:none;stroke:#CCCCCC;}
</style>
<path id="Shiksha_logo_white" class="st0" d="M60.1,29c-1.2,0-2.3-0.1-3.4-0.5c0,0-0.1,0-0.1,0c-0.6-0.2-1.1-0.8-1-1.5v-2.2
	c1.3,0.7,2.8,1.1,4.3,1.1c0.4,0,0.8,0,1.2-0.1h0.1c0.2-0.1,0.4-0.2,0.6-0.3c0.1-0.1,0.1-0.1,0.2-0.2c0.1-0.2,0.1-0.4,0.1-0.5
	c0-0.3-0.2-0.6-0.4-0.8c-0.1,0-0.1,0-0.2-0.1c0,0,0,0,0,0c0,0,0,0,0,0c-0.1,0-0.2,0-0.2-0.1c-1.1-0.5-2.2-1-3.3-1.5
	c-0.4-0.2-0.8-0.4-1.1-0.6c-0.9-0.6-1.5-1.6-1.5-2.7v0c0-0.1,0-0.3,0-0.4c0.3-1.8,1.7-3.2,3.5-3.4c0.4-0.1,0.8-0.1,1.1-0.1
	c1.3-0.1,2.5,0.1,3.8,0.5c0.1,0,0.2,0.1,0.3,0.1c0.2,0.2,0.3,0.4,0.3,0.6v2.5h0c-1-0.3-2.1-0.5-3.1-0.6h-1c-0.2,0-0.4,0-0.6,0.1
	c-0.1,0-0.2,0-0.2,0c-0.1,0-0.2,0-0.2,0.1h0c0,0-0.1,0-0.1,0c-0.1,0.1-0.2,0.3-0.2,0.5c0,0.3,0.1,0.5,0.4,0.7H59
	c1.1,0.5,2.2,1,3.3,1.5c0.5,0.2,0.9,0.5,1.4,0.9c0.7,0.6,1.2,1.4,1.3,2.4v0.1c0.1,0.3,0,0.6,0,0.9c-0.2,1.8-1.6,3.3-3.5,3.6
	C61,28.9,60.6,28.9,60.1,29L60.1,29z M14.8,29c-1.2,0-2.3-0.1-3.4-0.5c0,0-0.1,0-0.1,0c-0.6-0.2-1.1-0.8-1-1.5v-2.2
	c1.3,0.7,2.8,1.1,4.3,1.1c0.4,0,0.8,0,1.2-0.1h0.1c0.2-0.1,0.4-0.2,0.6-0.3c0.1-0.1,0.1-0.1,0.2-0.2c0.1-0.2,0.1-0.4,0.1-0.5
	c0-0.3-0.2-0.6-0.4-0.8c-0.1,0-0.1,0-0.2-0.1c0,0,0,0,0,0c0,0,0,0,0,0c-0.1,0-0.2,0-0.2-0.1c-1.1-0.5-2.2-1-3.3-1.5
	c-0.4-0.2-0.8-0.4-1.1-0.6C10.6,21,10,20,10,18.9v-0.5c0.3-1.8,1.7-3.2,3.5-3.4c0.4-0.1,0.8-0.1,1.1-0.1c1.3-0.1,2.5,0.1,3.8,0.5
	c0.1,0,0.2,0.1,0.3,0.1c0.2,0.2,0.3,0.4,0.3,0.6v2.5h0c-1-0.3-2.1-0.5-3.1-0.6h-1c-0.2,0-0.4,0-0.6,0.1c-0.1,0-0.2,0-0.2,0
	c-0.1,0-0.2,0-0.2,0.1h0c0,0-0.1,0,0,0c-0.1,0.1-0.2,0.3-0.2,0.5c0,0.3,0.1,0.5,0.4,0.7h-0.1c1.1,0.5,2.2,1,3.3,1.5
	c0.5,0.2,0.9,0.5,1.4,0.9c0.7,0.6,1.2,1.4,1.3,2.4v0.1c0.1,0.3,0,0.6,0,0.9c-0.2,1.8-1.6,3.3-3.5,3.6C15.8,28.9,15.4,28.9,14.8,29
	L14.8,29z M86.9,28.9c-1.6-0.3-3.1-1.2-4.1-2.5c-2.1-2.6-2.1-6.4,0.1-9c2.3-2.8,6.4-3.3,9.4-1.1v-1H95v13.5c-1,0-2-0.5-2.7-1.2
	c-1.1,0.9-2.5,1.5-4,1.5C87.9,29,87.4,28.9,86.9,28.9L86.9,28.9L86.9,28.9z M88.3,17.9C86,18,84.3,19.8,84.3,22c0,2.2,1.9,4,4.1,3.9
	c2.2,0,4-1.9,3.9-4.1C92.3,19.7,90.5,17.9,88.3,17.9L88.3,17.9z M51.7,28.8c-0.6,0-1.3-0.2-1.7-0.7l-4.3-5.9c0,0,4.3-5.9,4.3-5.9
	c0.4-0.5,1-0.7,1.7-0.7h2.5L49.4,22l4.8,6.7L51.7,28.8z M77.3,28.7c-0.6,0-1.1-0.4-1.1-1c0,0,0-0.1,0-0.1v-7.7
	c0.1-0.8-0.4-1.5-1.1-1.7c-1.2-0.4-2.4-0.4-3.6,0c-0.8,0.2-1.3,0.9-1.2,1.7v8.7h-3V10.4h3v5.2c0.3-0.1,0.5-0.1,0.7-0.2
	c2-0.8,4.3-0.6,6.2,0.6c1.2,0.8,2,2.1,2,3.5v9.2L77.3,28.7z M42.8,28.7V10.4h3v18.3H42.8L42.8,28.7z M38,28.7c-0.6,0-1.1-0.4-1.1-1
	c0,0,0-0.1,0-0.1V15.2h3v13.4C39.8,28.7,38,28.7,38,28.7z M22,28.7V10.4h3v5.2c0.3-0.1,0.5-0.1,0.7-0.2c2-0.8,4.3-0.6,6.2,0.6
	c1.2,0.8,2,2.1,2,3.5v9.1h-1.9c-0.6,0-1.1-0.4-1.1-1c0,0,0-0.1,0-0.1v-7.7c0.1-0.8-0.4-1.5-1.1-1.7c-1.2-0.4-2.4-0.4-3.6,0
	c-0.8,0.2-1.3,0.9-1.2,1.7v8.8H22z M36.6,11.8c0-1,0.8-1.8,1.8-1.8c1,0,1.7,0.8,1.7,1.8c0,0.9-0.7,1.7-1.6,1.8c0,0,0,0,0,0
	C37.4,13.6,36.6,12.8,36.6,11.8C36.6,11.8,36.6,11.8,36.6,11.8z"/>
<path class="st0" d="M120.4,24h-14.7c-0.4,0-0.6-0.3-0.6-0.7c0,0,0,0,0,0v-1.2c0-0.4,0.3-0.7,0.6-0.7c0,0,0,0,0,0h14.7
	c0.4,0,0.6,0.3,0.6,0.7v1.2C121,23.7,120.7,24,120.4,24z M120.4,18.3h-14.7c-0.4,0-0.6-0.3-0.6-0.7c0,0,0,0,0,0v-1.2
	c0-0.4,0.3-0.7,0.6-0.7c0,0,0,0,0,0h14.7c0.4,0,0.6,0.3,0.6,0.7c0,0,0,0,0,0v1.2C121,18,120.7,18.3,120.4,18.3
	C120.4,18.3,120.4,18.3,120.4,18.3L120.4,18.3z M120.4,12.5h-14.7c-0.4,0-0.6-0.3-0.6-0.7c0,0,0,0,0,0v-1.2c0-0.4,0.3-0.7,0.6-0.7
	h14.7c0.4,0,0.6,0.3,0.6,0.7v1.2C121,12.2,120.7,12.5,120.4,12.5L120.4,12.5z"/>
<path class="st1" d="M148,23.2v1.6h-5.7c0,1.3-1.1,2.3-2.4,2.2c-1.2,0-2.2-1-2.2-2.2H132v-1.6c3.9-1.2,1.8-8.1,5.5-10.2
	c0.5-0.3,0.8-0.8,0.8-1.4v0c0-0.9,0.8-1.6,1.7-1.6c0.9,0,1.6,0.7,1.6,1.6v0c0,0.6,0.3,1.1,0.8,1.4C146.2,15.1,144.1,22,148,23.2z"/>
<path id="Polygon_1" class="st2" d="M159.9,10.8h15.2c0.6,0,1.1,0.5,1.1,1.1c0,0,0,0,0,0v10.9c0,0.6-0.5,1.1-1.1,1.1h-4.6l-2.8,3.3
	l-3-3.3h-4.9c-0.6,0-1.1-0.5-1.1-1.1V11.9C158.8,11.3,159.3,10.8,159.9,10.8C159.9,10.8,159.9,10.8,159.9,10.8z"/>
<path class="st0" d="M164.5,20.1l-0.3-1.3h-1.7l-0.3,1.3h-1l1.6-5.4h1.2l1.6,5.4H164.5z M163.9,17.9c-0.3-1.2-0.5-1.8-0.5-2
	c0-0.2-0.1-0.3-0.1-0.4c-0.1,0.3-0.3,1.1-0.6,2.3H163.9z M169.1,18.6c0,0.4-0.1,0.8-0.4,1.1c-0.3,0.3-0.8,0.4-1.2,0.4
	c-0.5,0-0.9-0.1-1.3-0.3v-1.1c0.3,0.1,0.5,0.3,0.8,0.3c0.2,0.1,0.4,0.1,0.6,0.1c0.2,0,0.3,0,0.5-0.1c0.2-0.2,0.2-0.5,0.1-0.7
	c-0.1-0.1-0.1-0.2-0.2-0.2c-0.2-0.1-0.4-0.3-0.6-0.4c-0.2-0.1-0.4-0.3-0.6-0.4c-0.1-0.1-0.3-0.3-0.3-0.5c-0.1-0.2-0.1-0.4-0.1-0.7
	c0-0.4,0.1-0.8,0.4-1.1c0.3-0.3,0.7-0.4,1.1-0.4c0.2,0,0.5,0,0.7,0.1c0.2,0.1,0.5,0.2,0.7,0.3l-0.3,0.9c-0.2-0.1-0.4-0.2-0.6-0.2
	c-0.2,0-0.3-0.1-0.5-0.1c-0.2,0-0.3,0-0.4,0.1c-0.2,0.2-0.2,0.4-0.1,0.7c0,0.1,0.1,0.2,0.2,0.2c0.2,0.1,0.4,0.3,0.6,0.4
	c0.3,0.2,0.6,0.4,0.9,0.7C169,18,169.1,18.3,169.1,18.6z M173.9,20.1h-1.1l-1.2-2.3l-0.4,0.3v1.9h-1v-5.4h1v2.5l0.4-0.6l1.2-1.8h1.1
	l-1.6,2.4L173.9,20.1z"/>
<path class="st0" d="M204.8,25.2l-3.9-3.9l-0.6-0.6c0,0,0,0-0.1-0.1c0.8-1.4,1.1-3.1,0.9-4.7c-0.7-3.9-4.3-6.5-8.2-5.8
	c-3.9,0.7-6.5,4.3-5.8,8.2s4.3,6.5,8.2,5.8c0.8-0.1,1.6-0.4,2.3-0.8c0,0,0,0.1,0.1,0.1l0.6,0.6l3.9,3.9c0.2,0.2,0.6,0.2,0.9,0
	l1.8-1.8C205,25.8,205,25.4,204.8,25.2C204.8,25.2,204.8,25.2,204.8,25.2z M194.1,22.2c-2.8,0-5.1-2.3-5.1-5.1s2.3-5.1,5.1-5.1
	c2.8,0,5.1,2.3,5.1,5.1C199.2,19.9,196.9,22.2,194.1,22.2z"/>
<rect x="218.7" y="16.2" class="st0" width="14.3" height="2.6"/>
<path class="st0" d="M224.9,24l-6.3-6.5l6.3-6.5h-2.7l-6.3,6.5l6.3,6.5H224.9z"/>
<path class="st3" d="M245,18.8l1.3-1.6l3.3,2.8l5.8-7l1.6,1.4l-7.1,8.6L245,18.8z"/>
<rect x="243" y="10" class="st4" width="16" height="16"/>
<rect id="Rectangle_1_copy" x="269" y="10" class="st5" width="16" height="16"/>
<rect id="Rectangle_1_copy_1_" x="321" y="10" class="st6" width="16" height="16"/>
<rect id="Rectangle_1_copy_2" x="295" y="10" class="st7" width="16" height="16"/>
</svg>
