<?xml version="1.0" encoding="utf-8"?>
<!-- Generator: Adobe Illustrator 22.1.0, SVG Export Plug-In . SVG Version: 6.00 Build 0)  -->
<svg version="1.1" id="Layer_1" xmlns="http://www.w3.org/2000/svg" xmlns:xlink="http://www.w3.org/1999/xlink" x="0px" y="0px"
	 width="300.7px" height="228.3px" viewBox="0 0 300.7 228.3" style="enable-background:new 0 0 300.7 228.3;" xml:space="preserve"
	>
<style type="text/css">
	.st0{fill:#999999;}
	.st1{fill:#00A5B5;}
	.st2{fill:#CCCCCC;}
	.st3{fill:#333333;}
	.st4{fill:#EC2227;}
	.st5{fill:#086DB5;}
	.st6{fill:#2EAAE1;}
	.st7{fill:#ABB9C3;}
	.st8{fill:#EFC002;}
	.st9{fill:#FFFFFF;}
	.st10{fill:#EC9322;}
	.st11{fill:#666666;}
	.st12{fill:#E7E7E7;}
	.st13{fill:#111111;}
	.st14{fill:#D2D2D2;}
	.st15{fill:#8B8B8B;}
	.st16{fill:#81EAEA;}
	.st17{opacity:0.5;clip-path:url(#SVGID_2_);}
	.st18{fill:#E1E5E5;}
	.st19{opacity:0.5;}
	.st20{fill:none;stroke:#00A5B5;stroke-width:1.2;stroke-miterlimit:10;}
	.st21{fill:#666666;stroke:#666666;stroke-width:0.1;stroke-miterlimit:10;}
	.st22{fill:none;stroke:#FFFFFF;stroke-linecap:round;stroke-linejoin:round;stroke-miterlimit:10;}
	.st23{fill:#FF6666;}
	.st24{fill:#FFCC33;}
	.st25{fill:#33CC00;}
</style>
<circle id="Oval-3" class="st0" cx="15" cy="12" r="6"/>
<polygon id="Shape-Copy-6" class="st1" points="30,9.4 31.3,8 37,14 31.3,20 30,18.6 34.4,14 "/>
<polygon id="Shape-Copy-6_1_" class="st1" points="121.8,66.1 120.4,67.5 114.8,61.5 120.4,55.5 121.8,56.9 117.3,61.5 "/>
<polygon id="Shape-Copy-6_2_" class="st2" points="134.3,66.1 132.9,67.5 127.3,61.5 132.9,55.5 134.3,56.9 129.9,61.5 "/>
<polygon id="Shape-Copy-6_3_" class="st2" points="139.3,56.9 140.6,55.5 146.3,61.5 140.6,67.5 139.3,66.1 143.7,61.5 "/>
<polygon id="Shape-Copy-7" class="st3" points="56.8,12 53,15.7 49.2,12 48,13.1 53,18 58,13.1 "/>
<polygon id="Shape" class="st1" points="71,6 71,12 65,12 65,14 71,14 71,20 73,20 73,14 79,14 79,12 73,12 73,6 "/>
<polygon id="Shape-Copy-4" class="st1" points="94,12 88,12 88,14 94,14 96,14 102,14 102,12 96,12 "/>
<g>
	<path class="st4" d="M11.7,34.4l0.3-0.3L11.9,34l-0.4,0.1l0.3-0.3c0,0,0-0.1-0.1-0.1l-0.5,0.2l0.2-0.3c-0.2-0.1-0.4-0.1-0.6-0.1
		c-0.7,0-1.4,0.6-1.4,1.2c0,0.7,0.6,1.2,1.4,1.2c0.7,0,1.4-0.6,1.4-1.2c0-0.1,0-0.2-0.1-0.4L11.7,34.4z"/>
	<g>
		<path class="st5" d="M76.2,40.2l2.7,0.3c-0.1,0.6-0.4,1-0.7,1.4c-0.3,0.4-0.8,0.7-1.3,0.9s-1.2,0.3-2,0.3S73.5,43,73,42.9
			s-1-0.4-1.3-0.7c-0.4-0.3-0.7-0.7-0.9-1.1c-0.2-0.4-0.3-1-0.3-1.7c0-0.8,0.1-1.4,0.4-1.9c0.2-0.4,0.4-0.7,0.8-1
			c0.3-0.3,0.7-0.5,1-0.6c0.5-0.2,1.2-0.3,2.1-0.3c1.2,0,2.1,0.2,2.7,0.6c0.6,0.4,1.1,1.1,1.3,1.9l-2.6,0.4
			c-0.1-0.3-0.2-0.5-0.5-0.7c-0.2-0.2-0.5-0.2-0.9-0.2c-0.5,0-0.8,0.2-1.1,0.5c-0.3,0.3-0.4,0.8-0.4,1.5c0,0.6,0.1,1.1,0.4,1.4
			c0.3,0.3,0.6,0.5,1.1,0.5c0.4,0,0.7-0.1,0.9-0.3C75.9,40.9,76.1,40.6,76.2,40.2"/>
		<path class="st5" d="M79.8,39.4c0-1.1,0.4-2,1.1-2.7c0.8-0.7,1.8-1.1,3-1.1c1.5,0,2.6,0.4,3.3,1.3c0.6,0.7,0.9,1.5,0.9,2.5
			c0,1.1-0.4,2-1.1,2.8c-0.7,0.7-1.8,1.1-3.1,1.1c-1.2,0-2.1-0.3-2.8-0.9C80.2,41.6,79.8,40.6,79.8,39.4 M82.6,39.4
			c0,0.6,0.1,1.1,0.4,1.4c0.3,0.3,0.6,0.5,1,0.5s0.7-0.2,1-0.5s0.4-0.8,0.4-1.5c0-0.6-0.1-1.1-0.4-1.4c-0.3-0.3-0.6-0.5-1-0.5
			s-0.7,0.2-1,0.5C82.7,38.3,82.6,38.8,82.6,39.4"/>
		<path class="st5" d="M89.5,35.8h2.6v1.1c0.4-0.4,0.8-0.8,1.1-0.9c0.4-0.2,0.8-0.3,1.4-0.3s1,0.1,1.4,0.3c0.3,0.2,0.6,0.5,0.8,0.9
			c0.4-0.5,0.8-0.8,1.2-1c0.4-0.2,0.8-0.3,1.3-0.3c0.8,0,1.4,0.2,1.8,0.7s0.7,1.2,0.7,2.2v4.6H99v-4.2c0-0.3-0.1-0.6-0.2-0.7
			c-0.2-0.3-0.4-0.4-0.7-0.4c-0.3,0-0.6,0.1-0.8,0.4c-0.2,0.2-0.3,0.6-0.3,1.1v3.8h-2.8v-4c0-0.3,0-0.5-0.1-0.7s-0.2-0.3-0.3-0.4
			c-0.1-0.1-0.3-0.2-0.5-0.2c-0.3,0-0.6,0.1-0.8,0.4c-0.2,0.2-0.3,0.6-0.3,1.2v3.7h-2.8C89.5,43.1,89.5,35.8,89.5,35.8z"/>
		<path class="st6" d="M20.4,35.8H23V37c0.4-0.5,0.8-0.8,1.2-1c0.4-0.2,0.9-0.3,1.5-0.3c0.8,0,1.4,0.2,1.8,0.7s0.7,1.2,0.7,2.1v4.6
			h-2.8v-4c0-0.5-0.1-0.8-0.3-1c-0.2-0.2-0.4-0.3-0.7-0.3c-0.3,0-0.6,0.1-0.8,0.4c-0.2,0.3-0.3,0.7-0.3,1.4v3.5h-2.8
			C20.4,43.1,20.4,35.8,20.4,35.8z"/>
		<path class="st6" d="M32.3,38.1l-2.7-0.3c0.1-0.5,0.2-0.8,0.4-1.1c0.2-0.3,0.5-0.5,0.8-0.7c0.3-0.1,0.6-0.3,1.1-0.3
			c0.4-0.1,0.9-0.1,1.5-0.1c0.8,0,1.5,0,2,0.1s0.9,0.3,1.3,0.6c0.2,0.2,0.4,0.5,0.6,0.9c0.1,0.4,0.2,0.7,0.2,1.1v3.2
			c0,0.3,0,0.6,0.1,0.8c0,0.2,0.1,0.4,0.3,0.7h-2.6c-0.1-0.2-0.2-0.3-0.2-0.4c0-0.1-0.1-0.3-0.1-0.5c-0.4,0.4-0.7,0.6-1.1,0.8
			c-0.5,0.2-1.1,0.3-1.7,0.3c-0.9,0-1.5-0.2-2-0.6c-0.5-0.4-0.7-0.9-0.7-1.5s0.2-1,0.5-1.4s0.9-0.6,1.8-0.8c1-0.2,1.7-0.4,2-0.4
			c0.3-0.1,0.6-0.2,1-0.3c0-0.3-0.1-0.6-0.2-0.7c-0.1-0.1-0.4-0.2-0.7-0.2c-0.5,0-0.8,0.1-1,0.2C32.6,37.6,32.4,37.8,32.3,38.1
			 M34.7,39.6c-0.4,0.1-0.8,0.3-1.2,0.4c-0.6,0.2-0.9,0.3-1.1,0.4c-0.2,0.2-0.2,0.3-0.2,0.5s0.1,0.4,0.2,0.5
			c0.2,0.1,0.4,0.2,0.7,0.2s0.6-0.1,0.9-0.2c0.3-0.2,0.5-0.3,0.6-0.6c0.1-0.2,0.2-0.5,0.2-0.8C34.7,40,34.7,39.6,34.7,39.6z"/>
		<path class="st6" d="M46.8,43.1h-2.6v-1.2c-0.4,0.5-0.8,0.8-1.2,1s-0.9,0.3-1.5,0.3c-0.8,0-1.4-0.2-1.8-0.7
			C39.3,42,39,41.3,39,40.4v-4.6h2.8v4c0,0.5,0.1,0.8,0.3,1s0.4,0.3,0.7,0.3s0.6-0.1,0.8-0.4c0.2-0.3,0.3-0.7,0.3-1.4v-3.5h2.8v7.3
			H46.8z"/>
		<polygon class="st6" points="48.5,33 51.4,33 51.4,38.2 53.5,35.8 56.9,35.8 54.3,38.3 57,43.1 53.9,43.1 52.4,40.1 51.4,41.2 
			51.4,43.1 48.5,43.1 		"/>
		<path class="st6" d="M57.9,35.8h2.6V37c0.3-0.5,0.5-0.9,0.8-1.1c0.3-0.2,0.6-0.3,1-0.3s0.9,0.1,1.4,0.4l-0.9,2
			c-0.3-0.1-0.6-0.2-0.8-0.2c-0.4,0-0.6,0.2-0.9,0.5c-0.3,0.4-0.4,1.2-0.4,2.4v2.4h-2.8C57.9,43.1,57.9,35.8,57.9,35.8z"/>
		<path class="st6" d="M64.2,33H67v1.9h-2.8V33z M64.2,35.8H67v7.3h-2.8V35.8z"/>
		<path class="st5" d="M17.5,33.6c0,0-5.2,2.2-4.3,5.8s7,6.1,7,6.1s-9.9-2-9.7-6.4C10.6,35.7,15.6,33.4,17.5,33.6"/>
		<path class="st5" d="M21.1,46.8l-0.6-0.1c0,0-2.6-0.5-5.1-1.5c-1.5-0.6-2.7-1.3-3.5-2c-1.1-0.9-1.6-1.9-1.6-3c0-2,1.8-3.5,2.9-4.2
			c1.5-1,3.3-1.7,4.5-1.7c0.1,0,0.3,0,0.4,0h0.2L18,34.4c0,0-1.3,0.5-2.5,1.4c-1.1,0.9-2.4,2.3-2.3,4.2c0.1,0.8,0.5,1.7,1.2,2.5
			c0.6,0.7,1.5,1.4,2.5,2.1c1.8,1.2,3.6,1.9,3.6,1.9L21.1,46.8z M17.6,34.4c-1.1,0-3,0.7-4.4,1.7c-1,0.7-2.8,2.2-2.8,4.1
			c0,1,0.5,2,1.6,2.9c0.8,0.7,2,1.4,3.5,2c1.8,0.7,3.6,1.2,4.5,1.4c-0.7-0.3-1.9-0.9-3.1-1.7c-1.1-0.7-1.9-1.4-2.5-2.1
			c-0.8-0.9-1.2-1.8-1.3-2.6c-0.1-0.9,0.2-1.7,0.7-2.5c0.4-0.6,1-1.2,1.7-1.8c0.9-0.7,1.9-1.2,2.3-1.4
			C17.7,34.4,17.6,34.4,17.6,34.4"/>
		<path class="st4" d="M70.2,42.7c0,0.7-0.5,1.2-1.2,1.2s-1.2-0.5-1.2-1.2s0.5-1.2,1.2-1.2C69.6,41.5,70.2,42,70.2,42.7"/>
	</g>
</g>
<path id="Shape_525_copy_7" class="st7" d="M164.5,6.2l3,5.3l6,1.2l-4.2,4.4l0.8,6l-5.6-2.5l-5.6,2.6l0.8-6l-4.2-4.5l6-1.1
	L164.5,6.2"/>
<path id="Shape_525_copy" class="st8" d="M140.5,6.2l3,5.3l6,1.2l-4.2,4.4l0.8,6l-5.6-2.5l-5.6,2.6l0.8-6l-4.2-4.5l6-1.1L140.5,6.2"
	/>
<g>
	<path class="st9" d="M15.9,15.2c-0.2,0-0.4,0-0.5-0.1s-0.1-0.2-0.1-0.4c0-0.1,0-0.2,0-0.4c0-0.1,0-0.3,0.1-0.4l0.4-1.5
		c0-0.1,0.1-0.3,0.1-0.4c0-0.2,0-0.3,0-0.4c0-0.3-0.1-0.6-0.3-0.8s-0.6-0.3-1-0.3c-0.2,0-0.5,0-0.7,0.1s-0.5,0.2-0.8,0.3L13,11.5
		c0.1,0,0.2-0.1,0.3-0.1s0.2,0,0.3,0c0.2,0,0.4,0,0.5,0.1s0.1,0.2,0.1,0.4c0,0.1,0,0.2,0,0.4c0,0.1,0,0.2-0.1,0.4l-0.4,1.5
		c0,0.2-0.1,0.3-0.1,0.4c0,0.1,0,0.2,0,0.4c0,0.3,0.1,0.6,0.4,0.8c0.2,0.2,0.6,0.3,1,0.3c0.3,0,0.5,0,0.7-0.1s0.5-0.2,0.8-0.3
		l0.2-0.5c0,0-0.2,0-0.3,0.1C16.1,15.2,16,15.2,15.9,15.2z"/>
	<path class="st9" d="M15.6,8c-0.3,0-0.6,0.1-0.7,0.3c-0.2,0.2-0.3,0.4-0.3,0.7s0.1,0.5,0.3,0.7s0.4,0.3,0.7,0.3s0.5-0.1,0.7-0.3
		s0.3-0.4,0.3-0.7s-0.1-0.5-0.3-0.7S15.9,8,15.6,8z"/>
</g>
<g>
	<polygon class="st9" points="141.5,43.3 136.8,45.8 137.7,40.5 133.8,36.7 139.1,36 141.5,31.2 143.9,36 149.2,36.7 145.3,40.5 
		146.2,45.8 	"/>
	<path class="st10" d="M141.5,31.7l2.1,4.2l0.1,0.2h0.3l4.7,0.7l-3.4,3.3l-0.2,0.2v0.3l0.8,4.7l-4.2-2.2l-0.2-0.1l-0.2,0.1l-4.2,2.2
		l0.8-4.7v-0.3l-0.2-0.2l-3.4-3.3l4.7-0.7h0.3l0.1-0.2L141.5,31.7z M141.5,30.6l-2.5,5.1l-5.7,0.8l4.1,4l-1,5.7l5.1-2.7l5.1,2.7
		l-1-5.7l4.1-4l-5.7-0.8L141.5,30.6z"/>
	<polygon class="st10" points="119,30.6 121.5,35.7 127.2,36.6 123.1,40.6 124.1,46.2 119,43.5 113.9,46.2 114.9,40.6 110.8,36.6 
		116.5,35.7 	"/>
	<polygon class="st9" points="165.3,43.3 160.5,45.8 161.4,40.5 157.6,36.7 162.9,36 165.3,31.2 167.7,36 173,36.7 169.1,40.5 
		170,45.8 	"/>
	<path class="st10" d="M165.3,31.7l2.1,4.2l0.1,0.2h0.3l4.7,0.7l-3.4,3.3l-0.2,0.2v0.3l0.8,4.7l-4.2-2.2l-0.2-0.1l-0.2,0.1l-4.2,2.2
		l0.8-4.7v-0.3l-0.2-0.2l-3.4-3.3l4.7-0.7h0.3l0.1-0.2L165.3,31.7z M165.3,30.6l-2.5,5.1l-5.7,0.8l4.1,4l-1,5.7l5.1-2.7l5.1,2.7
		l-1-5.7l4.1-4l-5.7-0.8L165.3,30.6z"/>
	<polyline class="st10" points="165.3,43.5 160.2,46.2 161.2,40.6 157.1,36.6 162.8,35.7 165.3,30.6 	"/>
</g>
<g>
	<path class="st1" d="M122.5,11.5c0,2.2-4,7.5-4,7.5s-4-5.3-4-7.5s1.8-4,4-4S122.5,9.3,122.5,11.5z"/>
	<circle class="st9" cx="118.5" cy="11.5" r="2"/>
</g>
<g>
	<polygon class="st1" points="183.7,18.4 179.5,14.2 180.2,13.5 183.7,17 187.1,13.5 187.9,14.2 	"/>
</g>
<g id="Mobile">
	<g id="SRP-Copy-14" transform="translate(-17.000000, -15.000000)">
		<polygon id="Shape_1_" class="st9" points="225,29.7 212.8,29.7 218.4,24.1 217,22.7 209,30.7 217,38.7 218.4,37.3 212.8,31.7 
			225,31.7 		"/>
	</g>
</g>
<g>
	<path class="st11" d="M203.8,38h2v6h-2V38z"/>
	<path class="st11" d="M203.8,34.5h2v2h-2V34.5z"/>
	<g>
		<path class="st11" d="M204.8,32.6c3.7,0,6.8,3.1,6.8,6.8s-3.1,6.8-6.8,6.8s-6.8-3.1-6.8-6.8S201.1,32.6,204.8,32.6 M204.8,31.4
			c-4.4,0-8,3.6-8,8s3.6,8,8,8s8-3.6,8-8S209.2,31.4,204.8,31.4L204.8,31.4z"/>
	</g>
</g>
<g>
	<g>
		<path class="st3" d="M185.2,31.3c-4.4,0-8,3.6-8,8s3.6,8,8,8s8-3.6,8-8S189.6,31.3,185.2,31.3L185.2,31.3z"/>
	</g>
	<path class="st9" d="M184.2,38h2v6h-2V38z"/>
	<path class="st9" d="M184.2,34.5h2v2h-2V34.5z"/>
</g>
<g id="home_x2F_SRP_x2F_CTP">
	<g id="CTP" transform="translate(-118.000000, -157.000000)">
		<g id="Group-3" transform="translate(118.000000, 154.000000)">
			<g id="filter" transform="translate(0.000000, 3.000000)">
				<path id="Shape_2_" class="st3" d="M21.6,56.3c-0.1-0.2-0.3-0.3-0.4-0.3h-11c-0.2,0-0.4,0.1-0.4,0.3c-0.1,0.2-0.1,0.4,0,0.5
					l3.8,5.6c0,0,0,0,0,0.1v4.3c0,0.2,0.1,0.4,0.3,0.4l3.2,1.7c0.1,0,0.1,0.1,0.2,0.1s0.2,0,0.3-0.1c0.1-0.1,0.2-0.3,0.2-0.4v-5.8
					l3.9-5.9C21.7,56.6,21.7,56.4,21.6,56.3L21.6,56.3z M16.7,67.7l-2.2-1.1V63h2.2V67.7z M16.9,62h-2.5l-3.3-5h9.1L16.9,62z"/>
			</g>
		</g>
	</g>
</g>
<g id="home_x2F_SRP_x2F_CTP_1_">
	<g id="Artboard" transform="translate(-75.000000, -63.000000)">
		<g id="Group-52" transform="translate(14.000000, 55.000000)">
			<polygon id="Shape-Copy-25" points="98,66.9 97.2,66.1 94,69.3 90.8,66.1 90,66.9 93.2,70.1 90,73.3 90.8,74.1 94,70.9 
				97.2,74.1 98,73.3 94.8,70.1 			"/>
		</g>
	</g>
</g>
<g id="home_x2F_SRP_x2F_CTP_2_">
	<g id="Artboard_1_" transform="translate(-119.000000, -230.000000)">
		<polygon id="Shape-Copy-21" class="st1" points="166.3,294.3 163.4,291.4 162,292.8 166.3,297.1 175,288.6 173.6,287.1 		"/>
	</g>
</g>
<g id="home_x2F_SRP_x2F_CTP_3_">
	<g id="Artboard_2_" transform="translate(-119.000000, -266.000000)">
		<polygon id="Shape-Copy-21_1_" class="st12" points="184.3,330.3 181.4,327.4 180,328.8 184.3,333.1 193,324.6 191.6,323.1 		"/>
	</g>
</g>
<g id="home_x2F_SRP_x2F_CTP_4_">
	<g id="CTP_1_" transform="translate(-88.000000, -243.000000)">
		<g id="Group-2" transform="translate(0.000000, 196.000000)">
			<g id="Group-46-Copy-4" transform="translate(88.000000, 7.000000)">
				<path id="Shape_3_" class="st13" d="M88,100.5c0,0.7-0.2,1.4-0.5,2l-3,5.1l-3-5.1c-0.3-0.5-0.5-1.1-0.5-2.1
					c0-2.1,1.6-3.9,3.5-3.9C86.4,96.6,88,98.4,88,100.5z M83,100.2c0,0.9,0.7,1.6,1.5,1.6s1.4-0.7,1.4-1.6s-0.6-1.6-1.4-1.6
					S83,99.3,83,100.2z"/>
			</g>
		</g>
	</g>
</g>
<g id="home_x2F_SRP_x2F_CTP_5_">
	<g id="Artboard_3_" transform="translate(-121.000000, -108.000000)">
		<path id="Shape-Copy-10" class="st14" d="M227.4,174c0.1,0.1,0.1,0.4,0,0.5l-0.5,0.5c-0.1,0.1-0.4,0.1-0.5,0l-3.5-3.5l-0.1-0.1
			c-0.7,0.5-1.6,0.8-2.6,0.8c-2.4,0-4.3-1.9-4.3-4.3c0-2.4,1.9-4.3,4.3-4.3c2.4,0,4.3,1.9,4.3,4.3c0,1-0.3,1.8-0.8,2.6
			c0,0,0.1,0,0.1,0.1L227.4,174z M220.2,165c-1.6,0-2.9,1.3-2.9,2.9c0,1.6,1.3,2.9,2.9,2.9c1.6,0,2.9-1.3,2.9-2.9
			C223.1,166.3,221.9,165,220.2,165z"/>
	</g>
</g>
<g>
	<g>
		<g>
			<g>
				<polyline class="st9" points="280.4,13.5 292.5,76.9 234.9,88 220.5,12.2 265.8,3.6 				"/>
			</g>
			<g>
				<path class="st15" d="M234.9,88.5c-0.2,0-0.4-0.2-0.5-0.4L220,12.3c-0.1-0.3,0.1-0.5,0.4-0.6L265.7,3c0.3,0,0.5,0.1,0.6,0.4
					s-0.1,0.5-0.4,0.6L221,12.6l14.3,74.7l56.6-10.8l-12.1-63c-0.1-0.3,0.1-0.5,0.4-0.6c0.3,0,0.5,0.1,0.6,0.4L293,76.8
					c0,0.1,0,0.3-0.1,0.4s-0.2,0.2-0.3,0.2L234.9,88.5C235,88.4,235,88.5,234.9,88.5z"/>
			</g>
		</g>
		<g>
			<g>
				<polygon class="st16" points="265.8,3.6 268.1,15.8 280.4,13.5 				"/>
			</g>
			<g>
				<path class="st15" d="M268.1,16.3c-0.2,0-0.4-0.2-0.5-0.4l-2.3-12.3c0-0.2,0-0.4,0.2-0.5s0.4-0.1,0.6,0l14.6,9.9
					c0.2,0.1,0.2,0.3,0.2,0.5s-0.2,0.4-0.4,0.4L268.1,16.3C268.2,16.3,268.1,16.3,268.1,16.3z M266.5,4.7l2,10.6l10.6-2L266.5,4.7z"
					/>
			</g>
		</g>
	</g>
	<g>
		<g>
			<g>
				<g>
					<g>
						<g>
							<defs>
								<polyline id="SVGID_1_" points="279.6,13.4 292,76.5 235.4,87.8 220.9,12.1 265.8,3.6 								"/>
							</defs>
							<clipPath id="SVGID_2_">
								<use xlink:href="#SVGID_1_"  style="overflow:visible;"/>
							</clipPath>
							<g class="st17">
								<g>
									<polyline class="st18" points="287.7,18.5 287.7,83.1 225.3,83.1 225.3,6 274.4,6 									"/>
								</g>
							</g>
						</g>
					</g>
				</g>
			</g>
		</g>
	</g>
	<g>
		<g>
			<g>
				<polyline class="st9" points="285.8,18.5 285.8,83.1 227.2,83.1 227.2,6 273.3,6 				"/>
			</g>
			<g>
				<path class="st15" d="M285.8,83.6h-58.6c-0.3,0-0.5-0.2-0.5-0.5V6c0-0.3,0.2-0.5,0.5-0.5h46.1c0.3,0,0.5,0.2,0.5,0.5
					s-0.2,0.5-0.5,0.5h-45.6v76.1h57.6V18.5c0-0.3,0.2-0.5,0.5-0.5s0.5,0.2,0.5,0.5v64.6C286.3,83.4,286.1,83.6,285.8,83.6z"/>
			</g>
		</g>
		<g>
			<g>
				<polygon class="st16" points="273.3,6 273.3,18.5 285.8,18.5 				"/>
			</g>
			<g>
				<path class="st15" d="M285.8,19h-12.5c-0.3,0-0.5-0.2-0.5-0.5V6c0-0.2,0.1-0.4,0.3-0.5c0.2-0.1,0.4,0,0.5,0.1l12.5,12.5
					c0.1,0.1,0.2,0.4,0.1,0.5C286.2,18.9,286,19,285.8,19z M273.8,18h10.8L273.8,7.3V18z"/>
			</g>
		</g>
	</g>
	<g>
		<g>
			<path class="st15" d="M250.5,44.4c-0.1,0-0.3,0-0.4-0.1l-9.4-9.5c-0.2-0.2-0.2-0.5,0-0.7s0.5-0.2,0.7,0l9.4,9.5
				c0.2,0.2,0.2,0.5,0,0.7C250.8,44.3,250.6,44.4,250.5,44.4z"/>
		</g>
		<g>
			<path class="st15" d="M241.1,44.3c-0.1,0-0.3,0-0.4-0.1c-0.2-0.2-0.2-0.5,0-0.7l9.5-9.4c0.2-0.2,0.5-0.2,0.7,0s0.2,0.5,0,0.7
				l-9.5,9.4C241.3,44.2,241.2,44.3,241.1,44.3z"/>
		</g>
	</g>
	<g>
		<g>
			<path class="st15" d="M272.2,44.4c-0.1,0-0.3,0-0.4-0.1l-9.4-9.5c-0.2-0.2-0.2-0.5,0-0.7s0.5-0.2,0.7,0l9.4,9.5
				c0.2,0.2,0.2,0.5,0,0.7C272.5,44.3,272.3,44.4,272.2,44.4z"/>
		</g>
		<g>
			<path class="st15" d="M262.8,44.3c-0.1,0-0.3,0-0.4-0.1c-0.2-0.2-0.2-0.5,0-0.7l9.5-9.4c0.2-0.2,0.5-0.2,0.7,0s0.2,0.5,0,0.7
				l-9.5,9.4C263,44.2,262.9,44.3,262.8,44.3z"/>
		</g>
	</g>
	<g>
		<path class="st15" d="M269.1,60.5c-0.1,0-0.3,0-0.4-0.1l-2.6-2.6c-0.4-0.4-0.9-0.6-1.4-0.6l0,0c-0.6,0-1.1,0.2-1.5,0.6l-0.5,0.5
			c-0.6,0.6-1.3,0.9-2.2,0.9c-0.8,0-1.6-0.3-2.2-0.9l-0.8-0.8c-0.4-0.4-1-0.6-1.5-0.6c-0.6,0-1.1,0.2-1.5,0.6L254,58
			c-0.6,0.6-1.3,0.9-2.2,0.9l0,0c-0.8,0-1.6-0.3-2.1-0.9l-0.8-0.8c-0.4-0.4-0.9-0.6-1.5-0.6s-1.1,0.2-1.4,0.6l-2.3,2.4
			c-0.2,0.2-0.5,0.2-0.7,0s-0.2-0.5,0-0.7l2.3-2.4c0.6-0.6,1.3-0.9,2.2-0.9l0,0c0.8,0,1.6,0.3,2.1,0.9l0.8,0.8
			c0.4,0.4,0.9,0.6,1.5,0.6s1.1-0.2,1.4-0.6l0.5-0.5c0.6-0.6,1.3-0.9,2.2-0.9l0,0c0.8,0,1.6,0.3,2.1,0.9l0.8,0.8
			c0.4,0.4,0.9,0.6,1.4,0.6l0,0c0.6,0,1.1-0.2,1.5-0.6l0.5-0.5c0.6-0.6,1.3-0.9,2.2-0.9l0,0c0.8,0,1.6,0.3,2.1,0.9l2.6,2.6
			c0.2,0.2,0.2,0.5,0,0.7C269.4,60.5,269.3,60.5,269.1,60.5z"/>
	</g>
	<g class="st19">
		<g>
			<ellipse class="st18" cx="258.6" cy="92.6" rx="35.5" ry="2.9"/>
		</g>
	</g>
</g>
<polyline class="st20" points="152.3,62.3 155.3,65.5 163,58.1 "/>
<path id="Fill-4" class="st11" d="M159.1,99.7v0.9c0,0.9,0.8,1.7,1.7,1.7h9.8c0.9,0,1.7-0.8,1.7-1.7v-0.9H159.1z M157.8,100.6v-2.3
	h15.9v2.3c0,1.7-1.4,3-3,3h-9.8C159.2,103.6,157.8,102.3,157.8,100.6z"/>
<path id="Fill-6" class="st11" d="M160.8,95.8l1,1c0.4,0.4,0.9,0.6,1.4,0.6s1-0.2,1.4-0.6l0.7-0.7c0.3-0.2,0.7-0.2,0.9,0l0.7,0.7
	c0.4,0.4,0.9,0.6,1.4,0.6l0,0c0.5,0,1-0.2,1.4-0.6l1-1c0.3-0.3,0.7-0.3,0.9,0l1,1l0.9-0.9l-1-1c-0.8-0.8-2-0.8-2.8,0l-1,1
	c-0.1,0.1-0.3,0.2-0.5,0.2l0,0c-0.2,0-0.3-0.1-0.5-0.2l-0.7-0.7c-0.7-0.7-2.1-0.7-2.8,0l-0.7,0.7c-0.1,0.1-0.3,0.2-0.5,0.2l0,0
	c-0.2,0-0.3-0.1-0.5-0.2l-1-1c-0.8-0.8-2-0.8-2.8,0l-1.1,1l0.9,0.9l1.1-1C160.1,95.5,160.5,95.5,160.8,95.8"/>
<path id="Fill-8" class="st11" d="M159.3,91.8c0.8-2.2,3.4-4,6.4-4s5.6,1.7,6.4,4H159.3z M165.7,86.5c-4.4,0-7.9,3-7.9,6.6h15.9
	C173.7,89.5,170.1,86.5,165.7,86.5L165.7,86.5z"/>
<polygon id="Fill-10" class="st11" points="171.4,83.2 171.4,79.9 171.4,79.1 171.4,78.6 163.5,78.6 163.5,79.9 170.1,79.9 
	170.1,83.2 169.1,83.2 169.1,86.5 170.4,86.5 170.4,84.5 180.9,84.5 180.7,87.8 173.7,87.8 173.7,89.1 180.6,89.1 179.7,100.3 
	175,100.3 175,101.7 180.9,101.7 182.4,83.2 "/>
<g>
	<path id="Fill-23" class="st11" d="M53.1,89.9l2.3-10.6c0.1-0.5,0-1-0.3-1.4s-0.8-0.6-1.3-0.6H53c-0.3-0.5-0.8-0.9-1.4-0.9
		c-0.9,0-1.6,0.7-1.6,1.6s0.7,1.6,1.6,1.6c0.6,0,1.1-0.4,1.4-0.9h0.8c0.1,0,0.1,0,0.2,0.1c0,0,0.1,0.1,0,0.2l-2.3,10.6
		c0,0.1-0.1,0.2-0.2,0.2H47c-0.1,0-0.2-0.1-0.2-0.2L44.5,79c0-0.1,0-0.1,0-0.2c0,0,0.1-0.1,0.2-0.1h0.6c0.3,0.5,0.8,0.9,1.4,0.9
		c0.9,0,1.6-0.7,1.6-1.6s-0.7-1.6-1.6-1.6c-0.6,0-1.2,0.4-1.4,0.9h-0.5c-0.5,0-1,0.2-1.3,0.6s-0.4,0.9-0.3,1.4l2.3,10.6
		c0.2,0.7,0.8,1.3,1.6,1.3h4.6C52.3,91.2,53,90.7,53.1,89.9"/>
	<path id="Fill-24" class="st11" d="M62,96.3c-1.6,0-2.9-1.3-2.9-2.9s1.3-2.9,2.9-2.9s2.9,1.3,2.9,2.9S63.6,96.3,62,96.3 M66.3,93.4
		c0-2.4-1.9-4.4-4.3-4.4s-4.3,2-4.3,4.4c0,2.1,1.5,3.9,3.5,4.3v3.6c0,0.4-0.3,0.7-0.7,0.7h-9.8c-0.4,0-0.7-0.3-0.7-0.7v-8.9h-1.4
		v8.9c0,1.2,1,2.2,2.2,2.2h9.8c1.2,0,2.2-1,2.2-2.2v-3.6C64.7,97.4,66.3,95.6,66.3,93.4"/>
	<polygon id="Fill-25" class="st11" points="62.7,91.4 61.3,91.4 61.3,92.7 60,92.7 60,94.1 61.3,94.1 61.3,95.4 62.7,95.4 
		62.7,94.1 64,94.1 64,92.7 62.7,92.7 	"/>
</g>
<g>
	<g>
		<path class="st11" d="M209,84.4V99h-14.6V84.4H209 M210.2,83.2h-17v17h17V83.2L210.2,83.2z"/>
	</g>
	<g>
		<polygon class="st11" points="196.9,83.2 195.7,83.2 195.7,100.2 196.9,100.2 		"/>
	</g>
	<g>
		<polygon class="st11" points="194.5,99 193.2,99 193.2,103.9 194.5,103.9 		"/>
	</g>
	<g>
		<polygon class="st11" points="210.2,102.7 193.2,102.7 193.2,103.9 210.2,103.9 		"/>
	</g>
	<g>
		<polygon class="st11" points="206.6,86.9 199.3,86.9 199.3,88.1 206.6,88.1 		"/>
	</g>
	<g>
		<polygon class="st11" points="204.3,89.3 199.3,89.3 199.3,90.6 204.3,90.6 		"/>
	</g>
</g>
<g>
	<g>
		<path class="st11" d="M36.4,100.5H10.9v-8.9l2.7-6.9h22.8C36.4,84.7,36.4,100.5,36.4,100.5z M12.1,99.2h23.1V85.9H14.4l-2.3,5.9
			C12.1,91.8,12.1,99.2,12.1,99.2z"/>
	</g>
	<g>
		<rect x="11.5" y="91.1" class="st11" width="24.3" height="1.2"/>
	</g>
	<g>
		<rect x="22.4" y="85.3" class="st11" width="1.2" height="14.5"/>
	</g>
	<g>
		<rect x="16.5" y="85.3" class="st11" width="1.2" height="6.4"/>
	</g>
	<g>
		<rect x="28.5" y="85.3" class="st11" width="1.2" height="6.4"/>
	</g>
	<g>
		<rect x="15.2" y="93.8" class="st11" width="2.4" height="1.2"/>
	</g>
	<g>
		<path class="st11" d="M16.9,103.5c-2.2,0-4-1.8-4-4h1.2c0,1.6,1.2,2.8,2.8,2.8s2.8-1.2,2.8-2.8h1.2
			C20.9,101.7,19.2,103.5,16.9,103.5z"/>
	</g>
	<g>
		<path class="st11" d="M30.5,103.5c-2.2,0-4-1.8-4-4h1.2c0,1.6,1.2,2.8,2.8,2.8s2.8-1.2,2.8-2.8h1.2
			C34.5,101.7,32.7,103.5,30.5,103.5z"/>
	</g>
</g>
<g>
	<g>
		<path class="st11" d="M51.6,122.7v13.8h-2.5v-13.8H51.6 M52.9,121.5h-5v16.4h5V121.5L52.9,121.5z"/>
	</g>
	<g>
		<path class="st11" d="M64.3,122.7v13.8h-2.5v-13.8H64.3 M65.5,121.5h-5v16.4h5V121.5L65.5,121.5z"/>
	</g>
	<g>
		<path class="st11" d="M60.5,128.9v1.5h-7.7v-1.5H60.5 M61.8,127.6H51.6v4h10.2V127.6L61.8,127.6z"/>
	</g>
	<g>
		<path class="st11" d="M66.7,127.8v3.9h-1.2v-3.9L66.7,127.8 M68,126.5h-3.7v6.4H68V126.5L68,126.5z"/>
	</g>
	<g>
		<path class="st11" d="M47.8,127.8v3.9h-1.2v-3.9L47.8,127.8 M49.1,126.5h-3.7v6.4h3.7V126.5L49.1,126.5z"/>
	</g>
</g>
<g>
	<g>
		<rect x="158.7" y="120.5" class="st11" width="1.4" height="18.2"/>
	</g>
	<g>
		<rect x="179.8" y="120.5" class="st11" width="1.4" height="18.2"/>
	</g>
	<g>
		<rect x="159.2" y="124.5" class="st11" width="24.9" height="1.4"/>
	</g>
	<g>
		<rect x="159.2" y="133.2" class="st11" width="24.9" height="1.4"/>
	</g>
	<g>
		<rect x="161.7" y="131.9" class="st11" width="6.8" height="1.4"/>
	</g>
	<g>
		<rect x="161.7" y="123.2" class="st11" width="6.8" height="1.4"/>
	</g>
	<g>
		<rect x="182.7" y="125.2" class="st11" width="1.4" height="13.6"/>
	</g>
</g>
<g>
	<g>
		<rect x="196.3" y="126.6" class="st21" width="7.3" height="1"/>
	</g>
	<g>
		<polygon class="st21" points="206.7,140.1 199.9,140.1 199.9,139.1 205.6,139.1 205.6,137.7 201.6,131 201.6,127.1 202.6,127.1 
			202.6,130.7 206.7,137.4 		"/>
	</g>
	<g>
		<polygon class="st21" points="199.9,140.1 193.2,140.1 193.2,137.4 197.2,130.7 197.2,127.1 198.3,127.1 198.3,131 194.3,137.7 
			194.3,139.1 199.9,139.1 		"/>
	</g>
	<g>
		<path class="st21" d="M194.9,118c0.9,0,1.7,0.8,1.7,1.7s-0.8,1.7-1.7,1.7s-1.7-0.8-1.7-1.7S193.9,118,194.9,118 M194.9,117
			c-1.5,0-2.7,1.2-2.7,2.7s1.2,2.7,2.7,2.7s2.7-1.2,2.7-2.7C197.6,118.2,196.4,117,194.9,117L194.9,117z"/>
	</g>
	<g>
		<path class="st21" d="M199.5,122.7c0.5,0,0.9,0.4,0.9,0.9s-0.4,0.9-0.9,0.9s-0.9-0.4-0.9-0.9S199,122.7,199.5,122.7 M199.5,121.6
			c-1,0-1.9,0.8-1.9,1.9c0,1,0.8,1.9,1.9,1.9c1,0,1.9-0.8,1.9-1.9C201.4,122.5,200.6,121.6,199.5,121.6L199.5,121.6z"/>
	</g>
	<g>
		<rect x="204.6" y="118.2" class="st21" width="6.2" height="1"/>
	</g>
	<g>
		<path class="st21" d="M207.7,132.4c-1.2,0-2.1-0.9-2.1-2.1v-11h1v11c0,0.6,0.5,1.1,1.1,1.1s1.1-0.5,1.1-1.1v-11.4h1v11.4
			C209.8,131.5,208.9,132.4,207.7,132.4z"/>
	</g>
	<g>
		<rect x="206.5" y="122.5" class="st21" width="2.4" height="1"/>
	</g>
</g>
<g>
	<g>
		<rect x="220.7" y="119.2" class="st11" width="22.9" height="1.1"/>
	</g>
	<g>
		<g>
			<path class="st11" d="M240.1,130.4c-1.7,0-3.2-1.4-3.2-3.2v-7.1h1.1v7.1c0,1.2,0.9,2.1,2.1,2.1s2.1-0.9,2.1-2.1v-7.6h1.1v7.6
				C243.2,129,241.8,130.4,240.1,130.4z"/>
		</g>
		<g>
			<path class="st11" d="M234.8,130.4c-1.7,0-3.2-1.4-3.2-3.2v-7.1h1.1v7.1c0,1.2,0.9,2.1,2.1,2.1s2.1-0.9,2.1-2.1v-6.7h1.1v6.7
				C238,129,236.5,130.4,234.8,130.4z"/>
		</g>
		<g>
			<path class="st11" d="M229.5,130.4c-1.7,0-3.2-1.4-3.2-3.2v-7.1h1.1v7.1c0,1.2,0.9,2.1,2.1,2.1s2.1-0.9,2.1-2.1v-6.7h1.1v6.7
				C232.7,129,231.3,130.4,229.5,130.4z"/>
		</g>
		<g>
			<path class="st11" d="M224.3,130.4c-1.7,0-3.2-1.4-3.2-3.2v-7.1h1.1v7.1c0,1.2,0.9,2.1,2.1,2.1s2.1-0.9,2.1-2.1v-6.7h1.1v6.7
				C227.4,129,226,130.4,224.3,130.4z"/>
		</g>
		<g>
			<rect x="240.3" y="129.8" class="st11" width="1.1" height="9.8"/>
		</g>
		<g>
			<rect x="231.1" y="128.8" class="st11" width="1.1" height="10.8"/>
		</g>
		<g>
			<rect x="223" y="129.8" class="st11" width="1.1" height="9.8"/>
		</g>
		<g>
			<rect x="225.2" y="131" class="st11" width="1.1" height="2.2"/>
		</g>
	</g>
</g>
<g>
	<g>
		<path class="st11" d="M96.2,155.8v6.1h-14v-6.1H96.2 M97.4,154.7H81v8.4h16.4V154.7L97.4,154.7z"/>
	</g>
	<g>
		<path class="st11" d="M80.9,166.7c0.7,0,1.2,0.6,1.2,1.2s-0.6,1.2-1.2,1.2c-0.7,0-1.2-0.6-1.2-1.2S80.3,166.7,80.9,166.7
			 M80.9,165.5c-1.3,0-2.4,1.1-2.4,2.4c0,1.3,1.1,2.4,2.4,2.4s2.4-1.1,2.4-2.4C83.4,166.6,82.3,165.5,80.9,165.5L80.9,165.5z"/>
	</g>
	<g>
		<path class="st11" d="M84.6,176h-1.2v-1.7c0-1.4-1.1-2.5-2.5-2.5s-2.5,1.1-2.5,2.5v1.7h-1.2v-1.7c0-2,1.6-3.7,3.7-3.7
			s3.7,1.6,3.7,3.7V176z"/>
	</g>
	<g>
		<path class="st11" d="M89.2,166.7c0.7,0,1.2,0.6,1.2,1.2s-0.6,1.2-1.2,1.2c-0.7,0-1.2-0.6-1.2-1.2S88.5,166.7,89.2,166.7
			 M89.2,165.5c-1.3,0-2.4,1.1-2.4,2.4c0,1.3,1.1,2.4,2.4,2.4s2.4-1.1,2.4-2.4S90.5,165.5,89.2,165.5L89.2,165.5z"/>
	</g>
	<g>
		<path class="st11" d="M92.8,176h-1.2v-1.7c0-1.4-1.1-2.5-2.5-2.5s-2.5,1.1-2.5,2.5v1.7h-1.2v-1.7c0-2,1.6-3.7,3.7-3.7
			s3.7,1.6,3.7,3.7V176z"/>
	</g>
	<g>
		<path class="st11" d="M97.4,166.7c0.7,0,1.2,0.6,1.2,1.2s-0.6,1.2-1.2,1.2s-1.2-0.6-1.2-1.2S96.8,166.7,97.4,166.7 M97.4,165.5
			c-1.3,0-2.4,1.1-2.4,2.4c0,1.3,1.1,2.4,2.4,2.4s2.4-1.1,2.4-2.4C99.9,166.6,98.8,165.5,97.4,165.5L97.4,165.5z"/>
	</g>
	<g>
		<path class="st11" d="M101.1,176h-1.2v-1.7c0-1.4-1.1-2.5-2.5-2.5s-2.5,1.1-2.5,2.5v1.7h-1.2v-1.7c0-2,1.6-3.7,3.7-3.7
			s3.7,1.6,3.7,3.7V176z"/>
	</g>
</g>
<g>
	<g>
		<rect x="88.8" y="117.6" class="st11" width="1.2" height="19.7"/>
	</g>
	<g>
		<polygon class="st11" points="81.5,140.4 80.3,140.4 80.3,136.8 98.1,136.8 98.1,139.9 96.9,139.9 96.9,137.9 81.5,137.9 		"/>
	</g>
	<g>
		<rect x="78" y="119.9" class="st11" width="22.6" height="1.2"/>
	</g>
	<g>
		<rect x="81.5" y="122.4" class="st11" width="1.2" height="5.7"/>
	</g>
	<g>
		<path class="st11" d="M86.1,130.9c-0.5,1.5-1.9,2.5-3.5,2.5h-0.8c-1.6,0-3-1.1-3.5-2.5H86.1 M87.5,129.6H76.8l0,0
			c0,2.7,2.2,4.9,4.9,4.9h0.8C85.3,134.6,87.5,132.4,87.5,129.6L87.5,129.6L87.5,129.6z"/>
	</g>
	<g>
		<path class="st11" d="M100.2,127.3c-0.5,1.5-1.9,2.5-3.5,2.5h-0.8c-1.6,0-3-1.1-3.5-2.5H100.2 M101.6,126.1H90.9
			c0,2.7,2.2,4.9,4.9,4.9h0.8C99.4,130.9,101.6,128.8,101.6,126.1L101.6,126.1z"/>
	</g>
	<g>
		<rect x="96" y="122.4" class="st11" width="1.2" height="2.3"/>
	</g>
</g>
<g>
	<g>
		<path class="st11" d="M124.2,121.1v17.7h-5.4v-17.7L124.2,121.1 M125.6,119.8h-8.1v20.4h8.1V119.8L125.6,119.8z"/>
	</g>
	<g>
		<rect x="120.4" y="122.3" class="st11" width="2.4" height="1.4"/>
	</g>
	<g>
		<rect x="120.4" y="125.3" class="st11" width="2.4" height="1.4"/>
	</g>
	<g>
		<path class="st11" d="M140.6,121.1v17.7h-5.4v-17.7L140.6,121.1 M141.9,119.8h-8.1v20.4h8.1V119.8L141.9,119.8z"/>
	</g>
	<g>
		<rect x="136.8" y="122.3" class="st11" width="2.4" height="1.4"/>
	</g>
	<g>
		<rect x="136.8" y="125.3" class="st11" width="2.4" height="1.4"/>
	</g>
	<g>
		<rect x="117.4" y="130.6" class="st11" width="8.1" height="1.4"/>
	</g>
	<g>
		<rect x="125.6" y="128.1" class="st11" width="8.7" height="1.4"/>
	</g>
	<g>
		<g>
			<rect x="125.3" y="138.8" class="st11" width="8.7" height="1.4"/>
		</g>
	</g>
	<g>
		<rect x="133.8" y="130.6" class="st11" width="8.1" height="1.4"/>
	</g>
	<g>
		<path class="st11" d="M129.6,132.7c0.8,0,1.4,0.6,1.4,1.4s-0.6,1.4-1.4,1.4s-1.4-0.6-1.4-1.4S128.8,132.7,129.6,132.7
			 M129.6,131.3c-1.5,0-2.8,1.2-2.8,2.8c0,1.5,1.2,2.8,2.8,2.8s2.8-1.2,2.8-2.8C132.4,132.6,131.1,131.3,129.6,131.3L129.6,131.3z"
			/>
	</g>
</g>
<g>
	<g>
		<path class="st11" d="M58.5,155.8c0.7,0,1.3,0.6,1.3,1.3s-0.6,1.3-1.3,1.3s-1.3-0.6-1.3-1.3C57.1,156.4,57.7,155.8,58.5,155.8
			 M58.5,154.5c-1.4,0-2.6,1.2-2.6,2.6s1.2,2.6,2.6,2.6c1.4,0,2.6-1.2,2.6-2.6S59.9,154.5,58.5,154.5L58.5,154.5z"/>
	</g>
	<g>
		<path class="st11" d="M57.8,160.3L57.8,160.3c0.2,0,0.3,0,0.4,0c0.1,0.8,0.9,7.1,0.2,12.2c-0.2,0-0.5,0-0.8,0
			c-2.4,0-6.6-0.7-8.8-5c1-0.3,2.6-0.7,4.1-0.7c0.4,0,0.7,0,1,0.1l1.3,0.2l0.2-1.3c0.3-2.2,1.2-4.9,2-5.4
			C57.3,160.4,57.6,160.3,57.8,160.3 M57.8,159.1c-0.5,0-1,0.1-1,0.1c-2.1,0.9-2.8,6.4-2.8,6.4c-0.4-0.1-0.8-0.1-1.2-0.1
			c-2.8,0-5.8,1.3-5.8,1.3c2.3,6.2,7.6,7.1,10.5,7.1c1.1,0,1.9-0.1,1.9-0.1c1.1-5.8,0-13.6,0-13.6C59.3,159.2,58.5,159.1,57.8,159.1
			L57.8,159.1z"/>
	</g>
	<g>
		<path class="st11" d="M48.1,161.5l-0.9-0.9c0-0.1,4.9-5,10.1-1.4l-0.7,1.1C52.2,157.3,48.2,161.3,48.1,161.5z"/>
	</g>
	<g>
		<path class="st11" d="M62.1,162.3c-1.1,0-2.2-0.2-3.3-0.6l0.5-1.2c4.3,1.7,8.7-1.2,8.8-1.3l0.7,1.1
			C68.6,160.4,65.7,162.3,62.1,162.3z"/>
	</g>
	<g>
		<polygon class="st11" points="48.9,176.8 45.3,170.7 49.2,168.9 49.7,170.1 47.1,171.3 50,176.1 		"/>
	</g>
	<g>
		<rect x="58.4" y="172.6" class="st11" width="1.3" height="6.3"/>
	</g>
</g>
<g>
	<g>
		<polygon class="st11" points="34,170.4 13.4,170.4 13.4,157.8 22.6,157.8 22.6,158.9 14.6,158.9 14.6,169.2 32.9,169.2 
			32.9,162.4 34,162.4 		"/>
	</g>
	<g>
		<path class="st11" d="M33.4,155.2l0.7,1.1l-8.1,6.4l-1.2,0.1l0.5-1.2L33.4,155.2 M33.7,153.5l-9.3,7.4l-1.4,3.2l3.5-0.3l9.2-7.2
			L33.7,153.5L33.7,153.5z"/>
	</g>
	<g>
		<rect x="21.3" y="169.8" class="st11" width="1.2" height="4.7"/>
	</g>
	<g>
		<rect x="24.9" y="169.8" class="st11" width="1.2" height="4.7"/>
	</g>
	<g>
		<rect x="19.1" y="173.9" class="st11" width="9.1" height="1.2"/>
	</g>
</g>
<g>
	<g>
		<rect x="23" y="118.7" class="st11" width="1.1" height="20.6"/>
	</g>
	<g>
		<polygon class="st11" points="26.4,137.6 23.6,135.7 20.6,137.6 20.1,136.7 23.6,134.4 27,136.8 		"/>
	</g>
	<g>
		<polygon class="st11" points="23.4,123.7 20,121.3 20.6,120.5 23.5,122.4 26.5,120.5 27,121.4 		"/>
	</g>
	<g>
		
			<rect x="13.3" y="128.6" transform="matrix(0.8585 -0.5128 0.5128 0.8585 -62.8896 30.3794)" class="st11" width="20.6" height="1.1"/>
	</g>
	<g>
		<polygon class="st11" points="18.8,136.1 17.7,136 17.9,132.6 14.8,131 15.2,130 19,131.9 		"/>
	</g>
	<g>
		<polygon class="st11" points="32,128.2 28.2,126.3 28.5,122.1 29.5,122.2 29.3,125.6 32.5,127.2 		"/>
	</g>
	<g>
		
			<rect x="23" y="118.8" transform="matrix(0.5028 -0.8644 0.8644 0.5028 -99.9137 84.5234)" class="st11" width="1.1" height="20.6"/>
	</g>
	<g>
		<polygon class="st11" points="15.1,128.3 14.7,127.3 17.8,125.9 17.6,122.3 18.7,122.3 18.9,126.5 		"/>
	</g>
	<g>
		<polygon class="st11" points="28.5,136 28.3,131.8 32,130 32.5,131 29.4,132.4 29.5,136 		"/>
	</g>
</g>
<g>
	<g>
		<path class="st21" d="M129.7,103.5c-0.6,0-1.1-0.2-1.5-0.7c-0.8-0.8-0.8-2.2,0.1-3c0.8-0.8,2.2-0.8,3,0.1l0,0
			c0.8,0.8,0.8,2.2-0.1,3C130.7,103.3,130.2,103.5,129.7,103.5z M129.6,100.7c-0.2,0-0.3,0.1-0.4,0.2c-0.3,0.2-0.3,0.7,0,0.9
			c0.2,0.3,0.7,0.3,0.9,0c0.3-0.2,0.3-0.7,0-0.9C130,100.8,129.8,100.7,129.6,100.7z"/>
	</g>
	<g>
		<g>
			<path class="st21" d="M134.6,98c-2.8-2.2-6.8-2.3-9.7-0.1l-0.9-1.2c3.4-2.5,8.1-2.5,11.4,0.2L134.6,98z"/>
		</g>
		<g>
			<path class="st21" d="M138,94.5c-4.8-4.1-11.8-4.2-16.7-0.2l-0.9-1.1c5.4-4.5,13.3-4.4,18.6,0.2L138,94.5z"/>
		</g>
		<g>
			<path class="st21" d="M141,91.5c-6.4-5.8-16.2-5.9-22.8-0.3l-1-1.1c7.1-6.1,17.7-6,24.7,0.3L141,91.5z"/>
		</g>
	</g>
</g>
<g>
	<g>
		<path class="st11" d="M86.4,83.6c-1.5,0-2.8-1.2-2.8-2.8c0-1.5,1.2-2.8,2.8-2.8s2.8,1.2,2.8,2.8C89.2,82.4,88,83.6,86.4,83.6z
			 M86.4,79.4c-0.8,0-1.5,0.7-1.5,1.5s0.7,1.5,1.5,1.5s1.5-0.7,1.5-1.5C87.9,80,87.3,79.4,86.4,79.4z"/>
	</g>
	<g>
		
			<rect x="78.9" y="95.9" transform="matrix(0.9678 -0.2517 0.2517 0.9678 -21.623 24.0498)" class="st11" width="8.6" height="1.3"/>
	</g>
	<g>
		<path class="st11" d="M84,105l-1.2-5c-1.3-0.1-2.6-0.6-3.7-1.5c-1.5-1.2-2.5-3-2.8-5c-0.2-1.9,0.2-3.9,1.4-5.4
			c1.1-1.5,2.8-2.5,4.6-2.8c1.6-0.2,3.2,0.2,4.6,1.1l-0.7,1.1c-1.1-0.8-2.4-1.1-3.7-0.9c-1.5,0.2-2.8,1-3.7,2.2
			c-0.9,1.3-1.3,2.8-1.1,4.5c0.2,1.6,1,3.1,2.3,4.1c1,0.8,2.2,1.2,3.4,1.2h0.5l1.2,4.7l1.3-0.3l-1.1-4.7l0.5-0.2
			c0.8-0.4,1.6-1,2.1-1.8l1,0.8c-0.6,0.8-1.3,1.4-2.1,1.9l1.2,4.9L84,105z"/>
	</g>
	<g>
		<path class="st11" d="M93.6,102.8l-3.8-0.9L91,97c-2.5-1.4-3.9-4.3-3.5-7.3c0.5-4,4-6.9,7.8-6.4s6.5,4.1,6,8.1
			c-0.4,3.5-3.2,6.2-6.4,6.4L93.6,102.8z M91.4,100.9l1.3,0.3l1.2-4.7h0.5c2.9,0,5.3-2.3,5.7-5.3c0.4-3.3-1.8-6.3-4.9-6.7
			c-3.1-0.4-5.9,2-6.4,5.3c-0.3,2.7,1,5.2,3.3,6.2l0.5,0.2L91.4,100.9z"/>
	</g>
	<g>
		
			<rect x="92.9" y="89.2" transform="matrix(0.2513 -0.9679 0.9679 0.2513 -21.1842 161.0509)" class="st11" width="1.3" height="10"/>
	</g>
</g>
<g>
	<g>
		<g>
			<path class="st9" d="M216.8,151.5h-10c-0.3,0-0.5-0.2-0.5-0.5s0.2-0.5,0.5-0.5h10c0.3,0,0.5,0.2,0.5,0.5S217,151.5,216.8,151.5z"
				/>
		</g>
		<g>
			<path class="st9" d="M222.1,151.5h-2.7c-0.3,0-0.5-0.2-0.5-0.5s0.2-0.5,0.5-0.5h2.7c0.3,0,0.5,0.2,0.5,0.5
				S222.4,151.5,222.1,151.5z"/>
		</g>
		<g>
			<path class="st9" d="M203.6,151.5h-18.4c-0.3,0-0.5-0.2-0.5-0.5s0.2-0.5,0.5-0.5h18.4c0.3,0,0.5,0.2,0.5,0.5
				S203.9,151.5,203.6,151.5z"/>
		</g>
	</g>
	<g>
		<g>
			<path class="st9" d="M126.2,184.5h-10c-0.3,0-0.5-0.2-0.5-0.5s0.2-0.5,0.5-0.5h10c0.3,0,0.5,0.2,0.5,0.5S126.4,184.5,126.2,184.5
				z"/>
		</g>
		<g>
			<path class="st9" d="M113.5,184.5h-2.7c-0.3,0-0.5-0.2-0.5-0.5s0.2-0.5,0.5-0.5h2.7c0.3,0,0.5,0.2,0.5,0.5
				S113.8,184.5,113.5,184.5z"/>
		</g>
	</g>
	<g>
		<g>
			<path class="st9" d="M154.3,163.5H116c-2.2,0-4-1.8-4-4s1.8-4,4-4h38.3c2.2,0,4,1.8,4,4S156.5,163.5,154.3,163.5z M116,156.5
				c-1.7,0-3,1.3-3,3s1.3,3,3,3h38.3c1.7,0,3-1.3,3-3s-1.3-3-3-3H116z"/>
		</g>
		<g>
			<path class="st9" d="M167.7,170.5c-0.3,0-0.5-0.2-0.5-0.5s0.2-0.5,0.5-0.5c1.7,0,3-1.3,3-3s-1.3-3-3-3h-38.3c-1.7,0-3,1.3-3,3
				s1.3,3,3,3c0.3,0,0.5,0.2,0.5,0.5s-0.2,0.5-0.5,0.5c-2.2,0-4-1.8-4-4s1.8-4,4-4h38.3c2.2,0,4,1.8,4,4S169.9,170.5,167.7,170.5z"
				/>
		</g>
	</g>
	<g>
		<g>
			<path class="st9" d="M230.4,191.2H205c-1.4,0-2.6-1.2-2.6-2.6s1.2-2.6,2.6-2.6h25.4c1.4,0,2.6,1.2,2.6,2.6
				S231.9,191.2,230.4,191.2z M205,186.6c-1.1,0-2,0.9-2,2s0.9,2,2,2h25.4c1.1,0,2-0.9,2-2s-0.9-2-2-2H205z"/>
		</g>
		<g>
			<path class="st9" d="M221.6,186.6h-25.4c-1.4,0-2.6-1.2-2.6-2.6s1.2-2.6,2.6-2.6c0.2,0,0.3,0.1,0.3,0.3s-0.1,0.3-0.3,0.3
				c-1.1,0-2,0.9-2,2s0.9,2,2,2h25.4c1.1,0,2-0.9,2-2s-0.9-2-2-2c-0.2,0-0.3-0.1-0.3-0.3s0.1-0.3,0.3-0.3c1.4,0,2.6,1.2,2.6,2.6
				S223,186.6,221.6,186.6z"/>
		</g>
	</g>
	<g class="st19">
		<g>
			<ellipse class="st18" cx="170.9" cy="216.8" rx="52.8" ry="2.9"/>
		</g>
	</g>
	<g>
		<g>
			<g>
				<path class="st9" d="M206.5,205.3h-71.1c-2,0-3.7-1.6-3.7-3.7v-51.7c0-2,1.6-3.7,3.7-3.7h71.1c2,0,3.7,1.6,3.7,3.7v51.7
					C210.1,203.6,208.5,205.3,206.5,205.3z"/>
			</g>
			<g>
				<path class="st15" d="M206.5,205.8h-71.1c-2.3,0-4.2-1.9-4.2-4.2v-51.7c0-2.3,1.9-4.2,4.2-4.2h71.1c2.3,0,4.2,1.9,4.2,4.2v51.7
					C210.6,203.9,208.8,205.8,206.5,205.8z M135.4,146.8c-1.7,0-3.2,1.4-3.2,3.2v51.7c0,1.7,1.4,3.2,3.2,3.2h71.1
					c1.7,0,3.2-1.4,3.2-3.2v-51.7c0-1.7-1.4-3.2-3.2-3.2H135.4z"/>
			</g>
		</g>
		<g>
			<path class="st15" d="M209.6,157.1h-77.4c-0.3,0-0.5-0.2-0.5-0.5s0.2-0.5,0.5-0.5h77.4c0.3,0,0.5,0.2,0.5,0.5
				S209.9,157.1,209.6,157.1z"/>
		</g>
		<g>
			<circle class="st23" cx="139.2" cy="151.8" r="1.4"/>
		</g>
		<g>
			<circle class="st24" cx="144.7" cy="151.8" r="1.4"/>
		</g>
		<g>
			<circle class="st25" cx="150.3" cy="151.8" r="1.4"/>
		</g>
		<g>
			<g>
				<circle class="st15" cx="159.6" cy="174" r="2.9"/>
			</g>
			<g>
				<circle class="st15" cx="180.6" cy="174" r="2.9"/>
			</g>
		</g>
		<g>
			<path class="st15" d="M178.1,190.2c-0.1,0-0.2,0-0.3-0.1c-8-7.2-15-0.3-15.3,0c-0.2,0.2-0.5,0.2-0.7,0c-0.2-0.2-0.2-0.5,0-0.7
				c0.1-0.1,7.9-7.9,16.7,0c0.2,0.2,0.2,0.5,0,0.7C178.3,190.1,178.2,190.2,178.1,190.2z"/>
		</g>
	</g>
</g>
</svg>
