<?xml version="1.0" encoding="utf-8"?>
<!-- Generator: Adobe Illustrator 23.0.1, SVG Export Plug-In . SVG Version: 6.00 Build 0)  -->
<svg version="1.1" id="Layer_1" xmlns="http://www.w3.org/2000/svg" xmlns:xlink="http://www.w3.org/1999/xlink" x="0px" y="0px"
	 width="300.7px" height="228.3px" viewBox="0 0 300.7 228.3" style="enable-background:new 0 0 300.7 228.3;" xml:space="preserve"
	>
<style type="text/css">
	.st0{fill:#999999;}
	.st1{fill:#00A5B5;}
	.st2{fill:#CCCCCC;}
	.st3{fill:#333333;}
	.st4{fill:#EC2227;}
	.st5{fill:#086DB5;}
	.st6{fill:#2EAAE1;}
	.st7{fill:#ABB9C3;}
	.st8{fill:#EFC002;}
	.st9{fill:#FFFFFF;}
	.st10{fill:#EC9322;}
	.st11{fill:#666666;}
	.st12{fill:#E7E7E7;}
	.st13{fill:#111111;}
	.st14{fill:#D2D2D2;}
	.st15{fill:#81EAEA;stroke:#666666;stroke-width:2;stroke-miterlimit:10;}
	.st16{opacity:0.5;clip-path:url(#SVGID_2_);}
	.st17{fill:#E1E5E5;}
	.st18{fill:#666666;stroke:#666666;stroke-width:0.75;stroke-miterlimit:10;}
	.st19{opacity:0.5;}
	.st20{fill:none;stroke:#00A5B5;stroke-width:1.2;stroke-miterlimit:10;}
	.st21{fill:#666666;stroke:#666666;stroke-miterlimit:10;}
	.st22{fill:#FF6666;}
	.st23{fill:#FFCC33;}
	.st24{fill:#33CC00;}
	.st25{fill:#008489;}
	.st26{fill:none;}
	.st27{opacity:0.39;}
	.st28{fill:#FF6666;stroke:#000000;stroke-width:0.5;stroke-linecap:round;stroke-linejoin:round;stroke-miterlimit:10;}
	.st29{fill:none;stroke:#000000;stroke-width:0.5;stroke-linecap:round;stroke-linejoin:round;stroke-miterlimit:10;}
	.st30{fill:#FE6264;stroke:#000000;stroke-width:0.5;stroke-linecap:round;stroke-linejoin:round;stroke-miterlimit:10;}
	.st31{fill:#FFCA38;stroke:#000000;stroke-width:0.5;stroke-linecap:round;stroke-linejoin:round;stroke-miterlimit:10;}
	.st32{fill:#4ACCA9;stroke:#000000;stroke-width:0.5;stroke-linecap:round;stroke-linejoin:round;stroke-miterlimit:10;}
	.st33{fill:#E67581;}
	.st34{fill:#00C4EF;stroke:#000000;stroke-width:0.5;stroke-linecap:round;stroke-linejoin:round;stroke-miterlimit:10;}
	.st35{fill:#AB8787;stroke:#000000;stroke-width:0.5;stroke-linecap:round;stroke-linejoin:round;stroke-miterlimit:10;}
	.st36{fill:#FFFFFF;stroke:#000000;stroke-width:0.5;stroke-linecap:round;stroke-linejoin:round;stroke-miterlimit:10;}
	.st37{fill:#DDDDDD;stroke:#050000;stroke-width:0.5;stroke-linecap:round;stroke-linejoin:round;stroke-miterlimit:10;}
	.st38{fill:#DDDDDD;stroke:#000000;stroke-width:0.5;stroke-linecap:round;stroke-linejoin:round;stroke-miterlimit:10;}
	.st39{fill:#424242;stroke:#000000;stroke-width:0.5;stroke-linecap:round;stroke-linejoin:round;stroke-miterlimit:10;}
	.st40{fill:#5081D8;stroke:#000000;stroke-width:0.5;stroke-linecap:round;stroke-linejoin:round;stroke-miterlimit:10;}
	.st41{fill:#FB8A00;stroke:#000000;stroke-width:0.5;stroke-linecap:round;stroke-linejoin:round;stroke-miterlimit:10;}
	.st42{fill:#F3F4F5;}
	.st43{fill:#333366;}
	.st44{fill:#666667;}
</style>
<circle id="Oval-3" class="st0" cx="15" cy="12" r="6"/>
<polygon id="Shape-Copy-6" class="st1" points="30,9.4 31.3,8 37,14 31.3,20 30,18.6 34.4,14 "/>
<polygon id="Shape-Copy-6_4_" class="st1" points="256,126.5 256.8,125.6 260.6,129.5 256.8,133.5 256,132.6 258.9,129.5 "/>
<polygon id="Shape-Copy-6_1_" class="st1" points="121.8,66.1 120.4,67.5 114.8,61.5 120.4,55.5 121.8,56.9 117.3,61.5 "/>
<polygon id="Shape-Copy-6_2_" class="st2" points="134.3,66.1 132.9,67.5 127.3,61.5 132.9,55.5 134.3,56.9 129.9,61.5 "/>
<polygon id="Shape-Copy-6_3_" class="st2" points="139.3,56.9 140.6,55.5 146.3,61.5 140.6,67.5 139.3,66.1 143.7,61.5 "/>
<polygon id="Shape-Copy-7" class="st3" points="56.8,12 53,15.7 49.2,12 48,13.1 53,18 58,13.1 "/>
<polygon id="Shape" class="st1" points="71,6 71,12 65,12 65,14 71,14 71,20 73,20 73,14 79,14 79,12 73,12 73,6 "/>
<polygon id="Shape-Copy-4" class="st1" points="94,12 88,12 88,14 94,14 96,14 102,14 102,12 96,12 "/>
<g>
	<path class="st4" d="M11.7,34.4l0.3-0.3L11.9,34l-0.4,0.1l0.3-0.3c0,0,0-0.1-0.1-0.1l-0.5,0.2l0.2-0.3c-0.2-0.1-0.4-0.1-0.6-0.1
		c-0.7,0-1.4,0.6-1.4,1.2c0,0.7,0.6,1.2,1.4,1.2c0.7,0,1.4-0.6,1.4-1.2c0-0.1,0-0.2-0.1-0.4L11.7,34.4z"/>
	<g>
		<path class="st5" d="M76.2,40.2l2.7,0.3c-0.1,0.6-0.4,1-0.7,1.4c-0.3,0.4-0.8,0.7-1.3,0.9s-1.2,0.3-2,0.3S73.5,43,73,42.9
			s-1-0.4-1.3-0.7c-0.4-0.3-0.7-0.7-0.9-1.1c-0.2-0.4-0.3-1-0.3-1.7c0-0.8,0.1-1.4,0.4-1.9c0.2-0.4,0.4-0.7,0.8-1
			c0.3-0.3,0.7-0.5,1-0.6c0.5-0.2,1.2-0.3,2.1-0.3c1.2,0,2.1,0.2,2.7,0.6c0.6,0.4,1.1,1.1,1.3,1.9l-2.6,0.4
			c-0.1-0.3-0.2-0.5-0.5-0.7c-0.2-0.2-0.5-0.2-0.9-0.2c-0.5,0-0.8,0.2-1.1,0.5c-0.3,0.3-0.4,0.8-0.4,1.5c0,0.6,0.1,1.1,0.4,1.4
			c0.3,0.3,0.6,0.5,1.1,0.5c0.4,0,0.7-0.1,0.9-0.3C75.9,40.9,76.1,40.6,76.2,40.2"/>
		<path class="st5" d="M79.8,39.4c0-1.1,0.4-2,1.1-2.7c0.8-0.7,1.8-1.1,3-1.1c1.5,0,2.6,0.4,3.3,1.3c0.6,0.7,0.9,1.5,0.9,2.5
			c0,1.1-0.4,2-1.1,2.8c-0.7,0.7-1.8,1.1-3.1,1.1c-1.2,0-2.1-0.3-2.8-0.9C80.2,41.6,79.8,40.6,79.8,39.4 M82.6,39.4
			c0,0.6,0.1,1.1,0.4,1.4c0.3,0.3,0.6,0.5,1,0.5s0.7-0.2,1-0.5s0.4-0.8,0.4-1.5c0-0.6-0.1-1.1-0.4-1.4c-0.3-0.3-0.6-0.5-1-0.5
			s-0.7,0.2-1,0.5C82.7,38.3,82.6,38.8,82.6,39.4"/>
		<path class="st5" d="M89.5,35.8h2.6v1.1c0.4-0.4,0.8-0.8,1.1-0.9c0.4-0.2,0.8-0.3,1.4-0.3s1,0.1,1.4,0.3c0.3,0.2,0.6,0.5,0.8,0.9
			c0.4-0.5,0.8-0.8,1.2-1c0.4-0.2,0.8-0.3,1.3-0.3c0.8,0,1.4,0.2,1.8,0.7s0.7,1.2,0.7,2.2v4.6H99v-4.2c0-0.3-0.1-0.6-0.2-0.7
			c-0.2-0.3-0.4-0.4-0.7-0.4c-0.3,0-0.6,0.1-0.8,0.4c-0.2,0.2-0.3,0.6-0.3,1.1v3.8h-2.8v-4c0-0.3,0-0.5-0.1-0.7s-0.2-0.3-0.3-0.4
			c-0.1-0.1-0.3-0.2-0.5-0.2c-0.3,0-0.6,0.1-0.8,0.4c-0.2,0.2-0.3,0.6-0.3,1.2v3.7h-2.8C89.5,43.1,89.5,35.8,89.5,35.8z"/>
		<path class="st6" d="M20.4,35.8H23V37c0.4-0.5,0.8-0.8,1.2-1c0.4-0.2,0.9-0.3,1.5-0.3c0.8,0,1.4,0.2,1.8,0.7s0.7,1.2,0.7,2.1v4.6
			h-2.8v-4c0-0.5-0.1-0.8-0.3-1c-0.2-0.2-0.4-0.3-0.7-0.3c-0.3,0-0.6,0.1-0.8,0.4c-0.2,0.3-0.3,0.7-0.3,1.4v3.5h-2.8
			C20.4,43.1,20.4,35.8,20.4,35.8z"/>
		<path class="st6" d="M32.3,38.1l-2.7-0.3c0.1-0.5,0.2-0.8,0.4-1.1c0.2-0.3,0.5-0.5,0.8-0.7c0.3-0.1,0.6-0.3,1.1-0.3
			c0.4-0.1,0.9-0.1,1.5-0.1c0.8,0,1.5,0,2,0.1s0.9,0.3,1.3,0.6c0.2,0.2,0.4,0.5,0.6,0.9c0.1,0.4,0.2,0.7,0.2,1.1v3.2
			c0,0.3,0,0.6,0.1,0.8c0,0.2,0.1,0.4,0.3,0.7h-2.6c-0.1-0.2-0.2-0.3-0.2-0.4c0-0.1-0.1-0.3-0.1-0.5c-0.4,0.4-0.7,0.6-1.1,0.8
			c-0.5,0.2-1.1,0.3-1.7,0.3c-0.9,0-1.5-0.2-2-0.6c-0.5-0.4-0.7-0.9-0.7-1.5s0.2-1,0.5-1.4s0.9-0.6,1.8-0.8c1-0.2,1.7-0.4,2-0.4
			c0.3-0.1,0.6-0.2,1-0.3c0-0.3-0.1-0.6-0.2-0.7c-0.1-0.1-0.4-0.2-0.7-0.2c-0.5,0-0.8,0.1-1,0.2C32.6,37.6,32.4,37.8,32.3,38.1
			 M34.7,39.6c-0.4,0.1-0.8,0.3-1.2,0.4c-0.6,0.2-0.9,0.3-1.1,0.4c-0.2,0.2-0.2,0.3-0.2,0.5s0.1,0.4,0.2,0.5
			c0.2,0.1,0.4,0.2,0.7,0.2s0.6-0.1,0.9-0.2c0.3-0.2,0.5-0.3,0.6-0.6c0.1-0.2,0.2-0.5,0.2-0.8C34.7,40,34.7,39.6,34.7,39.6z"/>
		<path class="st6" d="M46.8,43.1h-2.6v-1.2c-0.4,0.5-0.8,0.8-1.2,1s-0.9,0.3-1.5,0.3c-0.8,0-1.4-0.2-1.8-0.7
			C39.3,42,39,41.3,39,40.4v-4.6h2.8v4c0,0.5,0.1,0.8,0.3,1s0.4,0.3,0.7,0.3s0.6-0.1,0.8-0.4c0.2-0.3,0.3-0.7,0.3-1.4v-3.5h2.8v7.3
			H46.8z"/>
		<polygon class="st6" points="48.5,33 51.4,33 51.4,38.2 53.5,35.8 56.9,35.8 54.3,38.3 57,43.1 53.9,43.1 52.4,40.1 51.4,41.2 
			51.4,43.1 48.5,43.1 		"/>
		<path class="st6" d="M57.9,35.8h2.6V37c0.3-0.5,0.5-0.9,0.8-1.1c0.3-0.2,0.6-0.3,1-0.3s0.9,0.1,1.4,0.4l-0.9,2
			c-0.3-0.1-0.6-0.2-0.8-0.2c-0.4,0-0.6,0.2-0.9,0.5c-0.3,0.4-0.4,1.2-0.4,2.4v2.4h-2.8C57.9,43.1,57.9,35.8,57.9,35.8z"/>
		<path class="st6" d="M64.2,33H67v1.9h-2.8V33z M64.2,35.8H67v7.3h-2.8V35.8z"/>
		<path class="st5" d="M17.5,33.6c0,0-5.2,2.2-4.3,5.8s7,6.1,7,6.1s-9.9-2-9.7-6.4C10.6,35.7,15.6,33.4,17.5,33.6"/>
		<path class="st5" d="M21.1,46.8l-0.6-0.1c0,0-2.6-0.5-5.1-1.5c-1.5-0.6-2.7-1.3-3.5-2c-1.1-0.9-1.6-1.9-1.6-3c0-2,1.8-3.5,2.9-4.2
			c1.5-1,3.3-1.7,4.5-1.7c0.1,0,0.3,0,0.4,0h0.2L18,34.4c0,0-1.3,0.5-2.5,1.4c-1.1,0.9-2.4,2.3-2.3,4.2c0.1,0.8,0.5,1.7,1.2,2.5
			c0.6,0.7,1.5,1.4,2.5,2.1c1.8,1.2,3.6,1.9,3.6,1.9L21.1,46.8z M17.6,34.4c-1.1,0-3,0.7-4.4,1.7c-1,0.7-2.8,2.2-2.8,4.1
			c0,1,0.5,2,1.6,2.9c0.8,0.7,2,1.4,3.5,2c1.8,0.7,3.6,1.2,4.5,1.4c-0.7-0.3-1.9-0.9-3.1-1.7c-1.1-0.7-1.9-1.4-2.5-2.1
			c-0.8-0.9-1.2-1.8-1.3-2.6c-0.1-0.9,0.2-1.7,0.7-2.5c0.4-0.6,1-1.2,1.7-1.8c0.9-0.7,1.9-1.2,2.3-1.4
			C17.7,34.4,17.6,34.4,17.6,34.4"/>
		<path class="st4" d="M70.2,42.7c0,0.7-0.5,1.2-1.2,1.2s-1.2-0.5-1.2-1.2s0.5-1.2,1.2-1.2C69.6,41.5,70.2,42,70.2,42.7"/>
	</g>
</g>
<path id="Shape_525_copy_7" class="st7" d="M164.5,6.2l3,5.3l6,1.2l-4.2,4.4l0.8,6l-5.6-2.5l-5.6,2.6l0.8-6l-4.2-4.5l6-1.1
	L164.5,6.2"/>
<path id="Shape_525_copy" class="st8" d="M140.5,6.2l3,5.3l6,1.2l-4.2,4.4l0.8,6l-5.6-2.5l-5.6,2.6l0.8-6l-4.2-4.5l6-1.1L140.5,6.2"
	/>
<g>
	<path class="st9" d="M15.9,15.2c-0.2,0-0.4,0-0.5-0.1s-0.1-0.2-0.1-0.4c0-0.1,0-0.2,0-0.4c0-0.1,0-0.3,0.1-0.4l0.4-1.5
		c0-0.1,0.1-0.3,0.1-0.4c0-0.2,0-0.3,0-0.4c0-0.3-0.1-0.6-0.3-0.8s-0.6-0.3-1-0.3c-0.2,0-0.5,0-0.7,0.1s-0.5,0.2-0.8,0.3L13,11.5
		c0.1,0,0.2-0.1,0.3-0.1s0.2,0,0.3,0c0.2,0,0.4,0,0.5,0.1s0.1,0.2,0.1,0.4c0,0.1,0,0.2,0,0.4c0,0.1,0,0.2-0.1,0.4l-0.4,1.5
		c0,0.2-0.1,0.3-0.1,0.4c0,0.1,0,0.2,0,0.4c0,0.3,0.1,0.6,0.4,0.8c0.2,0.2,0.6,0.3,1,0.3c0.3,0,0.5,0,0.7-0.1s0.5-0.2,0.8-0.3
		l0.2-0.5c0,0-0.2,0-0.3,0.1C16.1,15.2,16,15.2,15.9,15.2z"/>
	<path class="st9" d="M15.6,8c-0.3,0-0.6,0.1-0.7,0.3c-0.2,0.2-0.3,0.4-0.3,0.7s0.1,0.5,0.3,0.7s0.4,0.3,0.7,0.3s0.5-0.1,0.7-0.3
		s0.3-0.4,0.3-0.7s-0.1-0.5-0.3-0.7S15.9,8,15.6,8z"/>
</g>
<g>
	<polygon class="st9" points="141.5,43.3 136.8,45.8 137.7,40.5 133.8,36.7 139.1,36 141.5,31.2 143.9,36 149.2,36.7 145.3,40.5 
		146.2,45.8 	"/>
	<path class="st10" d="M141.5,31.7l2.1,4.2l0.1,0.2h0.3l4.7,0.7l-3.4,3.3l-0.2,0.2v0.3l0.8,4.7l-4.2-2.2l-0.2-0.1l-0.2,0.1l-4.2,2.2
		l0.8-4.7v-0.3l-0.2-0.2l-3.4-3.3l4.7-0.7h0.3l0.1-0.2L141.5,31.7z M141.5,30.6l-2.5,5.1l-5.7,0.8l4.1,4l-1,5.7l5.1-2.7l5.1,2.7
		l-1-5.7l4.1-4l-5.7-0.8L141.5,30.6z"/>
	<polygon class="st10" points="119,30.6 121.5,35.7 127.2,36.6 123.1,40.6 124.1,46.2 119,43.5 113.9,46.2 114.9,40.6 110.8,36.6 
		116.5,35.7 	"/>
	<polygon class="st9" points="165.3,43.3 160.5,45.8 161.4,40.5 157.6,36.7 162.9,36 165.3,31.2 167.7,36 173,36.7 169.1,40.5 
		170,45.8 	"/>
	<path class="st10" d="M165.3,31.7l2.1,4.2l0.1,0.2h0.3l4.7,0.7l-3.4,3.3l-0.2,0.2v0.3l0.8,4.7l-4.2-2.2l-0.2-0.1l-0.2,0.1l-4.2,2.2
		l0.8-4.7v-0.3l-0.2-0.2l-3.4-3.3l4.7-0.7h0.3l0.1-0.2L165.3,31.7z M165.3,30.6l-2.5,5.1l-5.7,0.8l4.1,4l-1,5.7l5.1-2.7l5.1,2.7
		l-1-5.7l4.1-4l-5.7-0.8L165.3,30.6z"/>
	<polyline class="st10" points="165.3,43.5 160.2,46.2 161.2,40.6 157.1,36.6 162.8,35.7 165.3,30.6 	"/>
</g>
<g>
	<path class="st1" d="M122.5,11.5c0,2.2-4,7.5-4,7.5s-4-5.3-4-7.5s1.8-4,4-4S122.5,9.3,122.5,11.5z"/>
	<circle class="st9" cx="118.5" cy="11.5" r="2"/>
</g>
<g>
	<polygon class="st1" points="183.7,18.4 179.5,14.2 180.2,13.5 183.7,17 187.1,13.5 187.9,14.2 	"/>
</g>
<g id="Mobile">
	<g id="SRP-Copy-14" transform="translate(-17.000000, -15.000000)">
		<polygon id="Shape_1_" class="st9" points="225,29.7 212.8,29.7 218.4,24.1 217,22.7 209,30.7 217,38.7 218.4,37.3 212.8,31.7 
			225,31.7 		"/>
	</g>
</g>
<g>
	<path class="st11" d="M203.8,38h2v6h-2V38z"/>
	<path class="st11" d="M203.8,34.5h2v2h-2V34.5z"/>
	<g>
		<path class="st11" d="M204.8,32.6c3.7,0,6.8,3.1,6.8,6.8s-3.1,6.8-6.8,6.8s-6.8-3.1-6.8-6.8S201.1,32.6,204.8,32.6 M204.8,31.4
			c-4.4,0-8,3.6-8,8s3.6,8,8,8s8-3.6,8-8S209.2,31.4,204.8,31.4L204.8,31.4z"/>
	</g>
</g>
<g>
	<g>
		<path class="st3" d="M185.2,31.3c-4.4,0-8,3.6-8,8s3.6,8,8,8s8-3.6,8-8S189.6,31.3,185.2,31.3L185.2,31.3z"/>
	</g>
	<path class="st9" d="M184.2,38h2v6h-2V38z"/>
	<path class="st9" d="M184.2,34.5h2v2h-2V34.5z"/>
</g>
<g id="home_x2F_SRP_x2F_CTP">
	<g id="CTP" transform="translate(-118.000000, -157.000000)">
		<g id="Group-3" transform="translate(118.000000, 154.000000)">
			<g id="filter" transform="translate(0.000000, 3.000000)">
				<path id="Shape_2_" class="st3" d="M21.6,56.3c-0.1-0.2-0.3-0.3-0.4-0.3h-11c-0.2,0-0.4,0.1-0.4,0.3c-0.1,0.2-0.1,0.4,0,0.5
					l3.8,5.6c0,0,0,0,0,0.1v4.3c0,0.2,0.1,0.4,0.3,0.4l3.2,1.7c0.1,0,0.1,0.1,0.2,0.1s0.2,0,0.3-0.1c0.1-0.1,0.2-0.3,0.2-0.4v-5.8
					l3.9-5.9C21.7,56.6,21.7,56.4,21.6,56.3L21.6,56.3z M16.7,67.7l-2.2-1.1V63h2.2V67.7z M16.9,62h-2.5l-3.3-5h9.1L16.9,62z"/>
			</g>
		</g>
	</g>
</g>
<g id="home_x2F_SRP_x2F_CTP_1_">
	<g id="Artboard" transform="translate(-75.000000, -63.000000)">
		<g id="Group-52" transform="translate(14.000000, 55.000000)">
			<polygon id="Shape-Copy-25" points="98,66.9 97.2,66.1 94,69.3 90.8,66.1 90,66.9 93.2,70.1 90,73.3 90.8,74.1 94,70.9 
				97.2,74.1 98,73.3 94.8,70.1 			"/>
		</g>
	</g>
</g>
<g id="home_x2F_SRP_x2F_CTP_2_">
	<g id="Artboard_1_" transform="translate(-119.000000, -230.000000)">
		<polygon id="Shape-Copy-21" class="st1" points="166.3,294.3 163.4,291.4 162,292.8 166.3,297.1 175,288.6 173.6,287.1 		"/>
	</g>
</g>
<g id="home_x2F_SRP_x2F_CTP_3_">
	<g id="Artboard_2_" transform="translate(-119.000000, -266.000000)">
		<polygon id="Shape-Copy-21_1_" class="st12" points="184.3,330.3 181.4,327.4 180,328.8 184.3,333.1 193,324.6 191.6,323.1 		"/>
	</g>
</g>
<g id="home_x2F_SRP_x2F_CTP_4_">
	<g id="CTP_1_" transform="translate(-88.000000, -243.000000)">
		<g id="Group-2" transform="translate(0.000000, 196.000000)">
			<g id="Group-46-Copy-4" transform="translate(88.000000, 7.000000)">
				<path id="Shape_3_" class="st13" d="M88,100.5c0,0.7-0.2,1.4-0.5,2l-3,5.1l-3-5.1c-0.3-0.5-0.5-1.1-0.5-2.1
					c0-2.1,1.6-3.9,3.5-3.9C86.4,96.6,88,98.4,88,100.5z M83,100.2c0,0.9,0.7,1.6,1.5,1.6s1.4-0.7,1.4-1.6s-0.6-1.6-1.4-1.6
					S83,99.3,83,100.2z"/>
			</g>
		</g>
	</g>
</g>
<g id="home_x2F_SRP_x2F_CTP_5_">
	<g id="Artboard_3_" transform="translate(-121.000000, -108.000000)">
		<path id="Shape-Copy-10" class="st14" d="M227.4,174c0.1,0.1,0.1,0.4,0,0.5l-0.5,0.5c-0.1,0.1-0.4,0.1-0.5,0l-3.5-3.5l-0.1-0.1
			c-0.7,0.5-1.6,0.8-2.6,0.8c-2.4,0-4.3-1.9-4.3-4.3c0-2.4,1.9-4.3,4.3-4.3c2.4,0,4.3,1.9,4.3,4.3c0,1-0.3,1.8-0.8,2.6
			c0,0,0.1,0,0.1,0.1L227.4,174z M220.2,165c-1.6,0-2.9,1.3-2.9,2.9c0,1.6,1.3,2.9,2.9,2.9c1.6,0,2.9-1.3,2.9-2.9
			C223.1,166.3,221.9,165,220.2,165z"/>
	</g>
</g>
<g>
	<g>
		<g>
			<g>
				<g>
					<path class="st9" d="M235.6,87.9c-0.1,0-0.2-0.1-0.2-0.2l-14.5-75.2c0-0.1,0-0.1,0-0.2s0.1-0.1,0.2-0.1l44-8.5l0,0
						c0.1,0,0.1,0,0.1,0l14,9.6c0.1,0,0.1,0.1,0.1,0.2l12.2,63.3c0,0.1,0,0.1,0,0.2s-0.1,0.1-0.2,0.1L235.6,87.9L235.6,87.9z"/>
					<path class="st11" d="M265.2,4.7L265.2,4.7L265.2,4.7 M264.9,4.8l13.5,9.3l12,62.3l-54.1,10.5L222,13.1L264.9,4.8 M265.1,2.8
						c-0.1,0-0.2,0-0.2,0l-44,8.5c-0.7,0.1-1.1,0.8-1,1.5L234.4,88c0.1,0.6,0.6,1,1.2,1c0.1,0,0.2,0,0.2,0l55.6-10.7
						c0.7-0.1,1.1-0.8,1-1.5l-12.2-63.3c-0.1-0.3-0.3-0.6-0.5-0.8l-14-9.6C265.6,2.8,265.3,2.8,265.1,2.8L265.1,2.8z"/>
				</g>
			</g>
		</g>
		<g>
			<path class="st15" d="M264.7,4.6l2.2,11.6c0.1,0.5,0.6,0.9,1.1,0.8l11.5-2.2"/>
		</g>
	</g>
	<g>
		<g>
			<g>
				<g>
					<g>
						<g>
							<g>
								<g>
									<g>
										<g>
											<g>
												<defs>
													<polyline id="SVGID_1_" points="278.1,13.9 290.3,76.4 236.3,86.7 222.1,13.2 263.8,4.7 													"/>
												</defs>
												<clipPath id="SVGID_2_">
													<use xlink:href="#SVGID_1_"  style="overflow:visible;"/>
												</clipPath>
												<g class="st16">
													<g>
														<polyline class="st17" points="287.7,18.5 287.7,83.1 225.3,83.1 225.3,6 274.4,6 														"/>
													</g>
												</g>
											</g>
										</g>
									</g>
								</g>
							</g>
						</g>
					</g>
				</g>
			</g>
		</g>
	</g>
	<g>
		<g>
			<g>
				<path class="st9" d="M228.4,82.1c-0.1,0-0.2-0.1-0.2-0.2V7.2c0-0.1,0.1-0.2,0.2-0.2h44.3c0.1,0,0.1,0,0.2,0.1l11.8,11.8
					c0,0,0.1,0.1,0.1,0.2v62.8c0,0.1-0.1,0.2-0.2,0.2H228.4z"/>
				<path class="st11" d="M272.5,8l11.3,11.3v61.8h-54.6V8H272.5 M272.8,6h-44.3c-0.7,0-1.2,0.6-1.2,1.2v74.6c0,0.7,0.6,1.2,1.2,1.2
					h56.1c0.7,0,1.2-0.6,1.2-1.2V19c0-0.3-0.1-0.6-0.4-0.9L273.7,6.4C273.4,6.1,273.1,6,272.8,6L272.8,6z"/>
			</g>
		</g>
	</g>
	<g>
		<path class="st15" d="M272.3,7.7v11.6c0,0.5,0.4,0.9,0.9,0.9h11.6"/>
	</g>
	<g>
		<g>
			<path class="st18" d="M250.5,44.4c-0.1,0-0.3,0-0.4-0.1l-9.4-9.5c-0.2-0.2-0.2-0.5,0-0.7s0.5-0.2,0.7,0l9.4,9.5
				c0.2,0.2,0.2,0.5,0,0.7C250.8,44.3,250.6,44.4,250.5,44.4z"/>
		</g>
		<g>
			<path class="st18" d="M241.1,44.3c-0.1,0-0.3,0-0.4-0.1c-0.2-0.2-0.2-0.5,0-0.7l9.5-9.4c0.2-0.2,0.5-0.2,0.7,0s0.2,0.5,0,0.7
				l-9.5,9.4C241.3,44.2,241.2,44.3,241.1,44.3z"/>
		</g>
	</g>
	<g>
		<g>
			<path class="st18" d="M272.2,44.4c-0.1,0-0.3,0-0.4-0.1l-9.4-9.5c-0.2-0.2-0.2-0.5,0-0.7s0.5-0.2,0.7,0l9.4,9.5
				c0.2,0.2,0.2,0.5,0,0.7C272.5,44.3,272.3,44.4,272.2,44.4z"/>
		</g>
		<g>
			<path class="st18" d="M262.8,44.3c-0.1,0-0.3,0-0.4-0.1c-0.2-0.2-0.2-0.5,0-0.7l9.5-9.4c0.2-0.2,0.5-0.2,0.7,0s0.2,0.5,0,0.7
				l-9.5,9.4C263,44.2,262.9,44.3,262.8,44.3z"/>
		</g>
	</g>
	<g>
		<path class="st18" d="M268.7,60.4l-2.6-2.6c-0.4-0.4-0.9-0.6-1.4-0.6l0,0c-0.6,0-1.1,0.2-1.5,0.6l-0.5,0.5
			c-0.6,0.6-1.3,0.9-2.2,0.9c-0.8,0-1.6-0.3-2.2-0.9l-0.8-0.8c-0.4-0.4-1-0.6-1.5-0.6c-0.6,0-1.1,0.2-1.5,0.6L254,58
			c-0.6,0.6-1.3,0.9-2.2,0.9l0,0c-0.8,0-1.6-0.3-2.1-0.9l-0.8-0.8c-0.4-0.4-0.9-0.6-1.5-0.6s-1.1,0.2-1.4,0.6l-2.3,2.4
			c-0.2,0.2-0.5,0.2-0.7,0s-0.2-0.5,0-0.7l2.3-2.4c0.6-0.6,1.3-0.9,2.2-0.9l0,0c0.8,0,1.6,0.3,2.1,0.9l0.8,0.8
			c0.4,0.4,0.9,0.6,1.5,0.6s1.1-0.2,1.4-0.6l0.5-0.5c0.6-0.6,1.3-0.9,2.2-0.9l0,0c0.8,0,1.6,0.3,2.1,0.9l0.8,0.8
			c0.4,0.4,0.9,0.6,1.4,0.6l0,0c0.6,0,1.1-0.2,1.5-0.6l0.5-0.5c0.6-0.6,1.3-0.9,2.2-0.9l0,0c0.8,0,1.6,0.3,2.1,0.9l2.6,2.6
			c0.2,0.2,0.2,0.5,0,0.7C269.1,60.5,268.8,60.5,268.7,60.4z"/>
	</g>
	<g class="st19">
		<g>
			<ellipse class="st17" cx="258.6" cy="92.6" rx="35.5" ry="2.9"/>
		</g>
	</g>
</g>
<polyline class="st20" points="152.3,62.3 155.3,65.5 163,58.1 "/>
<g>
	<g>
		<g>
			<path class="st9" d="M216.8,151.5h-10c-0.3,0-0.5-0.2-0.5-0.5s0.2-0.5,0.5-0.5h10c0.3,0,0.5,0.2,0.5,0.5S217,151.5,216.8,151.5z"
				/>
		</g>
		<g>
			<path class="st9" d="M222.1,151.5h-2.7c-0.3,0-0.5-0.2-0.5-0.5s0.2-0.5,0.5-0.5h2.7c0.3,0,0.5,0.2,0.5,0.5
				S222.4,151.5,222.1,151.5z"/>
		</g>
		<g>
			<path class="st9" d="M203.6,151.5h-18.4c-0.3,0-0.5-0.2-0.5-0.5s0.2-0.5,0.5-0.5h18.4c0.3,0,0.5,0.2,0.5,0.5
				S203.9,151.5,203.6,151.5z"/>
		</g>
	</g>
	<g>
		<g>
			<path class="st9" d="M126.2,184.5h-10c-0.3,0-0.5-0.2-0.5-0.5s0.2-0.5,0.5-0.5h10c0.3,0,0.5,0.2,0.5,0.5S126.4,184.5,126.2,184.5
				z"/>
		</g>
		<g>
			<path class="st9" d="M113.5,184.5h-2.7c-0.3,0-0.5-0.2-0.5-0.5s0.2-0.5,0.5-0.5h2.7c0.3,0,0.5,0.2,0.5,0.5
				S113.8,184.5,113.5,184.5z"/>
		</g>
	</g>
	<g>
		<g>
			<path class="st9" d="M154.3,163.5H116c-2.2,0-4-1.8-4-4s1.8-4,4-4h38.3c2.2,0,4,1.8,4,4S156.5,163.5,154.3,163.5z M116,156.5
				c-1.7,0-3,1.3-3,3s1.3,3,3,3h38.3c1.7,0,3-1.3,3-3s-1.3-3-3-3H116z"/>
		</g>
		<g>
			<path class="st9" d="M167.7,170.5c-0.3,0-0.5-0.2-0.5-0.5s0.2-0.5,0.5-0.5c1.7,0,3-1.3,3-3s-1.3-3-3-3h-38.3c-1.7,0-3,1.3-3,3
				s1.3,3,3,3c0.3,0,0.5,0.2,0.5,0.5s-0.2,0.5-0.5,0.5c-2.2,0-4-1.8-4-4s1.8-4,4-4h38.3c2.2,0,4,1.8,4,4S169.9,170.5,167.7,170.5z"
				/>
		</g>
	</g>
	<g>
		<g>
			<path class="st9" d="M230.4,191.2H205c-1.4,0-2.6-1.2-2.6-2.6s1.2-2.6,2.6-2.6h25.4c1.4,0,2.6,1.2,2.6,2.6
				S231.9,191.2,230.4,191.2z M205,186.6c-1.1,0-2,0.9-2,2s0.9,2,2,2h25.4c1.1,0,2-0.9,2-2s-0.9-2-2-2H205z"/>
		</g>
		<g>
			<path class="st9" d="M221.6,186.6h-25.4c-1.4,0-2.6-1.2-2.6-2.6s1.2-2.6,2.6-2.6c0.2,0,0.3,0.1,0.3,0.3s-0.1,0.3-0.3,0.3
				c-1.1,0-2,0.9-2,2s0.9,2,2,2h25.4c1.1,0,2-0.9,2-2s-0.9-2-2-2c-0.2,0-0.3-0.1-0.3-0.3s0.1-0.3,0.3-0.3c1.4,0,2.6,1.2,2.6,2.6
				S223,186.6,221.6,186.6z"/>
		</g>
	</g>
	<g class="st19">
		<g>
			<ellipse class="st17" cx="170.9" cy="216.8" rx="52.8" ry="2.9"/>
		</g>
	</g>
	<g>
		<g>
			<g>
				<g>
					<path class="st11" d="M206.5,148.2c1,0,1.7,0.7,1.7,1.7v51.6c-0.1,1-0.8,1.8-1.7,1.8h-71.1c-1,0-1.7-0.7-1.7-1.7v-51.7
						c0-1,0.7-1.7,1.7-1.7L206.5,148.2 M206.5,146.2h-71.1c-2.1,0-3.7,1.7-3.7,3.7v51.7c0,2.1,1.7,3.7,3.7,3.7h71.1
						c2,0,3.6-1.7,3.7-3.7v-51.7C210.2,147.8,208.5,146.2,206.5,146.2L206.5,146.2z"/>
				</g>
			</g>
			<g>
				<path class="st11" d="M206.5,205.8h-71.1c-2.3,0-4.2-1.9-4.2-4.2v-51.7c0-2.3,1.9-4.2,4.2-4.2h71.1c2.3,0,4.2,1.9,4.2,4.2v51.7
					C210.6,203.9,208.8,205.8,206.5,205.8z M135.4,146.8c-1.7,0-3.2,1.4-3.2,3.2v51.7c0,1.7,1.4,3.2,3.2,3.2h71.1
					c1.7,0,3.2-1.4,3.2-3.2V150c0-1.7-1.4-3.2-3.2-3.2H135.4z"/>
			</g>
		</g>
		<g>
			<path class="st21" d="M208.6,157.1h-75.4c-0.3,0-0.5-0.2-0.5-0.5s0.2-0.5,0.5-0.5h75.4c0.3,0,0.5,0.2,0.5,0.5
				S208.9,157.1,208.6,157.1z"/>
		</g>
		<g>
			<circle class="st22" cx="139.2" cy="151.8" r="1.4"/>
		</g>
		<g>
			<circle class="st23" cx="144.7" cy="151.8" r="1.4"/>
		</g>
		<g>
			<circle class="st24" cx="150.3" cy="151.8" r="1.4"/>
		</g>
		<g>
			<g>
				<circle class="st11" cx="159.6" cy="174" r="2.9"/>
			</g>
			<g>
				<circle class="st11" cx="180.6" cy="174" r="2.9"/>
			</g>
		</g>
		<g>
			<path class="st21" d="M177.8,190.1c-8-7.2-15-0.3-15.3,0c-0.2,0.2-0.5,0.2-0.7,0s-0.2-0.5,0-0.7c0.1-0.1,7.9-7.9,16.7,0
				c0.2,0.2,0.2,0.5,0,0.7C178.4,190.2,178.2,190.4,177.8,190.1z"/>
		</g>
	</g>
</g>
<path class="st25" d="M271.8,128.8c0,3,2.2,5.6,5,6.1v1.7l4.6-2.6l-4.6-2.6v1.5c-1.8-0.5-3.1-2.2-3.1-4.1c0-2.3,1.9-4.3,4.3-4.3
	s4.3,1.9,4.3,4.3c0,0.6-0.1,1.2-0.4,1.8l1.8,0.8c0.4-0.8,0.6-1.7,0.6-2.6c0-3.4-2.8-6.2-6.2-6.2
	C274.6,122.6,271.8,125.4,271.8,128.8z"/>
<g>
	<rect x="148.8" y="78.1" class="st26" width="28" height="28"/>
	<g class="st27">
		<path class="st0" d="M173.6,104.2h-21.7c-0.6,0-1.1-0.5-1.1-1.1v-0.5c0-0.6,0.5-1.1,1.1-1.1h21.7c0.6,0,1.1,0.5,1.1,1.1v0.5
			C174.7,103.7,174.2,104.2,173.6,104.2z"/>
	</g>
	<g>
		<polygon class="st28" points="160.9,89.8 171,89.8 169.7,102.9 162.3,102.9 		"/>
		<polygon class="st29" points="169.6,102.9 162.2,102.9 160.5,86.5 171.3,86.5 		"/>
		<path class="st29" d="M156.1,81.9l4.2-0.1c0.6,0,1.2,0.4,1.4,1l1,3.4"/>
		<line class="st29" x1="159.4" y1="86.4" x2="172.3" y2="86.4"/>
		<g>
			<path class="st30" d="M162.9,99.7H155c-0.4,0-0.8-0.4-0.8-0.8v-1.1c0-0.4,0.4-0.8,0.8-0.8h7.9c0.4,0,0.8,0.4,0.8,0.8v1.1
				C163.7,99.3,163.3,99.7,162.9,99.7z"/>
			<path class="st31" d="M153.2,99.5h11.4v1.2c0,1.2-1,2.2-2.2,2.2h-7c-1.2,0-2.2-1-2.2-2.2V99.5z"/>
			<g>
				<path class="st31" d="M153.3,96.9h11.3c0-2.5-1.7-4.4-5.7-4.4C155,92.4,153.3,94.3,153.3,96.9z"/>
			</g>
			<g>
				<path class="st32" d="M156.3,99.5c0,0,3.6,0.9,3.7,1.6c0.1,0.7,2.5,0.9,3.4-1.6C161.3,99.6,156.3,99.5,156.3,99.5z"/>
			</g>
		</g>
	</g>
</g>
<g>
	<rect x="113.8" y="78.1" class="st26" width="28" height="28"/>
	<g class="st27">
		<path class="st0" d="M138.7,104.2h-21.6c-0.6,0-1.2-0.5-1.2-1.2v-0.4c0-0.6,0.5-1.2,1.2-1.2h21.6c0.6,0,1.2,0.5,1.2,1.2v0.4
			C139.8,103.7,139.3,104.2,138.7,104.2z"/>
	</g>
	<g>
		<g>
			<circle class="st33" cx="131.7" cy="91.9" r="1.5"/>
			<g>
				<path class="st29" d="M128.8,89.4C128.8,89.3,128.8,89.3,128.8,89.4c1.7-1.7,4.3-1.7,5.9-0.1c0,0,0,0.1,0.1,0.1"/>
				<path class="st29" d="M127,87.6C127,87.5,127,87.5,127,87.6c2.7-2.7,6.9-2.7,9.5-0.1c0,0,0,0.1,0.1,0.1"/>
				<path class="st29" d="M125.1,85.7C125.2,85.7,125.2,85.7,125.1,85.7c3.7-3.7,9.5-3.7,13.2-0.1c0,0,0,0.1,0.1,0.1"/>
			</g>
			<circle class="st34" cx="131.7" cy="91.9" r="1.5"/>
		</g>
		<path class="st35" d="M136.9,101.4h-18.4c-0.8,0-1.5-0.7-1.5-1.5v-2.1c0-0.8,0.7-1.5,1.5-1.5h18.4c0.8,0,1.5,0.7,1.5,1.5v2.1
			C138.4,100.7,137.7,101.4,136.9,101.4z"/>
		<path class="st36" d="M120.6,102.9H120c-0.7,0-1.3-0.6-1.3-1.3v-0.2h3.1v0.2C121.8,102.3,121.3,102.9,120.6,102.9z"/>
		<path class="st36" d="M135.3,102.9h-0.5c-0.7,0-1.3-0.6-1.3-1.3v-0.2h3.1v0.2C136.5,102.3,136,102.9,135.3,102.9z"/>
		<path class="st36" d="M125.4,99.7h-6c-0.4,0-0.7-0.3-0.7-0.7v-0.2c0-0.4,0.3-0.7,0.7-0.7h6c0.4,0,0.7,0.3,0.7,0.7V99
			C126.1,99.3,125.8,99.7,125.4,99.7z"/>
		<circle class="st36" cx="128.7" cy="98.8" r="1.1"/>
		<circle class="st36" cx="132.1" cy="98.8" r="1.1"/>
		<circle class="st36" cx="135.4" cy="98.8" r="1.1"/>
		<path class="st36" d="M121.5,96.3h-2.7l0.6-6.1v-7.6c0-0.4,0.3-0.7,0.7-0.7l0,0c0.4,0,0.7,0.3,0.7,0.7v7.6L121.5,96.3z"/>
	</g>
</g>
<g>
	<rect x="183.7" y="78.1" class="st26" width="28" height="28"/>
	<g class="st27">
		<path class="st0" d="M208.6,103.9H187c-0.6,0-1.2-0.5-1.2-1.2v-0.4c0-0.6,0.5-1.2,1.2-1.2h21.6c0.6,0,1.2,0.5,1.2,1.2v0.4
			C209.8,103.4,209.3,103.9,208.6,103.9z"/>
	</g>
	<g>
		<rect x="187.3" y="85.9" class="st32" width="5.3" height="2.4"/>
		<rect x="187.3" y="88.3" class="st32" width="5.3" height="9.7"/>
		<rect x="187.3" y="97.9" class="st32" width="5.3" height="2.2"/>
		<rect x="187.3" y="100.1" class="st32" width="5.3" height="2.4"/>
		<rect x="188.9" y="90.4" class="st37" width="2.1" height="1.9"/>
		<g>
			
				<rect x="198.6" y="85.7" transform="matrix(0.9631 -0.2693 0.2693 0.9631 -15.9603 57.4607)" class="st38" width="5.7" height="2.4"/>
			
				<rect x="200.3" y="87.8" transform="matrix(0.9631 -0.2693 0.2693 0.9631 -17.5534 58.1459)" class="st38" width="5.7" height="10.5"/>
			
				<rect x="201.9" y="98.1" transform="matrix(0.9631 -0.2693 0.2693 0.9631 -19.0429 58.789)" class="st38" width="5.7" height="1.4"/>
			
				<rect x="202.4" y="99.4" transform="matrix(0.9631 -0.2693 0.2693 0.9631 -19.5091 58.9902)" class="st38" width="5.7" height="2.4"/>
		</g>
		<rect x="192.6" y="81.5" class="st31" width="5.3" height="3.2"/>
		<rect x="192.6" y="86.8" class="st31" width="5.3" height="12"/>
		<rect x="192.6" y="84.7" class="st31" width="5.3" height="2.1"/>
		<rect x="192.6" y="98.8" class="st31" width="5.3" height="1.4"/>
		<rect x="192.6" y="100.1" class="st31" width="5.3" height="2.4"/>
	</g>
</g>
<g>
	<rect x="8.9" y="78.1" class="st26" width="28" height="28"/>
	<g class="st27">
		<path class="st0" d="M33.7,104.2H12.1c-0.6,0-1.2-0.5-1.2-1.2v-0.4c0-0.6,0.5-1.2,1.2-1.2h21.6c0.6,0,1.2,0.5,1.2,1.2v0.4
			C34.9,103.7,34.4,104.2,33.7,104.2z"/>
	</g>
	<g>
		<g>
			<g>
				<rect x="13.8" y="93.7" class="st31" width="18.1" height="6"/>
				<path class="st31" d="M32,83.4c0-1-0.8-1.8-1.8-1.8H15.6c-1,0-1.8,0.8-1.8,1.8v2.7H32V83.4z"/>
				<rect x="13.8" y="86.1" class="st34" width="18.1" height="7.6"/>
			</g>
			<rect x="17.7" y="83" class="st35" width="10.4" height="1.6"/>
		</g>
		<g>
			<path class="st39" d="M16,102.6h-0.3c-0.6,0-1.1-0.5-1.1-1.1v-1.8H17v1.8C17,102.1,16.6,102.6,16,102.6z"/>
			<path class="st39" d="M30.1,102.6h-0.3c-0.6,0-1.1-0.5-1.1-1.1v-1.8h2.4v1.8C31.2,102.1,30.7,102.6,30.1,102.6z"/>
		</g>
		<circle class="st36" cx="16.9" cy="96.8" r="1"/>
		<circle class="st36" cx="28.9" cy="96.8" r="1"/>
		<rect x="32" y="89.6" class="st31" width="1.8" height="4.1"/>
		<rect x="12" y="89.6" class="st31" width="1.8" height="4.1"/>
		<line class="st29" x1="16.5" y1="89.9" x2="20.4" y2="93.7"/>
		<line class="st29" x1="24.9" y1="89.9" x2="28.9" y2="93.7"/>
	</g>
</g>
<g>
	<rect x="8.9" y="114.4" class="st26" width="28" height="28"/>
	<g class="st27">
		<path class="st0" d="M33.5,140.5H13c-0.6,0-1.2-0.5-1.2-1.2V139c0-0.6,0.5-1.2,1.2-1.2h20.5c0.6,0,1.2,0.5,1.2,1.2v0.4
			C34.7,140,34.2,140.5,33.5,140.5z"/>
	</g>
	<g>
		<path class="st38" d="M13.1,121.9h19.6c0.4,0,0.7,0.3,0.7,0.7v6.5c0,0.4-0.3,0.7-0.7,0.7H13.1c-0.4,0-0.7-0.3-0.7-0.7v-6.5
			C12.4,122.2,12.7,121.9,13.1,121.9z"/>
		<path class="st34" d="M14.6,126.9h16.7v2.9H14.6V126.9z"/>
		<line class="st29" x1="15.7" y1="128.4" x2="30.1" y2="128.4"/>
		<line class="st29" x1="29.1" y1="124.4" x2="31.2" y2="124.4"/>
		<g>
			<path class="st29" d="M18.9,130.9v3.2c0,2.4-2,4.4-4.4,4.4h-0.3"/>
			<path class="st29" d="M16.7,130.9v3.2c0,1.2-1,2.2-2.2,2.2h-0.3"/>
		</g>
		<g>
			<path class="st29" d="M26.9,130.9v3.2c0,2.4,2,4.4,4.4,4.4h0.3"/>
			<path class="st29" d="M29.1,130.9v3.2c0,1.2,1,2.2,2.2,2.2h0.3"/>
		</g>
		<line class="st29" x1="21.5" y1="131.6" x2="21.5" y2="133.8"/>
		<line class="st29" x1="24.3" y1="133.4" x2="24.3" y2="135.6"/>
		<line class="st29" x1="21.5" y1="136.3" x2="21.5" y2="138.5"/>
	</g>
</g>
<g>
	<rect x="43.9" y="78.1" class="st26" width="28" height="28"/>
	<g class="st27">
		<path class="st0" d="M68.5,104.2H48c-0.6,0-1.2-0.5-1.2-1.2v-0.4c0-0.6,0.5-1.2,1.2-1.2h20.5c0.6,0,1.2,0.5,1.2,1.2v0.4
			C69.6,103.7,69.1,104.2,68.5,104.2z"/>
	</g>
	<g>
		<g>
			<path class="st39" d="M48.6,99.3l2,2c0.2,0.2,0.2,0.6,0,0.8l-0.1,0.1c-0.2,0.2-0.6,0.2-0.8,0l-2-2c-0.2-0.2-0.2-0.6,0-0.8
				l0.1-0.1C48,99.1,48.4,99.1,48.6,99.3z"/>
			
				<rect x="49.3" y="90.8" transform="matrix(0.7071 -0.7071 0.7071 0.7071 -49.378 67.3935)" class="st36" width="14.7" height="5"/>
			<polygon class="st30" points="52.6,93.9 58.7,94.7 53.2,100.2 49.7,96.7 			"/>
			
				<rect x="49.2" y="98.7" transform="matrix(0.7071 -0.7071 0.7071 0.7071 -55.5412 64.8239)" class="st35" width="2.6" height="1.5"/>
			<line class="st29" x1="61.9" y1="88.1" x2="66.7" y2="83.2"/>
			<line class="st29" x1="54.2" y1="92.3" x2="55.2" y2="93.3"/>
			<line class="st29" x1="55.6" y1="90.9" x2="56.3" y2="91.6"/>
			<line class="st29" x1="56.8" y1="89.6" x2="57.9" y2="90.7"/>
			<line class="st29" x1="58" y1="88.4" x2="58.8" y2="89.1"/>
		</g>
		<path class="st30" d="M68.2,95L66,89.4L63.8,95c-0.6,1.5,0.5,3.2,2.2,3.2S68.8,96.6,68.2,95z"/>
	</g>
</g>
<g>
	<rect x="148.8" y="112.6" class="st26" width="28" height="28"/>
	<g class="st27">
		<path class="st0" d="M173,138.7h-20.5c-0.6,0-1.2-0.5-1.2-1.2v-0.4c0-0.6,0.5-1.2,1.2-1.2H173c0.6,0,1.2,0.5,1.2,1.2v0.4
			C174.2,138.2,173.7,138.7,173,138.7z"/>
	</g>
	<g>
		<path class="st35" d="M152.3,120.6v16.1h1.4v-16.1c0-0.1-0.1-0.2-0.2-0.2h-1.1C152.3,120.4,152.3,120.5,152.3,120.6z"/>
		<path class="st35" d="M153.7,129.8h19.4c0.1,0,0.2,0.1,0.2,0.2v2.4h-19.6L153.7,129.8L153.7,129.8z"/>
		<path class="st38" d="M154.1,126.6h6.5v3.3h-6.9V127C153.7,126.7,153.9,126.6,154.1,126.6z"/>
		<path class="st40" d="M163.9,126.6h8.3c0.2,0,0.4,0.2,0.4,0.4v2.9h-8.7V126.6z"/>
		<path class="st35" d="M171.8,132.4h1.4v4.3h-1.4V132.4z"/>
		<path class="st34" d="M161,125.5h2.5c0.2,0,0.4,0.2,0.4,0.4v4h-3.3v-4C160.6,125.6,160.8,125.5,161,125.5z"/>
		<path class="st38" d="M155.8,124.4h2.4c0.5,0,1,0.4,1,1v0.2c0,0.5-0.4,1-1,1h-2.4c-0.5,0-1-0.4-1-1v-0.2
			C154.8,124.8,155.2,124.4,155.8,124.4z"/>
	</g>
</g>
<g>
	<rect x="218.7" y="112.6" class="st26" width="28" height="28"/>
	<g class="st27">
		<path class="st0" d="M243,138.7h-20.5c-0.6,0-1.2-0.5-1.2-1.2v-0.4c0-0.6,0.5-1.2,1.2-1.2H243c0.6,0,1.2,0.5,1.2,1.2v0.4
			C244.1,138.2,243.6,138.7,243,138.7z"/>
	</g>
	<g>
		<rect x="224" y="121.9" class="st38" width="17.5" height="14.8"/>
		<rect x="226.6" y="128.6" class="st34" width="4.7" height="4.3"/>
		<polygon class="st31" points="234,128.6 234,130.5 234,136.7 238.8,136.7 238.8,130.5 238.8,128.6 		"/>
		<g>
			<path class="st31" d="M237,125.9L237,125.9c1.2,0,2.1-1,1.9-2.1l-0.2-1.9h-4l0.1,1.9C234.8,124.9,235.8,125.9,237,125.9z"/>
			<path class="st30" d="M232.7,125.9L232.7,125.9c-1.2,0-2.1-1-2.1-2.1l0.1-1.9h4l0.1,1.9C234.8,124.9,233.9,125.9,232.7,125.9z"/>
			<path class="st31" d="M228.3,125.9L228.3,125.9c1.2,0,2.2-1,2.3-2.1l0.1-1.9h-4l-0.3,1.9C226.3,124.9,227.1,125.9,228.3,125.9z"
				/>
			<path class="st30" d="M224,125.9L224,125.9c-1.2,0-2-1-1.7-2.1l0.4-1.9h4l-0.3,1.9C226.3,124.9,225.2,125.9,224,125.9z"/>
			<path class="st30" d="M241.4,125.9L241.4,125.9c-1.2,0-2.3-1-2.4-2.1l-0.2-1.9h4l0.4,1.9C243.4,124.9,242.6,125.9,241.4,125.9z"
				/>
			<polygon class="st30" points="242.8,121.9 238.7,121.9 237.3,118.8 240.3,118.8 			"/>
			<polygon class="st31" points="238.7,121.9 234.7,121.9 234.2,118.8 237.3,118.8 			"/>
			<polygon class="st30" points="234.7,121.9 230.7,121.9 231.2,118.8 234.2,118.8 			"/>
			<polygon class="st31" points="231.2,118.8 230.7,121.9 226.7,121.9 228.2,118.8 			"/>
			<polygon class="st30" points="228.2,118.8 226.7,121.9 222.7,121.9 225.1,118.8 			"/>
		</g>
		<rect x="225.1" y="116.1" class="st39" width="15.2" height="2.7"/>
	</g>
</g>
<g>
	<rect x="183.7" y="112.6" class="st26" width="28" height="28"/>
	<g class="st27">
		<path class="st0" d="M208,138.7h-20.5c-0.6,0-1.2-0.5-1.2-1.2v-0.4c0-0.6,0.5-1.2,1.2-1.2H208c0.6,0,1.2,0.5,1.2,1.2v0.4
			C209.2,138.2,208.6,138.7,208,138.7z"/>
	</g>
	<g>
		<path class="st36" d="M193,123.3v3c0,0.3-0.1,0.6-0.2,0.9l-3.2,5.5c-0.2,0.3-0.2,0.6-0.2,0.9v1.3c0,1,0.8,1.8,1.8,1.8h8.3
			c1,0,1.8-0.8,1.8-1.8v-1.3c0-0.3-0.1-0.6-0.2-0.9l-3.2-5.5c-0.2-0.3-0.2-0.6-0.2-0.9v-3"/>
		<path class="st31" d="M201.1,133.6v1.3c0,1-0.8,1.8-1.8,1.8H191c-1,0-1.8-0.8-1.8-1.8v-1.3c0-0.3,0.1-0.6,0.2-0.9l2.7-4.7h5.9
			l2.7,4.7C201.1,133,201.1,133.3,201.1,133.6z"/>
		<line class="st29" x1="191.6" y1="123" x2="198.8" y2="123"/>
		<circle class="st31" cx="193.5" cy="120.1" r="1"/>
		<circle class="st31" cx="190.5" cy="117.3" r="1.5"/>
		<path class="st36" d="M203.9,132.5h-0.5c-0.9,0-1.6-0.7-1.6-1.6V121h3.7v9.9C205.5,131.7,204.8,132.5,203.9,132.5z"/>
		<g>
			<path class="st32" d="M203.9,132.5h-0.5c-0.9,0-1.6-0.7-1.6-1.6v-6.5h3.7v6.5C205.5,131.7,204.8,132.5,203.9,132.5z"/>
		</g>
		<line class="st29" x1="200.7" y1="121" x2="206.5" y2="121"/>
	</g>
</g>
<g>
	<rect x="78.8" y="78.1" class="st26" width="28" height="28"/>
	<g class="st27">
		<path class="st0" d="M103.1,104.2H82.6c-0.6,0-1.2-0.5-1.2-1.2v-0.4c0-0.6,0.5-1.2,1.2-1.2h20.5c0.6,0,1.2,0.5,1.2,1.2v0.4
			C104.3,103.7,103.7,104.2,103.1,104.2z"/>
	</g>
	<g>
		<path class="st35" d="M85.2,91.6c0,0.8,0.1,1.7,0.5,2.5c0.2,0.5,0.3,1.1,0.2,1.6c-0.2,0.9-0.8,1.6-1.7,2.2
			c-0.4,0.2-0.8,0.5-1.1,0.7L82.5,99c-0.3,0.2-0.3,0.6-0.1,0.8l1.5,1.5c0.2,0.2,0.6,0.2,0.8-0.1l0.5-0.6c0.2-0.3,0.5-0.7,0.7-1
			c0.6-1,1.2-1.5,2.1-1.8c0.5-0.1,1.1-0.1,1.6,0.2c0.8,0.3,1.6,0.5,2.3,0.4c0.1,0,0.1-0.1,0-0.1L85.2,91.6
			C85.3,91.6,85.2,91.6,85.2,91.6z"/>
		<g>
			<path class="st34" d="M97,86.7c-2-2-5.2-2.1-7.8-0.6l0,0c-1.4,0.7-2.7,2-3.5,3.7c-0.3,0.6-0.4,1.2-0.5,1.8c0,0,0.1-0.1,0.1,0
				l6.7,6.7v0.1c1.4-0.1,2.8-0.8,4.2-2.1C99,93.6,99.4,89.1,97,86.7z"/>
		</g>
		<path class="st35" d="M90,92.3c0,0.8,0.1,1.7,0.5,2.5c0.2,0.5,0.3,1.1,0.2,1.6c-0.2,0.9-0.8,1.6-1.7,2.2c-0.4,0.2-0.8,0.5-1.1,0.7
			l-0.5,0.3c-0.3,0.2-0.3,0.6-0.1,0.8l1.5,1.5c0.2,0.2,0.6,0.2,0.8-0.1l0.5-0.6c0.2-0.3,0.5-0.7,0.7-1c0.6-1,1.2-1.5,2.1-1.8
			c0.5-0.1,1.1-0.1,1.6,0.2c0.8,0.3,1.6,0.5,2.3,0.4c0.1,0,0.1-0.1,0-0.1l-6.7-6.7C90,92.2,90,92.3,90,92.3z"/>
		<g>
			<path class="st30" d="M101.7,87.4c-2-2-5.2-2.1-7.8-0.6l0,0c-1.4,0.7-2.7,2-3.5,3.7c-0.3,0.6-0.4,1.2-0.5,1.8c0,0,0.1-0.1,0.1,0
				l6.7,6.7v0.1c1.4-0.1,2.8-0.8,4.2-2.1C103.7,94.3,104.2,89.8,101.7,87.4z"/>
		</g>
		<circle class="st38" cx="98.6" cy="99.3" r="2.5"/>
		<path class="st29" d="M98.6,97.8c0.9,0,1.7,0.8,1.6,1.8"/>
	</g>
</g>
<g>
	<rect x="8.9" y="151.4" class="st26" width="28" height="28"/>
	<g class="st27">
		<path class="st0" d="M33.2,177.5H12.6c-0.6,0-1.2-0.5-1.2-1.2v-0.4c0-0.6,0.5-1.2,1.2-1.2h20.5c0.6,0,1.2,0.5,1.2,1.2v0.4
			C34.3,177,33.8,177.5,33.2,177.5z"/>
	</g>
	<g>
		<path class="st36" d="M29.7,154.5c0,0,0.8,3,0.4,3.8c-0.2,0.6-0.7,1-1.2,1.1c-0.3,0.1-0.6,0.1-1-0.1c-0.3-0.1-0.6-0.3-0.8-0.6
			c-0.3-0.4-0.4-1-0.2-1.6C27.2,156.3,29.7,154.5,29.7,154.5z"/>
		<path class="st30" d="M28.5,163.3c0.5,0,0.9,0.4,0.9,0.9c0,0.2-0.1,0.4-0.3,0.6c-0.2,0.2-0.4,0.3-0.6,0.3h-12
			c-0.5,0-0.9-0.4-0.9-0.9c0-0.2,0.1-0.4,0.3-0.6c0.2-0.2,0.4-0.3,0.6-0.3h0.3h3.5h0.8h3.4h0.1H28H28.5z"/>
		<path class="st35" d="M28.9,159.4L28.9,159.4c0,0.9-0.3,2.4-0.7,3.9h-3.4c0.8-1.9,1.7-3.6,2.4-4.5c0.2,0.3,0.5,0.5,0.8,0.6
			C28.2,159.4,28.6,159.5,28.9,159.4z"/>
		<path class="st30" d="M28.5,165v8.8c0,0.9-0.8,1.7-1.7,1.7h-8.5c-0.9,0-1.7-0.8-1.7-1.7V165H28.5z"/>
		<polygon class="st31" points="24.6,161.4 24.6,163.3 21.2,163.3 21.2,154.5 24.6,154.5 24.6,156.3 24.6,158 24.6,159.7 		"/>
		<path class="st34" d="M19.6,160.1l0.8,3.2h-3.5l-0.6-2.3l-0.7-2.5c1.2,0.7,2.6,0.3,3.3-0.9L19.6,160.1z"/>
		<path class="st31" d="M16.4,154.6l2.5,3c-0.7,1.2-2.1,1.6-3.3,0.9L16.4,154.6z"/>
		<line class="st29" x1="23.4" y1="156.6" x2="24.6" y2="156.6"/>
		<line class="st29" x1="23.4" y1="158.8" x2="24.6" y2="158.8"/>
		<line class="st29" x1="23.4" y1="161.1" x2="24.6" y2="161.1"/>
	</g>
</g>
<g>
	<rect x="43.9" y="151.4" class="st26" width="28" height="28"/>
	<g class="st27">
		<path class="st0" d="M68.5,177.5H48c-0.6,0-1.2-0.5-1.2-1.2v-0.4c0-0.6,0.5-1.2,1.2-1.2h20.5c0.6,0,1.2,0.5,1.2,1.2v0.4
			C69.6,177,69.1,177.5,68.5,177.5z"/>
	</g>
	<g>
		<circle class="st31" cx="60.7" cy="157" r="1.6"/>
		<circle class="st39" cx="59.1" cy="155.2" r="0.8"/>
		<path class="st31" d="M58.8,175.5h-0.3c-0.4,0-0.8-0.4-0.8-0.8V168h1.9v6.6C59.6,175.1,59.2,175.5,58.8,175.5z"/>
		<path class="st31" d="M68.1,160.4v0.3c0,0.4-0.4,0.8-0.8,0.8h-6.6v-1.9h6.6C67.7,159.6,68.1,159.9,68.1,160.4z"/>
		<path class="st31" d="M47.6,164.2v-0.3c0-0.4,0.4-0.8,0.9-0.7l6.6,0.5l-0.1,1.9l-6.6-0.5C47.9,165,47.6,164.6,47.6,164.2z"/>
		<path class="st31" d="M52.1,161.4v-0.3c0-0.4,0.3-0.8,0.7-0.9l6.6-0.7l0.2,1.9l-6.6,0.7C52.6,162.2,52.2,161.9,52.1,161.4z"/>
		<path class="st30" d="M59.4,159.6l-1.5,3.6l-4.8-0.3l0,0c-0.3,4,3.3,7.1,7.2,6.3l0.5-0.1l-0.6-4.3l2.3-2.4
			c0.2-0.2,0.3-0.5,0.2-0.8l-0.5-2.1h-2.8C59.4,159.5,59.4,159.6,59.4,159.6z"/>
	</g>
</g>
<g>
	<rect x="78.8" y="151.4" class="st26" width="28" height="28"/>
	<g class="st27">
		<path class="st0" d="M103.1,177.5H82.6c-0.6,0-1.2-0.5-1.2-1.2v-0.4c0-0.6,0.5-1.2,1.2-1.2h20.5c0.6,0,1.2,0.5,1.2,1.2v0.4
			C104.3,177,103.7,177.5,103.1,177.5z"/>
	</g>
	<g>
		<g>
			<path class="st41" d="M82.3,175.5v-1.9c0-1.9,1.6-3.5,3.5-3.5l0,0c1.9,0,3.5,1.6,3.5,3.5v1.9H82.3z"/>
			<circle class="st41" cx="85.8" cy="166.5" r="1.7"/>
		</g>
		<g>
			<path class="st34" d="M89.3,175.5v-1.9c0-1.9,1.6-3.5,3.5-3.5l0,0c1.9,0,3.5,1.6,3.5,3.5v1.9H89.3z"/>
			<circle class="st34" cx="92.8" cy="166.5" r="1.7"/>
		</g>
		<g>
			<path class="st30" d="M96.3,175.5v-1.9c0-1.9,1.6-3.5,3.5-3.5l0,0c1.9,0,3.5,1.6,3.5,3.5v1.9H96.3z"/>
			<circle class="st30" cx="99.8" cy="166.5" r="1.7"/>
		</g>
		<rect x="85.3" y="155.5" class="st38" width="15.1" height="7.1"/>
	</g>
</g>
<g>
	<rect x="113.8" y="112.7" class="st26" width="28" height="28"/>
	<g class="st27">
		<path class="st0" d="M138.1,138.8h-20.5c-0.6,0-1.2-0.5-1.2-1.2v-0.4c0-0.6,0.5-1.2,1.2-1.2h20.5c0.6,0,1.2,0.5,1.2,1.2v0.4
			C139.2,138.3,138.7,138.8,138.1,138.8z"/>
	</g>
	<g>
		<path class="st35" d="M122.2,136.8h-4.6c-0.2,0-0.3-0.2-0.3-0.3v-9.8c0-0.2,0.2-0.3,0.3-0.3h4.6c0.2,0,0.3,0.2,0.3,0.3v9.8
			C122.6,136.7,122.4,136.8,122.2,136.8z"/>
		<path class="st35" d="M138,136.8h-4.6c-0.2,0-0.3-0.2-0.3-0.3v-9.8c0-0.2,0.2-0.3,0.3-0.3h4.6c0.2,0,0.3,0.2,0.3,0.3v9.8
			C138.3,136.7,138.1,136.8,138,136.8z"/>
		<path class="st38" d="M132.7,136.8h-9.8c-0.2,0-0.3-0.2-0.3-0.3v-16.8c0-0.2,0.2-0.3,0.3-0.3h9.8c0.2,0,0.3,0.2,0.3,0.3v16.8
			C133.1,136.7,132.9,136.8,132.7,136.8z"/>
		<g>
			<circle class="st39" cx="127.8" cy="131.6" r="3.9"/>
			<circle class="st35" cx="127.8" cy="131.6" r="2"/>
		</g>
		<g>
			<circle class="st39" cx="127.8" cy="123.7" r="2.6"/>
			<circle class="st35" cx="127.8" cy="123.7" r="1.3"/>
		</g>
		<circle class="st39" cx="135.7" cy="128.9" r="1.3"/>
		<circle class="st39" cx="135.7" cy="134.2" r="1.3"/>
		<circle class="st39" cx="119.9" cy="128.9" r="1.3"/>
		<circle class="st39" cx="119.9" cy="134.2" r="1.3"/>
		<circle cx="132.1" cy="120.3" r="0.3"/>
		<circle cx="132.1" cy="135.8" r="0.3"/>
		<circle cx="123.5" cy="120.3" r="0.3"/>
		<circle cx="123.5" cy="135.8" r="0.3"/>
	</g>
</g>
<g>
	<rect x="78.8" y="112.7" class="st26" width="28" height="28"/>
	<g class="st27">
		<path class="st0" d="M103.1,138.8H82.6c-0.6,0-1.2-0.5-1.2-1.2v-0.4c0-0.6,0.5-1.2,1.2-1.2h20.5c0.6,0,1.2,0.5,1.2,1.2v0.4
			C104.3,138.3,103.7,138.8,103.1,138.8z"/>
	</g>
	<g>
		<g>
			<path class="st35" d="M103.3,136.8H92.1v-0.2c0-0.7,0.5-1.2,1.2-1.2h8.8c0.7,0,1.2,0.5,1.2,1.2
				C103.3,136.6,103.3,136.8,103.3,136.8z"/>
			<path class="st35" d="M101.9,135.4h-8.4v-0.2c0-0.7,0.5-1.2,1.2-1.2h6c0.7,0,1.2,0.5,1.2,1.2
				C101.9,135.2,101.9,135.4,101.9,135.4z"/>
		</g>
		<g>
			<path class="st35" d="M82.8,136.6l-0.2-0.2c-0.4-0.4-0.4-0.9,0-1.3l7.3-7.3l1.5,1.5l-7.3,7.3C83.7,137,83.1,137,82.8,136.6z"/>
			<path class="st35" d="M93.1,129.1l-3-3l-0.1,0.1c-0.5,0.5-0.5,1.2,0,1.7l1.3,1.3C91.8,129.7,92.5,129.7,93.1,129.1L93.1,129.1z"
				/>
			
				<rect x="90.9" y="121.6" transform="matrix(0.7071 -0.7071 0.7071 0.7071 -61.5913 102.8557)" class="st31" width="4.9" height="8.4"/>
			<path class="st35" d="M87.6,124.5L87.6,124.5c0.3,0.3,0.7,0.3,1,0.1l3.6-3.6c0.2-0.2,0.2-0.6,0-0.9l-0.1-0.1
				c-0.2-0.2-0.6-0.2-0.9,0l-3.6,3.6C87.3,123.9,87.3,124.3,87.6,124.5z"/>
			<path class="st35" d="M94.5,131.5l0.1,0.1c0.2,0.2,0.6,0.2,0.9,0l3.6-3.6c0.2-0.2,0.2-0.6,0-0.9L99,127c-0.2-0.2-0.6-0.2-0.9,0
				l-3.6,3.6C94.3,130.9,94.3,131.2,94.5,131.5z"/>
		</g>
	</g>
</g>
<g>
	<rect x="43.9" y="112.7" class="st26" width="28" height="28"/>
	<g class="st27">
		<path class="st0" d="M68.5,138.8H48c-0.6,0-1.2-0.5-1.2-1.2v-0.4c0-0.6,0.5-1.2,1.2-1.2h20.5c0.6,0,1.2,0.5,1.2,1.2v0.4
			C69.6,138.3,69.1,138.8,68.5,138.8z"/>
	</g>
	<g>
		<path class="st31" d="M51.9,135.3l13.2-13.2c0.3-0.3,0.3-0.8,0-1.1l-0.2-0.2c-0.3-0.3-0.8-0.3-1.1,0L50.6,134
			c-0.3,0.3-0.3,0.8,0,1.1l0.2,0.2C51.1,135.6,51.6,135.6,51.9,135.3z"/>
		<g>
			
				<rect x="52.5" y="127.2" transform="matrix(0.7071 -0.7071 0.7071 0.7071 -77.6405 76.7335)" class="st35" width="2.6" height="9.8"/>
			
				<rect x="51.3" y="130.2" transform="matrix(0.7071 -0.7071 0.7071 0.7071 -79.2754 76.0729)" class="st35" width="1.8" height="7"/>
		</g>
		<g>
			
				<rect x="60.7" y="119.1" transform="matrix(0.7071 -0.7071 0.7071 0.7071 -69.51 80.1839)" class="st35" width="2.6" height="9.8"/>
			
				<rect x="62.6" y="118.9" transform="matrix(0.7071 -0.7071 0.7071 0.7071 -67.9428 80.7492)" class="st35" width="1.8" height="7"/>
		</g>
	</g>
</g>
<g>
	<g>
		<path class="st32" d="M63.1,203.5c-0.8,3.6-4.3,5.9-7.9,5.1c-1-0.2-3.8,0.4-3.8,0.4s0-2.7-0.4-3.3c-0.9-1.4-1.3-3.2-0.9-5
			c0.8-3.6,4.3-5.9,7.9-5.1C61.6,196.3,63.9,199.9,63.1,203.5z"/>
		<path class="st36" d="M62.1,199.6c2.5,0.5,4,3,3.5,5.4c-0.1,0.7,0.3,2.6,0.3,2.6s-1.8,0-2.3,0.3c-1,0.6-2.2,0.9-3.4,0.6
			c-2.5-0.5-4-3-3.5-5.4C57.2,200.7,59.7,199.1,62.1,199.6z"/>
		<g>
			<g>
				<path class="st22" d="M63.3,203.7h-4c-0.2,0-0.4-0.2-0.4-0.4l0,0c0-0.2,0.2-0.4,0.4-0.4h4c0.2,0,0.4,0.2,0.4,0.4l0,0
					C63.7,203.5,63.5,203.7,63.3,203.7z"/>
			</g>
			<g>
				<path class="st22" d="M61.8,205.3h-2.6c-0.2,0-0.4-0.2-0.4-0.4l0,0c0-0.2,0.2-0.4,0.4-0.4h2.6c0.2,0,0.4,0.2,0.4,0.4l0,0
					C62.2,205.1,62,205.3,61.8,205.3z"/>
			</g>
		</g>
	</g>
</g>
<g>
	<g id="Layer_1-2">
		<path class="st42" d="M20.2,203.7H20c-0.4,0-0.8-0.3-0.8-0.8v-1.1h0.9"/>
		<path d="M20.2,203.9H20c-0.5,0-1-0.4-1-0.9v-1.3h1.1v0.4h-0.7v0.8c0,0.3,0.2,0.5,0.5,0.5l0,0h0.2L20.2,203.9L20.2,203.9z"/>
		<path class="st42" d="M20.1,203.7h0.2c0.4,0,0.8-0.3,0.8-0.8v-1.1h-0.9"/>
		<path d="M20.3,203.9h-0.2v-0.4h0.2c0.3,0,0.5-0.2,0.5-0.5v-0.8h-0.7v-0.4h1.1v1.3C21.3,203.4,20.8,203.9,20.3,203.9z"/>
		<path class="st34" d="M20.2,202.8h1.2l1.5,0.7c1.8,0.8,3,1.9,3.3,3.6h-0.1c-1.8,1.1-3.8,1.7-5.9,1.7l0,0c-2.1,0-4.1-0.6-5.9-1.7
			h-0.1c0.3-1.7,1.5-2.8,3.2-3.6l1.6-0.7H20.2"/>
		<path class="st43" d="M20.2,209c-2.1,0-4.3-0.5-6.1-1.7H14c-0.1,0-0.1-0.1-0.1-0.2c0.3-1.6,1.3-2.8,3.4-3.8l1.6-0.8H19h2.5h0.1
			l1.6,0.8c2.1,1,3.1,2.1,3.4,3.8c0,0.1,0,0.2-0.1,0.2h-0.1C24.4,208.5,22.3,209.1,20.2,209z M14.4,207c1.7,1.1,3.7,1.6,5.8,1.6
			c2,0,4.1-0.5,5.8-1.6c-0.3-1.4-1.2-2.4-3.1-3.3l-1.5-0.7h-2.3l-1.5,0.7C15.6,204.6,14.7,205.6,14.4,207z"/>
		<path d="M20.2,209c-2.1,0-4.3-0.5-6.1-1.7H14c-0.1,0-0.1-0.1-0.1-0.2c0.3-1.6,1.3-2.8,3.4-3.8l1.6-0.8H19h2.5h0.1l1.6,0.8
			c2.1,1,3.1,2.1,3.4,3.8c0,0.1,0,0.2-0.1,0.2h-0.1C24.4,208.5,22.3,209.1,20.2,209z M14.4,207c1.7,1.1,3.7,1.6,5.8,1.6
			c2,0,4.1-0.5,5.8-1.6c-0.3-1.4-1.2-2.4-3.1-3.3l-1.5-0.7h-2.3l-1.5,0.7C15.6,204.6,14.7,205.6,14.4,207z"/>
		<path class="st42" d="M23.5,192.3v6.7c-0.2,1.7-1.6,3-3.4,2.9c-1.7,0.1-3.2-1.2-3.4-2.9v-6.7"/>
		<path d="M20.1,202.1c-1.8,0.1-3.4-1.3-3.6-3.1v-6.7h0.4v6.7c0.2,1.6,1.6,2.8,3.2,2.7c1.6,0.1,3-1.1,3.2-2.7v-6.6h0.4v6.7
			C23.5,200.8,21.9,202.2,20.1,202.1z"/>
		<path d="M19.6,195.7h-0.1c-0.6-0.4-1.3-0.4-1.9,0c-0.1,0.1-0.2,0.1-0.3,0l0,0c-0.1-0.1-0.1-0.2,0-0.3c0.7-0.5,1.7-0.5,2.4,0
			C19.8,195.5,19.8,195.6,19.6,195.7L19.6,195.7C19.7,195.7,19.6,195.7,19.6,195.7z"/>
		<path d="M23,195.7h-0.1c-0.6-0.4-1.3-0.4-1.8,0c-0.1,0.1-0.2,0.1-0.3,0l0,0c-0.1-0.1,0-0.2,0-0.3c0.7-0.5,1.7-0.5,2.4,0
			c0.1,0.1,0.1,0.2,0,0.3C23.1,195.7,23,195.7,23,195.7L23,195.7z"/>
		<path d="M19.9,198.5c-0.1,0-0.2-0.1-0.2-0.2s0.1-0.2,0.2-0.2c0.3,0,0.5-0.2,0.5-0.5l0,0c0-0.3-0.2-0.5-0.5-0.5l0,0
			c-0.1,0-0.2-0.1-0.2-0.2c0-0.1,0.1-0.2,0.2-0.2c0.5,0,0.9,0.5,0.9,1.1C20.7,198,20.3,198.4,19.9,198.5z"/>
		<ellipse cx="18.5" cy="196.7" rx="0.5" ry="0.5"/>
		<ellipse cx="21.8" cy="196.7" rx="0.5" ry="0.5"/>
		<path class="st42" d="M16.2,195.7h0.1c0.2,0,0.4,0.2,0.4,0.4v2c0,0.2-0.2,0.4-0.4,0.4h-0.1c-0.2,0-0.4-0.2-0.4-0.4v-2
			C15.8,195.9,15.9,195.7,16.2,195.7z"/>
		<path d="M16.3,198.8h-0.1c-0.3,0-0.6-0.3-0.6-0.6v-2c0-0.3,0.3-0.6,0.6-0.6h0.1c0.3,0,0.6,0.3,0.6,0.6l0,0v2
			C16.9,198.5,16.7,198.8,16.3,198.8L16.3,198.8z M16.2,195.9c-0.1,0-0.2,0.1-0.2,0.2v2c0,0.1,0.1,0.2,0.2,0.2h0.1
			c0.1,0,0.2-0.1,0.2-0.2v-2c0-0.1-0.1-0.2-0.2-0.2H16.2z"/>
		<path d="M20.1,199.9c-0.6,0-1.2-0.1-1.7-0.4c-0.1,0-0.2-0.2-0.1-0.3c0.1-0.1,0.2-0.2,0.3-0.1c0,0,0,0,0.1,0c1,0.5,2.1,0.5,3,0
			c0.1-0.1,0.2,0,0.3,0.1c0.1,0.1,0,0.2-0.1,0.3C21.2,199.7,20.7,199.9,20.1,199.9z"/>
		<polygon class="st44" points="14.4,191.6 20.1,193.2 25.6,191.7 20,190.2 		"/>
		<path d="M20.1,193.4L20.1,193.4l-5.7-1.6c-0.1,0-0.2-0.2-0.1-0.3c0-0.1,0.1-0.1,0.1-0.1L20,190h0.1l5.6,1.4c0.1,0,0.2,0.1,0.2,0.2
			s-0.1,0.2-0.2,0.2L20.1,193.4L20.1,193.4z M15.3,191.6l4.8,1.3l4.6-1.2l-4.7-1.2L15.3,191.6z"/>
		<path class="st44" d="M16.8,193.9c2.2,0.8,4.5,0.8,6.7,0.1v-1.7l-3.4,0.9l-3.3-0.9V193.9z"/>
		<path d="M20.2,194.7c-1.2,0-2.4-0.2-3.5-0.6c-0.1,0-0.1-0.1-0.1-0.2v-1.6c0-0.1,0-0.1,0.1-0.2c0.1,0,0.1,0,0.2,0l3.2,0.8l3.3-0.9
			c0.1,0,0.2,0.1,0.2,0.2l0,0v1.7c0,0.1-0.1,0.2-0.1,0.2C22.4,194.5,21.3,194.7,20.2,194.7z M17,193.7c2,0.7,4.2,0.7,6.2,0v-1.2
			l-3.1,0.8H20l-3-0.8L17,193.7z"/>
		<path d="M20.1,191.8h-5.4c-0.1,0-0.2-0.1-0.2-0.2c0-0.1,0.1-0.2,0.2-0.2h5.4c0.1,0,0.2,0.1,0.2,0.2
			C20.3,191.8,20.2,191.8,20.1,191.8z"/>
		<path d="M14.5,194.9c-0.1,0-0.2-0.1-0.2-0.2l0,0v-3c0-0.1,0.1-0.2,0.2-0.2s0.2,0.1,0.2,0.2v3C14.7,194.8,14.6,194.9,14.5,194.9
			L14.5,194.9z"/>
		<path d="M14.8,196.2h-0.5c-0.2,0-0.3-0.1-0.4-0.2c-0.1-0.1-0.1-0.3,0-0.5l0.4-0.9c0-0.1,0.1-0.1,0.2-0.1l0,0c0.1,0,0.2,0,0.2,0.1
			l0.5,0.9c0.1,0.2,0.1,0.3,0,0.5C15.1,196.1,14.9,196.2,14.8,196.2z M14.5,195.2l-0.3,0.5l0,0h0.5l0,0L14.5,195.2z"/>
		<path class="st42" d="M24,195.7h0.1c0.2,0,0.4,0.2,0.4,0.4v2c0,0.2-0.2,0.4-0.4,0.4H24c-0.2,0-0.4-0.2-0.4-0.4v-2
			C23.6,195.9,23.8,195.7,24,195.7z"/>
		<path d="M24.1,198.8H24c-0.3,0-0.6-0.3-0.6-0.6v-2c0-0.3,0.3-0.6,0.6-0.6h0.1c0.3,0,0.6,0.3,0.6,0.6v2
			C24.8,198.5,24.5,198.8,24.1,198.8z M24,195.9c-0.1,0-0.2,0.1-0.2,0.2v2c0,0.1,0.1,0.2,0.2,0.2h0.1c0.1,0,0.2-0.1,0.2-0.2v-2
			c0-0.1-0.1-0.2-0.2-0.2H24z"/>
		<circle class="st31" cx="26.9" cy="202.3" r="4.9"/>
		<path class="st43" d="M26.9,207.5c-2.8,0-5.1-2.3-5.1-5.1c0-2.8,2.3-5.1,5.1-5.1s5.1,2.3,5.1,5.1C32,205.1,29.7,207.5,26.9,207.5
			L26.9,207.5z M26.9,197.6c-2.6,0-4.7,2.1-4.7,4.7c0,2.6,2.1,4.7,4.7,4.7c2.6,0,4.7-2.1,4.7-4.7l0,0
			C31.6,199.7,29.5,197.6,26.9,197.6z"/>
		<path d="M26.9,207.5c-2.8,0-5.1-2.3-5.1-5.1c0-2.8,2.3-5.1,5.1-5.1s5.1,2.3,5.1,5.1C32,205.1,29.7,207.5,26.9,207.5L26.9,207.5z
			 M26.9,197.6c-2.6,0-4.7,2.1-4.7,4.7c0,2.6,2.1,4.7,4.7,4.7c2.6,0,4.7-2.1,4.7-4.7l0,0C31.6,199.7,29.5,197.6,26.9,197.6z"/>
		<path d="M26.2,204.4L26.2,204.4c-0.1,0-0.1,0-0.2-0.1l-1.5-1.7c-0.1-0.1-0.1-0.2,0-0.3s0.2-0.1,0.3,0l1.3,1.5l3.3-3.6
			c0.1-0.1,0.2-0.1,0.3,0c0.1,0.1,0.1,0.2,0,0.3L26.2,204.4C26.3,204.4,26.2,204.4,26.2,204.4z"/>
	</g>
</g>
</svg>
