<?xml version="1.0" encoding="UTF-8" standalone="no"?>
<svg xmlns="http://www.w3.org/2000/svg" height="23px" width="59px" version="1.1" xmlns:xlink="http://www.w3.org/1999/xlink" viewBox="0 0 59 23"><!-- Generator: Sketch 54.1 (76490) - https://sketchapp.com -->
 <title>Artboard</title>
 <desc>Created with Sketch.</desc>
 <g id="Artboard" fill-rule="evenodd" fill="none">
  <g id="Group-24" transform="translate(1)">
   <path id="Fill-1" opacity=".34422" fill="#999" d="m25.336 21.219h-24.21c-0.6215 0-1.126-0.496-1.126-1.109-9.5923e-14 -0.614 0.5045-1.11 1.1265-1.11h24.21c0.622 0 1.126 0.496 1.126 1.11 0 0.613-0.504 1.109-1.126 1.109"/>
   <g id="Group-10" transform="translate(3)">
    <g id="Group-7" transform="translate(0 .96154)">
     <polygon id="Fill-1" points="2.6751 18.232 18.341 18.232 18.341 8.6224 2.6751 8.6224" fill="#FB8A00"/>
     <polygon id="Stroke-2" stroke-linejoin="round" stroke="#000" stroke-linecap="round" stroke-width=".5" points="2.6751 18.232 18.341 18.232 18.341 8.6224 2.6751 8.6224"/>
     <g id="Group-5" transform="translate(8.8846 8)">
      <polyline id="Fill-3" points="0.25547 0.69032 0.25547 10.242 3.0477 10.242 3.0477 0.69032" fill="#fff"/>
      <polyline id="Stroke-4" stroke-linejoin="round" stroke="#000" stroke-linecap="round" stroke-width=".5" points="0.25547 0.69032 0.25547 10.242 3.0477 10.242 3.0477 0.69032"/>
     </g>
     <g id="Group-8" transform="translate(8.0769 16.8)">
      <polyline id="Fill-6" points="0.45344 1.4029 0.45344 0.45168 4.4087 0.45168 4.4087 1.4029" fill="#fff"/>
      <polyline id="Stroke-7" stroke-linejoin="round" stroke="#000" stroke-linecap="round" stroke-width=".5" points="0.45344 1.4029 0.45344 0.45168 4.4087 0.45168 4.4087 1.4029"/>
     </g>
     <g id="Group-11" transform="translate(15.346 8)">
      <polyline id="Fill-9" points="0.48348 0.69032 0.48348 10.242 3.2757 10.242 3.2757 0.69032" fill="#fff"/>
      <polyline id="Stroke-10" stroke-linejoin="round" stroke="#000" stroke-linecap="round" stroke-width=".5" points="0.48348 0.69032 0.48348 10.242 3.2757 10.242 3.2757 0.69032"/>
     </g>
     <g id="Group-14" transform="translate(14.538 16.8)">
      <polyline id="Fill-12" points="0.68105 1.4029 0.68105 0.45168 4.6363 0.45168 4.6363 1.4029" fill="#fff"/>
      <polyline id="Stroke-13" stroke-linejoin="round" stroke="#000" stroke-linecap="round" stroke-width=".5" points="0.68105 1.4029 0.68105 0.45168 4.6363 0.45168 4.6363 1.4029"/>
     </g>
     <g id="Group-17" transform="translate(2.4231 8)">
      <polyline id="Fill-15" points="0.027946 0.69032 0.027946 10.242 2.8201 10.242 2.8201 0.69032" fill="#fff"/>
      <polyline id="Stroke-16" stroke-linejoin="round" stroke="#000" stroke-linecap="round" stroke-width=".5" points="0.027946 0.69032 0.027946 10.242 2.8201 10.242 2.8201 0.69032"/>
     </g>
     <g id="Group-20" transform="translate(1.6154 16.8)">
      <polyline id="Fill-18" points="0.22591 1.4029 0.22591 0.45168 4.1812 0.45168 4.1812 1.4029" fill="#fff"/>
      <polyline id="Stroke-19" stroke-linejoin="round" stroke="#000" stroke-linecap="round" stroke-width=".5" points="0.22591 1.4029 0.22591 0.45168 4.1812 0.45168 4.1812 1.4029"/>
     </g>
     <polygon id="Fill-21" points="1.2196 19.8 19.797 19.8 19.797 18.239 1.2196 18.239" fill="#fff"/>
     <polygon id="Stroke-22" stroke-linejoin="round" stroke="#000" stroke-linecap="round" stroke-width=".5" points="1.2196 19.8 19.797 19.8 19.797 18.239 1.2196 18.239"/>
     <g id="Group-26" transform="translate(.80769 7.2)">
      <polyline id="Fill-24" points="18.989 0.2708 18.989 1.494 0.41208 1.494 0.41208 0.2708" fill="#fff"/>
      <polyline id="Stroke-25" stroke-linejoin="round" stroke="#000" stroke-linecap="round" stroke-width=".5" points="18.989 0.2708 18.989 1.494 0.41208 1.494 0.41208 0.2708"/>
     </g>
     <polygon id="Fill-27" points="0.20208 7.4302 20.814 7.4302 10.5 0.26784" fill="#00C4EF"/>
     <g id="Group-36">
      <polygon id="Stroke-28" stroke-linejoin="round" stroke="#000" stroke-linecap="round" stroke-width=".5" points="0.20184 7.4302 10.5 0.26776 20.815 7.4302"/>
      <path id="Fill-30" fill="#fff" d="m12.138 4.4911c0-0.8912-0.73-1.6144-1.63-1.6144-0.8999 0-1.6292 0.7232-1.6292 1.6144s0.7293 1.6144 1.6292 1.6144c0.9 0 1.63-0.7232 1.63-1.6144"/>
      <path id="Stroke-32" stroke-linejoin="round" d="m12.138 4.4911c0-0.8912-0.73-1.6144-1.63-1.6144-0.8999 0-1.6292 0.7232-1.6292 1.6144s0.7293 1.6144 1.6292 1.6144c0.9 0 1.63-0.7232 1.63-1.6144z" stroke="#000" stroke-linecap="round" stroke-width=".5"/>
      <polygon id="Stroke-34" stroke-linejoin="round" stroke="#000" stroke-linecap="round" stroke-width=".5" points="0.20184 7.4302 10.5 0.26776 20.815 7.4302"/>
     </g>
    </g>
   </g>
  </g>
  <g id="Group-23" transform="translate(33 2)">
   <path id="Fill-1" opacity=".34422" fill="#999" d="m22.022 19.219h-21.043c-0.5405 0-0.979-0.496-0.979-1.109 0-0.614 0.4385-1.11 0.97911-1.11h21.043c0.54 0 0.978 0.496 0.978 1.11 0 0.613-0.438 1.109-0.978 1.109"/>
   <g id="Group-35" transform="translate(4)">
    <g id="Group-34" transform="translate(0 .63333)">
     <polygon id="Fill-1" points="1.472 16.93 15.312 16.93 15.312 0.17712 1.472 0.17712" fill="#00C4EF"/>
     <g id="Group-33" transform="translate(0 .11702)">
      <polygon id="Stroke-2" stroke-linejoin="round" stroke="#000" stroke-linecap="round" stroke-width=".5" points="1.472 16.813 15.312 16.813 15.312 0.060101 1.472 0.060101"/>
      <path id="Fill-4" fill="#fff" d="m14.03 18.207h-13.118c-0.40342 0-0.72996-0.318-0.72996-0.71v-16.213l11.002-0.0003 2.846 2.7901v14.133z"/>
      <path id="Stroke-5" stroke-linejoin="round" d="m14.03 18.207h-13.118c-0.40342 0-0.72996-0.318-0.72996-0.71v-16.213l11.002-0.0003 2.846 2.7901v14.133z" stroke="#000" stroke-linecap="round" stroke-width=".5"/>
      <polygon id="Fill-6" points="11.184 1.284 11.184 4.1292 14.03 4.1292" fill="#fff"/>
      <polygon id="Stroke-7" stroke-linejoin="round" stroke="#000" stroke-linecap="round" stroke-width=".5" points="11.184 1.284 11.184 4.1292 14.03 4.1292"/>
      <g id="Group-10" transform="translate(5.8182 8.4848)">
       <path id="Fill-8" fill="#fff" d="m0.22531 0.88695h5.9447"/>
       <path id="Stroke-9" stroke-linejoin="round" d="m0.22531 0.88695h5.9447" stroke="#000" stroke-linecap="round" stroke-width=".5"/>
      </g>
      <g id="Group-13" transform="translate(5.8182 9.899)">
       <path id="Fill-11" fill="#fff" d="m0.22531 0.5769h3.4356"/>
       <path id="Stroke-12" stroke-linejoin="round" d="m0.22531 0.5769h3.4356" stroke="#000" stroke-linecap="round" stroke-width=".5"/>
      </g>
      <g id="Group-16" transform="translate(5.8182 12.727)">
       <path id="Fill-14" fill="#fff" d="m0.22531 0.8738h5.9447"/>
       <path id="Stroke-15" stroke-linejoin="round" d="m0.22531 0.8738h5.9447" stroke="#000" stroke-linecap="round" stroke-width=".5"/>
      </g>
      <g id="Group-19" transform="translate(5.8182 14.141)">
       <path id="Fill-17" fill="#fff" d="m0.22531 0.56375h3.4356"/>
       <path id="Stroke-18" stroke-linejoin="round" d="m0.22531 0.56375h3.4356" stroke="#000" stroke-linecap="round" stroke-width=".5"/>
      </g>
      <polygon id="Fill-20" points="2.6865 10.843 4.8415 10.843 4.8415 8.7479 2.6865 8.7479" fill="#FB8A00"/>
      <polygon id="Stroke-21" stroke-linejoin="round" stroke="#000" stroke-linecap="round" stroke-width=".5" points="2.6865 10.843 4.8415 10.843 4.8415 8.7479 2.6865 8.7479"/>
      <polygon id="Fill-22" points="2.6865 15.071 4.8415 15.071 4.8415 12.975 2.6865 12.975" fill="#FB8A00"/>
      <polygon id="Stroke-23" stroke-linejoin="round" stroke="#000" stroke-linecap="round" stroke-width=".5" points="2.6865 15.071 4.8415 15.071 4.8415 12.975 2.6865 12.975"/>
      <g id="Group-26" transform="translate(2.1818 4.2424)">
       <path id="Fill-24" fill="#fff" d="m0.50444 0.58243h6.9353"/>
       <path id="Stroke-25" stroke-linejoin="round" d="m0.50444 0.58243h6.9353" stroke="#000" stroke-linecap="round" stroke-width=".5"/>
      </g>
      <g id="Group-29" transform="translate(2.1818 4.9495)">
       <path id="Fill-27" fill="#fff" d="m0.50444 0.90003h8.7353"/>
       <path id="Stroke-28" stroke-linejoin="round" d="m0.50444 0.90003h8.7353" stroke="#000" stroke-linecap="round" stroke-width=".5"/>
      </g>
      <g id="Group-32" transform="translate(2.1818 6.3636)">
       <path id="Fill-30" fill="#fff" d="m0.50444 0.59069h3.3004"/>
       <path id="Stroke-31" stroke-linejoin="round" d="m0.50444 0.59069h3.3004" stroke="#000" stroke-linecap="round" stroke-width=".5"/>
      </g>
     </g>
    </g>
   </g>
  </g>
 </g>
</svg>
