<?xml version="1.0" encoding="utf-8"?>
<!-- Generator: Adobe Illustrator 22.1.0, SVG Export Plug-In . SVG Version: 6.00 Build 0)  -->
<svg version="1.1" xmlns="http://www.w3.org/2000/svg" xmlns:xlink="http://www.w3.org/1999/xlink" x="0px" y="0px" width="600px"
	 height="190.9px" viewBox="0 0 600 190.9" style="enable-background:new 0 0 600 190.9;" xml:space="preserve">
<style type="text/css">
	.st0{fill:#FFFFFF;}
	.st1{fill:#003254;}
	.st2{fill:#E6E5E5;}
	.st3{fill:#EE9521;}
	.st4{fill:#00A5B5;}
	.st5{fill:#10ABBA;}
	.st6{fill:none;}
	.st7{fill:#ACACAC;}
	.st8{fill:#E7E6E6;}
	.st9{fill:#EF9523;}
	.st10{fill:#15515F;}
	.st11{fill:none;stroke:#15515F;stroke-width:2;}
	.st12{fill:#F4F4F4;}
	.st13{fill:#F9F9F9;}
	.st14{fill:#BABBBD;}
	.st15{fill:none;stroke:#00A5B5;stroke-miterlimit:10;}
	.st16{fill:#F8E0A4;}
	.st17{fill:#063E54;}
	.st18{fill:#ED9835;}
	.st19{fill:#ED9835;stroke:#003254;stroke-miterlimit:10;}
	.st20{clip-path:url(#SVGID_2_);}
	.st21{opacity:0.4;fill:#676768;enable-background:new    ;}
	.st22{fill:none;stroke:#FFFFFF;stroke-width:2;stroke-miterlimit:10;}
	.st23{fill:#EE9524;}
	.st24{clip-path:url(#SVGID_4_);fill:#E7E6E6;}
	.st25{clip-path:url(#SVGID_6_);fill:#E7E6E6;}
	.st26{clip-path:url(#SVGID_8_);fill:#E7E6E6;}
	.st27{clip-path:url(#SVGID_10_);fill:#E7E6E6;}
	.st28{clip-path:url(#SVGID_12_);fill:#E7E6E6;}
	.st29{clip-path:url(#SVGID_14_);fill:#E7E6E6;}
	.st30{clip-path:url(#SVGID_16_);fill:#E7E6E6;}
	.st31{clip-path:url(#SVGID_18_);fill:#E7E6E6;}
	.st32{clip-path:url(#SVGID_20_);fill:#E7E6E6;}
	.st33{clip-path:url(#SVGID_22_);fill:#E7E6E6;}
	.st34{clip-path:url(#SVGID_24_);fill:#E7E6E6;}
	.st35{clip-path:url(#SVGID_26_);fill:#E7E6E6;}
	.st36{clip-path:url(#SVGID_28_);fill:#E7E6E6;}
	.st37{clip-path:url(#SVGID_30_);fill:#E7E6E6;}
	.st38{clip-path:url(#SVGID_32_);fill:#E7E6E6;}
	.st39{clip-path:url(#SVGID_34_);fill:#E7E6E6;}
	.st40{clip-path:url(#SVGID_36_);fill:#E7E6E6;}
	.st41{clip-path:url(#SVGID_38_);fill:#E7E6E6;}
	.st42{clip-path:url(#SVGID_40_);fill:#15515F;}
	.st43{clip-path:url(#SVGID_42_);fill:#FFFFFF;}
	.st44{clip-path:url(#SVGID_44_);fill:#0FA6B5;}
	.st45{clip-path:url(#SVGID_46_);fill:#0FA6B5;}
	.st46{clip-path:url(#SVGID_48_);fill:#15515F;}
	.st47{clip-path:url(#SVGID_50_);fill:#FFFFFF;}
	.st48{clip-path:url(#SVGID_52_);fill:#FFFFFF;}
	.st49{clip-path:url(#SVGID_54_);fill:#15515F;}
	.st50{fill:none;stroke:#15515F;stroke-miterlimit:10;}
	.st51{fill:none;stroke:#15515F;stroke-width:1.5;stroke-miterlimit:10;}
	.st52{clip-path:url(#SVGID_56_);fill:#E7E6E6;}
	.st53{clip-path:url(#SVGID_58_);fill:#FFFFFF;}
	.st54{clip-path:url(#SVGID_60_);fill:none;stroke:#15515F;stroke-miterlimit:10;}
	.st55{clip-path:url(#SVGID_62_);fill:#FFFFFF;}
	.st56{clip-path:url(#SVGID_64_);fill:none;stroke:#15515F;stroke-miterlimit:10;}
	.st57{clip-path:url(#SVGID_66_);fill:#FFFFFF;}
	.st58{clip-path:url(#SVGID_68_);fill:none;stroke:#15515F;stroke-miterlimit:10;}
	.st59{clip-path:url(#SVGID_70_);fill:#FFFFFF;}
	.st60{clip-path:url(#SVGID_72_);fill:none;stroke:#15515F;stroke-miterlimit:10;}
	.st61{clip-path:url(#SVGID_74_);fill:#0FA6B5;}
	.st62{clip-path:url(#SVGID_76_);fill:none;stroke:#FFFFFF;stroke-miterlimit:10;}
	.st63{clip-path:url(#SVGID_78_);}
	.st64{clip-path:url(#SVGID_80_);fill:#E7E6E6;}
	.st65{clip-path:url(#SVGID_82_);}
	.st66{clip-path:url(#SVGID_84_);fill:#FFFFFF;}
	.st67{clip-path:url(#SVGID_86_);}
	.st68{clip-path:url(#SVGID_88_);fill:#EF9523;}
	.st69{fill:#3E403F;}
	.st70{fill:#FFA82F;}
	.st71{fill:#008489;}
</style>
<g id="Layer_2">
</g>
<g id="Layer_1">
	<g id="Layer_2_1_">
		<g>
			<polygon id="path-1_2_" class="st0" points="19.2,103.8 37,103.8 37,122 19.2,122 			"/>
		</g>
		<g>
			<path class="st1" d="M562,120h16l4,11h-24L562,120z"/>
			<path class="st2" d="M584,115.5c0,7.7-6.3,14.5-14,14.5s-14-6.8-14-14.5s6.3-13.5,14-13.5S584,107.8,584,115.5z"/>
			<path class="st3" d="M585,99h1v1h-1V99z M582,97h1v1h-1V97z M582,101h1v1h-1V101z M580,103h1v1h-1V103z M578,101h1v1h-1V101z
				 M579,99h3v1h-3V99z M580,98h1v3h-1V98z M582,104h3v1h-3V104z M583,103h1v3h-1V103z"/>
			<g>
				<path class="st4" d="M566,118.5h-1.8l-2.9-5l0,0c0.1,0.9,0.1,1.5,0.1,1.9v3.1h-1.2V112h1.8l2.8,4.9l0,0c0-0.9-0.1-1.5-0.1-1.8
					V112h1.3L566,118.5L566,118.5z"/>
				<path class="st4" d="M567.4,118.5V112h1.4v6.6L567.4,118.5L567.4,118.5z"/>
				<path class="st4" d="M571.9,118.5h-1.4V112h3.8v1.1h-2.4v1.7h2.2v1.1h-2.2L571.9,118.5L571.9,118.5z"/>
				<path class="st4" d="M578,118.5h-1.4v-5.4h-1.8V112h4.9v1.2H578V118.5z"/>
			</g>
		</g>
		<g>
			<polygon class="st5" points="479.8,115.3 484.1,119.9 479.8,124.5 481.1,125.9 486.8,119.9 481.1,113.9 			"/>
			<polygon class="st6" points="495.8,120.9 507.8,120.9 501.8,114.9 			"/>
			<path class="st7" d="M535.8,124.2l-4.3-4.2c0.8-1,1.2-2.3,1.2-3.7c0-3.5-2.8-6.3-6.3-6.3s-6.3,2.8-6.3,6.3s2.8,6.3,6.3,6.3
				c1.4,0,2.6-0.4,3.7-1.2l4.4,4.1c0.2,0.2,0.4,0.2,0.6,0l0.8-0.7C536,124.6,536,124.3,535.8,124.2z M526.4,120.7
				c-2.4,0-4.3-1.9-4.3-4.3s1.9-4.3,4.3-4.3c2.4,0,4.3,1.9,4.3,4.3C530.7,118.7,528.8,120.7,526.4,120.7z"/>
		</g>
	</g>
	<g>
		<g id="Layer_2_2_">
			<g id="PWA_Home-final-change">
				<g id="Artboard" transform="translate(-241.000000, -990.000000)">
					<g id="Group-9" transform="translate(0.000000, 874.000000)">
						<g id="Group-30" transform="translate(236.000000, 116.000000)">
							<g id="Page-1">
								<g id="Group-3" transform="translate(19.791667, 0.663654)">
									<path id="Fill-1" class="st8" d="M13.3,103.1c4.9,0,8.9,4,8.9,8.9c0,2.1-0.7,4-2,5.6c0,1.2,0.3,2.7,1.2,3.6
										c0,0-2.9,0.7-5.1-0.8c-0.9,0.3-1.9,0.5-3,0.5c-4.9,0-8.9-4-8.9-8.9S8.4,103.1,13.3,103.1"/>
								</g>
								<path id="Fill-7" class="st0" d="M35.8,122c0,7-5.7,12.7-12.7,12.7S10.3,129,10.3,122S16,109.3,23,109.3S35.8,115,35.8,122"
									/>
								<path id="Fill-9" class="st9" d="M23,124.5h-6.3v-1.3l2.3-2.3c0.7-0.7,1.1-1.2,1.3-1.4c0.2-0.3,0.4-0.5,0.4-0.7
									c0.1-0.2,0.1-0.5,0.1-0.7c0-0.4-0.1-0.6-0.3-0.8c-0.2-0.2-0.5-0.3-0.8-0.3c-0.4,0-0.7,0.1-1,0.2c-0.3,0.2-0.7,0.4-1,0.7
									l-1-1.2c0.4-0.4,0.8-0.6,1.1-0.8c0.3-0.2,0.6-0.3,1-0.4c0.3-0.1,0.7-0.1,1.2-0.1c0.6,0,1.1,0.1,1.5,0.3
									c0.4,0.2,0.8,0.5,1,0.9s0.4,0.8,0.4,1.3c0,0.4-0.1,0.8-0.2,1.2c-0.1,0.4-0.4,0.7-0.7,1.1c-0.3,0.4-0.8,0.9-1.6,1.6l-1.2,1.1
									v0.1H23V124.5z"/>
								<path id="Fill-11" class="st9" d="M27.4,121.1v-1.5c0-0.3,0-0.6,0-1.1s0-0.8,0-0.8l0,0c-0.2,0.3-0.3,0.7-0.6,1l-1.7,2.5
									L27.4,121.1L27.4,121.1z M30.4,122.6h-1.1v1.9h-1.9v-1.9h-3.9v-1.3l4-5.8h1.8v5.7h1.1V122.6z"/>
								<polygon id="Fill-13" class="st10" points="19.4,128.9 18.7,128.9 18.7,127.4 17.4,127.4 17.4,128.9 16.6,128.9 16.6,125.5 
									17.4,125.5 17.4,126.8 18.7,126.8 18.7,125.5 19.4,125.5 								"/>
								<path id="Fill-15" class="st10" d="M20.7,127.2c0,0.4,0.1,0.7,0.2,0.9s0.4,0.3,0.6,0.3c0.6,0,0.9-0.4,0.9-1.1
									c0-0.8-0.3-1.2-0.9-1.2c-0.3,0-0.5,0.1-0.6,0.3C20.8,126.5,20.7,126.8,20.7,127.2 M23.2,127.2c0,0.6-0.1,1-0.4,1.3
									s-0.7,0.5-1.2,0.5s-0.9-0.2-1.2-0.5c-0.3-0.3-0.4-0.7-0.4-1.3c0-0.6,0.1-1,0.4-1.3s0.7-0.4,1.2-0.4s0.9,0.2,1.2,0.5
									C23.1,126.2,23.2,126.6,23.2,127.2"/>
								<path id="Fill-17" class="st10" d="M26.5,125.5v2.2c0,0.3-0.1,0.5-0.2,0.7s-0.3,0.3-0.5,0.4c-0.2,0.1-0.5,0.2-0.8,0.2
									c-0.4,0-0.8-0.1-1-0.3s-0.4-0.5-0.4-0.9v-2.2h0.7v2.1c0,0.3,0.1,0.5,0.2,0.6s0.3,0.2,0.5,0.2s0.4-0.1,0.5-0.2
									c0.1-0.1,0.2-0.3,0.2-0.6v-2.1L26.5,125.5L26.5,125.5z"/>
								<path id="Fill-19" class="st10" d="M27.9,127h0.2c0.2,0,0.4,0,0.5-0.1s0.2-0.2,0.2-0.4c0-0.2-0.1-0.3-0.2-0.3
									c-0.1-0.1-0.3-0.1-0.5-0.1h-0.2V127z M27.9,127.6v1.3h-0.7v-3.4h1c0.5,0,0.8,0.1,1,0.3c0.2,0.2,0.3,0.4,0.3,0.8
									c0,0.2-0.1,0.4-0.2,0.5c-0.1,0.2-0.3,0.3-0.5,0.4c0.5,0.8,0.8,1.3,1,1.5H29l-0.8-1.3L27.9,127.6L27.9,127.6z"/>
								<path id="Stroke-21" class="st11" d="M22.1,135c-6.5-0.5-11.7-6-11.7-12.7c0-7,5.7-12.7,12.7-12.7"/>
								<path id="Stroke-23" class="st11" d="M26.9,134.2c-1,0.4-2,0.6-3,0.7"/>
								<path id="Stroke-25" class="st11" d="M30.9,131.8c-0.7,0.6-1.4,1.1-2.2,1.6"/>
								<path id="Stroke-27" class="st11" d="M33.8,128.1c-0.3,0.6-0.7,1.2-1.1,1.8"/>
								<path id="Stroke-29" class="st11" d="M35.1,123.9c-0.1,0.6-0.2,1.1-0.3,1.7"/>
								<path id="Stroke-31" class="st11" d="M34.8,119.3c0.1,0.5,0.2,1,0.3,1.5"/>
								<path id="Stroke-33" class="st11" d="M33.1,115.3c0.3,0.4,0.5,0.8,0.7,1.3"/>
								<path id="Fill-35" class="st10" d="M21.4,106.3l0.7,6.9c0,0.1,0.2,0.2,0.3,0.1l4.6-3.9c0.1-0.1,0.1-0.2,0-0.3l-5.3-3
									C21.5,106.1,21.4,106.2,21.4,106.3"/>
							</g>
						</g>
					</g>
				</g>
			</g>
		</g>
		<g>
			<g>
				<path class="st2" d="M63,58h16v24H58V63L63,58z"/>
				<path class="st1" d="M63,58v5h-5L63,58z"/>
				<path class="st4" d="M62,69h13v1H62V69z"/>
				<path class="st3" d="M66,65h6v1h-6V65z"/>
				<path class="st4" d="M62,72h13v1H62V72z M65,75h8v1h-8V75z M63,79v-2h-6v2h-3v7h12v-7H63z"/>
				<path class="st1" d="M54,82h12v4H54V82z M85,72l-4,3V58l4-3V72z"/>
				<path class="st3" d="M85,64l-4,3v-3l4-3V64z M82,83l-1-1V66h1V83z"/>
				<path class="st4" d="M19,20h18v15H14V25L19,20z"/>
				<path class="st2" d="M28,30H10V15h23v10L28,30z"/>
				<path class="st1" d="M28,30v-5h5L28,30z"/>
				<path class="st3" d="M19,23l2-3l2,3H19z"/>
				<circle class="st3" cx="16.5" cy="21.5" r="1.5"/>
				<g>
					<path class="st1" d="M7,14h29v2H7V14z M36,14H7v2h29V14z"/>
				</g>
				<path class="st3" d="M24,20h3v3h-3V20z M39,18v12h2V18l-1-2L39,18z"/>
				<g>
					<path class="st1" d="M39,28h2v4h-2V28z M41,28h-2v4h2V28z"/>
				</g>
				<path class="st3" d="M20,13h1v1h-1V13z M22,13h1v1h-1V13z"/>
				<path class="st4" d="M115,70v-4h1v-2h-5v2h1v4l-9,10v4h21v-4L115,70z"/>
				<path class="st1" d="M121,77h-15l-3,3v4h21v-4L121,77z"/>
				<circle class="st3" cx="126.5" cy="57.5" r="2.5"/>
				<circle class="st3" cx="117.5" cy="59.5" r="2.5"/>
				<circle class="st3" cx="124.5" cy="71.5" r="2.5"/>
				<circle class="st3" cx="122.5" cy="64.5" r="1.5"/>
				<circle class="st12" cx="108.5" cy="79.5" r="1.5"/>
				<path class="st1" d="M109,64h9v2h-9V64z"/>
				<path class="st2" d="M57,20h26v14H57V20z"/>
				<path class="st4" d="M57,21v-2l13-7l13,7v2H57z M55,19h30v2H55V19z"/>
				<path class="st0" d="M62,21h2v12h-2V21z M76,21h2v12h-2V21z"/>
				<path class="st1" d="M55,33h30v2H55V33z"/>
				<path class="st3" d="M72,24h-1.7c0,0,0.6,0.5,0.7,1h2l-1,1h-1c-0.1,1.1-0.8,1.9-2,2l3,3l-0.7,0.6l-4.2-4.3l1-0.3
					c0.7,0,1.8,0,2-1h-3v-1h3c-0.2-0.6-0.8-0.9-1-1h-2v-1h6L72,24z M164,70l-4-4v-4h-4v4l-4,4v11h12V70z"/>
				<path class="st1" d="M154,61h8v2h-8V61z M155,75h6v2h-6V75z"/>
				<path class="st13" d="M155,72h6v3h-6V72z"/>
				<path class="st4" d="M166,62h5v13h-5V62z"/>
				<path class="st0" d="M166,67h5v7h-5V67z"/>
				<path class="st4" d="M167,75h3v3h-3V75z"/>
				<path class="st2" d="M167,57h3v5h-3V57z"/>
				<path class="st1" d="M166,72h5v3h-5V72z M169,83l-1,1v-6h1V83z"/>
				<path class="st4" d="M165,56h7v1h-7V56z"/>
				<path class="st1" d="M107,14h1v4h-1V14z M110,15h5v3h-5V15z"/>
				<path class="st4" d="M115,13h10v5h-10V13z"/>
				<path class="st14" d="M115,28h7v3h-7V28z"/>
				<path class="st3" d="M120,27h-13V17h21v3L120,27z"/>
				<path class="st1" d="M107,31v1h16.8v-1"/>
				<path class="st1" d="M104,14h4v1h-4V14z"/>
				<path class="st12" d="M110,19h1v4h-1V19z M113,19h1v4h-1V19z M116,19h1v4h-1V19z M119,19h1v4h-1V19z"/>
				<circle class="st1" cx="108" cy="32" r="3"/>
				<circle class="st1" cx="123" cy="33" r="2"/>
				<path class="st1" d="M268,82l-6.5-6.5L268,69V82z"/>
				<path class="st2" d="M242,70h20v11h-20V70z"/>
				<path class="st1" d="M261,71v9h-18v-9H261 M263,69h-22v13h22V69z M241,78h22v4h-22V78z"/>
				<path class="st0" d="M243,79h4v1h-4V79z"/>
				<path class="st3" d="M249,79h2v1h-2V79z"/>
				<circle class="st3" cx="246" cy="64" r="3"/>
				<circle class="st4" cx="255.5" cy="62.5" r="4.5"/>
				<path class="st1" d="M147,20h24v14h-24V20z"/>
				<path class="st2" d="M149,22h20v11h-20V22z"/>
				<path class="st3" d="M151,24h16v1h-16V24z M151,26h11v1h-11V26z"/>
				<path class="st0" d="M151,28h3v1h-3V28z"/>
				<path class="st1" d="M144,35h30v2h-30V35z"/>
				<g>
					<path class="st15" d="M170,18c2,0,3,1,3,3 M170,15c3,0,6,3,6,6 M170,12c5,0,9,4,9,9"/>
				</g>
				<path class="st1" d="M201,67h14v10h-14V67z M220,83c0-5.1-5.6-9-12-9s-12,3.9-12,9H220z"/>
				<path class="st0" d="M207.5,74c-1.6,0-2.5,0.2-4.5,0.7V83h10v-8C212,74.4,209.5,74,207.5,74z"/>
				<path class="st3" d="M207,76l-1,7h4l-1-7H207z"/>
				<path class="st16" d="M208,76c-4,0-7-5-7-9c0-7,4-8,7-8s7,1,7,8C215,72,212,76,208,76z"/>
				<path class="st1" d="M201,67l11-3l3,3c0,0,1-8-7-8C200.2,59,201.1,67,201,67"/>
				<path class="st4" d="M199,74c0-3-2-5-5-5s-5,2-5,5H199z"/>
				<path class="st0" d="M193,71h2v3h-2V71z"/>
				<path class="st16" d="M197,66c0,2,0,5-3,5s-3-3-3-5c0-1,0-3,3.1-3C197,63,197,65,197,66z"/>
				<path class="st17" d="M195,66h2c0,0,0.5-3-2.9-3s-3.1,4-3.1,4L195,66z"/>
				<path class="st4" d="M227,74c0-3-2-5-5-5s-5,2-5,5H227z"/>
				<path class="st0" d="M221,71h2v3h-2V71z"/>
				<path class="st16" d="M225,66c0,2,0,5-3,5s-3-3-3-5c0-1,0-3,3.1-3C225,63,225,65,225,66z"/>
				<path class="st17" d="M223,66h2c0,0,0.5-3-2.9-3s-3.1,4-3.1,4L223,66z"/>
				<path class="st14" d="M212,32c0-4.3-3.5-8-9-8s-9,3.7-9,8v6h14v-4h4V32z"/>
				<path class="st3" d="M221,32c0-3-2-6-6-6s-6,3-6,6v1h12V32z"/>
				<path class="st16" d="M209,19c0,2,0,8-6,8s-6-6-6-8s0-6,6-6S209,17,209,19z"/>
				<path class="st1" d="M204,18h5c0,0,0-5-6-5s-6,7-6,7L204,18z M207,32h16v2h-16V32z"/>
				<path class="st4" d="M212,12c0-1.7-1.3-3-3-3s-3,1.5-3,3c0-1.5-1.3-3-3-3s-3,1.5-3,3c0-1.5-1.3-3-3-3s-3,1.3-3,3
					c0,1.1,1.1,2.5,2,3v3h14v-3C210.9,14.5,212,13.1,212,12z"/>
				<path class="st1" d="M201,28h4v2h-4V28z M214,25h2v1h-2V25z"/>
				<path class="st16" d="M215,34h-7v4h4L215,34z"/>
				<path class="st14" d="M469,67h6v14h-6V67z M486,67h13v14h-13V67z"/>
				<path class="st2" d="M474,66h12v17h-12V66z"/>
				<path class="st3" d="M479,74h2v9h-2V74z"/>
				<path class="st1" d="M476,74h1v3h-1V74z M483,74h1v3h-1V74z M488,74h1v3h-1V74z M471,74h1v3h-1V74z"/>
				<path class="st4" d="M475,63h11v3h-11V63z"/>
				<path class="st1" d="M496.4,73.8l-2.1,2.1l-5.7-5.7l2.1-2.1L496.4,73.8z"/>
				<path class="st0" d="M485.4,71.3c-3.6,0-6.6-2.9-6.6-6.6c0-3.6,2.9-6.6,6.6-6.6c3.6,0,6.6,2.9,6.6,6.6
					C492,68.3,489,71.3,485.4,71.3z"/>
				<path class="st1" d="M485.4,59.2c3.1,0,5.6,2.5,5.6,5.6c0,3.1-2.5,5.6-5.6,5.6s-5.6-2.5-5.6-5.6
					C479.8,61.6,482.3,59.2,485.4,59.2 M485.4,57.2c-4.2,0-7.6,3.4-7.6,7.6s3.4,7.6,7.6,7.6s7.6-3.4,7.6-7.6
					C493,60.5,489.6,57.2,485.4,57.2z M479,74h2v1h-2V74z"/>
				<path class="st3" d="M500,20h-5l-4,4v-4h-3c0-5,0-4,0-11c5,0,12,0,12,0C500,15,500,14,500,20z"/>
				<path class="st4" d="M492,41c0-5.1-5.6-9-12-9s-12,3.9-12,9H492z"/>
				<path class="st16" d="M480,34c-4,0-7-5-7-9c0-7,4-8,7-8c2.9,0,7,1,7,8C487,30,484,34,480,34z"/>
				<path class="st1" d="M473,25l11-3l3,3c0,0,1-8-7-8C472.2,17,473.1,25,473,25"/>
				<g>
					<path class="st0" d="M493,17h1v1h-1V17z M492,11v2h1v-1h2v2h-2v2h1v-1h2v-4H492z"/>
				</g>
				<path class="st1" d="M522,76h16l4,11h-24L522,76z"/>
				<circle class="st2" cx="530" cy="72" r="14"/>
				<path class="st4" d="M530,66l-2,6h4L530,66z"/>
				<path class="st1" d="M536,72l-3,6h6L536,72z"/>
				<circle class="st1" cx="536" cy="69" r="2"/>
				<path class="st1" d="M524,70l-3,6h6L524,70z"/>
				<circle class="st1" cx="524" cy="67" r="2"/>
				<circle class="st4" cx="530" cy="63" r="2"/>
				<path class="st14" d="M521,74h6v5h-6V74z M533,76h6v3h-6V76z"/>
				<path class="st0" d="M526,73h8v7h-8V73z"/>
				<path class="st3" d="M545,55h1v1h-1V55z M542,53h1v1h-1V53z M542,57h1v1h-1V57z M540,59h1v1h-1V59z M538,57h1v1h-1V57z M539,55
					h3v1h-3V55z M540,54h1v3h-1V54z M542,60h3v1h-3V60z M543,59h1v3h-1V59z M547,19h-6l-4,4v-4h-9c0-5,0-4,0-11c5,0,19,0,19,0
					C547,14,547,13,547,19z"/>
				<path class="st4" d="M538,41c0-5.1-5.6-9-12-9s-12,3.9-12,9H538z"/>
				<path class="st0" d="M526,32c-1.6,0-3.6,0.6-5,1v8h10v-8C529.3,32.3,528,32,526,32z"/>
				<path class="st1" d="M525,34l-1,7h4l-1-7H525z"/>
				<path class="st0" d="M542.2,13.6l0.6,2.4l-1.8-1.8l-1.8,1.8l0.6-2.4l-1.8-1.2h2.4L541,10l0.6,2.4h2.4L542.2,13.6z M535.2,13.6
					l0.6,2.4l-1.8-1.8l-1.8,1.8l0.6-2.4l-1.8-1.2h2.4L534,10l0.6,2.4h2.4L535.2,13.6z"/>
				<path class="st16" d="M526,34c-4,0-7-4-7-9c0-7,4-8,7-8s7,1,7,8C533,30,530,34,526,34z"/>
				<path class="st1" d="M519,25l11-3l3,3c0,0,1-8-7-8C518.2,17,519.1,25,519,25"/>
				<path class="st1" d="M430,76h16l4,11h-24L430,76z"/>
				<path class="st2" d="M452,71.5c0,7.7-6.3,14.5-14,14.5s-14-6.8-14-14.5S430.3,58,438,58S452,63.8,452,71.5z"/>
				<g>
					<path class="st4" d="M431,75v-6h2v6H431z M434,75v-6h2v6H434z M441,75l-2-4v4h-2v-6h2l2,4l2-4h2v6h-2v-4L441,75z"/>
				</g>
				<path class="st3" d="M453,55h1v1h-1V55z M450,53h1v1h-1V53z M450,57h1v1h-1V57z M448,59h1v1h-1V59z M446,57h1v1h-1V57z M447,55
					h3v1h-3V55z M448,54h1v3h-1V54z M450,60h3v1h-3V60z M451,59h1v3h-1V59z"/>
				<path class="st2" d="M456,32h-12l-6,6v-6h-18c0-4,0-20,0-20c5,0,36,0,36,0C456,19,456,27,456,32z"/>
				<path class="st18" d="M449,24l1,4l-3-3l-3,3l1-4l-3-2h4l1-4l1,4h4L449,24z"/>
				<path class="st4" d="M430,24l1,4l-3-3l-3,3l1-4l-3-2h4l1-4l1,4h4L430,24z"/>
				<path class="st1" d="M439.5,21l1,4l-3-3l-3,3l1-4l-3-2h4l1-4l1,4h4L439.5,21z"/>
				<path class="st4" d="M395,34h-7l-4,4v-4h-8c0-5,0-4,0-11c5,0,19,0,19,0C395,29,395,28,395,34z"/>
				<path class="st18" d="M408,28h-6v4l-4-4h-16c0-3,0-2,0-15c5,0,26,0,26,0C408,21,408,24,408,28z"/>
				<path class="st0" d="M382,23h13v5h-13V23z"/>
				<path class="st1" d="M388,25h1v1h-1V25z M390,25h1v1h-1V25z M386,25h1v1h-1V25z"/>
				<path class="st0" d="M386,17h18v1h-18V17z M386,20h12v1h-12V20z"/>
				<path class="st2" d="M376,72h32v12h-32V72z"/>
				<path class="st19" d="M391.5,63v-8"/>
				<path class="st18" d="M392,56l4,2l-4,2V56z"/>
				<path class="st1" d="M410,73l-6-7h-24l-6,7H410z"/>
				<path class="st4" d="M382,73l10-11l10,11H382z"/>
				<path class="st0" d="M385,73h14v11h-14V73z"/>
				<path class="st18" d="M391,77h2v7h-2V77z"/>
				<path class="st1" d="M388,75h1v1h-1V75z M388,77h1v1h-1V77z M391,76h2v1h-2V76z M395,75h1v1h-1V75z M381,75h1v3h-1V75z M379,75
					h1v3h-1V75z M402,75h1v3h-1V75z M404,75h1v3h-1V75z M402,79h1v1h-1V79z M404,79h1v1h-1V79z M379,79h1v1h-1V79z M381,79h1v1h-1
					V79z M395,77h1v1h-1V77z M388,79h1v1h-1V79z M395,79h1v1h-1V79z"/>
				<path class="st4" d="M335,15h22v24h-22V15z"/>
				<path class="st2" d="M331,11h22v24h-22V11z"/>
				<path class="st0" d="M335,17h1v1h-1V17z"/>
				<path class="st1" d="M337,17h4v1h-4V17z M337,20h4v1h-4V20z"/>
				<path class="st0" d="M335,20h1v1h-1V20z M343,17h1v1h-1V17z"/>
				<path class="st1" d="M345,17h4v1h-4V17z M345,20h4v1h-4V20z M335,24h14v1h-14V24z M335,27h14v1h-14V27z M335,30h10v1h-10V30z"/>
				<path class="st0" d="M343,20h1v1h-1V20z"/>
				<path class="st3" d="M339,10h1v1h-1V10z M341,10h1v1h-1V10z M343,10h1v1h-1V10z"/>
				<path class="st18" d="M362,34v-7h-4v7l2,5L362,34z"/>
				<g>
					<path class="st1" d="M361,23v-1h-2v1h-1v4h2v4h1v-4h1v-4H361z M361,22h-2v1h-1v4h2v4h1v-4h1v-4h-1V22z"/>
				</g>
				<path class="st17" d="M344,58h4v2h-4V58z"/>
				<path class="st2" d="M331,60h30v17h-30V60z"/>
				<path class="st3" d="M330,59h32v2h-32V59z"/>
				<path class="st17" d="M331.1,76h29.8v2h-29.8V76z M342,83h8v1h-8V83z"/>
				<path class="st3" d="M351,64h3v2h-3V64z"/>
				<path class="st4" d="M351,66h3v10h-3V66z"/>
				<path class="st3" d="M346,66h3v2h-3V66z"/>
				<path class="st4" d="M346,68h3v8h-3V68z"/>
				<path class="st17" d="M344,78h4v5h-4V78z"/>
				<path class="st3" d="M341,71h3v2h-3V71z"/>
				<path class="st0" d="M341,73h3v3h-3V73z"/>
				<path class="st14" d="M284,31h10v6h-10V31z M293,27h14v2h-14V27z M293,27h2v10h-2V27z M305,27h2v10h-2V27z M288,22l-3,8h6
					L288,22z M312,25l-3,8h6L312,25z M300,16l-5,9h10L300,16z"/>
				<circle class="st18" cx="299.9" cy="14" r="3"/>
				<circle class="st1" cx="312" cy="24" r="3"/>
				<circle class="st4" cx="288" cy="21" r="3"/>
				<path class="st14" d="M307,34h9v3h-9V34z"/>
				<path class="st1" d="M299,59h2v22h-2V59z"/>
				<path class="st4" d="M285,58h30v2h-30V58z"/>
				<circle class="st18" cx="300" cy="59" r="2"/>
				<path class="st18" d="M290,79h20v3h-20V79z"/>
				<path class="st1" d="M289,81h22v3h-22V81z"/>
				<path class="st18" d="M283,71c0,4,3.9,6,7,6c3,0,7-2,7-6H283z M303,67c0,4,3.9,6,7,6c3,0,7-2,7-6H303z"/>
				<path class="st14" d="M290,62h1v7h-1V62z M310,62h1v3h-1V62z"/>
				<path class="st2" d="M563,11h24v19h-24V11z"/>
				<path class="st17" d="M586,26c-2,0-3.5,0.8-4.6,2.1L576,23l-3,3l7,7c0,2.9,0,5,0,5h12c0,0,0-4,0-6C592,28.8,589.6,26,586,26z"/>
				<path class="st3" d="M572,38c0-2.7-2.6-5-6-5s-6,2.3-6,5H572z"/>
				<path class="st16" d="M570,29c0,1,0,5-4,5s-4-4-4-5s0-4,4-4S570,28,570,29z"/>
				<path class="st17" d="M568,28h2c0,0,0-3-4-3s-4,4-4,4L568,28z"/>
				<path class="st16" d="M590,22.4c0,1,0,5-4,5s-4-4-4-5s0-4,4-4S590,21.4,590,22.4z"/>
				<path class="st17" d="M588,21.4h2c0,0,0-3-4-3s-4,4-4,4L588,21.4z"/>
				<path class="st16" d="M584,38h-4l1.3-3h2.7V38z M573,26l-1-1l2-4l2,2L573,26z"/>
				<path class="st4" d="M567,15h12v1h-12V15z M567,18h9v1h-9V18z"/>
				<path class="st3" d="M254,39l-15-14l15-14l15,14L254,39z"/>
				<path class="st2" d="M238,16h32v18h-32V16z"/>
				<path class="st1" d="M256,19h1v1h-1V19z M256,22h10v1h-10V22z M256,25h10v1h-10V25z M256,28h10v1h-10V28z M259,19h1v1h-1V19z
					 M262,19h1v1h-1V19z"/>
				<g>
					<g>
						<g>
							<g>
								<g>
									<g>
										<defs>
											<path id="SVGID_1_" d="M255,24c0,5-4,8-8,8s-8-3-8-8s4-6,8-6S255,19,255,24z"/>
										</defs>
										<clipPath id="SVGID_2_">
											<use xlink:href="#SVGID_1_"  style="overflow:visible;"/>
										</clipPath>
										<g class="st20">
											<path class="st4" d="M253,33c0,3.2-12,3.2-12,0s2.4-6,6-6S253,29.8,253,33z"/>
											<path class="st16" d="M251,23c0,0,0,5-4,5s-4-5-4-5s0-4,4-4S251,23,251,23z"/>
											<path class="st1" d="M249,22h2c-1-3-3.8-3-4-3c-4,0-4,4-4,4L249,22z"/>
										</g>
									</g>
								</g>
							</g>
						</g>
					</g>
				</g>
				<path class="st1" d="M16,76h16l4,11H12L16,76z"/>
				<path class="st2" d="M38,72c-11,0-20,0-28,0c0-7.7,6.3-14,14-14S38,64.3,38,72z"/>
				<path class="st14" d="M10.3,69c-0.1,0.8-0.3,2-0.3,3c0,3.8,1.5,7.3,4,9.8V74h2v9.5c0.6,0.4,1.3,0.8,2,1.1V69H10.3z M30,84.6
					c0.7-0.3,1.4-0.7,2-1.2V74h2v7.8c2.5-2.5,4-6,4-9.8c0-1.8-0.2-2.3-0.3-3H30V84.6z"/>
				<path class="st0" d="M18,69v15.6c0.6,0.3,3.3,1.1,4,1.2V76h4v9.8c1-0.2,3-0.8,4-1.2V69H18z M21,79h-1v-1h1V79z M21,77h-1v-1h1
					V77z M21,75h-1v-1h1V75z M28,79h-1v-1h1V79z M28,77h-1v-1h1V77z M28,75h-1v-1h1V75z"/>
				<path class="st3" d="M22,77v8.8c0.7,0.1,1.3,0.2,2,0.2s1.3-0.1,2-0.2V77H22z"/>
				<path class="st0" d="M14,74v7.8c0.6,0.6,1.3,1.2,2,1.7V74H14z M32,74v9.5c0.7-0.5,1.4-1.1,2-1.7V74H32z"/>
				<path class="st1" d="M20,74h1v1h-1V74z M20,76h1v1h-1V76z M27,74h1v1h-1V74z M27,76h1v1h-1V76z M20,78h1v1h-1V78z M27,78h1v1h-1
					V78z"/>
				<path class="st4" d="M19,67h10v2H19V67z"/>
				<path class="st1" d="M22,76h4v1h-4V76z"/>
				<path class="st18" d="M39,55h1v1h-1V55z M36,53h1v1h-1V53z M36,57h1v1h-1V57z M34,59h1v1h-1V59z M32,57h1v1h-1V57z M33,55h3v1
					h-3V55z M34,54h1v3h-1V54z M36,60h3v1h-3V60z M37,59h1v3h-1V59z"/>
				<path class="st3" d="M584.2,81.6l0.6,2.4l-1.8-1.8l-1.8,1.8l0.6-2.4l-1.8-1.2h2.4L583,78l0.6,2.4h2.4L584.2,81.6z"/>
				<path class="st1" d="M577.2,81.6l0.6,2.4l-1.8-1.8l-1.8,1.8l0.6-2.4l-1.8-1.2h2.4L576,78l0.6,2.4h2.4L577.2,81.6z"/>
				<path class="st4" d="M570.2,81.6l0.6,2.4l-1.8-1.8l-1.8,1.8l0.6-2.4l-1.8-1.2h2.4L569,78l0.6,2.4h2.4L570.2,81.6z"/>
				<path class="st1" d="M566,64h3v12h-3V64z"/>
				<path class="st16" d="M576,56h2.9l1.1,3l-2,4h9v4l-4,9h-12V64l5-5V56z"/>
			</g>
			<path class="st21" d="M119,116.7l4.1,3.3l1-1l-5-4.2l-5,4.2l1,1.1L119,116.7z M119,109.7l-4.1-3.3l-1,1l5,4.2l5-4.2l-1-1
				L119,109.7z M116.8,127.7l-2.8,3.4l0.9,0.8l3.6-4.2l-3.6-4.3l-0.9,0.9L116.8,127.7z"/>
			<circle class="st22" cx="138.2" cy="109.8" r="5.4"/>
			<path class="st0" d="M146.8,117.4l-1.4,1.4l-4.3-4.3l1.4-1.4L146.8,117.4z"/>
			<g>
				<g>
					<g>
						<polygon class="st2" points="170,103 186,103 186,127 165,127 165,108 						"/>
					</g>
					<g>
						<polygon class="st1" points="170,103 170,108 165,108 						"/>
					</g>
				</g>
				<rect x="169" y="110" class="st4" width="13" height="1"/>
				<rect x="169" y="113" class="st4" width="13" height="1"/>
			</g>
			<g>
				<g>
					<rect x="160" y="116" class="st1" width="12" height="16"/>
				</g>
				<rect x="161" y="118" class="st14" width="10" height="3"/>
				<g>
					<rect x="168" y="125" class="st3" width="2" height="5"/>
				</g>
				<rect x="165" y="125" class="st14" width="2" height="2"/>
				<rect x="162" y="125" class="st14" width="2" height="2"/>
				<rect x="165" y="128" class="st14" width="2" height="2"/>
				<g>
					<rect x="162" y="128" class="st2" width="2" height="2"/>
				</g>
				<rect x="168" y="122" class="st4" width="2" height="2"/>
				<rect x="165" y="122" class="st14" width="2" height="2"/>
				<rect x="162" y="122" class="st14" width="2" height="2"/>
			</g>
			<g>
				<g>
					<path class="st3" d="M319,127c3.1,0,7-1.9,9-4c-2-2.1-5.9-4-9-4s-6,1.9-8,4C313,125.1,315.9,127,319,127z"/>
				</g>
			</g>
			<g>
				<path class="st1" d="M277,131c0-5.1-5.6-9-12-9s-12,3.9-12,9H277z"/>
			</g>
			<g>
				<path class="st0" d="M264.5,122c-1.6,0-4,0.4-5,0.8v8.7h10v-8.7C268.5,122.2,266.5,122,264.5,122z"/>
			</g>
			<polygon class="st3" points="264,123.8 263,131 267,131 266,123.8 			"/>
			<path class="st16" d="M265,124c-4,0-7-5-7-9c0-5,4-8,7-8s7,3,7,8S269,124,265,124z"/>
			<path class="st1" d="M265,111l7,4c0,0,0-8-7-8s-7,8-7,8L265,111z"/>
			<g>
				<g>
					<rect x="228" y="103" class="st2" width="4" height="28"/>
				</g>
			</g>
			<g>
				<rect x="229" y="122" class="st14" width="3" height="1"/>
			</g>
			<g>
				<rect x="230" y="119" class="st14" width="2" height="1"/>
			</g>
			<g>
				<rect x="229" y="116" class="st14" width="3" height="1"/>
			</g>
			<g>
				<rect x="230" y="113" class="st14" width="2" height="1"/>
			</g>
			<g>
				<rect x="229" y="110" class="st14" width="3" height="1"/>
			</g>
			<path class="st3" d="M229,128c0-0.6,0.4-1,1-1s1,0.4,1,1c0,0.6-0.4,1-1,1S229,128.6,229,128z"/>
			<rect x="210" y="121" class="st14" width="10" height="2"/>
			<polygon class="st1" points="212.4,114 214.3,114.8 206,132 205,130 			"/>
			<polygon class="st1" points="217.6,114 215.7,114.8 224,132 225,130 			"/>
			<rect x="214" y="120" class="st3" width="2" height="4"/>
			<path class="st4" d="M215,106c-2.8,0-5,2.2-5,5s2.2,5,5,5s5-2.2,5-5S217.8,106,215,106z M215,114c-1.7,0-3-1.3-3-3s1.3-3,3-3
				s3,1.3,3,3S216.7,114,215,114z"/>
			<g>
				<g>
					<circle class="st4" cx="403.5" cy="113" r="8.5"/>
					<path class="st2" d="M412,113c0-4.3-3.2-7.8-7.3-8.4c0,0.8,0,2.2,0.8,3c1.5,1.5,1.3,1.2,2.1,1.2c0.8,0,1.3-0.4,1,0.6
						s-0.5,1.7-0.8,2s-0.6,1-0.3,2.3c0.4,1.3,0.5,2,1.9,2c1,0,1.5,0.2,2,0.5C411.8,115.1,412,114.1,412,113z"/>
					<path class="st2" d="M400.9,109.1c-0.5-0.2-0.8,0.6-1.2,0.7s-0.8,0-1.3,0c-0.3,0-1.7-0.4-2.4-0.8c-0.5,0.9-0.8,1.8-0.9,2.8
						c-0.1,0.5-0.1,1.1-0.1,1.6c0.1,1.3,0.4,2.5,1,3.6c0.5-0.1,1.2-0.3,1.5-0.5c0.7-0.3,1.1-0.4,0.9-1.3s0.6-1.5,1.4-1.4
						s1.3-0.2,1.3-0.2s0.8-0.7,1.3-1.7s0.2-1.3,0.1-1.5C402.2,110.1,401.3,109.3,400.9,109.1z"/>
					<path class="st2" d="M403.7,121.5c2.3,0,4.4-1,5.9-2.5c-0.4-0.1-0.8-0.2-1.4-0.5c-2-0.9-1.9-0.9-2.7-1.7s-2.1-1.8-3-0.6
						c-1,1.3-0.2,2.1,0.2,2.8c0.3,0.5,0.2,1.6-0.1,2.5C402.9,121.5,403.3,121.5,403.7,121.5z"/>
				</g>
				<g>
					<polygon class="st3" points="405,131.5 408,125.2 413,122.1 415,115.1 417,118 415,126 410,129.3 409,131.5 					"/>
				</g>
				<g>
					<polygon class="st3" points="402,131.5 399,125.2 394,122.1 392,115.1 390,118 392,126 397,129.3 398,131.5 					"/>
				</g>
			</g>
			<g>
				<polygon class="st4" points="272,110 271,112 259,112 258,110 260,108 265,105 270,108 				"/>
			</g>
			<g>
				<polygon class="st0" points="270,114 259.9,114 259,112 271,112 				"/>
			</g>
			<g>
				<rect x="254" y="124" class="st4" width="4" height="2"/>
			</g>
			<g>
				<rect x="272" y="124" class="st4" width="4" height="2"/>
			</g>
			<g>
				<path class="st4" d="M369,131c0-5.1-5.6-9-12-9s-12,3.9-12,9H369z"/>
			</g>
			<g>
				<path class="st0" d="M356.5,122c-1.6,0-3,0.4-5,0.8v8.7h10v-8.7C360.5,122.2,358.5,122,356.5,122z"/>
			</g>
			<polygon class="st1" points="356,123 355,131 359,131 358,123 			"/>
			<path class="st16" d="M357,124c-4,0-7-5-7-9c0-5,4-8,7-8s7,3,7,8S361,124,357,124z"/>
			<path class="st1" d="M354,112l10,3c0,0,0-8-7-8s-7,8-7,8L354,112z"/>
			<path class="st3" d="M350,112c0-4.4,4-7,7-7s7,2.6,7,7C362,112,352,112,350,112z"/>
			<rect x="349" y="111" class="st3" width="16" height="2"/>
			<rect x="353" y="104" class="st3" width="8" height="8"/>
			<g>
				<rect x="355" y="105" class="st0" width="4" height="7"/>
			</g>
			<path class="st23" d="M461,131c0-5.1-5.6-9-12-9s-12,3.9-12,9H461z"/>
			<g>
				<rect x="455" y="128" class="st0" width="3" height="1"/>
			</g>
			<path class="st4" d="M448.5,122c-1.9,0-4,0.6-6,1.2v8.3h12v-8.3C453.5,122.5,450.9,122,448.5,122z"/>
			<g>
				<path class="st0" d="M448.5,122c-1.6,0-3,0.2-5,0.8v8.7h10v-8.7C452.5,122.1,450.5,122,448.5,122z"/>
			</g>
			<path class="st16" d="M449,124c-4,0-7-5-7-9c0-5,4-8,7-8s7,3,7,8S453,124,449,124z"/>
			<path class="st1" d="M446,112l10,3c0,0,0-8-7-8s-7,8-7,8L446,112z"/>
			<polygon class="st4" points="456,113 442,113 441,103 457,103 			"/>
			<g>
				<path class="st4" d="M320,120c2.2-2.2,4-6,4-9c-3,0-7.8,0.8-10,3s-3,6.1-3,9C313.9,123,317.8,122.2,320,120z"/>
			</g>
			<g>
				<g>
					<path class="st3" d="M303,127c3.1,0,6-1.9,8-4c-2-2.1-4.9-4-8-4s-7,1.9-9,4C296,125.1,299.9,127,303,127z"/>
				</g>
			</g>
			<g>
				<path class="st4" d="M302,120c-2.2-2.2-4-6-4-9c3,0,7.8,0.8,10,3s3,6.1,3,9C308.1,123,304.2,122.2,302,120z"/>
			</g>
			<g>
				<g>
					<path class="st3" d="M316,114c0-3.1-2.9-7-5-9c-2.1,2-5,5.9-5,9s2.9,7,5,9C313.1,121,316,117.1,316,114z"/>
				</g>
			</g>
			<g>
				<path class="st3" d="M181,117h-1.6c0,0,0.6,0.5,0.6,1h2l-1,1h-1c-0.1,1.1-0.8,1.9-2,2l3,3l-0.7,0.6l-4.2-4.3l0.9-0.4
					c1,0,1.9,0.1,2-1h-3v-1h3c-0.1-0.6-0.8-0.9-1-1h-2v-1h6L181,117z"/>
			</g>
			<g>
				<g>
					<g>
						<g>
							<g>
								<defs>
									<path id="SVGID_3_" d="M93.4,110.5h-1.3c0,0.1,0,0.1,0,0.1c0.2,0.4,0.2,0.9,0,1.3s-0.3,0.8-0.4,1.2l0,0l0.9,3.1l0.2,0.2
										l0.4-0.2l0.8-3c0,0-0.3-0.9-0.5-1.2c-0.2-0.4-0.3-0.9,0-1.3L93.4,110.5L93.4,110.5L93.4,110.5z"/>
								</defs>
								<clipPath id="SVGID_4_">
									<use xlink:href="#SVGID_3_"  style="overflow:visible;"/>
								</clipPath>
								<rect x="86.7" y="105.5" class="st24" width="12.3" height="15.9"/>
							</g>
						</g>
					</g>
				</g>
			</g>
			<g>
				<g>
					<g>
						<g>
							<g>
								<defs>
									<path id="SVGID_5_" d="M90.1,106.6c0,1.7,1.3,3,2.8,3c1.6,0,2.8-1.4,2.8-3c0-1.7-1.3-3-2.8-3
										C91.3,103.6,90.1,104.9,90.1,106.6"/>
								</defs>
								<clipPath id="SVGID_6_">
									<use xlink:href="#SVGID_5_"  style="overflow:visible;"/>
								</clipPath>
								<rect x="85.1" y="98.6" class="st25" width="15.7" height="16.1"/>
							</g>
						</g>
					</g>
				</g>
			</g>
			<g>
				<g>
					<g>
						<g>
							<g>
								<defs>
									<path id="SVGID_7_" d="M91.2,106.6c0,0.2,0.2,0.4,0.4,0.4c0.2,0,0.3-0.2,0.3-0.4c0-0.3-0.1-0.4-0.3-0.4
										C91.4,106.2,91.2,106.4,91.2,106.6"/>
								</defs>
								<clipPath id="SVGID_8_">
									<use xlink:href="#SVGID_7_"  style="overflow:visible;"/>
								</clipPath>
								<rect x="86.2" y="101.2" class="st26" width="10.7" height="10.9"/>
							</g>
						</g>
					</g>
				</g>
			</g>
			<g>
				<g>
					<g>
						<g>
							<g>
								<defs>
									<path id="SVGID_9_" d="M93.2,116.3c1.7-0.4,3.3-0.7,4.9-1.1c-0.2-1.2-0.8-3.3-0.8-3.9c0-0.1-0.1-0.2-0.2-0.3
										c-0.7-0.3-1.5-0.7-2.2-1C94.3,112.6,93.7,113.7,93.2,116.3"/>
								</defs>
								<clipPath id="SVGID_10_">
									<use xlink:href="#SVGID_9_"  style="overflow:visible;"/>
								</clipPath>
								<rect x="88.2" y="105" class="st27" width="14.9" height="16.3"/>
							</g>
						</g>
					</g>
				</g>
			</g>
			<g>
				<g>
					<g>
						<g>
							<g>
								<defs>
									<path id="SVGID_11_" d="M88.7,111c-0.1,0.1-0.2,0.1-0.2,0.3c-0.1,0.5-0.6,2.6-0.8,3.9c1.6,0.4,3.3,0.7,4.9,1.1
										c-0.6-2.6-1.1-3.7-1.7-6.3C90.2,110.4,89.5,110.7,88.7,111"/>
								</defs>
								<clipPath id="SVGID_12_">
									<use xlink:href="#SVGID_11_"  style="overflow:visible;"/>
								</clipPath>
								<rect x="82.7" y="105" class="st28" width="14.9" height="16.3"/>
							</g>
						</g>
					</g>
				</g>
			</g>
			<g>
				<g>
					<g>
						<g>
							<g>
								<defs>
									<path id="SVGID_13_" d="M90.1,106.7L93,108v-1.2c0-0.8-0.6-1.5-1.4-1.5C90.7,105.2,90.1,105.9,90.1,106.7"/>
								</defs>
								<clipPath id="SVGID_14_">
									<use xlink:href="#SVGID_13_"  style="overflow:visible;"/>
								</clipPath>
								<rect x="85.1" y="100.2" class="st29" width="12.9" height="12.8"/>
							</g>
						</g>
					</g>
				</g>
			</g>
			<g>
				<g>
					<g>
						<g>
							<g>
								<defs>
									<path id="SVGID_15_" d="M103.1,122.3h-1.4c0,0.1,0,0.1,0,0.2c0.3,0.5,0.2,1,0,1.5c-0.2,0.4-0.3,0.9-0.5,1.4c0,0,0,0,0,0.1
										l1.1,3.5l0.2,0.2l0.4-0.3l1-3.4c0,0-0.4-1-0.6-1.4c-0.2-0.5-0.3-1,0-1.5c0,0,0-0.1,0-0.2L103.1,122.3L103.1,122.3z"/>
								</defs>
								<clipPath id="SVGID_16_">
									<use xlink:href="#SVGID_15_"  style="overflow:visible;"/>
								</clipPath>
								<rect x="96.1" y="117.3" class="st30" width="12.7" height="16.8"/>
							</g>
						</g>
					</g>
				</g>
			</g>
			<g>
				<g>
					<g>
						<g>
							<g>
								<defs>
									<path id="SVGID_17_" d="M99.2,117.8c0,1.9,1.5,3.5,3.3,3.5s3.3-1.6,3.3-3.5s-1.5-3.5-3.3-3.5
										C100.6,114.3,99.2,115.8,99.2,117.8"/>
								</defs>
								<clipPath id="SVGID_18_">
									<use xlink:href="#SVGID_17_"  style="overflow:visible;"/>
								</clipPath>
								<rect x="94.2" y="109.3" class="st31" width="16.5" height="17"/>
							</g>
						</g>
					</g>
				</g>
			</g>
			<g>
				<g>
					<g>
						<g>
							<g>
								<defs>
									<path id="SVGID_19_" d="M100.5,117.8c0,0.3,0.2,0.5,0.4,0.5c0.2,0,0.4-0.2,0.4-0.5s-0.2-0.5-0.4-0.5
										S100.5,117.5,100.5,117.8"/>
								</defs>
								<clipPath id="SVGID_20_">
									<use xlink:href="#SVGID_19_"  style="overflow:visible;"/>
								</clipPath>
								<rect x="95.5" y="112.3" class="st32" width="10.8" height="11"/>
							</g>
						</g>
					</g>
				</g>
			</g>
			<g>
				<g>
					<g>
						<g>
							<g>
								<defs>
									<path id="SVGID_21_" d="M102.7,128.9c1.9-0.4,3.8-0.8,5.7-1.3c-0.2-1.4-0.9-3.8-1-4.4c0-0.2-0.1-0.2-0.2-0.3
										c-0.8-0.4-1.7-0.8-2.6-1.2C104,124.6,103.4,125.9,102.7,128.9"/>
								</defs>
								<clipPath id="SVGID_22_">
									<use xlink:href="#SVGID_21_"  style="overflow:visible;"/>
								</clipPath>
								<rect x="97.7" y="116.7" class="st33" width="15.7" height="17.2"/>
							</g>
						</g>
					</g>
				</g>
			</g>
			<g>
				<g>
					<g>
						<g>
							<g>
								<defs>
									<path id="SVGID_23_" d="M97.6,122.9c-0.2,0.1-0.2,0.2-0.2,0.3c-0.1,0.6-0.7,3-1,4.4c1.9,0.4,3.8,0.8,5.7,1.3
										c-0.7-3-1.3-4.3-1.9-7.2C99.3,122.1,98.5,122.5,97.6,122.9"/>
								</defs>
								<clipPath id="SVGID_24_">
									<use xlink:href="#SVGID_23_"  style="overflow:visible;"/>
								</clipPath>
								<rect x="91.5" y="116.7" class="st34" width="15.7" height="17.2"/>
							</g>
						</g>
					</g>
				</g>
			</g>
			<g>
				<g>
					<g>
						<g>
							<g>
								<defs>
									<path id="SVGID_25_" d="M99.2,117.9l3.3,1.4v-1.4c0-1-0.7-1.8-1.7-1.8C99.9,116.1,99.2,116.9,99.2,117.9"/>
								</defs>
								<clipPath id="SVGID_26_">
									<use xlink:href="#SVGID_25_"  style="overflow:visible;"/>
								</clipPath>
								<rect x="94.2" y="111.1" class="st35" width="13.3" height="13.2"/>
							</g>
						</g>
					</g>
				</g>
			</g>
			<g>
				<g>
					<g>
						<g>
							<g>
								<defs>
									<path id="SVGID_27_" d="M84,122.3h-1.4c0,0.1,0,0.1,0,0.2c0.3,0.5,0.2,1,0,1.5c-0.2,0.4-0.3,0.9-0.5,1.4c0,0,0,0,0,0.1
										l1.1,3.5l0.2,0.2l0.4-0.3l1-3.4c0,0-0.4-1-0.6-1.4c-0.2-0.5-0.3-1,0-1.5c0,0,0-0.1,0-0.2L84,122.3L84,122.3z"/>
								</defs>
								<clipPath id="SVGID_28_">
									<use xlink:href="#SVGID_27_"  style="overflow:visible;"/>
								</clipPath>
								<rect x="77" y="117.3" class="st36" width="12.7" height="16.8"/>
							</g>
						</g>
					</g>
				</g>
			</g>
			<g>
				<g>
					<g>
						<g>
							<g>
								<defs>
									<path id="SVGID_29_" d="M81.2,117.8c0,1.9,1.5,3.5,3.3,3.5s3.3-1.6,3.3-3.5s-1.5-3.5-3.3-3.5
										C82.6,114.3,81.2,115.8,81.2,117.8"/>
								</defs>
								<clipPath id="SVGID_30_">
									<use xlink:href="#SVGID_29_"  style="overflow:visible;"/>
								</clipPath>
								<rect x="76.2" y="109.3" class="st37" width="16.5" height="17"/>
							</g>
						</g>
					</g>
				</g>
			</g>
			<g>
				<g>
					<g>
						<g>
							<g>
								<defs>
									<path id="SVGID_31_" d="M81.5,117.8c0,0.3,0.2,0.5,0.4,0.5c0.2,0,0.4-0.2,0.4-0.5s-0.2-0.5-0.4-0.5
										C81.6,117.3,81.5,117.5,81.5,117.8"/>
								</defs>
								<clipPath id="SVGID_32_">
									<use xlink:href="#SVGID_31_"  style="overflow:visible;"/>
								</clipPath>
								<rect x="76.5" y="112.3" class="st38" width="10.8" height="11"/>
							</g>
						</g>
					</g>
				</g>
			</g>
			<g>
				<g>
					<g>
						<g>
							<g>
								<defs>
									<path id="SVGID_33_" d="M84.7,128.9c1.9-0.4,3.8-0.8,5.7-1.3c-0.2-1.4-0.9-3.8-1-4.4c0-0.2-0.1-0.2-0.2-0.3
										c-0.9-0.4-1.7-0.8-2.6-1.2C86,124.6,85.4,125.9,84.7,128.9"/>
								</defs>
								<clipPath id="SVGID_34_">
									<use xlink:href="#SVGID_33_"  style="overflow:visible;"/>
								</clipPath>
								<rect x="79.7" y="116.7" class="st39" width="15.7" height="17.2"/>
							</g>
						</g>
					</g>
				</g>
			</g>
			<g>
				<g>
					<g>
						<g>
							<g>
								<defs>
									<path id="SVGID_35_" d="M78.6,122.9c-0.2,0.1-0.2,0.2-0.2,0.3c-0.1,0.6-0.7,3-1,4.4c1.9,0.4,3.8,0.8,5.7,1.3
										c-0.7-3-1.3-4.3-1.9-7.2C80.3,122.1,79.5,122.5,78.6,122.9"/>
								</defs>
								<clipPath id="SVGID_36_">
									<use xlink:href="#SVGID_35_"  style="overflow:visible;"/>
								</clipPath>
								<rect x="72.4" y="116.7" class="st40" width="15.7" height="17.2"/>
							</g>
						</g>
					</g>
				</g>
			</g>
			<g>
				<g>
					<g>
						<g>
							<g>
								<defs>
									<path id="SVGID_37_" d="M80.2,117.9l3.3,1.4v-1.4c0-1-0.7-1.8-1.7-1.8C80.9,116.1,80.2,116.9,80.2,117.9"/>
								</defs>
								<clipPath id="SVGID_38_">
									<use xlink:href="#SVGID_37_"  style="overflow:visible;"/>
								</clipPath>
								<rect x="75.2" y="111.1" class="st41" width="13.3" height="13.2"/>
							</g>
						</g>
					</g>
				</g>
			</g>
			<g>
				<g>
					<g>
						<g>
							<g>
								<defs>
									<path id="SVGID_39_" d="M95.3,122.2L95.3,122.2c-0.2,0.9-0.4,1.8-0.6,2.7c-0.2,0.9-0.9,1.4-1.8,1.6c-0.1,0-0.3,0-0.4,0.1
										c-0.1,0-0.3,0-0.4-0.1c-0.9-0.2-1.5-0.7-1.8-1.6c-0.2-0.9-0.4-1.8-0.6-2.7l0,0l0,0c-1.2,0.6-2.5,1.1-3.7,1.7l-0.6,0.2l0,0
										c-0.3,0.1-0.4,0.3-0.4,0.6c-0.1,0.9-0.3,1.8-0.5,2.7l-0.2,0.9c-0.2,1.1-0.4,2.2-0.5,3.2c0,0.2-0.1,0.4-0.1,0.6
										c0,0.1,0,0.1,0,0.2l0,0c0.6,0.1,1.2,0.3,1.8,0.4c0.1,0,0.2,0,0.2,0.1c0.1,0,0.1,0,0.2,0c0.2,0,0.3,0.1,0.5,0.1
										c1.5,0.3,3,0.7,4.6,1c0.1,0,0.2,0,0.3,0c0.3,0.1,0.6,0.1,0.8,0.2l0,0l0,0h0.3l0,0V134c-0.4-1.9-0.9-3.7-1.3-5.6
										c-0.1-0.3-0.2-0.7-0.2-1c-0.1-0.3-0.1-0.5-0.2-0.8c0,0,0,0,0-0.1c0.6,0.3,1.1,0.5,1.7,0.5c0,0,0,0,0.1,0c0,0,0,0,0.1,0
										c0.6,0,1.1-0.2,1.7-0.5c0,0,0,0,0,0.1c-0.1,0.3-0.1,0.5-0.2,0.8s-0.2,0.7-0.2,1c-0.4,1.9-0.9,3.7-1.3,5.6v0.1l0,0h0.3l0,0
										l0,0c0.3-0.1,0.6-0.1,0.8-0.2c0.1,0,0.2,0,0.3,0c1.5-0.3,3-0.6,4.6-1c0.2,0,0.3-0.1,0.5-0.1c0.1,0,0.1,0,0.2,0
										s0.2,0,0.2-0.1c0.6-0.1,1.2-0.3,1.8-0.4l0,0l0,0c0-0.1,0-0.1,0-0.2c0-0.2-0.1-0.4-0.1-0.6c-0.2-1.1-0.4-2.2-0.5-3.2
										l-0.2-0.9c-0.2-0.9-0.3-1.8-0.5-2.7c0-0.3-0.1-0.5-0.4-0.6l0,0l-0.6-0.2C97.7,123.3,96.5,122.7,95.3,122.2L95.3,122.2"/>
								</defs>
								<clipPath id="SVGID_40_">
									<use xlink:href="#SVGID_39_"  style="overflow:visible;"/>
								</clipPath>
								<rect x="78.6" y="117.2" class="st42" width="27.7" height="22"/>
							</g>
						</g>
					</g>
				</g>
			</g>
			<g>
				<g>
					<g>
						<g>
							<g>
								<defs>
									<path id="SVGID_41_" d="M103,115C103.1,115,103.1,115,103,115C103.1,115,103.1,115,103,115C103.1,115,103.1,115,103,115"/>
								</defs>
								<clipPath id="SVGID_42_">
									<use xlink:href="#SVGID_41_"  style="overflow:visible;"/>
								</clipPath>
								<rect x="98" y="110" class="st43" width="10.1" height="10"/>
							</g>
						</g>
					</g>
				</g>
			</g>
			<g>
				<g>
					<g>
						<g>
							<g>
								<defs>
									<path id="SVGID_43_" d="M93.3,133.5c2.4-0.5,4.8-1.1,7.2-1.6c0-0.1,0-0.2,0-0.3c-0.2-0.9-0.3-1.9-0.5-2.8
										c-0.2-1.3-0.4-2.6-0.7-3.9c0-0.1-0.1-0.2-0.2-0.3c-0.7-0.3-1.3-0.6-1.9-0.9c-0.5-0.2-1-0.4-1.5-0.7
										C94.9,126.6,94.1,130,93.3,133.5"/>
								</defs>
								<clipPath id="SVGID_44_">
									<use xlink:href="#SVGID_43_"  style="overflow:visible;"/>
								</clipPath>
								<rect x="88.3" y="118.1" class="st44" width="17.2" height="20.4"/>
							</g>
						</g>
					</g>
				</g>
			</g>
			<g>
				<g>
					<g>
						<g>
							<g>
								<defs>
									<path id="SVGID_45_" d="M85.7,124.7c-0.1,0-0.1,0.1-0.1,0.2c-0.1,0.4-0.2,0.9-0.2,1.3c-0.3,1.9-0.6,3.8-1,5.7
										c2.4,0.6,4.8,1.2,7.2,1.6c-0.8-3.5-1.6-6.9-2.4-10.4C88,123.6,86.8,124.2,85.7,124.7"/>
								</defs>
								<clipPath id="SVGID_46_">
									<use xlink:href="#SVGID_45_"  style="overflow:visible;"/>
								</clipPath>
								<rect x="79.4" y="118.1" class="st45" width="17.2" height="20.4"/>
							</g>
						</g>
					</g>
				</g>
			</g>
			<g>
				<g>
					<g>
						<g>
							<g>
								<defs>
									<path id="SVGID_47_" d="M90.3,117.2c-0.2,0.2-0.2,0.6,0,0.8c0.2,0.3,0.5,0.2,0.7,0c0.1-0.1,0.1-0.2,0.1-0.4
										c0-0.1-0.1-0.3-0.1-0.4c-0.1-0.1-0.2-0.2-0.4-0.2C90.5,117,90.4,117.1,90.3,117.2"/>
								</defs>
								<clipPath id="SVGID_48_">
									<use xlink:href="#SVGID_47_"  style="overflow:visible;"/>
								</clipPath>
								<rect x="85.2" y="112" class="st46" width="10.9" height="11.2"/>
							</g>
						</g>
					</g>
				</g>
			</g>
			<g>
				<g>
					<g>
						<g>
							<g>
								<defs>
									<path id="SVGID_49_" d="M90.3,118c-0.2-0.2-0.2-0.6,0-0.8c0.2-0.3,0.5-0.2,0.7,0c0.1,0.1,0.1,0.2,0.1,0.4
										c0,0.1-0.1,0.3-0.1,0.4c-0.1,0.1-0.2,0.2-0.4,0.2C90.5,118.2,90.4,118.1,90.3,118 M90.4,115.2c-0.3,0-0.4,0.1-0.5,0.4l0,0
										H90c0.6-0.1,1.1-0.1,1.6,0.1c0.6,0.3,1,0.7,1.1,1.4c0.1,0.8,0,1.6,0,2.4l0,0h-0.4v-0.2c0-0.6,0-1.3,0-1.9
										c0-0.4-0.2-0.7-0.4-1c-0.6-0.5-1.5-0.6-2.2-0.1c-0.1,0.1-0.2,0.2-0.2,0.3c-0.2,0.8-0.2,1.6,0.1,2.4c0.2,0.5,0.4,1,0.8,1.4
										c0.8,0.9,2.3,1.2,3.5,0.7c2.1-0.9,2.9-3.7,1.5-5.7c-0.1-0.1-0.2-0.2-0.4-0.2C93.4,115.2,91.9,115.2,90.4,115.2"/>
								</defs>
								<clipPath id="SVGID_50_">
									<use xlink:href="#SVGID_49_"  style="overflow:visible;"/>
								</clipPath>
								<rect x="84.2" y="110.2" class="st47" width="16.7" height="16.2"/>
							</g>
						</g>
					</g>
				</g>
			</g>
			<g>
				<g>
					<g>
						<g>
							<g>
								<defs>
									<path id="SVGID_51_" d="M91.1,112.3c-2.1,0.3-3.4,1.5-3.9,3.6c-0.3,1.4-0.3,2.8,0,4.1c0.1,0.4,0.2,0.8,0.3,1.2
										c0.6-0.4,1.2-0.7,1.7-1.1c0-0.1-0.1-0.1-0.1-0.2c-0.8-1.8-0.8-3.6,0.5-5.2c0.1-0.1,0.2-0.1,0.3-0.1c1.8,0,3.5,0,5.3,0
										c0.1,0,0.2,0.1,0.3,0.1c0.7,0.8,1.1,1.8,1.1,2.9c0,0.9-0.2,1.8-0.6,2.6c0.6,0.4,1.1,0.7,1.7,1.1c0.1-0.2,0.1-0.3,0.1-0.4
										c0.5-1.6,0.6-3.2,0.2-4.9c-0.4-1.7-1.5-3-3.2-3.4c-0.7-0.2-1.4-0.3-2.1-0.3C92.2,112.2,91.6,112.2,91.1,112.3"/>
								</defs>
								<clipPath id="SVGID_52_">
									<use xlink:href="#SVGID_51_"  style="overflow:visible;"/>
								</clipPath>
								<rect x="81.9" y="107.2" class="st48" width="21.3" height="19"/>
							</g>
						</g>
					</g>
				</g>
			</g>
			<g>
				<g>
					<g>
						<g>
							<g>
								<defs>
									<path id="SVGID_53_" d="M94.9,115.2c0.2,0,0.3,0.1,0.4,0.2c1.3,1.9,0.6,4.8-1.5,5.7c-1.2,0.5-2.7,0.3-3.5-0.7
										c-0.4-0.4-0.6-0.9-0.8-1.4c-0.2-0.8-0.3-1.6-0.1-2.4c0-0.1,0.1-0.3,0.2-0.3c0.7-0.4,1.6-0.4,2.2,0.1c0.3,0.3,0.4,0.6,0.4,1
										c0,0.6,0,1.3,0,1.9v0.2h0.4l0,0c0-0.8,0-1.6,0-2.4c-0.1-0.7-0.5-1.1-1.1-1.4c-0.5-0.2-1.1-0.3-1.6-0.1h-0.1l0,0
										c0.1-0.3,0.2-0.4,0.5-0.4c0.8,0,1.6,0,2.4,0C93.5,115.2,94.2,115.2,94.9,115.2 M87.2,120c-0.3-1.4-0.3-2.8,0-4.1
										c0.5-2,1.9-3.3,3.9-3.6c1.2-0.2,2.4-0.2,3.6,0.2c1.8,0.5,2.8,1.7,3.2,3.4c0.4,1.6,0.3,3.3-0.2,4.9c0,0.1-0.1,0.3-0.1,0.4
										c-0.6-0.4-1.1-0.7-1.7-1.1c0.4-0.8,0.7-1.7,0.6-2.6c0-1.1-0.4-2.1-1.1-2.9c-0.1-0.1-0.2-0.1-0.3-0.1c-1.8,0-3.5,0-5.3,0
										c-0.1,0-0.2,0.1-0.3,0.1c-1.3,1.6-1.3,3.4-0.5,5.2c0,0.1,0.1,0.1,0.1,0.2c-0.6,0.4-1.1,0.7-1.7,1.1
										C87.4,120.8,87.2,120.4,87.2,120 M91,111.7c-2.4,0.4-4,1.9-4.5,4.2c-0.3,1.5-0.2,3,0.1,4.5c0.1,0.6,0.4,1.2,0.7,1.8
										c0.8-0.5,1.5-1,2.3-1.5c1.7,1.8,4.4,1.7,5.9-0.1c0.8,0.5,1.6,1,2.5,1.6c0,0,0-0.1,0.1-0.1c0.1-0.4,0.3-0.8,0.4-1.1
										c0.6-1.7,0.7-3.4,0.3-5.2c-0.5-2-1.7-3.4-3.7-3.9c-0.7-0.2-1.5-0.3-2.2-0.3C92.1,111.5,91.5,111.6,91,111.7"/>
								</defs>
								<clipPath id="SVGID_54_">
									<use xlink:href="#SVGID_53_"  style="overflow:visible;"/>
								</clipPath>
								<rect x="81.3" y="106.5" class="st49" width="22.6" height="20.6"/>
							</g>
						</g>
					</g>
				</g>
			</g>
			<polygon class="st9" points="97.2,104.2 97.2,111 99.1,111 99.1,114.4 102.4,111 108.4,111 108.4,104.2 			"/>
			<polygon class="st50" points="97.2,104.2 97.2,111 99.1,111 99.1,114.4 102.4,111 108.4,111 108.4,104.2 			"/>
			<line class="st51" x1="99.7" y1="106.8" x2="105.6" y2="106.8"/>
			<line class="st51" x1="99.7" y1="108.9" x2="105.6" y2="108.9"/>
			<g>
				<g>
					<g>
						<g>
							<g>
								<g>
									<defs>
										<path id="SVGID_55_" d="M41.3,122.9c0,4.3,7.2,7.7,16.1,7.7s16.1-3.5,16.1-7.7s-7.2-7.7-16.1-7.7
											C48.5,115.2,41.3,118.7,41.3,122.9"/>
									</defs>
									<clipPath id="SVGID_56_">
										<use xlink:href="#SVGID_55_"  style="overflow:visible;"/>
									</clipPath>
									<rect x="36.3" y="110.2" class="st52" width="42.2" height="25.4"/>
								</g>
							</g>
						</g>
					</g>
				</g>
				<g>
					<g>
						<g>
							<g>
								<g>
									<defs>
										<path id="SVGID_57_" d="M43.4,115c0,5.4,6.2,9.7,13.8,9.7c1.6,0,3.2-0.2,4.6-0.6c3.5,1.7,7.9,0.9,7.9,0.9
											c-1.4-1-1.7-2.6-1.8-3.9c1.9-1.7,3-3.8,3-6.1c0-5.4-6.2-9.7-13.8-9.7C49.6,105.3,43.4,109.7,43.4,115"/>
									</defs>
									<clipPath id="SVGID_58_">
										<use xlink:href="#SVGID_57_"  style="overflow:visible;"/>
									</clipPath>
									<rect x="38.4" y="100.3" class="st53" width="37.5" height="30"/>
								</g>
							</g>
						</g>
					</g>
				</g>
				<g>
					<g>
						<g>
							<g>
								<g>
									<defs>
										<rect id="SVGID_59_" x="-431.9" y="-180.8" width="960" height="560"/>
									</defs>
									<clipPath id="SVGID_60_">
										<use xlink:href="#SVGID_59_"  style="overflow:visible;"/>
									</clipPath>
									<path class="st54" d="M57.2,105.3c7.6,0,13.8,4.4,13.8,9.7c0,2.3-1.1,4.4-3,6.1c0.1,1.3,0.4,3,1.8,3.9c0,0-4.5,0.8-7.9-0.9
										c-1.4,0.4-3,0.6-4.6,0.6c-7.6,0-13.8-4.4-13.8-9.7S49.6,105.3,57.2,105.3z"/>
								</g>
							</g>
						</g>
					</g>
				</g>
				<g>
					<g>
						<g>
							<g>
								<g>
									<defs>
										<path id="SVGID_61_" d="M49.4,111.6H65H49.4z"/>
									</defs>
									<clipPath id="SVGID_62_">
										<use xlink:href="#SVGID_61_"  style="overflow:visible;"/>
									</clipPath>
									<rect x="44.4" y="106.6" class="st55" width="25.6" height="10"/>
								</g>
							</g>
						</g>
					</g>
				</g>
				<g>
					<g>
						<g>
							<g>
								<g>
									<defs>
										<rect id="SVGID_63_" x="-431.9" y="-180.8" width="960" height="560"/>
									</defs>
									<clipPath id="SVGID_64_">
										<use xlink:href="#SVGID_63_"  style="overflow:visible;"/>
									</clipPath>
									<line class="st56" x1="49.4" y1="111.6" x2="65" y2="111.6"/>
								</g>
							</g>
						</g>
					</g>
				</g>
				<g>
					<g>
						<g>
							<g>
								<g>
									<defs>
										<path id="SVGID_65_" d="M49.4,115.1H65H49.4z"/>
									</defs>
									<clipPath id="SVGID_66_">
										<use xlink:href="#SVGID_65_"  style="overflow:visible;"/>
									</clipPath>
									<rect x="44.4" y="110.1" class="st57" width="25.6" height="10"/>
								</g>
							</g>
						</g>
					</g>
				</g>
				<g>
					<g>
						<g>
							<g>
								<g>
									<defs>
										<rect id="SVGID_67_" x="-431.9" y="-180.8" width="960" height="560"/>
									</defs>
									<clipPath id="SVGID_68_">
										<use xlink:href="#SVGID_67_"  style="overflow:visible;"/>
									</clipPath>
									<line class="st58" x1="49.4" y1="115.1" x2="65" y2="115.1"/>
								</g>
							</g>
						</g>
					</g>
				</g>
				<g>
					<g>
						<g>
							<g>
								<g>
									<defs>
										<path id="SVGID_69_" d="M49.4,118.5H65H49.4z"/>
									</defs>
									<clipPath id="SVGID_70_">
										<use xlink:href="#SVGID_69_"  style="overflow:visible;"/>
									</clipPath>
									<rect x="44.4" y="113.5" class="st59" width="25.6" height="10"/>
								</g>
							</g>
						</g>
					</g>
				</g>
				<g>
					<g>
						<g>
							<g>
								<g>
									<defs>
										<rect id="SVGID_71_" x="-431.9" y="-180.8" width="960" height="560"/>
									</defs>
									<clipPath id="SVGID_72_">
										<use xlink:href="#SVGID_71_"  style="overflow:visible;"/>
									</clipPath>
									<line class="st60" x1="49.4" y1="118.5" x2="65" y2="118.5"/>
								</g>
							</g>
						</g>
					</g>
				</g>
				<g>
					<g>
						<g>
							<g>
								<g>
									<defs>
										<polygon id="SVGID_73_" points="57.5,113.5 54.3,109.8 51.1,112.7 57.5,119.9 71.8,103.6 68.6,100.8 										"/>
									</defs>
									<clipPath id="SVGID_74_">
										<use xlink:href="#SVGID_73_"  style="overflow:visible;"/>
									</clipPath>
									<rect x="46.1" y="95.8" class="st61" width="30.7" height="29.1"/>
								</g>
							</g>
						</g>
					</g>
				</g>
				<g>
					<g>
						<g>
							<g>
								<g>
									<defs>
										<rect id="SVGID_75_" x="-431.9" y="-180.8" width="960" height="560"/>
									</defs>
									<clipPath id="SVGID_76_">
										<use xlink:href="#SVGID_75_"  style="overflow:visible;"/>
									</clipPath>
									<polygon class="st62" points="57.5,119.9 51.1,112.7 54.3,109.8 57.5,113.5 68.6,100.8 71.8,103.6 									"/>
								</g>
							</g>
						</g>
					</g>
				</g>
			</g>
			<g>
				<g>
					<g>
						<g>
							<g>
								<g>
									<defs>
										<line id="SVGID_77_" x1="12.1" y1="114.8" x2="12.1" y2="114.8"/>
									</defs>
									<clipPath id="SVGID_78_">
										<use xlink:href="#SVGID_77_"  style="overflow:visible;"/>
									</clipPath>
									<g class="st63">
										<g>
											<g>
												<g>
													<g>
														<defs>
															<rect id="SVGID_79_" x="-1.9" y="102.9" width="39" height="33"/>
														</defs>
														<clipPath id="SVGID_80_">
															<use xlink:href="#SVGID_79_"  style="overflow:visible;"/>
														</clipPath>
														<rect x="-5.9" y="109.8" class="st64" width="36.1" height="36.8"/>
													</g>
												</g>
												<g>
													<g>
														<g>
															<defs>
																<line id="SVGID_81_" x1="12.1" y1="114.8" x2="12.1" y2="114.8"/>
															</defs>
															<clipPath id="SVGID_82_">
																<use xlink:href="#SVGID_81_"  style="overflow:visible;"/>
															</clipPath>
															<g class="st65">
																<g>
																	<g>
																		<g>
																			<g>
																				<defs>
																					<path id="SVGID_83_" d="M5.3,121.9c0,7,5.7,12.7,12.7,12.7s12.7-5.7,12.7-12.7S25,109.2,18,109.2
																						S5.3,114.9,5.3,121.9"/>
																				</defs>
																				<clipPath id="SVGID_84_">
																					<use xlink:href="#SVGID_83_"  style="overflow:visible;"/>
																				</clipPath>
																				<rect x="0.3" y="104.2" class="st66" width="35.5" height="35.5"/>
																			</g>
																		</g>
																		<g>
																			<g>
																				<g>
																					<defs>
																						<line id="SVGID_85_" x1="12.1" y1="114.8" x2="12.1" y2="114.8"/>
																					</defs>
																					<clipPath id="SVGID_86_">
																						<use xlink:href="#SVGID_85_"  style="overflow:visible;"/>
																					</clipPath>
																					<g class="st67">
																						<g>
																							<g>
																								<g>
																									<g>
																										<defs>
																											<path id="SVGID_87_" d="M13.8,115.4c-0.3,0.1-0.7,0.2-1,0.4c-0.3,0.2-0.7,0.4-1.1,0.8l1,1.2
																												c0.4-0.3,0.7-0.5,1-0.7s0.7-0.2,1-0.2s0.6,0.1,0.8,0.3c0.2,0.2,0.3,0.4,0.3,0.8c0,0.2,0,0.5-0.1,0.7
																												s-0.2,0.5-0.4,0.7c-0.2,0.3-0.6,0.7-1.3,1.4l-2.3,2.3v1.3H18v-1.6h-3.9v-0.1l1.2-1.1
																												c0.8-0.7,1.3-1.3,1.6-1.6c0.3-0.4,0.5-0.8,0.7-1.1s0.2-0.8,0.2-1.2c0-0.5-0.1-0.9-0.4-1.3
																												c-0.2-0.4-0.6-0.7-1-0.9c-0.4-0.2-0.9-0.3-1.5-0.3C14.5,115.2,14.1,115.3,13.8,115.4"/>
																										</defs>
																										<clipPath id="SVGID_88_">
																											<use xlink:href="#SVGID_87_"  style="overflow:visible;"/>
																										</clipPath>
																										<rect x="6.7" y="110.2" class="st68" width="16.3" height="19.2"/>
																									</g>
																								</g>
																								<g>
																									<g>
																										<g>
																											<defs>
																												<line id="SVGID_89_" x1="12.1" y1="114.8" x2="12.1" y2="114.8"/>
																											</defs>
																											<clipPath id="SVGID_90_">
																												<use xlink:href="#SVGID_89_"  style="overflow:visible;"/>
																											</clipPath>
																										</g>
																									</g>
																								</g>
																							</g>
																						</g>
																						<rect x="-584.9" y="-176.1" class="st6" width="960" height="560"/>
																						<rect x="-584.9" y="-176.1" class="st6" width="960" height="560"/>
																						<polygon class="st6" points="479.8,115.3 484.1,119.9 479.8,124.5 481.1,125.9 486.8,119.9 481.1,113.9 
																																													"/>
																						<polygon class="st6" points="495.8,120.9 507.8,120.9 501.8,114.9 																						"/>
																					</g>
																				</g>
																			</g>
																		</g>
																	</g>
																</g>
															</g>
														</g>
													</g>
												</g>
											</g>
										</g>
									</g>
								</g>
								<path class="st6" d="M16,127.9c-0.1-0.2-0.2-0.5-0.2-0.9s0.1-0.7,0.2-0.9c0.1-0.2,0.4-0.3,0.6-0.3c0.6,0,0.9,0.4,0.9,1.2
									c0,0.8-0.3,1.1-0.9,1.1C16.3,128.2,16.1,128.1,16,127.9 M15.4,125.8c-0.3,0.3-0.4,0.7-0.4,1.3s0.1,1,0.4,1.3
									c0.3,0.3,0.7,0.5,1.2,0.5s0.9-0.2,1.2-0.5c0.3-0.3,0.4-0.7,0.4-1.3c0-0.6-0.1-1-0.4-1.3s-0.7-0.5-1.2-0.5
									S15.7,125.5,15.4,125.8"/>
							</g>
						</g>
					</g>
				</g>
			</g>
		</g>
	</g>
	<g>
		<g>
			<polyline class="st2" points="25.2,181.3 7.9,181.3 7.9,156.5 25.2,156.5 25.2,171.3 			"/>
		</g>
		<g>
			<g>
				<rect x="9.7" y="159.5" class="st18" width="2" height="2"/>
			</g>
			<g>
				<g>
					<rect x="13.2" y="159.4" class="st1" width="8.7" height="0.6"/>
				</g>
				<g>
					<rect x="13.2" y="160.9" class="st1" width="6" height="0.6"/>
				</g>
			</g>
		</g>
		<g>
			<g>
				<g>
					<rect x="9.7" y="165" class="st18" width="2" height="2"/>
				</g>
				<g>
					<g>
						<rect x="13.2" y="165" class="st1" width="8.7" height="0.6"/>
					</g>
					<g>
						<rect x="13.2" y="166.5" class="st1" width="6" height="0.6"/>
					</g>
				</g>
			</g>
		</g>
		<g>
			<g>
				<g>
					<rect x="9.7" y="170.6" class="st18" width="2" height="2"/>
				</g>
				<g>
					<g>
						<rect x="13.2" y="170.6" class="st1" width="8.7" height="0.6"/>
					</g>
					<g>
						<rect x="13.2" y="172.1" class="st1" width="6" height="0.6"/>
					</g>
				</g>
			</g>
		</g>
		<g>
			<g>
				<g>
					<rect x="9.7" y="176.2" class="st18" width="2" height="2"/>
				</g>
				<g>
					<g>
						<rect x="13.2" y="176.2" class="st1" width="8.7" height="0.6"/>
					</g>
					<g>
						<rect x="13.2" y="177.7" class="st1" width="6" height="0.6"/>
					</g>
				</g>
			</g>
		</g>
		<g>
			<rect x="36.9" y="169.7" class="st1" width="2" height="9"/>
		</g>
		<g>
			<rect x="32.5" y="169.7" class="st1" width="2" height="9"/>
		</g>
		<g>
			<rect x="28.1" y="169.7" class="st1" width="2" height="9"/>
		</g>
		<g>
			<rect x="21.3" y="178.8" class="st1" width="20" height="2.7"/>
		</g>
		<g>
			<path class="st1" d="M29.4,161.4c0-0.8,0.6-1.4,1.4-1.4s1.4,0.6,1.4,1.4"/>
		</g>
		<g>
			<path class="st4" d="M24.4,167.4c0-3.4,2.9-6.2,6.4-6.2s6.4,2.8,6.4,6.2H24.4z"/>
		</g>
		<g>
			<path class="st69" d="M30.8,160.1c-0.2,0-0.3-0.1-0.3-0.3v-8.5c0-0.2,0.1-0.3,0.3-0.3c0.2,0,0.3,0.1,0.3,0.3v8.5
				C31.1,160,31,160.1,30.8,160.1z"/>
		</g>
		<g>
			<polyline class="st70" points="30.8,153.4 30.8,151.4 38.8,151.4 38.8,153.4 			"/>
		</g>
		<g>
			<polyline class="st0" points="30.8,155.3 30.8,153.3 38.8,153.3 38.8,155.3 			"/>
		</g>
		<g>
			<rect x="30.8" y="155.3" class="st71" width="8" height="2"/>
		</g>
		<g>
			<rect x="23.8" y="169.7" class="st1" width="2" height="9"/>
		</g>
		<g>
			<rect x="22.6" y="167.1" class="st1" width="17.8" height="2.7"/>
		</g>
	</g>
</g>
</svg>
