<?xml version="1.0" encoding="utf-8"?>
<!-- Generator: Adobe Illustrator 23.0.1, SVG Export Plug-In . SVG Version: 6.00 Build 0)  -->
<svg version="1.1" id="Layer_1" xmlns="http://www.w3.org/2000/svg" xmlns:xlink="http://www.w3.org/1999/xlink" x="0px" y="0px"
	 width="457.8px" height="134.3px" viewBox="0 0 457.8 134.3" style="enable-background:new 0 0 457.8 134.3;" xml:space="preserve"
	>
<style type="text/css">
	.st0{fill:#FFFFFF;}
	.st1{fill:none;stroke:#FFFFFF;stroke-width:1.5;}
	.st2{fill:none;stroke:#FFFFFF;stroke-width:1.8;stroke-linecap:round;stroke-linejoin:round;}
	.st3{fill:#00A5B5;}
	.st4{fill:none;stroke:#0592A0;}
	.st5{fill:none;stroke:#666666;}
	.st6{fill:none;stroke:#CCCCCC;}
	.st7{fill:none;stroke:#007075;stroke-width:2;}
	.st8{opacity:0.7;fill:none;stroke:#007075;stroke-width:2;enable-background:new    ;}
	.st9{fill:#999999;}
	.st10{fill:#888887;}
	.st11{fill:#6C6C6C;}
	.st12{fill:none;stroke:#E02727;}
	.st13{fill:#B9B9B9;}
	.st14{fill:#333333;}
	.st15{fill:#111111;}
	.st16{fill:#666666;}
	.st17{fill:#81EAEA;stroke:#666666;stroke-width:2;stroke-miterlimit:10;}
	.st18{opacity:0.5;clip-path:url(#SVGID_2_);}
	.st19{fill:#E1E5E5;}
	.st20{fill:#666666;stroke:#666666;stroke-width:0.75;stroke-miterlimit:10;}
	.st21{opacity:0.5;}
	.st22{fill:#008489;}
	.st23{fill:#E7E7E7;}
	.st24{fill:#D2D2D2;}
	.st25{fill:#ABB9C3;}
	.st26{fill:#EFC002;}
	.st27{fill:#CCCCCC;}
</style>
<path class="st0" d="M60.1,29c-1.2,0-2.3-0.1-3.4-0.5h-0.1c-0.6-0.2-1.1-0.8-1-1.5v-2.2c1.3,0.7,2.8,1.1,4.3,1.1
	c0.4,0,0.8,0,1.2-0.1h0.1l0.6-0.3l0.2-0.2c0.1-0.2,0.1-0.4,0.1-0.5c0-0.3-0.2-0.6-0.4-0.8c-0.1,0-0.1,0-0.2-0.1
	c-0.1,0-0.2,0-0.2-0.1c-1.1-0.5-2.2-1-3.3-1.5c-0.4-0.2-0.8-0.4-1.1-0.6c-0.9-0.6-1.5-1.6-1.5-2.7v-0.4c0.3-1.8,1.7-3.2,3.5-3.4
	c0.4-0.1,0.8-0.1,1.1-0.1c1.3-0.1,2.5,0.1,3.8,0.5c0.1,0,0.2,0.1,0.3,0.1c0.2,0.2,0.3,0.4,0.3,0.6v2.5c-1-0.3-2.1-0.5-3.1-0.6h-1
	c-0.2,0-0.4,0-0.6,0.1h-0.2c-0.1,0-0.2,0-0.2,0.1h-0.1c-0.1,0.1-0.2,0.3-0.2,0.5c0,0.3,0.1,0.5,0.4,0.7H59c1.1,0.5,2.2,1,3.3,1.5
	c0.5,0.2,0.9,0.5,1.4,0.9c0.7,0.6,1.2,1.4,1.3,2.4v0.1c0.1,0.3,0,0.6,0,0.9c-0.2,1.8-1.6,3.3-3.5,3.6C61,28.9,60.6,28.9,60.1,29z
	 M14.8,29c-1.2,0-2.3-0.1-3.4-0.5h-0.1c-0.6-0.2-1.1-0.8-1-1.5v-2.2c1.3,0.7,2.8,1.1,4.3,1.1c0.4,0,0.8,0,1.2-0.1h0.1l0.6-0.3
	l0.2-0.2c0.1-0.2,0.1-0.4,0.1-0.5c0-0.3-0.2-0.6-0.4-0.8c-0.1,0-0.1,0-0.2-0.1c-0.1,0-0.2,0-0.2-0.1c-1.1-0.5-2.2-1-3.3-1.5
	c-0.4-0.2-0.8-0.4-1.1-0.6C10.6,21,10,20,10,18.9v-0.5c0.3-1.8,1.7-3.2,3.5-3.4c0.4-0.1,0.8-0.1,1.1-0.1c1.3-0.1,2.5,0.1,3.8,0.5
	c0.1,0,0.2,0.1,0.3,0.1c0.2,0.2,0.3,0.4,0.3,0.6v2.5c-1-0.3-2.1-0.5-3.1-0.6h-1c-0.2,0-0.4,0-0.6,0.1h-0.2c-0.1,0-0.2,0-0.2,0.1
	c0,0-0.1,0,0,0c-0.1,0.1-0.2,0.3-0.2,0.5c0,0.3,0.1,0.5,0.4,0.7H14c1.1,0.5,2.2,1,3.3,1.5c0.5,0.2,0.9,0.5,1.4,0.9
	c0.7,0.6,1.2,1.4,1.3,2.4v0.1c0.1,0.3,0,0.6,0,0.9c-0.2,1.8-1.6,3.3-3.5,3.6C15.8,28.9,15.4,28.9,14.8,29z M86.9,28.9
	c-1.6-0.3-3.1-1.2-4.1-2.5c-2.1-2.6-2.1-6.4,0.1-9c2.3-2.8,6.4-3.3,9.4-1.1v-1H95v13.5c-1,0-2-0.5-2.7-1.2c-1.1,0.9-2.5,1.5-4,1.5
	C87.9,29,87.4,28.9,86.9,28.9z M88.3,17.9c-2.3,0.1-4,1.9-4,4.1s1.9,4,4.1,3.9c2.2,0,4-1.9,3.9-4.1C92.3,19.7,90.5,17.9,88.3,17.9z
	 M51.7,28.8c-0.6,0-1.3-0.2-1.7-0.7l-4.3-5.9l4.3-5.9c0.4-0.5,1-0.7,1.7-0.7h2.5L49.4,22l4.8,6.7L51.7,28.8z M77.3,28.7
	c-0.6,0-1.1-0.4-1.1-1v-7.8c0.1-0.8-0.4-1.5-1.1-1.7c-1.2-0.4-2.4-0.4-3.6,0c-0.8,0.2-1.3,0.9-1.2,1.7v8.7h-3V10.4h3v5.2
	c0.3-0.1,0.5-0.1,0.7-0.2c2-0.8,4.3-0.6,6.2,0.6c1.2,0.8,2,2.1,2,3.5v9.2C79.2,28.7,77.3,28.7,77.3,28.7z M42.8,28.7V10.4h3v18.3
	C45.8,28.7,42.8,28.7,42.8,28.7z M38,28.7c-0.6,0-1.1-0.4-1.1-1V15.2h3v13.4C39.8,28.7,38,28.7,38,28.7z M22,28.7V10.4h3v5.2
	c0.3-0.1,0.5-0.1,0.7-0.2c2-0.8,4.3-0.6,6.2,0.6c1.2,0.8,2,2.1,2,3.5v9.1H32c-0.6,0-1.1-0.4-1.1-1v-7.8c0.1-0.8-0.4-1.5-1.1-1.7
	c-1.2-0.4-2.4-0.4-3.6,0c-0.8,0.2-1.3,0.9-1.2,1.7v8.8h-3C22,28.6,22,28.7,22,28.7z M36.6,11.8c0-1,0.8-1.8,1.8-1.8s1.7,0.8,1.7,1.8
	c0,0.9-0.7,1.7-1.6,1.8C37.4,13.6,36.6,12.8,36.6,11.8z"/>
<path class="st0" d="M120.4,24h-14.7c-0.4,0-0.6-0.3-0.6-0.7v-1.2c0-0.4,0.3-0.7,0.6-0.7h14.7c0.4,0,0.6,0.3,0.6,0.7v1.2
	C121,23.7,120.7,24,120.4,24z M120.4,18.3h-14.7c-0.4,0-0.6-0.3-0.6-0.7v-1.2c0-0.4,0.3-0.7,0.6-0.7h14.7c0.4,0,0.6,0.3,0.6,0.7v1.2
	C121,18,120.7,18.3,120.4,18.3z M120.4,12.5h-14.7c-0.4,0-0.6-0.3-0.6-0.7v-1.2c0-0.4,0.3-0.7,0.6-0.7h14.7c0.4,0,0.6,0.3,0.6,0.7
	v1.2C121,12.2,120.7,12.5,120.4,12.5z"/>
<path class="st1" d="M148,23.2v1.6h-5.7c0,1.3-1.1,2.3-2.4,2.2c-1.2,0-2.2-1-2.2-2.2H132v-1.6c3.9-1.2,1.8-8.1,5.5-10.2
	c0.5-0.3,0.8-0.8,0.8-1.4c0-0.9,0.8-1.6,1.7-1.6s1.6,0.7,1.6,1.6c0,0.6,0.3,1.1,0.8,1.4C146.2,15.1,144.1,22,148,23.2L148,23.2z"/>
<path class="st2" d="M159.9,10.8h15.2c0.6,0,1.1,0.5,1.1,1.1v10.9c0,0.6-0.5,1.1-1.1,1.1h-4.6l-2.8,3.3l-3-3.3h-4.9
	c-0.6,0-1.1-0.5-1.1-1.1V11.9C158.8,11.3,159.3,10.8,159.9,10.8L159.9,10.8z"/>
<path class="st0" d="M164.5,20.1l-0.3-1.3h-1.7l-0.3,1.3h-1l1.6-5.4h1.2l1.6,5.4H164.5z M163.9,17.9c-0.3-1.2-0.5-1.8-0.5-2
	s-0.1-0.3-0.1-0.4c-0.1,0.3-0.3,1.1-0.6,2.3h1.2L163.9,17.9L163.9,17.9z M169.1,18.6c0,0.4-0.1,0.8-0.4,1.1s-0.8,0.4-1.2,0.4
	c-0.5,0-0.9-0.1-1.3-0.3v-1.1c0.3,0.1,0.5,0.3,0.8,0.3c0.2,0.1,0.4,0.1,0.6,0.1s0.3,0,0.5-0.1c0.1-0.1,0.2-0.3,0.2-0.4
	s0-0.2-0.1-0.3s-0.1-0.2-0.2-0.2c-0.2-0.1-0.4-0.3-0.6-0.4s-0.4-0.3-0.6-0.4c-0.1-0.1-0.3-0.3-0.3-0.5c-0.1-0.2-0.1-0.4-0.1-0.7
	c0-0.4,0.1-0.8,0.4-1.1s0.7-0.4,1.1-0.4c0.2,0,0.5,0,0.7,0.1s0.5,0.2,0.7,0.3l-0.3,0.9c-0.2-0.1-0.4-0.2-0.6-0.2s-0.3-0.1-0.5-0.1
	s-0.3,0-0.4,0.1c-0.2,0.2-0.2,0.4-0.1,0.7c0,0.1,0.1,0.2,0.2,0.2c0.2,0.1,0.4,0.3,0.6,0.4c0.3,0.2,0.6,0.4,0.9,0.7
	C169,18,169.1,18.3,169.1,18.6L169.1,18.6z M173.9,20.1h-1.1l-1.2-2.3l-0.4,0.3V20h-1v-5.4h1v2.5l1.6-2.4h1.1l-1.6,2.4L173.9,20.1
	L173.9,20.1z"/>
<path class="st0" d="M204.8,25.2l-4.6-4.6c0.8-1.4,1.1-3.1,0.9-4.7c-0.7-3.9-4.3-6.5-8.2-5.8s-6.5,4.3-5.8,8.2s4.3,6.5,8.2,5.8
	c0.8-0.1,1.6-0.4,2.3-0.8c0,0,0,0.1,0.1,0.1l4.5,4.5c0.2,0.2,0.6,0.2,0.9,0l1.8-1.8C205,25.8,205,25.4,204.8,25.2L204.8,25.2z
	 M194.1,22.2c-2.8,0-5.1-2.3-5.1-5.1s2.3-5.1,5.1-5.1s5.1,2.3,5.1,5.1S196.9,22.2,194.1,22.2z"/>
<rect x="218.7" y="16.2" class="st0" width="14.3" height="2.6"/>
<path class="st0" d="M224.9,24l-6.3-6.5l6.3-6.5h-2.7l-6.3,6.5l6.3,6.5H224.9z"/>
<path class="st3" d="M245,18.8l1.3-1.6l3.3,2.8l5.8-7l1.6,1.4l-7.1,8.6L245,18.8z"/>
<rect x="243" y="10" class="st4" width="16" height="16"/>
<rect x="269" y="10" class="st5" width="16" height="16"/>
<rect x="295" y="10" class="st6" width="16" height="16"/>
<path class="st7" d="M321.4,13.4l3.8,4.1l-3.8,4.1"/>
<path class="st7" d="M340.6,21.7l-3.9-4.2l3.9-4.2"/>
<path class="st8" d="M355.6,21.7l-3.9-4.2l3.9-4.2"/>
<path class="st8" d="M366.4,13.3l4,4.2l-4,4.2"/>
<path class="st9" d="M327,28.8l-4,3.2l-4-3.2l-1,1l5,4.1l5-4.1L327,28.8"/>
<path class="st9" d="M348,34l4-3.2l4,3.2l1-1l-5-4l-5,4L348,34"/>
<path class="st9" d="M336,27.8l3.2,3.2l-3.2,3.2l1,0.8l4-4l-4-4L336,27.8"/>
<path class="st10" d="M367.1,37.8c-0.2,0-0.4-0.1-0.4-0.3c-0.4-0.7-3.5-6.7-3.5-8.6c0-2.2,1.8-3.9,3.9-3.9s3.9,1.8,3.9,3.9
	c0,1.9-3.1,8-3.5,8.6C367.4,37.7,367.3,37.8,367.1,37.8z M367.1,26c-1.6,0-2.9,1.3-2.9,2.9c0,1.3,1.8,5.1,2.9,7.3
	c1.1-2.2,2.9-6.1,2.9-7.3C370,27.3,368.7,26,367.1,26z"/>
<circle class="st10" cx="367.1" cy="29" r="1.3"/>
<path class="st10" d="M218.1,18.5"/>
<polygon class="st11" points="376.8,17 381.2,12.8 385.7,17 387.8,17 381.2,10.8 374.6,17 "/>
<polygon class="st11" points="385.7,18 381.2,22.2 376.7,18 374.6,18 381.2,24.2 387.8,18 "/>
<rect x="398.3" y="10" class="st12" width="16" height="16"/>
<g transform="translate(-267 -110)">
	<path class="st13" d="M700.4,131h-0.8l-0.3-0.3c1-1.1,1.6-2.6,1.6-4.2c0-3.6-2.9-6.5-6.5-6.5s-6.5,2.9-6.5,6.5
		c0,3.6,2.9,6.5,6.5,6.5c1.6,0,3.1-0.6,4.2-1.6l0.3,0.3v0.8l5,5l1.5-1.5L700.4,131z M694.4,131c-2.5,0-4.5-2-4.5-4.5s2-4.5,4.5-4.5
		s4.5,2,4.5,4.5S696.9,131,694.4,131z"/>
</g>
<g transform="translate(-118 -157)">
	<g transform="translate(118 154)">
		<g transform="translate(0 3)">
			<path class="st14" d="M366,44.7c-0.1-0.2-0.3-0.3-0.4-0.3h-11c-0.2,0-0.4,0.1-0.4,0.3c-0.1,0.2-0.1,0.4,0,0.5l3.8,5.6v0.1v4.3
				c0,0.2,0.1,0.4,0.3,0.4l3.2,1.7c0.1,0,0.1,0.1,0.2,0.1s0.2,0,0.3-0.1s0.2-0.3,0.2-0.4v-5.8l3.9-5.9C366.1,45,366.1,44.8,366,44.7
				z M361.1,56.1l-2.2-1.1v-3.6h2.2V56.1z M361.3,50.4h-2.5l-3.3-5h9.1L361.3,50.4L361.3,50.4z"/>
		</g>
	</g>
</g>
<g transform="translate(-88 -243)">
	<g transform="translate(0 196)">
		<g transform="translate(88 7)">
			<path class="st15" d="M326.3,90.3c0,0.7-0.2,1.4-0.5,2l-3,5.1l-3-5.1c-0.3-0.5-0.5-1.1-0.5-2.1c0-2.1,1.6-3.9,3.5-3.9
				C324.7,86.4,326.3,88.2,326.3,90.3z M321.3,90c0,0.9,0.7,1.6,1.5,1.6s1.4-0.7,1.4-1.6s-0.6-1.6-1.4-1.6S321.3,89.1,321.3,90z"/>
		</g>
	</g>
</g>
<path class="st0" d="M395,116.3c-0.1,0-0.2-0.1-0.2-0.2l-14.5-75.2v-0.2c0,0,0.1-0.1,0.2-0.1l44-8.5h0.1l14,9.6
	c0.1,0,0.1,0.1,0.1,0.2l12.2,63.3v0.2c0,0-0.1,0.1-0.2,0.1C450.7,105.5,395,116.3,395,116.3z"/>
<path class="st16" d="M424.3,33.2l13.5,9.3l12,62.3l-54.1,10.5l-14.3-73.8L424.3,33.2 M424.5,31.2h-0.2l-44,8.5
	c-0.7,0.1-1.1,0.8-1,1.5l14.5,75.2c0.1,0.6,0.6,1,1.2,1h0.2l55.6-10.7c0.7-0.1,1.1-0.8,1-1.5l-12.2-63.3c-0.1-0.3-0.3-0.6-0.5-0.8
	l-14-9.6C425,31.2,424.7,31.2,424.5,31.2z"/>
<path class="st17" d="M424.1,33l2.2,11.6c0.1,0.5,0.6,0.9,1.1,0.8l11.5-2.2"/>
<g>
	<g>
		<g>
			<defs>
				<polyline id="SVGID_1_" points="437.5,42.3 449.7,104.8 395.7,115.1 381.5,41.6 423.2,33.1 				"/>
			</defs>
			<clipPath id="SVGID_2_">
				<use xlink:href="#SVGID_1_"  style="overflow:visible;"/>
			</clipPath>
			<g class="st18">
				<polyline class="st19" points="447.1,46.9 447.1,111.5 384.7,111.5 384.7,34.4 433.8,34.4 				"/>
			</g>
		</g>
	</g>
</g>
<path class="st0" d="M387.8,110.5c-0.1,0-0.2-0.1-0.2-0.2V35.6c0-0.1,0.1-0.2,0.2-0.2h44.3c0.1,0,0.1,0,0.2,0.1l11.8,11.8
	c0,0,0.1,0.1,0.1,0.2v62.8c0,0.1-0.1,0.2-0.2,0.2L387.8,110.5L387.8,110.5z"/>
<path class="st16" d="M431.9,36.4l11.3,11.3v61.8h-54.6V36.4H431.9 M432.2,34.4h-44.3c-0.7,0-1.2,0.6-1.2,1.2v74.6
	c0,0.7,0.6,1.2,1.2,1.2H444c0.7,0,1.2-0.6,1.2-1.2V47.4c0-0.3-0.1-0.6-0.4-0.9l-11.7-11.7C432.8,34.5,432.5,34.4,432.2,34.4
	L432.2,34.4z"/>
<path class="st17" d="M431.7,36.1v11.6c0,0.5,0.4,0.9,0.9,0.9h11.6"/>
<path class="st20" d="M409.9,72.8c-0.1,0-0.3,0-0.4-0.1l-9.4-9.5c-0.2-0.2-0.2-0.5,0-0.7s0.5-0.2,0.7,0l9.4,9.5
	c0.2,0.2,0.2,0.5,0,0.7C410.2,72.7,410,72.8,409.9,72.8L409.9,72.8z"/>
<path class="st20" d="M400.5,72.7c-0.1,0-0.3,0-0.4-0.1c-0.2-0.2-0.2-0.5,0-0.7l9.5-9.4c0.2-0.2,0.5-0.2,0.7,0s0.2,0.5,0,0.7
	l-9.5,9.4C400.7,72.6,400.6,72.7,400.5,72.7L400.5,72.7z"/>
<path class="st20" d="M431.6,72.8c-0.1,0-0.3,0-0.4-0.1l-9.4-9.5c-0.2-0.2-0.2-0.5,0-0.7s0.5-0.2,0.7,0l9.4,9.5
	c0.2,0.2,0.2,0.5,0,0.7C431.9,72.7,431.7,72.8,431.6,72.8L431.6,72.8z"/>
<path class="st20" d="M422.2,72.7c-0.1,0-0.3,0-0.4-0.1c-0.2-0.2-0.2-0.5,0-0.7l9.5-9.4c0.2-0.2,0.5-0.2,0.7,0s0.2,0.5,0,0.7
	l-9.5,9.4C422.4,72.6,422.3,72.7,422.2,72.7L422.2,72.7z"/>
<path class="st20" d="M428.1,88.8l-2.6-2.6c-0.4-0.4-0.9-0.6-1.4-0.6c-0.6,0-1.1,0.2-1.5,0.6l-0.5,0.5c-0.6,0.6-1.3,0.9-2.2,0.9
	c-0.8,0-1.6-0.3-2.2-0.9l-0.8-0.8c-0.4-0.4-1-0.6-1.5-0.6c-0.6,0-1.1,0.2-1.5,0.6l-0.5,0.5c-0.6,0.6-1.3,0.9-2.2,0.9
	c-0.8,0-1.6-0.3-2.1-0.9l-0.8-0.8c-0.4-0.4-0.9-0.6-1.5-0.6s-1.1,0.2-1.4,0.6l-2.3,2.4c-0.2,0.2-0.5,0.2-0.7,0s-0.2-0.5,0-0.7
	l2.3-2.4c0.6-0.6,1.3-0.9,2.2-0.9c0.8,0,1.6,0.3,2.1,0.9l0.8,0.8c0.4,0.4,0.9,0.6,1.5,0.6s1.1-0.2,1.4-0.6l0.5-0.5
	c0.6-0.6,1.3-0.9,2.2-0.9c0.8,0,1.6,0.3,2.1,0.9l0.8,0.8c0.4,0.4,0.9,0.6,1.4,0.6c0.6,0,1.1-0.2,1.5-0.6l0.5-0.5
	c0.6-0.6,1.3-0.9,2.2-0.9c0.8,0,1.6,0.3,2.1,0.9l2.6,2.6c0.2,0.2,0.2,0.5,0,0.7C428.5,88.9,428.2,88.9,428.1,88.8z"/>
<g class="st21">
	<ellipse class="st19" cx="418" cy="121" rx="35.5" ry="2.9"/>
</g>
<path class="st22" d="M335.2,49.6c0,3,2.2,5.6,5,6.1v1.7l4.6-2.6l-4.6-2.6v1.5c-1.8-0.5-3.1-2.2-3.1-4.1c0-2.3,1.9-4.3,4.3-4.3
	s4.3,1.9,4.3,4.3c0,0.6-0.1,1.2-0.4,1.8l1.8,0.8c0.4-0.8,0.6-1.7,0.6-2.6c0-3.4-2.8-6.2-6.2-6.2C338,43.4,335.2,46.2,335.2,49.6
	L335.2,49.6z"/>
<g transform="translate(-119 -230)">
	<polygon class="st3" points="403.9,284.6 401,281.7 399.6,283.1 403.9,287.4 412.6,278.9 411.2,277.4 	"/>
</g>
<g transform="translate(-119 -266)">
	<polygon class="st23" points="421.9,320.6 419,317.7 417.6,319.1 421.9,323.4 430.6,314.9 429.2,313.4 	"/>
</g>
<g id="home_x2F_SRP_x2F_CTP_5_">
	<g id="Artboard_3_" transform="translate(-121.000000, -108.000000)">
		<path id="Shape-Copy-10" class="st24" d="M393.4,164.3c0.1,0.1,0.1,0.4,0,0.5l-0.5,0.5c-0.1,0.1-0.4,0.1-0.5,0l-3.5-3.5l-0.1-0.1
			c-0.7,0.5-1.6,0.8-2.6,0.8c-2.4,0-4.3-1.9-4.3-4.3c0-2.4,1.9-4.3,4.3-4.3s4.3,1.9,4.3,4.3c0,1-0.3,1.8-0.8,2.6c0,0,0.1,0,0.1,0.1
			L393.4,164.3z M386.2,155.3c-1.6,0-2.9,1.3-2.9,2.9c0,1.6,1.3,2.9,2.9,2.9s2.9-1.3,2.9-2.9S387.9,155.3,386.2,155.3z"/>
	</g>
</g>
<path id="Shape_525_copy_7" class="st25" d="M244.5,40.4l3,5.3l6,1.2l-4.2,4.4l0.8,6l-5.6-2.5l-5.6,2.6l0.8-6l-4.2-4.5l6-1.1
	L244.5,40.4"/>
<path id="Shape_525_copy" class="st26" d="M220.5,40.4l3,5.3l6,1.2l-4.2,4.4l0.8,6l-5.6-2.5l-5.6,2.6l0.8-6l-4.2-4.5l6-1.1
	L220.5,40.4"/>
<g>
	<path class="st3" d="M163.1,49.9c0,2.2-4,7.5-4,7.5s-4-5.3-4-7.5s1.8-4,4-4S163.1,47.7,163.1,49.9z"/>
	<circle class="st0" cx="159.1" cy="49.9" r="2"/>
</g>
<g>
	<path class="st16" d="M196.6,48h2v6h-2V48z"/>
	<path class="st16" d="M196.6,44.5h2v2h-2V44.5z"/>
	<g>
		<path class="st16" d="M197.6,42.6c3.7,0,6.8,3.1,6.8,6.8s-3.1,6.8-6.8,6.8s-6.8-3.1-6.8-6.8S193.9,42.6,197.6,42.6 M197.6,41.4
			c-4.4,0-8,3.6-8,8s3.6,8,8,8s8-3.6,8-8S202,41.4,197.6,41.4L197.6,41.4z"/>
	</g>
</g>
<g>
	<g>
		<path class="st14" d="M178,41.4c-4.4,0-8,3.6-8,8s3.6,8,8,8s8-3.6,8-8S182.4,41.4,178,41.4L178,41.4z"/>
	</g>
	<path class="st0" d="M177,48.1h2v6h-2V48.1z"/>
	<path class="st0" d="M177,44.6h2v2h-2V44.6z"/>
</g>
<polygon id="Shape-Copy-6_2_" class="st27" points="135.1,56 133.7,57.4 128.1,51.4 133.7,45.4 135.1,46.8 130.7,51.4 "/>
<polygon id="Shape-Copy-6_3_" class="st27" points="140.1,46.8 141.4,45.4 147.1,51.4 141.4,57.4 140.1,56 144.5,51.4 "/>
<polygon id="Shape-Copy-6_5_" class="st3" points="112,56 110.6,57.4 105,51.4 110.6,45.4 112,46.8 107.6,51.4 "/>
<polygon id="Shape-Copy-6_4_" class="st3" points="117,46.8 118.3,45.4 124,51.4 118.3,57.4 117,56 121.4,51.4 "/>
</svg>
