<svg xmlns="http://www.w3.org/2000/svg" xmlns:xlink="http://www.w3.org/1999/xlink" width="447" height="123" viewBox="0 0 446.7 122.9"><style><![CDATA[.A{fill:#fff}.D{fill:#00a5b5}.H{fill:none;stroke:#007075;stroke-width:2}.I{opacity:0.7;fill:none;stroke:#007075;stroke-width:2;enable-background:new }.J{fill:#999}.K{fill:#888887}.L{fill:#6c6c6c}.O{fill:#333}.Q{fill:#008489}.V{fill:#ccc}.o{fill:#f66}.p{fill:#f3f4f5}.r{fill:#336}.s{fill:#666667}.u{fill:#ec2227}.v{fill:#086db5}.w{fill:#2eaae1}.x{fill:none;stroke:#000;stroke-width:0.5}.y{fill:#ff9327}.AA{fill:none;stroke:#000;stroke-width:0.478}.AB{fill:none}.AC{stroke-linejoin:round}.AD{stroke:#000}.AE{stroke-miterlimit:10}.AF{stroke-width:.75}.AG{stroke-linecap:round}.AH{stroke-width:.5}]]></style><path class="A" d="M60.1 29c-1.2 0-2.3-.1-3.4-.5h-.1c-.6-.2-1.1-.8-1-1.5v-2.2a9.16 9.16 0 0 0 4.3 1.1c.4 0 .8 0 1.2-.1h.1l.6-.3.2-.2c.1-.2.1-.4.1-.5 0-.3-.2-.6-.4-.8-.1 0-.1 0-.2-.1-.1 0-.2 0-.2-.1L58 22.3l-1.1-.6c-.9-.6-1.5-1.6-1.5-2.7v-.4c.3-1.8 1.7-3.2 3.5-3.4.4-.1.8-.1 1.1-.1 1.3-.1 2.5.1 3.8.5.1 0 .2.1.3.1.2.2.3.4.3.6v2.5a16.96 16.96 0 0 0-3.1-.6h-1c-.2 0-.4 0-.6.1h-.2c-.1 0-.2 0-.2.1h-.1c-.1.1-.2.3-.2.5 0 .3.1.5.4.7H59l3.3 1.5c.5.2.9.5 1.4.9.7.6 1.2 1.4 1.3 2.4v.1c.1.3 0 .6 0 .9-.2 1.8-1.6 3.3-3.5 3.6-.5-.1-.9-.1-1.4 0zm-45.3 0c-1.2 0-2.3-.1-3.4-.5h-.1c-.6-.2-1.1-.8-1-1.5v-2.2a9.16 9.16 0 0 0 4.3 1.1c.4 0 .8 0 1.2-.1h.1l.6-.3.2-.2c.1-.2.1-.4.1-.5 0-.3-.2-.6-.4-.8-.1 0-.1 0-.2-.1-.1 0-.2 0-.2-.1l-3.3-1.5-1.1-.6c-1-.7-1.6-1.7-1.6-2.8v-.5c.3-1.8 1.7-3.2 3.5-3.4.4-.1.8-.1 1.1-.1 1.3-.1 2.5.1 3.8.5.1 0 .2.1.3.1.2.2.3.4.3.6v2.5a16.96 16.96 0 0 0-3.1-.6h-1c-.2 0-.4 0-.6.1h-.2c-.1 0-.2 0-.2.1 0 0-.1 0 0 0-.1.1-.2.3-.2.5 0 .3.1.5.4.7H14l3.3 1.5c.5.2.9.5 1.4.9.7.6 1.2 1.4 1.3 2.4v.1c.1.3 0 .6 0 .9-.2 1.8-1.6 3.3-3.5 3.6l-1.7.2zm72.1-.1a6.81 6.81 0 0 1-4.1-2.5c-2.1-2.6-2.1-6.4.1-9 2.3-2.8 6.4-3.3 9.4-1.1v-1H95v13.5c-1 0-2-.5-2.7-1.2-1.1.9-2.5 1.5-4 1.5-.4-.1-.9-.2-1.4-.2zm1.4-11c-2.3.1-4 1.9-4 4.1s1.9 4 4.1 3.9c2.2 0 4-1.9 3.9-4.1 0-2.1-1.8-3.9-4-3.9zM51.7 28.8c-.6 0-1.3-.2-1.7-.7l-4.3-5.9 4.3-5.9c.4-.5 1-.7 1.7-.7h2.5L49.4 22l4.8 6.7-2.5.1zm25.6-.1c-.6 0-1.1-.4-1.1-1v-7.8c.1-.8-.4-1.5-1.1-1.7a5.55 5.55 0 0 0-3.6 0c-.8.2-1.3.9-1.2 1.7v8.7h-3V10.4h3v5.2c.3-.1.5-.1.7-.2 2-.8 4.3-.6 6.2.6 1.2.8 2 2.1 2 3.5v9.2h-1.9zm-34.5 0V10.4h3v18.3h-3zm-4.8 0c-.6 0-1.1-.4-1.1-1V15.2h3v13.4c-.1.1-1.9.1-1.9.1zm-16 0V10.4h3v5.2c.3-.1.5-.1.7-.2 2-.8 4.3-.6 6.2.6 1.2.8 2 2.1 2 3.5v9.1H32c-.6 0-1.1-.4-1.1-1v-7.8c.1-.8-.4-1.5-1.1-1.7a5.55 5.55 0 0 0-3.6 0c-.8.2-1.3.9-1.2 1.7v8.8h-3v.1zm14.6-16.9a1.79 1.79 0 0 1 1.8-1.8c1 0 1.7.8 1.7 1.8 0 .9-.7 1.7-1.6 1.8-1.1 0-1.9-.8-1.9-1.8zM120.4 24h-14.7c-.4 0-.6-.3-.6-.7v-1.2c0-.4.3-.7.6-.7h14.7c.4 0 .6.3.6.7v1.2c0 .4-.3.7-.6.7zm0-5.7h-14.7c-.4 0-.6-.3-.6-.7v-1.2c0-.4.3-.7.6-.7h14.7c.4 0 .6.3.6.7v1.2c0 .4-.3.7-.6.7zm0-5.8h-14.7c-.4 0-.6-.3-.6-.7v-1.2c0-.4.3-.7.6-.7h14.7c.4 0 .6.3.6.7v1.2c0 .4-.3.7-.6.7z"/><g stroke="#fff" class="AB"><path d="M148 23.2v1.6h-5.7c0 1.3-1.1 2.3-2.4 2.2a2.22 2.22 0 0 1-2.2-2.2H132v-1.6c3.9-1.2 1.8-8.1 5.5-10.2.5-.3.8-.8.8-1.4 0-.9.8-1.6 1.7-1.6a1.58 1.58 0 0 1 1.6 1.6c0 .6.3 1.1.8 1.4 3.8 2.1 1.7 9 5.6 10.2z" stroke-width="1.5"/><path d="M159.9 10.8h15.2a1.11 1.11 0 0 1 1.1 1.1v10.9a1.11 1.11 0 0 1-1.1 1.1h-4.6l-2.8 3.3-3-3.3h-4.9a1.11 1.11 0 0 1-1.1-1.1V11.9c.1-.6.6-1.1 1.2-1.1z" stroke-width="1.8" class="AC"/></g><path class="A" d="M164.5 20.1l-.3-1.3h-1.7l-.3 1.3h-1l1.6-5.4h1.2l1.6 5.4h-1.1zm-.6-2.2l-.5-2c0-.2-.1-.3-.1-.4-.1.3-.3 1.1-.6 2.3h1.2v.1zm5.2.7c0 .4-.1.8-.4 1.1s-.8.4-1.2.4c-.5 0-.9-.1-1.3-.3v-1.1c.3.1.5.3.8.3.2.1.4.1.6.1s.3 0 .5-.1a.76.76 0 0 0 .2-.4c0-.1 0-.2-.1-.3s-.1-.2-.2-.2c-.2-.1-.4-.3-.6-.4s-.4-.3-.6-.4c-.1-.1-.3-.3-.3-.5-.1-.2-.1-.4-.1-.7 0-.4.1-.8.4-1.1s.7-.4 1.1-.4c.2 0 .5 0 .7.1s.5.2.7.3l-.3.9c-.2-.1-.4-.2-.6-.2s-.3-.1-.5-.1-.3 0-.4.1c-.2.2-.2.4-.1.7 0 .1.1.2.2.2.2.1.4.3.6.4.3.2.6.4.9.7-.1.3 0 .6 0 .9zm4.8 1.5h-1.1l-1.2-2.3-.4.3V20h-1v-5.4h1v2.5l1.6-2.4h1.1l-1.6 2.4 1.6 3zm30.9 5.1l-4.6-4.6c.8-1.4 1.1-3.1.9-4.7-.7-3.9-4.3-6.5-8.2-5.8s-6.5 4.3-5.8 8.2 4.3 6.5 8.2 5.8c.8-.1 1.6-.4 2.3-.8 0 0 0 .1.1.1l4.5 4.5c.2.2.6.2.9 0l1.8-1.8c.1-.3.1-.7-.1-.9zm-10.7-3c-2.8 0-5.1-2.3-5.1-5.1s2.3-5.1 5.1-5.1 5.1 2.3 5.1 5.1-2.3 5.1-5.1 5.1zm24.6-6H233v2.6h-14.3z"/><path class="A" d="M224.9 24l-6.3-6.5 6.3-6.5h-2.7l-6.3 6.5 6.3 6.5h2.7z"/><path class="D" d="M245 18.8l1.3-1.6 3.3 2.8 5.8-7 1.6 1.4-7.1 8.6-4.9-4.2z"/><g class="AB"><path d="M243 10h16v16h-16z" stroke="#0592a0"/><path d="M269 10h16v16h-16z" stroke="#666"/><path d="M295 10h16v16h-16z" stroke="#ccc"/></g><path class="H" d="M321.4 13.4l3.8 4.1-3.8 4.1m19.2.1l-3.9-4.2 3.9-4.2"/><path class="I" d="M355.6 21.7l-3.9-4.2 3.9-4.2m10.8 0l4 4.2-4 4.2"/><path class="J" d="M327 28.8l-4 3.2-4-3.2-1 1 5 4.1 5-4.1-1-1m21 5.2l4-3.2 4 3.2 1-1-5-4-5 4 1 1m-12-6.2l3.2 3.2-3.2 3.2 1 .8 4-4-4-4-1 .8"/><path class="K" d="M367.1 37.8c-.2 0-.4-.1-.4-.3-.4-.7-3.5-6.7-3.5-8.6 0-2.2 1.8-3.9 3.9-3.9s3.9 1.8 3.9 3.9c0 1.9-3.1 8-3.5 8.6-.1.2-.2.3-.4.3zm0-11.8c-1.6 0-2.9 1.3-2.9 2.9 0 1.3 1.8 5.1 2.9 7.3 1.1-2.2 2.9-6.1 2.9-7.3 0-1.6-1.3-2.9-2.9-2.9z"/><circle class="K" cx="367.1" cy="29" r="1.3"/><path class="K" d="M218.1,18.5"/><path class="L" d="M376.8 17l4.4-4.2 4.5 4.2h2.1l-6.6-6.2-6.6 6.2zm8.9 1l-4.5 4.2-4.5-4.2h-2.1l6.6 6.2 6.6-6.2z"/><path d="M398.3 10h16v16h-16z" stroke="#e02727" class="AB"/><path d="M433.4 21h-.8l-.3-.3c1-1.1 1.6-2.6 1.6-4.2a6.49 6.49 0 1 0-13 0 6.49 6.49 0 0 0 6.5 6.5c1.6 0 3.1-.6 4.2-1.6l.3.3v.8l5 5 1.5-1.5-5-5zm-6 0a4.48 4.48 0 0 1-4.5-4.5 4.48 4.48 0 1 1 9 0 4.48 4.48 0 0 1-4.5 4.5z" fill="#666"/><path class="O" d="M366 44.7c-.1-.2-.3-.3-.4-.3h-11c-.2 0-.4.1-.4.3-.1.2-.1.4 0 .5l3.8 5.6v4.4c0 .2.1.4.3.4l3.2 1.7c.1 0 .1.1.2.1s.2 0 .3-.1a.76.76 0 0 0 .2-.4v-5.8l3.9-5.9c0-.2 0-.4-.1-.5zm-4.9 11.4l-2.2-1.1v-3.6h2.2v4.7zm.2-5.7h-2.5l-3.3-5h9.1l-3.3 5z"/><path d="M326.3 50.3c0 .7-.2 1.4-.5 2l-3 5.1-3-5.1c-.3-.5-.5-1.1-.5-2.1 0-2.1 1.6-3.9 3.5-3.9 1.9.1 3.5 1.9 3.5 4zm-5-.3c0 .9.7 1.6 1.5 1.6s1.4-.7 1.4-1.6-.6-1.6-1.4-1.6-1.5.7-1.5 1.6z" fill="#111"/><path class="Q" d="M335.2 49.6c0 3 2.2 5.6 5 6.1v1.7l4.6-2.6-4.6-2.6v1.5c-1.8-.5-3.1-2.2-3.1-4.1 0-2.3 1.9-4.3 4.3-4.3s4.3 1.9 4.3 4.3c0 .6-.1 1.2-.4 1.8l1.8.8c.4-.8.6-1.7.6-2.6 0-3.4-2.8-6.2-6.2-6.2-3.5 0-6.3 2.8-6.3 6.2z"/><use xlink:href="#B" class="D"/><use xlink:href="#B" x="18" fill="#e7e7e7"/><path d="M272.4 56.3c.1.1.1.4 0 .5l-.5.5c-.1.1-.4.1-.5 0l-3.6-3.6c-.7.5-1.6.8-2.6.8-2.4 0-4.3-1.9-4.3-4.3s1.9-4.3 4.3-4.3 4.3 1.9 4.3 4.3c0 1-.3 1.8-.8 2.6 0 0 .1 0 .1.1l3.6 3.4zm-7.2-9c-1.6 0-2.9 1.3-2.9 2.9s1.3 2.9 2.9 2.9 2.9-1.3 2.9-2.9-1.2-2.9-2.9-2.9z" fill="#d2d2d2"/><use xlink:href="#C" fill="#abb9c3"/><use xlink:href="#C" x="-24" fill="#efc002"/><use xlink:href="#D" class="D"/><circle class="A" cx="159.1" cy="49.9" r="2"/><path class="V" d="M135.1 56l-1.4 1.4-5.6-6 5.6-6 1.4 1.4-4.4 4.6zm5-9.2l1.3-1.4 5.7 6-5.7 6-1.3-1.4 4.4-4.6z"/><path class="D" d="M112 56l-1.4 1.4-5.6-6 5.6-6 1.4 1.4-4.4 4.6zm5-9.2l1.3-1.4 5.7 6-5.7 6L117 56l4.4-4.6z"/><defs><path id="A" d="M66.5 40.5h27.8v24.6H66.5z"/><path id="B" d="M284.9 54.6l-2.9-2.9-1.4 1.4 4.3 4.3 8.7-8.5-1.4-1.5z"/><path id="C" d="M244.5 40.4l3 5.3 6 1.2-4.2 4.4.8 6-5.6-2.5-5.6 2.6.8-6-4.2-4.5 6-1.1 3-5.4"/><path id="D" d="M163.1 49.9c0 2.2-4 7.5-4 7.5s-4-5.3-4-7.5 1.8-4 4-4 4 1.8 4 4z"/><path id="E" d="M78.3 62.8V64a.68.68 0 0 0 .7.7h2.8a.68.68 0 0 0 .7-.7v-1.2h-4.2z"/><path id="F" d="M83.5 59.4h-6.2a.68.68 0 0 0-.7.7v.3a.68.68 0 0 0 .7.7h6.2a.68.68 0 0 0 .7-.7v-.3a.68.68 0 0 0-.7-.7"/><path id="G" d="M83.5 59.4h-6.2a.68.68 0 0 0-.7.7v.3a.68.68 0 0 0 .7.7h6.2a.68.68 0 0 0 .7-.7v-.3a.68.68 0 0 0-.7-.7z"/><path id="H" d="M180.2 53.6l-.2.6-1.1.4c-.3.1-.6.1-1 .1-.6 0-1-.1-1.3-.4s-.5-.6-.5-1v-.5c0-.2.1-.4.1-.6l.6-2c.1-.2.1-.4.1-.6s.1-.3.1-.5c0-.3-.1-.4-.2-.5s-.3-.2-.6-.2c-.1 0-.3 0-.5.1-.2 0-.3.1-.4.1l.2-.6c.4-.2.7-.3 1.1-.4.3-.1.7-.2 1-.2.6 0 1 .1 1.3.4s.4.6.4 1v.5c0 .2-.1.4-.1.6l-.6 2c0 .2-.1.3-.1.6 0 .2-.1.4-.1.5 0 .3.1.5.2.5.1.1.3.1.6.1.1 0 .3 0 .5-.1.3.2.4.2.5.1zm.1-8.4c0 .4-.1.7-.4.9s-.6.4-1 .4-.7-.1-1-.4c-.3-.2-.4-.5-.4-.9s.1-.7.4-.9.6-.4 1-.4.7.1 1 .4c.3.2.4.5.4.9z"/><path id="I" d="M21.2 57.4c-2.1 0-4.3-.5-6.1-1.7H15c-.1 0-.1-.1-.1-.2.3-1.6 1.3-2.8 3.4-3.8l1.6-.8h2.7l1.6.8c2.1 1 3.1 2.1 3.4 3.8 0 .1 0 .2-.1.2h-.1c-2 1.2-4.1 1.8-6.2 1.7zm-5.8-2c1.7 1.1 3.7 1.6 5.8 1.6 2 0 4.1-.5 5.8-1.6-.3-1.4-1.2-2.4-3.1-3.3l-1.5-.7h-2.3l-1.5.7c-2 .9-2.9 1.9-3.2 3.3z"/><path id="J" d="M27.9 55.9c-2.8 0-5.1-2.3-5.1-5.1s2.3-5.1 5.1-5.1S33 48 33 50.8c0 2.7-2.3 5.1-5.1 5.1zm0-9.9c-2.6 0-4.7 2.1-4.7 4.7s2.1 4.7 4.7 4.7 4.7-2.1 4.7-4.7-2.1-4.7-4.7-4.7z"/><path id="K" d="M253.1 114.5h-17.8a1.79 1.79 0 0 1-1.8-1.8v-14a1.79 1.79 0 0 1 1.8-1.8h17.8a1.79 1.79 0 0 1 1.8 1.8v13.9c.1 1.1-.8 1.9-1.8 1.9"/><path id="L" d="M253.1 114.5h-17.8a1.79 1.79 0 0 1-1.8-1.8v-14a1.79 1.79 0 0 1 1.8-1.8h17.8a1.79 1.79 0 0 1 1.8 1.8v13.9c.1 1.1-.8 1.9-1.8 1.9z"/><path id="M" d="M233.5 99.5v-3.3c0-.9.8-1.7 1.8-1.7h17.8c1 0 1.8.8 1.8 1.7v3.3h-21.4z"/></defs><clipPath id="N"><use xlink:href="#A"/></clipPath><use xlink:href="#E" clip-path="url(#N)" fill="#424242"/><defs><path id="O" d="M66.5 40.5h27.8v24.6H66.5z"/></defs><clipPath id="P"><use xlink:href="#O"/></clipPath><use xlink:href="#E" clip-path="url(#P)" class="AB AC AD AE AF"/><defs><path id="Q" d="M66.5 40.5h27.8v24.6H66.5z"/></defs><clipPath id="R"><use xlink:href="#Q"/></clipPath><path d="M80.5 40.8a7.9 7.9 0 0 0-8.1 7.9c0 2.3.9 4.3 2.4 5.8.8.8 1.4 1.8 1.8 2.9l.7 2h6.4l.7-2c.4-1.1 1-2.1 1.8-2.9 1.5-1.5 2.4-3.5 2.4-5.7-.2-4.3-3.7-7.9-8.1-8" clip-path="url(#R)" fill="#ffca38"/><defs><path id="S" d="M66.5 40.5h27.8v24.6H66.5z"/></defs><clipPath id="T"><use xlink:href="#S"/></clipPath><path d="M80.5 40.8a7.9 7.9 0 0 0-8.1 7.9c0 2.3.9 4.3 2.4 5.8.8.8 1.4 1.8 1.8 2.9l.7 2h6.4l.7-2c.4-1.1 1-2.1 1.8-2.9 1.5-1.5 2.4-3.5 2.4-5.7-.2-4.3-3.7-7.9-8.1-8z" clip-path="url(#T)" class="AB AC AD AE AF"/><defs><path id="U" d="M66.5 40.5h27.8v24.6H66.5z"/></defs><clipPath id="V"><use xlink:href="#U"/></clipPath><use xlink:href="#F" clip-path="url(#V)" fill="#ab8787"/><defs><path id="W" d="M66.5 40.5h27.8v24.6H66.5z"/></defs><clipPath id="X"><use xlink:href="#W"/></clipPath><use xlink:href="#G" clip-path="url(#X)" class="AB AC AD AE AF"/><defs><path id="Y" d="M66.5 40.5h27.8v24.6H66.5z"/></defs><clipPath id="Z"><use xlink:href="#Y"/></clipPath><use xlink:href="#F" y="1.7" clip-path="url(#Z)" fill="#ab8787"/><defs><path id="a" d="M66.5 40.5h27.8v24.6H66.5z"/></defs><clipPath id="b"><use xlink:href="#a"/></clipPath><use xlink:href="#G" y="1.7" clip-path="url(#b)" class="AB AC AD AE AF"/><defs><path id="c" d="M66.5 40.5h27.8v24.6H66.5z"/></defs><clipPath id="d"><use xlink:href="#c"/></clipPath><path d="M90.7 44.9l2.2-2.2" clip-path="url(#d)" class="AB AC AD AE AF AG"/><defs><path id="e" d="M66.5 40.5h27.8v24.6H66.5z"/></defs><clipPath id="f"><use xlink:href="#e"/></clipPath><path d="M90.3 52.8l2.2 2.2" clip-path="url(#f)" class="AB AC AD AE AF AG"/><defs><path id="g" d="M66.5 40.5h27.8v24.6H66.5z"/></defs><clipPath id="h"><use xlink:href="#g"/></clipPath><path d="M90.8 49.4h3.1" clip-path="url(#h)" class="AB AC AD AE AF AG"/><defs><path id="i" d="M66.5 40.5h27.8v24.6H66.5z"/></defs><clipPath id="j"><use xlink:href="#i"/></clipPath><path d="M70 44.9l-2.2-2.2" clip-path="url(#j)" class="AB AC AD AE AF AG"/><defs><path id="k" d="M66.5 40.5h27.8v24.6H66.5z"/></defs><clipPath id="l"><use xlink:href="#k"/></clipPath><path d="M70.4 52.8L68.2 55" clip-path="url(#l)" class="AB AC AD AE AF AG"/><defs><path id="m" d="M66.5 40.5h27.8v24.6H66.5z"/></defs><clipPath id="n"><use xlink:href="#m"/></clipPath><path d="M69.9 49.4h-3.1" clip-path="url(#n)" class="AB AC AD AE AF AG"/><path d="M289.3 77.3h-11.8l3.2-3.3-1.4-1.4-5.6 5.7 5.6 5.6 1.4-1.4-3.2-3.2h11.8z"/><path d="M310.3 74.7l-1.4-1.4-3.6 3.6-3.5-3.6-1.4 1.4 3.5 3.6-3.5 3.5 1.4 1.4 3.5-3.5 3.6 3.5 1.4-1.4-3.6-3.5z" fill="#606060"/><path class="O" d="M332.1 86.8c-4.7 0-8.5-3.8-8.5-8.5s3.8-8.5 8.5-8.5 8.5 3.8 8.5 8.5-3.8 8.5-8.5 8.5zm0-15.6a7.13 7.13 0 0 0-7.1 7.1 7.13 7.13 0 0 0 7.1 7.1 7.13 7.13 0 0 0 7.1-7.1 7.13 7.13 0 0 0-7.1-7.1zm3.9 10.9l-4.9-3.5v-4.5h1.4v3.8l4.3 3z"/><path class="D" d="M360.4 77.3h-3v-3h-2v3h-3v2h3v3h2v-3h3z"/><circle cx="356.4" cy="78.3" r="6.5" stroke="#00a5b5" class="AB"/><path d="M205.8 78.4l-6.2-5.3c-.4-.3-.9-.1-.9.4v2l-2.8-2.4c-.4-.3-.9-.1-.9.4v10.6c0 .5.5.7.9.4l2.8-2.4v2c0 .5.5.7.9.4l6.2-5.3c.3-.2.3-.6 0-.8z"/><circle cx="178.3" cy="78" r="6"/><path class="A" d="M179.9 81.2l-.1.5-.8.3c-.2.1-.4.1-.7.1a1.69 1.69 0 0 1-1-.3c-.2-.2-.3-.5-.3-.8v-.4c0-.1 0-.3.1-.4l.4-1.5c0-.1.1-.3.1-.4v-.4c0-.2 0-.3-.1-.4s-.2-.1-.5-.1c-.1 0-.2 0-.3.1-.1 0-.2.1-.3.1l.1-.5.8-.3c.3-.1.5-.1.7-.1a1.69 1.69 0 0 1 1 .3c.2.2.3.5.3.8v.3c0 .2 0 .3-.1.5l-.4 1.5c0 .1-.1.3-.1.4v.4c0 .2 0 .3.1.4s.2.1.5.1c.1 0 .2 0 .4-.1.1-.1.2-.1.2-.1zm.2-6.4c0 .3-.1.5-.3.7s-.4.3-.7.3-.5-.1-.7-.3-.3-.4-.3-.7.1-.5.3-.7.4-.3.7-.3.5.1.7.3.3.4.3.7z"/><circle cx="178" cy="49.4" r="8"/><use xlink:href="#H" class="A"/><path d="M197.6 42.4c3.9 0 7 3.1 7 7s-3.1 7-7 7-7-3.1-7-7 3.1-7 7-7m0-1c-4.4 0-8 3.6-8 8s3.6 8 8 8 8-3.6 8-8-3.6-8-8-8z"/><use xlink:href="#H" x="19.6"/><path class="Q" d="M253.8 87.3a8.96 8.96 0 1 1 0-18 8.96 8.96 0 1 1 0 18zm0-16c-3.9 0-7 3.1-7 7s3.1 7 7 7 7-3.1 7-7-3.1-7-7-7zm3 8.9l-2.3-2.3v-4.2c0-.4-.3-.8-.8-.8s-.8.3-.8.8v4.5c0 .1 0 .2.1.3 0 .1.1.2.2.2l2.5 2.5c.1.1.3.2.5.2s.4-.1.5-.2c.4-.2.4-.7.1-1zm-22.7-5.4v-.2c0-.1-.1-.1-.1-.2 0 0 0-.1-.1-.1-.1-.1-.2-.1-.3-.2h-.3c-.1 0-.1 0-.2-.1l-5.7-.4c-.6 0-1 .4-1.1.9 0 .6.4 1 .9 1.1l3.2.2-3.9 3.3-3.4-2.7a1.05 1.05 0 0 0-1.3 0l-6.3 5.2c-.4.4-.5 1-.1 1.4.2.2.5.4.8.4.2 0 .5-.1.6-.2l5.7-4.7 3.4 2.7a1.05 1.05 0 0 0 1.3 0l4.7-3.9-.1 3.4a.94.94 0 0 0 1 1c.5 0 1-.4 1-1l.1-5.6c.2-.2.2-.3.2-.3z"/><path class="O" d="M97.8 76L94 79.7 90.2 76 89 77.1l5 4.9 5-4.9z"/><path class="D" d="M112 70v6h-6v2h6v6h2v-6h6v-2h-6v-6zm23 6h-6v2h14v-2h-6z"/><use xlink:href="#D" x="0.4" y="25.6" class="D"/><circle class="A" cx="159.5" cy="75.5" r="2"/><g class="AC AD AE AH"><path d="M54.1 51.9c-.8 3.6-4.3 5.9-7.9 5.1-1-.2-3.8.4-3.8.4s0-2.7-.4-3.3c-.9-1.4-1.3-3.2-.9-5 .8-3.6 4.3-5.9 7.9-5.1 3.6.7 5.9 4.3 5.1 7.9z" fill="#4acca9"/><path d="M53.1 48c2.5.5 4 3 3.5 5.4-.1.7.3 2.6.3 2.6s-1.8 0-2.3.3c-1 .6-2.2.9-3.4.6-2.5-.5-4-3-3.5-5.4s3-4 5.4-3.5z" fill="#fff"/></g><path class="o" d="M54.3 52.1h-4c-.2 0-.4-.2-.4-.4s.2-.4.4-.4h4c.2 0 .4.2.4.4s-.2.4-.4.4zm-1.5 1.6h-2.6c-.2 0-.4-.2-.4-.4s.2-.4.4-.4h2.6c.2 0 .4.2.4.4s-.2.4-.4.4z"/><path class="p" d="M21.2 52.1H21c-.4 0-.8-.3-.8-.8v-1.1h.9"/><path d="M21.2 52.3H21c-.5 0-1-.4-1-.9v-1.3h1.1v.4h-.7v.8a.47.47 0 0 0 .5.5h.2l.1.5z"/><path class="p" d="M21.1 52.1h.2c.4 0 .8-.3.8-.8v-1.1h-.9"/><path d="M21.3 52.3h-.2v-.4h.2a.47.47 0 0 0 .5-.5v-.8h-.7v-.4h1.1v1.3c.1.3-.4.8-.9.8z"/><path d="M21.2 51.2h1.2l1.5.7c1.8.8 3 1.9 3.3 3.6h-.1c-1.8 1.1-3.8 1.7-5.9 1.7s-4.1-.6-5.9-1.7h-.1c.3-1.7 1.5-2.8 3.2-3.6l1.6-.7h1.2" fill="#00c4ef" class="AC AD AE AG AH"/><use xlink:href="#I" class="r"/><use xlink:href="#I"/><path class="p" d="M24.5 40.7v6.7c-.2 1.7-1.6 3-3.4 2.9-1.7.1-3.2-1.2-3.4-2.9v-6.7"/><path d="M21.1 50.5c-1.8.1-3.4-1.3-3.6-3.1v-6.7h.4v6.7c.2 1.6 1.6 2.8 3.2 2.7 1.6.1 3-1.1 3.2-2.7v-6.6h.4v6.7c-.2 1.7-1.8 3.1-3.6 3zm-.5-6.4h-.1a1.65 1.65 0 0 0-1.9 0c-.1.1-.2.1-.3 0s-.1-.2 0-.3a2.11 2.11 0 0 1 2.4 0c.1.1.1.2-.1.3zm3.4 0h-.1c-.6-.4-1.3-.4-1.8 0-.1.1-.2.1-.3 0s0-.2 0-.3a2.11 2.11 0 0 1 2.4 0c.1.1.1.2 0 .3H24zm-3.1 2.8c-.1 0-.2-.1-.2-.2s.1-.2.2-.2a.47.47 0 0 0 .5-.5.47.47 0 0 0-.5-.5c-.1 0-.2-.1-.2-.2s.1-.2.2-.2c.5 0 .9.5.9 1.1a1.68 1.68 0 0 1-.9.7z"/><circle cx="19.5" cy="45.1" r=".5"/><circle cx="22.8" cy="45.1" r=".5"/><path class="p" d="M17.2 44.1h.1c.2 0 .4.2.4.4v2c0 .2-.2.4-.4.4h-.1c-.2 0-.4-.2-.4-.4v-2c0-.2.1-.4.4-.4z"/><path d="M17.3 47.2h-.1a.65.65 0 0 1-.6-.6v-2a.65.65 0 0 1 .6-.6h.1a.65.65 0 0 1 .6.6v2c0 .3-.2.6-.6.6zm-.1-2.9c-.1 0-.2.1-.2.2v2c0 .1.1.2.2.2h.1c.1 0 .2-.1.2-.2v-2c0-.1-.1-.2-.2-.2h-.1zm3.9 4c-.6 0-1.2-.1-1.7-.4-.1 0-.2-.2-.1-.3s.2-.2.3-.1h.1c1 .5 2.1.5 3 0 .1-.1.2 0 .3.1s0 .2-.1.3c-.7.2-1.2.4-1.8.4z"/><path class="s" d="M15.4 40l5.7 1.6 5.5-1.5-5.6-1.5z"/><path d="M21.1 41.8l-5.7-1.6c-.1 0-.2-.2-.1-.3 0-.1.1-.1.1-.1l5.6-1.4h.1l5.6 1.4c.1 0 .2.1.2.2s-.1.2-.2.2l-5.6 1.6zM16.3 40l4.8 1.3 4.6-1.2-4.7-1.2-4.7 1.1z"/><path class="s" d="M17.8 42.3c2.2.8 4.5.8 6.7.1v-1.7l-3.4.9-3.3-.9v1.6z"/><path d="M21.2 43.1a10.3 10.3 0 0 1-3.5-.6c-.1 0-.1-.1-.1-.2v-1.6c0-.1 0-.1.1-.2h.2l3.2.8 3.3-.9c.1 0 .2.1.2.2v1.7c0 .1-.1.2-.1.2a9.6 9.6 0 0 1-3.3.6zm-3.2-1c2 .7 4.2.7 6.2 0v-1.2l-3.1.8H21l-3-.8v1.2zm3.1-1.9h-5.4c-.1 0-.2-.1-.2-.2s.1-.2.2-.2h5.4c.1 0 .2.1.2.2 0 .2-.1.2-.2.2z"/><path d="M15.5 43.3c-.1 0-.2-.1-.2-.2v-3c0-.1.1-.2.2-.2s.2.1.2.2v3c0 .1-.1.2-.2.2z"/><path d="M15.8 44.6h-.5c-.2 0-.3-.1-.4-.2s-.1-.3 0-.5l.4-.9c0-.1.1-.1.2-.1s.2 0 .2.1l.5.9a.45.45 0 0 1 0 .5.76.76 0 0 1-.4.2zm-.3-1l-.3.5h.5l-.2-.5z"/><path class="p" d="M25 44.1h.1c.2 0 .4.2.4.4v2c0 .2-.2.4-.4.4H25c-.2 0-.4-.2-.4-.4v-2c0-.2.2-.4.4-.4z"/><path d="M25.1 47.2H25a.65.65 0 0 1-.6-.6v-2a.65.65 0 0 1 .6-.6h.1a.65.65 0 0 1 .6.6v2c.1.3-.2.6-.6.6zm-.1-2.9c-.1 0-.2.1-.2.2v2c0 .1.1.2.2.2h.1c.1 0 .2-.1.2-.2v-2c0-.1-.1-.2-.2-.2H25z"/><circle cx="27.9" cy="50.7" r="4.9" fill="#ffca38" class="AC AD AH"/><use xlink:href="#J" class="r"/><use xlink:href="#J"/><path d="M27.2 52.8c-.1 0-.1 0-.2-.1L25.5 51c-.1-.1-.1-.2 0-.3s.2-.1.3 0l1.3 1.5 3.3-3.6c.1-.1.2-.1.3 0s.1.2 0 .3l-3.5 3.9z"/><path class="u" d="M272.8 102.1l.3-.3-.1-.1-.4.1.3-.3s0-.1-.1-.1l-.5.2.2-.3c-.2-.1-.4-.1-.6-.1-.7 0-1.4.6-1.4 1.2 0 .7.6 1.2 1.4 1.2.7 0 1.4-.6 1.4-1.2 0-.1 0-.2-.1-.4l-.4.1z"/><path class="v" d="M337.3 107.9l2.7.3c-.1.6-.4 1-.7 1.4s-.8.7-1.3.9-1.2.3-2 .3-1.4-.1-1.9-.2a2.73 2.73 0 0 1-1.3-.7c-.4-.3-.7-.7-.9-1.1s-.3-1-.3-1.7c0-.8.1-1.4.4-1.9.2-.4.4-.7.8-1 .3-.3.7-.5 1-.6.5-.2 1.2-.3 2.1-.3 1.2 0 2.1.2 2.7.6s1.1 1.1 1.3 1.9l-2.6.4c-.1-.3-.2-.5-.5-.7-.2-.2-.5-.2-.9-.2-.5 0-.8.2-1.1.5s-.4.8-.4 1.5c0 .6.1 1.1.4 1.4s.6.5 1.1.5c.4 0 .7-.1.9-.3.2-.3.4-.6.5-1m3.6-.8a3.69 3.69 0 0 1 1.1-2.7c.8-.7 1.8-1.1 3-1.1 1.5 0 2.6.4 3.3 1.3.6.7.9 1.5.9 2.5 0 1.1-.4 2-1.1 2.8-.7.7-1.8 1.1-3.1 1.1-1.2 0-2.1-.3-2.8-.9-.9-.8-1.3-1.8-1.3-3m2.8 0c0 .6.1 1.1.4 1.4s.6.5 1 .5.7-.2 1-.5.4-.8.4-1.5c0-.6-.1-1.1-.4-1.4s-.6-.5-1-.5-.7.2-1 .5c-.3.4-.4.9-.4 1.5m6.9-3.6h2.6v1.1c.4-.4.8-.8 1.1-.9.4-.2.8-.3 1.4-.3s1 .1 1.4.3a2.36 2.36 0 0 1 .8.9c.4-.5.8-.8 1.2-1s.8-.3 1.3-.3c.8 0 1.4.2 1.8.7s.7 1.2.7 2.2v4.6h-2.8v-4.2c0-.3-.1-.6-.2-.7-.2-.3-.4-.4-.7-.4s-.6.1-.8.4c-.2.2-.3.6-.3 1.1v3.8h-2.8v-4c0-.3 0-.5-.1-.7a1.38 1.38 0 0 0-.3-.4c-.1-.1-.3-.2-.5-.2-.3 0-.6.1-.8.4-.2.2-.3.6-.3 1.2v3.7h-2.8c.1 0 .1-7.3.1-7.3z"/><path class="w" d="M281.5 103.5h2.6v1.2c.4-.5.8-.8 1.2-1s.9-.3 1.5-.3c.8 0 1.4.2 1.8.7s.7 1.2.7 2.1v4.6h-2.8v-4c0-.5-.1-.8-.3-1s-.4-.3-.7-.3-.6.1-.8.4-.3.7-.3 1.4v3.5h-2.8c-.1 0-.1-7.3-.1-7.3zm11.9 2.3l-2.7-.3c.1-.5.2-.8.4-1.1s.5-.5.8-.7c.3-.1.6-.3 1.1-.3.4-.1.9-.1 1.5-.1.8 0 1.5 0 2 .1s.9.3 1.3.6c.2.2.4.5.6.9.1.4.2.7.2 1.1v3.2c0 .3 0 .6.1.8 0 .2.1.4.3.7h-2.6c-.1-.2-.2-.3-.2-.4s-.1-.3-.1-.5c-.4.4-.7.6-1.1.8-.5.2-1.1.3-1.7.3-.9 0-1.5-.2-2-.6s-.7-.9-.7-1.5.2-1 .5-1.4.9-.6 1.8-.8l2-.4 1-.3c0-.3-.1-.6-.2-.7s-.4-.2-.7-.2c-.5 0-.8.1-1 .2a.9.9 0 0 0-.6.6m2.4 1.5c-.4.1-.8.3-1.2.4l-1.1.4c-.2.2-.2.3-.2.5s.1.4.2.5c.2.1.4.2.7.2s.6-.1.9-.2c.3-.2.5-.3.6-.6.1-.2.2-.5.2-.8-.1 0-.1-.4-.1-.4zm12.1 3.5h-2.6v-1.2c-.4.5-.8.8-1.2 1s-.9.3-1.5.3c-.8 0-1.4-.2-1.8-.7s-.7-1.2-.7-2.1v-4.6h2.8v4c0 .5.1.8.3 1s.4.3.7.3.6-.1.8-.4.3-.7.3-1.4v-3.5h2.8v7.3h.1zm1.7-10.1h2.9v5.2l2.1-2.4h3.4l-2.6 2.5 2.7 4.8H315l-1.5-3-1 1.1v1.9h-2.9zm9.4 2.8h2.6v1.2c.3-.5.5-.9.8-1.1a1.69 1.69 0 0 1 1-.3c.4 0 .9.1 1.4.4l-.9 2c-.3-.1-.6-.2-.8-.2-.4 0-.6.2-.9.5-.3.4-.4 1.2-.4 2.4v2.4H319v-7.3zm6.3-2.8h2.8v1.9h-2.8v-1.9zm0 2.8h2.8v7.3h-2.8v-7.3z"/><path class="v" d="M278.6 101.3s-5.2 2.2-4.3 5.8 7 6.1 7 6.1-9.9-2-9.7-6.4c.1-3.4 5.1-5.7 7-5.5"/><path class="v" d="M282.2 114.5l-.6-.1s-2.6-.5-5.1-1.5c-1.5-.6-2.7-1.3-3.5-2-1.1-.9-1.6-1.9-1.6-3 0-2 1.8-3.5 2.9-4.2 1.5-1 3.3-1.7 4.5-1.7h.6l-.3.1s-1.3.5-2.5 1.4c-1.1.9-2.4 2.3-2.3 4.2.1.8.5 1.7 1.2 2.5.6.7 1.5 1.4 2.5 2.1 1.8 1.2 3.6 1.9 3.6 1.9l.6.3zm-3.5-12.4c-1.1 0-3 .7-4.4 1.7-1 .7-2.8 2.2-2.8 4.1 0 1 .5 2 1.6 2.9.8.7 2 1.4 3.5 2 1.8.7 3.6 1.2 4.5 1.4-.7-.3-1.9-.9-3.1-1.7-1.1-.7-1.9-1.4-2.5-2.1-.8-.9-1.2-1.8-1.3-2.6-.1-.9.2-1.7.7-2.5.4-.6 1-1.2 1.7-1.8.9-.7 1.9-1.2 2.3-1.4h-.2"/><path class="u" d="M331.3 110.4c0 .7-.5 1.2-1.2 1.2s-1.2-.5-1.2-1.2.5-1.2 1.2-1.2c.6 0 1.2.5 1.2 1.2"/><path class="D" d="M78.1 77l.8-.9 3.8 3.9-3.8 4-.8-.9L81 80z"/><use xlink:href="#K" class="A"/><use xlink:href="#L" class="x"/><use xlink:href="#K" y="-2.4" class="A"/><use xlink:href="#L" y="-2.4" class="x"/><use xlink:href="#M" class="y"/><use xlink:href="#M" class="x"/><path class="A" d="M247.7 105.8c0 1.9-1.6 3.5-3.5 3.5s-3.5-1.6-3.5-3.5 1.6-3.5 3.5-3.5c2 0 3.5 1.6 3.5 3.5"/><path class="x" d="M247.7 105.8c0 1.9-1.6 3.5-3.5 3.5s-3.5-1.6-3.5-3.5 1.6-3.5 3.5-3.5c2 0 3.5 1.6 3.5 3.5z"/><path d="M242.9 105.8l.8.9 1.9-1.7" class="AB AC AD AG AH"/><path class="y" d="M239.3 96.6c-.5 0-1-.4-1-1v-1.7c0-.5.4-1 1-1 .5 0 1 .4 1 1v1.7c0 .6-.5 1-1 1"/><path class="AA" d="M239.3 96.6c-.5 0-1-.4-1-1v-1.7c0-.5.4-1 1-1 .5 0 1 .4 1 1v1.7c0 .6-.5 1-1 1z"/><path class="y" d="M249.2 96.6c-.5 0-1-.4-1-1v-1.7c0-.5.4-1 1-1a.94.94 0 0 1 1 1v1.7c0 .6-.5 1-1 1"/><path class="AA" d="M249.2 96.6c-.5 0-1-.4-1-1v-1.7c0-.5.4-1 1-1a.94.94 0 0 1 1 1v1.7c0 .6-.5 1-1 1z"/><path class="Q" d="M223.8 100.1h-12.4a1.11 1.11 0 0 0-1.1 1.1v12.1c0 .3.4.5.6.3l2.7-1.9c.1-.1.2-.1.2-.1h9.9a1.11 1.11 0 0 0 1.1-1.1v-9.4c.1-.5-.4-1-1-1zm-5.7 9.1c0 .2-.1.3-.3.3h-1.1c-.2 0-.3-.1-.3-.3v-.9c0-.2.1-.3.3-.3h1.1c.2 0 .3.1.3.3v.9zm1.7-4.7c0 .6-.2 1.1-.7 1.5-.2.1-.3.2-.5.3-.3.2-.5.4-.5.7 0 .1-.1.2-.2.2h-1.2c-.2 0-.2-.1-.2-.2-.1-.6.3-1 .7-1.4.1-.1.3-.2.4-.3s.2-.1.3-.2c.3-.2.3-.6 0-.9-.4-.3-1-.3-1.3.1-.2.1-.3.3-.4.5-.1.1-.2.1-.3 0l-.8-.6c-.2-.1-.2-.2-.1-.4.4-.7 1-1.2 1.8-1.3.9-.2 1.7 0 2.4.7.3.4.6.8.6 1.3z"/></svg>