<?xml version="1.0" encoding="UTF-8" standalone="no"?>
<!-- Generator: Adobe Illustrator 22.1.0, SVG Export Plug-In . SVG Version: 6.00 Build 0)  -->
<svg id="Layer_1" style="enable-background:new 0 0 447 123" xmlns="http://www.w3.org/2000/svg" xml:space="preserve" height="123px" viewBox="0 0 447 123" width="447px" version="1.1" y="0px" x="0px" xmlns:xlink="http://www.w3.org/1999/xlink">
<style type="text/css">
	.st0{fill:#FFFFFF;}
	.st1{fill:none;stroke:#FFFFFF;stroke-width:1.5;}
	.st2{fill:none;stroke:#FFFFFF;stroke-width:1.8;stroke-linejoin:round;}
	.st3{fill:#00A5B5;}
	.st4{fill:none;stroke:#0592A0;}
	.st5{fill:none;stroke:#666666;}
	.st6{fill:none;stroke:#CCCCCC;}
	.st7{fill:none;stroke:#007075;stroke-width:2;}
	.st8{opacity:0.7;fill:none;stroke:#007075;stroke-width:2;enable-background:new    ;}
	.st9{fill:#999999;}
	.st10{fill:#888887;}
	.st11{fill:#6C6C6C;}
	.st12{fill:none;stroke:#E02727;}
	.st13{fill:#666666;}
	.st14{fill:#333333;}
	.st15{fill:#111111;}
	.st16{fill:#008489;}
	.st17{fill:#E7E7E7;}
	.st18{fill:#D2D2D2;}
	.st19{fill:#ABB9C3;}
	.st20{fill:#EFC002;}
	.st21{fill:#CCCCCC;}
	.st22{clip-path:url(#SVGID_2_);}
	.st23{fill:#424242;}
	.st24{clip-path:url(#SVGID_4_);}
	.st25{fill:none;stroke:#000000;stroke-width:0.75;stroke-linejoin:round;stroke-miterlimit:10;}
	.st26{clip-path:url(#SVGID_6_);fill:#FFCA38;}
	.st27{clip-path:url(#SVGID_8_);fill:none;stroke:#000000;stroke-width:0.75;stroke-linejoin:round;stroke-miterlimit:10;}
	.st28{clip-path:url(#SVGID_10_);}
	.st29{fill:#AB8787;}
	.st30{clip-path:url(#SVGID_12_);}
	.st31{clip-path:url(#SVGID_14_);}
	.st32{clip-path:url(#SVGID_16_);}
		.st33{clip-path:url(#SVGID_18_);fill:none;stroke:#000000;stroke-width:0.75;stroke-linecap:round;stroke-linejoin:round;stroke-miterlimit:10;}
		.st34{clip-path:url(#SVGID_20_);fill:none;stroke:#000000;stroke-width:0.75;stroke-linecap:round;stroke-linejoin:round;stroke-miterlimit:10;}
		.st35{clip-path:url(#SVGID_22_);fill:none;stroke:#000000;stroke-width:0.75;stroke-linecap:round;stroke-linejoin:round;stroke-miterlimit:10;}
		.st36{clip-path:url(#SVGID_24_);fill:none;stroke:#000000;stroke-width:0.75;stroke-linecap:round;stroke-linejoin:round;stroke-miterlimit:10;}
		.st37{clip-path:url(#SVGID_26_);fill:none;stroke:#000000;stroke-width:0.75;stroke-linecap:round;stroke-linejoin:round;stroke-miterlimit:10;}
		.st38{clip-path:url(#SVGID_28_);fill:none;stroke:#000000;stroke-width:0.75;stroke-linecap:round;stroke-linejoin:round;stroke-miterlimit:10;}
	.st39{fill:#606060;}
	.st40{fill:none;stroke:#00A5B5;}
	.st41{fill:#4ACCA9;stroke:#000000;stroke-width:0.5;stroke-linejoin:round;stroke-miterlimit:10;}
	.st42{fill:#FFFFFF;stroke:#000000;stroke-width:0.5;stroke-linejoin:round;stroke-miterlimit:10;}
	.st43{fill:#FF6666;}
	.st44{fill:#F3F4F5;}
	.st45{fill:#00C4EF;stroke:#000000;stroke-width:0.5;stroke-linecap:round;stroke-linejoin:round;stroke-miterlimit:10;}
	.st46{fill:#333366;}
	.st47{fill:#666667;}
	.st48{fill:#FFCA38;stroke:#000000;stroke-width:0.5;stroke-linejoin:round;}
	.st49{fill:#EC2227;}
	.st50{fill:#086DB5;}
	.st51{fill:#2EAAE1;}
	.st52{fill:none;stroke:#000000;stroke-width:0.5;}
	.st53{fill:#FF9327;}
	.st54{fill:none;stroke:#000000;stroke-width:0.5;stroke-linecap:round;stroke-linejoin:round;}
	.st55{fill:none;stroke:#000000;stroke-width:0.478;}
</style>
<path class="st0" d="m60.1 29c-1.2 0-2.3-0.1-3.4-0.5h-0.1c-0.6-0.2-1.1-0.8-1-1.5v-2.2c1.3 0.7 2.8 1.1 4.3 1.1 0.4 0 0.8 0 1.2-0.1h0.1l0.6-0.3 0.2-0.2c0.1-0.2 0.1-0.4 0.1-0.5 0-0.3-0.2-0.6-0.4-0.8-0.1 0-0.1 0-0.2-0.1-0.1 0-0.2 0-0.2-0.1l-3.3-1.5-1.1-0.6c-0.9-0.6-1.5-1.6-1.5-2.7v-0.4c0.3-1.8 1.7-3.2 3.5-3.4 0.4-0.1 0.8-0.1 1.1-0.1 1.3-0.1 2.5 0.1 3.8 0.5 0.1 0 0.2 0.1 0.3 0.1 0.2 0.2 0.3 0.4 0.3 0.6v2.5c-1-0.3-2.1-0.5-3.1-0.6h-1c-0.2 0-0.4 0-0.6 0.1h-0.2c-0.1 0-0.2 0-0.2 0.1h-0.1c-0.1 0.1-0.2 0.3-0.2 0.5 0 0.3 0.1 0.5 0.4 0.7h-0.4l3.3 1.5c0.5 0.2 0.9 0.5 1.4 0.9 0.7 0.6 1.2 1.4 1.3 2.4v0.1c0.1 0.3 0 0.6 0 0.9-0.2 1.8-1.6 3.3-3.5 3.6-0.5-0.1-0.9-0.1-1.4 0zm-45.3 0c-1.2 0-2.3-0.1-3.4-0.5h-0.1c-0.6-0.2-1.1-0.8-1-1.5v-2.2c1.3 0.7 2.8 1.1 4.3 1.1 0.4 0 0.8 0 1.2-0.1h0.1l0.6-0.3 0.2-0.2c0.1-0.2 0.1-0.4 0.1-0.5 0-0.3-0.2-0.6-0.4-0.8-0.1 0-0.1 0-0.2-0.1-0.1 0-0.2 0-0.2-0.1l-3.3-1.5-1.1-0.6c-1-0.7-1.6-1.7-1.6-2.8v-0.5c0.3-1.8 1.7-3.2 3.5-3.4 0.4-0.1 0.8-0.1 1.1-0.1 1.3-0.1 2.5 0.1 3.8 0.5 0.1 0 0.2 0.1 0.3 0.1 0.2 0.2 0.3 0.4 0.3 0.6v2.5c-1-0.3-2.1-0.5-3.1-0.6h-1c-0.2 0-0.4 0-0.6 0.1h-0.2c-0.1 0-0.2 0-0.2 0.1 0 0-0.1 0 0 0-0.1 0.1-0.2 0.3-0.2 0.5 0 0.3 0.1 0.5 0.4 0.7h-0.1l3.3 1.5c0.5 0.2 0.9 0.5 1.4 0.9 0.7 0.6 1.2 1.4 1.3 2.4v0.1c0.1 0.3 0 0.6 0 0.9-0.2 1.8-1.6 3.3-3.5 3.6l-1.7 0.2zm72.2-0.1c-1.6-0.3-3.1-1.2-4.1-2.5-2.1-2.6-2.1-6.4 0.1-9 2.3-2.8 6.4-3.3 9.4-1.1v-1h2.7v13.5c-1 0-2-0.5-2.7-1.2-1.1 0.9-2.5 1.5-4 1.5-0.4-0.1-0.9-0.2-1.4-0.2zm1.4-11c-2.3 0.1-4 1.9-4 4.1s1.9 4 4.1 3.9c2.2 0 4-1.9 3.9-4.1 0-2.1-1.8-3.9-4-3.9zm-36.7 10.9c-0.6 0-1.3-0.2-1.7-0.7l-4.3-5.9 4.3-5.9c0.4-0.5 1-0.7 1.7-0.7h2.5l-4.8 6.4 4.8 6.7-2.5 0.1zm25.7-0.1c-0.6 0-1.1-0.4-1.1-1v-7.8c0.1-0.8-0.4-1.5-1.1-1.7-1.2-0.4-2.4-0.4-3.6 0-0.8 0.2-1.3 0.9-1.2 1.7v8.7h-3v-18.2h3v5.2c0.3-0.1 0.5-0.1 0.7-0.2 2-0.8 4.3-0.6 6.2 0.6 1.2 0.8 2 2.1 2 3.5v9.2h-1.9zm-34.6 0v-18.3h3v18.3h-3zm-4.8 0c-0.6 0-1.1-0.4-1.1-1v-12.5h3v13.4c-0.1 0.1-1.9 0.1-1.9 0.1zm-16 0v-18.3h3v5.2c0.3-0.1 0.5-0.1 0.7-0.2 2-0.8 4.3-0.6 6.2 0.6 1.2 0.8 2 2.1 2 3.5v9.1h-1.9c-0.6 0-1.1-0.4-1.1-1v-7.8c0.1-0.8-0.4-1.5-1.1-1.7-1.2-0.4-2.4-0.4-3.6 0-0.8 0.2-1.3 0.9-1.2 1.7v8.8h-3v0.1zm14.6-16.9c0-1 0.8-1.8 1.8-1.8s1.7 0.8 1.7 1.8c0 0.9-0.7 1.7-1.6 1.8-1.1 0-1.9-0.8-1.9-1.8zm83.9 12.2h-14.7c-0.4 0-0.6-0.3-0.6-0.7v-1.2c0-0.4 0.3-0.7 0.6-0.7h14.7c0.4 0 0.6 0.3 0.6 0.7v1.2c0 0.4-0.3 0.7-0.6 0.7zm0-5.7h-14.7c-0.4 0-0.6-0.3-0.6-0.7v-1.2c0-0.4 0.3-0.7 0.6-0.7h14.7c0.4 0 0.6 0.3 0.6 0.7v1.2c0 0.4-0.3 0.7-0.6 0.7zm0-5.8h-14.7c-0.4 0-0.6-0.3-0.6-0.7v-1.2c0-0.4 0.3-0.7 0.6-0.7h14.7c0.4 0 0.6 0.3 0.6 0.7v1.2c0 0.4-0.3 0.7-0.6 0.7z"/>
	<path class="st1" d="m148.1 23.2v1.6h-5.7c0 1.3-1.1 2.3-2.4 2.2-1.2 0-2.2-1-2.2-2.2h-5.7v-1.6c3.9-1.2 1.8-8.1 5.5-10.2 0.5-0.3 0.8-0.8 0.8-1.4 0-0.9 0.8-1.6 1.7-1.6s1.6 0.7 1.6 1.6c0 0.6 0.3 1.1 0.8 1.4 3.8 2.1 1.7 9 5.6 10.2z"/>
	<path class="st2" d="m160 10.8h15.2c0.6 0 1.1 0.5 1.1 1.1v10.9c0 0.6-0.5 1.1-1.1 1.1h-4.6l-2.8 3.3-3-3.3h-4.9c-0.6 0-1.1-0.5-1.1-1.1v-10.9c0.1-0.6 0.6-1.1 1.2-1.1z"/>
<path class="st0" d="m164.6 20.1l-0.3-1.3h-1.7l-0.3 1.3h-1l1.6-5.4h1.2l1.6 5.4h-1.1zm-0.6-2.2l-0.5-2c0-0.2-0.1-0.3-0.1-0.4-0.1 0.3-0.3 1.1-0.6 2.3h1.2v0.1zm5.2 0.7c0 0.4-0.1 0.8-0.4 1.1s-0.8 0.4-1.2 0.4c-0.5 0-0.9-0.1-1.3-0.3v-1.1c0.3 0.1 0.5 0.3 0.8 0.3 0.2 0.1 0.4 0.1 0.6 0.1s0.3 0 0.5-0.1c0.1-0.1 0.2-0.2 0.2-0.4 0-0.1 0-0.2-0.1-0.3s-0.1-0.2-0.2-0.2c-0.2-0.1-0.4-0.3-0.6-0.4s-0.4-0.3-0.6-0.4c-0.1-0.1-0.3-0.3-0.3-0.5-0.1-0.2-0.1-0.4-0.1-0.7 0-0.4 0.1-0.8 0.4-1.1s0.7-0.4 1.1-0.4c0.2 0 0.5 0 0.7 0.1s0.5 0.2 0.7 0.3l-0.3 0.9c-0.2-0.1-0.4-0.2-0.6-0.2s-0.3-0.1-0.5-0.1-0.3 0-0.4 0.1c-0.2 0.2-0.2 0.4-0.1 0.7 0 0.1 0.1 0.2 0.2 0.2 0.2 0.1 0.4 0.3 0.6 0.4 0.3 0.2 0.6 0.4 0.9 0.7-0.1 0.3 0 0.6 0 0.9zm4.8 1.5h-1.1l-1.2-2.3-0.4 0.3v1.9h-1v-5.4h1v2.5l1.6-2.4h1.1l-1.6 2.4 1.6 3zm30.9 5.1l-4.6-4.6c0.8-1.4 1.1-3.1 0.9-4.7-0.7-3.9-4.3-6.5-8.2-5.8s-6.5 4.3-5.8 8.2 4.3 6.5 8.2 5.8c0.8-0.1 1.6-0.4 2.3-0.8 0 0 0 0.1 0.1 0.1l4.5 4.5c0.2 0.2 0.6 0.2 0.9 0l1.8-1.8c0.1-0.3 0.1-0.7-0.1-0.9zm-10.7-3c-2.8 0-5.1-2.3-5.1-5.1s2.3-5.1 5.1-5.1 5.1 2.3 5.1 5.1-2.3 5.1-5.1 5.1zm24.6-6h14.3v2.6h-14.3v-2.6z"/>
<path class="st0" d="m225.1 24l-6.3-6.5 6.3-6.5h-2.7l-6.3 6.5 6.3 6.5h2.7z"/>
<path class="st3" d="m245.2 18.8l1.3-1.6 3.3 2.8 5.8-7 1.6 1.4-7.1 8.6-4.9-4.2z"/>
	<path class="st4" d="m243.2 10h16v16h-16v-16z"/>
	<path class="st5" d="m269.2 10h16v16h-16v-16z"/>
	<path class="st6" d="m295.2 10h16v16h-16v-16z"/>
<path class="st7" d="m321.6 13.4l3.8 4.1-3.8 4.1m19.2 0.1l-3.9-4.2 3.9-4.2"/>
<path class="st8" d="m355.8 21.7l-3.9-4.2 3.9-4.2m10.8 0l4 4.2-4 4.2"/>
<path class="st9" d="m327.2 28.8l-4 3.2-4-3.2-1 1 5 4.1 5-4.1-1-1m21 5.2l4-3.2 4 3.2 1-1-5-4-5 4 1 1m-12-6.2l3.2 3.2-3.2 3.2 1 0.8 4-4-4-4-1 0.8"/>
<path class="st10" d="m367.3 37.8c-0.2 0-0.4-0.1-0.4-0.3-0.4-0.7-3.5-6.7-3.5-8.6 0-2.2 1.8-3.9 3.9-3.9s3.9 1.8 3.9 3.9c0 1.9-3.1 8-3.5 8.6-0.1 0.2-0.2 0.3-0.4 0.3zm0-11.8c-1.6 0-2.9 1.3-2.9 2.9 0 1.3 1.8 5.1 2.9 7.3 1.1-2.2 2.9-6.1 2.9-7.3 0-1.6-1.3-2.9-2.9-2.9z"/>
<circle cy="29" cx="367.3" r="1.3" class="st10"/>
<path class="st11" d="m377.1 17l4.4-4.2 4.5 4.2h2.1l-6.6-6.2-6.6 6.2h2.2zm8.9 1l-4.5 4.2-4.5-4.2h-2.1l6.6 6.2 6.6-6.2h-2.1z"/>
<path class="st12" d="m398.6 10h16v16h-16v-16z"/>
<path class="st13" d="m433.7 21h-0.8l-0.3-0.3c1-1.1 1.6-2.6 1.6-4.2 0-3.6-2.9-6.5-6.5-6.5s-6.5 2.9-6.5 6.5c0 3.6 2.9 6.5 6.5 6.5 1.6 0 3.1-0.6 4.2-1.6l0.3 0.3v0.8l5 5 1.5-1.5-5-5zm-6 0c-2.5 0-4.5-2-4.5-4.5s2-4.5 4.5-4.5 4.5 2 4.5 4.5c0 2.5-2 4.5-4.5 4.5z"/>
<path class="st14" d="m366.2 44.7c-0.1-0.2-0.3-0.3-0.4-0.3h-11c-0.2 0-0.4 0.1-0.4 0.3-0.1 0.2-0.1 0.4 0 0.5l3.8 5.6v4.4c0 0.2 0.1 0.4 0.3 0.4l3.2 1.7c0.1 0 0.1 0.1 0.2 0.1s0.2 0 0.3-0.1 0.2-0.2 0.2-0.4v-5.8l3.9-5.9c0-0.2 0-0.4-0.1-0.5zm-4.9 11.4l-2.2-1.1v-3.6h2.2v4.7zm0.2-5.7h-2.5l-3.3-5h9.1l-3.3 5z"/>
<path class="st15" d="m326.5 50.3c0 0.7-0.2 1.4-0.5 2l-3 5.1-3-5.1c-0.3-0.5-0.5-1.1-0.5-2.1 0-2.1 1.6-3.9 3.5-3.9 1.9 0.1 3.5 1.9 3.5 4zm-5-0.3c0 0.9 0.7 1.6 1.5 1.6s1.4-0.7 1.4-1.6-0.6-1.6-1.4-1.6-1.5 0.7-1.5 1.6z"/>
<path class="st16" d="m335.4 49.6c0 3 2.2 5.6 5 6.1v1.7l4.6-2.6-4.6-2.6v1.5c-1.8-0.5-3.1-2.2-3.1-4.1 0-2.3 1.9-4.3 4.3-4.3s4.3 1.9 4.3 4.3c0 0.6-0.1 1.2-0.4 1.8l1.8 0.8c0.4-0.8 0.6-1.7 0.6-2.6 0-3.4-2.8-6.2-6.2-6.2-3.5 0-6.3 2.8-6.3 6.2z"/>
	<path id="B" d="m285.1 54.6l-2.9-2.9-1.4 1.4 4.3 4.3 8.7-8.5-1.4-1.5-7.3 7.2z" class="st3"/>
	<path id="B_1_" d="m303.1 54.6l-2.9-2.9-1.4 1.4 4.3 4.3 8.7-8.5-1.4-1.5-7.3 7.2z" class="st17"/>
<path class="st18" d="m272.6 56.3c0.1 0.1 0.1 0.4 0 0.5l-0.5 0.5c-0.1 0.1-0.4 0.1-0.5 0l-3.6-3.6c-0.7 0.5-1.6 0.8-2.6 0.8-2.4 0-4.3-1.9-4.3-4.3s1.9-4.3 4.3-4.3 4.3 1.9 4.3 4.3c0 1-0.3 1.8-0.8 2.6 0 0 0.1 0 0.1 0.1l3.6 3.4zm-7.2-9c-1.6 0-2.9 1.3-2.9 2.9s1.3 2.9 2.9 2.9 2.9-1.3 2.9-2.9c0-1.6-1.2-2.9-2.9-2.9z"/>
	<path id="C" d="m244.7 40.4l3 5.3 6 1.2-4.2 4.4 0.8 6-5.6-2.5-5.6 2.6 0.8-6-4.2-4.5 6-1.1 3-5.4" class="st19"/>
	<path id="C_1_" d="m220.6 40.4l3 5.3 6 1.2-4.2 4.4 0.8 6-5.6-2.5-5.6 2.6 0.8-6-4.2-4.5 6-1.1 3-5.4" class="st20"/>
	<path id="D" d="m163.2 49.9c0 2.2-4 7.5-4 7.5s-4-5.3-4-7.5 1.8-4 4-4c2.2 0 4 1.8 4 4z" class="st3"/>
<circle cy="49.9" cx="159.2" r="2" class="st0"/>
<path class="st21" d="m135.2 56l-1.4 1.4-5.6-6 5.6-6 1.4 1.4-4.4 4.6 4.4 4.6zm5-9.2l1.3-1.4 5.7 6-5.7 6-1.3-1.4 4.4-4.6-4.4-4.6z"/>
<path class="st3" d="m112.1 56l-1.4 1.4-5.6-6 5.6-6 1.4 1.4-4.4 4.6 4.4 4.6zm5-9.2l1.3-1.4 5.7 6-5.7 6-1.3-1.4 4.4-4.6-4.4-4.6z"/>
	<defs>
		<rect id="SVGID_1_" y="40.5" x="66.5" height="24.6" width="27.8"/>
	</defs>
	<clipPath id="SVGID_2_">
		<use xlink:href="#SVGID_1_"/>
	</clipPath>
	<g class="st22">
		<path id="E" d="m78.4 62.9v1.2c0 0.4 0.3 0.7 0.7 0.7h2.8c0.4 0 0.7-0.3 0.7-0.7v-1.2h-4.2z" class="st23"/>
	</g>
	<defs>
		<rect id="SVGID_3_" y="40.5" x="66.5" height="24.6" width="27.8"/>
	</defs>
	<clipPath id="SVGID_4_">
		<use xlink:href="#SVGID_3_"/>
	</clipPath>
	<g class="st24">
		<path id="E_1_" d="m78.4 62.9v1.2c0 0.4 0.3 0.7 0.7 0.7h2.8c0.4 0 0.7-0.3 0.7-0.7v-1.2h-4.2z" class="st25"/>
	</g>
	<defs>
		<rect id="SVGID_5_" y="40.5" x="66.5" height="24.6" width="27.8"/>
	</defs>
	<clipPath id="SVGID_6_">
		<use xlink:href="#SVGID_5_"/>
	</clipPath>
	<path class="st26" d="m80.6 40.8c-4.4-0.1-8 3.3-8.1 7.7v0.2c0 2.3 0.9 4.3 2.4 5.8 0.8 0.8 1.4 1.8 1.8 2.9l0.7 2h6.4l0.7-2c0.4-1.1 1-2.1 1.8-2.9 1.5-1.5 2.4-3.5 2.4-5.7-0.2-4.3-3.7-7.9-8.1-8"/>
	<defs>
		<rect id="SVGID_7_" y="40.5" x="66.5" height="24.6" width="27.8"/>
	</defs>
	<clipPath id="SVGID_8_">
		<use xlink:href="#SVGID_7_"/>
	</clipPath>
	<path class="st27" d="m80.6 40.8c-4.4-0.1-8 3.3-8.1 7.7v0.2c0 2.3 0.9 4.3 2.4 5.8 0.8 0.8 1.4 1.8 1.8 2.9l0.7 2h6.4l0.7-2c0.4-1.1 1-2.1 1.8-2.9 1.5-1.5 2.4-3.5 2.4-5.7-0.2-4.3-3.7-7.9-8.1-8z"/>
	<defs>
		<rect id="SVGID_9_" y="40.5" x="66.5" height="24.6" width="27.8"/>
	</defs>
	<clipPath id="SVGID_10_">
		<use xlink:href="#SVGID_9_"/>
	</clipPath>
	<g class="st28">
		<path id="F" d="m83.6 59.4h-6.2c-0.4 0-0.7 0.3-0.7 0.7v0.3c0 0.4 0.3 0.7 0.7 0.7h6.2c0.4 0 0.7-0.3 0.7-0.7v-0.3c0-0.3-0.3-0.6-0.7-0.7" class="st29"/>
	</g>
	<defs>
		<rect id="SVGID_11_" y="40.5" x="66.5" height="24.6" width="27.8"/>
	</defs>
	<clipPath id="SVGID_12_">
		<use xlink:href="#SVGID_11_"/>
	</clipPath>
	<g class="st30">
		<path id="G" d="m83.6 59.4h-6.2c-0.4 0-0.7 0.3-0.7 0.7v0.3c0 0.4 0.3 0.7 0.7 0.7h6.2c0.4 0 0.7-0.3 0.7-0.7v-0.3c0-0.3-0.3-0.6-0.7-0.7z" class="st25"/>
	</g>
	<defs>
		<rect id="SVGID_13_" y="40.5" x="66.5" height="24.6" width="27.8"/>
	</defs>
	<clipPath id="SVGID_14_">
		<use xlink:href="#SVGID_13_"/>
	</clipPath>
	<g class="st31">
		<path id="F_1_" d="m83.6 61.1h-6.2c-0.4 0-0.7 0.3-0.7 0.7v0.3c0 0.4 0.3 0.7 0.7 0.7h6.2c0.4 0 0.7-0.3 0.7-0.7v-0.3c0-0.3-0.3-0.6-0.7-0.7" class="st29"/>
	</g>
	<defs>
		<rect id="SVGID_15_" y="40.5" x="66.5" height="24.6" width="27.8"/>
	</defs>
	<clipPath id="SVGID_16_">
		<use xlink:href="#SVGID_15_"/>
	</clipPath>
	<g class="st32">
		<path id="G_1_" d="m83.6 61.1h-6.2c-0.4 0-0.7 0.3-0.7 0.7v0.3c0 0.4 0.3 0.7 0.7 0.7h6.2c0.4 0 0.7-0.3 0.7-0.7v-0.3c0-0.3-0.3-0.6-0.7-0.7z" class="st25"/>
	</g>
	<defs>
		<rect id="SVGID_17_" y="40.5" x="66.5" height="24.6" width="27.8"/>
	</defs>
	<clipPath id="SVGID_18_">
		<use xlink:href="#SVGID_17_"/>
	</clipPath>
	<path class="st33" d="m90.8 44.9l2.2-2.2"/>
	<defs>
		<rect id="SVGID_19_" y="40.5" x="66.5" height="24.6" width="27.8"/>
	</defs>
	<clipPath id="SVGID_20_">
		<use xlink:href="#SVGID_19_"/>
	</clipPath>
	<path class="st34" d="m90.4 52.8l2.2 2.2"/>
	<defs>
		<rect id="SVGID_21_" y="40.5" x="66.5" height="24.6" width="27.8"/>
	</defs>
	<clipPath id="SVGID_22_">
		<use xlink:href="#SVGID_21_"/>
	</clipPath>
	<path class="st35" d="m90.9 49.4h3.1"/>
	<defs>
		<rect id="SVGID_23_" y="40.5" x="66.5" height="24.6" width="27.8"/>
	</defs>
	<clipPath id="SVGID_24_">
		<use xlink:href="#SVGID_23_"/>
	</clipPath>
	<path class="st36" d="m70 44.9l-2.2-2.2"/>
	<defs>
		<rect id="SVGID_25_" y="40.5" x="66.5" height="24.6" width="27.8"/>
	</defs>
	<clipPath id="SVGID_26_">
		<use xlink:href="#SVGID_25_"/>
	</clipPath>
	<path class="st37" d="m70.4 52.8l-2.2 2.2"/>
	<defs>
		<rect id="SVGID_27_" y="40.5" x="66.5" height="24.6" width="27.8"/>
	</defs>
	<clipPath id="SVGID_28_">
		<use xlink:href="#SVGID_27_"/>
	</clipPath>
	<path class="st38" d="m69.9 49.4h-3.1"/>
<path d="m289.5 77.4h-11.8l3.2-3.3-1.4-1.4-5.6 5.7 5.6 5.6 1.4-1.4-3.2-3.2h11.8v-2z"/>
<path class="st39" d="m310.5 74.8l-1.4-1.4-3.6 3.6-3.5-3.6-1.4 1.4 3.5 3.6-3.5 3.5 1.4 1.4 3.5-3.5 3.6 3.5 1.4-1.4-3.6-3.5 3.6-3.6z"/>
<path class="st14" d="m332.3 86.9c-4.7 0-8.5-3.8-8.5-8.5s3.8-8.5 8.5-8.5 8.5 3.8 8.5 8.5c0 4.7-3.8 8.5-8.5 8.5zm0-15.6c-3.9 0-7.1 3.2-7.1 7.1s3.2 7.1 7.1 7.1 7.1-3.2 7.1-7.1c0-4-3.2-7.1-7.1-7.1zm3.9 10.9l-4.9-3.5v-4.5h1.4v3.8l4.3 3-0.8 1.2z"/>
<path class="st3" d="m360.6 77.4h-3v-3h-2v3h-3v2h3v3h2v-3h3v-2z"/>
<circle cy="78.4" cx="356.6" r="6.5" class="st40"/>
<path d="m205.9 78.5l-6.2-5.3c-0.4-0.3-0.9-0.1-0.9 0.4v2l-2.8-2.4c-0.4-0.3-0.9-0.1-0.9 0.4v10.6c0 0.5 0.5 0.7 0.9 0.4l2.8-2.4v2c0 0.5 0.5 0.7 0.9 0.4l6.2-5.3c0.3-0.2 0.3-0.6 0-0.8z"/>
<circle cy="78.1" cx="178.4" r="6"/>
<path class="st0" d="m180 81.3l-0.1 0.5-0.8 0.3c-0.2 0.1-0.4 0.1-0.7 0.1-0.4 0-0.7-0.1-1-0.3-0.2-0.2-0.3-0.5-0.3-0.8v-0.4c0-0.1 0-0.3 0.1-0.4l0.4-1.5c0-0.1 0.1-0.3 0.1-0.4v-0.4c0-0.2 0-0.3-0.1-0.4s-0.2-0.1-0.5-0.1c-0.1 0-0.2 0-0.3 0.1-0.1 0-0.2 0.1-0.3 0.1l0.1-0.5 0.8-0.3c0.3-0.1 0.5-0.1 0.7-0.1 0.4 0 0.7 0.1 1 0.3 0.2 0.2 0.3 0.5 0.3 0.8v0.3c0 0.2 0 0.3-0.1 0.5l-0.4 1.5c0 0.1-0.1 0.3-0.1 0.4v0.4c0 0.2 0 0.3 0.1 0.4s0.2 0.1 0.5 0.1c0.1 0 0.2 0 0.4-0.1 0.1-0.1 0.2-0.1 0.2-0.1zm0.2-6.4c0 0.3-0.1 0.5-0.3 0.7s-0.4 0.3-0.7 0.3-0.5-0.1-0.7-0.3c-0.2-0.2-0.3-0.4-0.3-0.7s0.1-0.5 0.3-0.7 0.4-0.3 0.7-0.3 0.5 0.1 0.7 0.3c0.2 0.2 0.3 0.4 0.3 0.7z"/>
<circle cy="49.4" cx="178.1" r="8"/>
	<path id="H" d="m180.3 53.6l-0.2 0.6-1.1 0.4c-0.3 0.1-0.6 0.1-1 0.1-0.6 0-1-0.1-1.3-0.4s-0.5-0.6-0.5-1v-0.5c0-0.2 0.1-0.4 0.1-0.6l0.6-2c0.1-0.2 0.1-0.4 0.1-0.6s0.1-0.3 0.1-0.5c0-0.3-0.1-0.4-0.2-0.5s-0.3-0.2-0.6-0.2c-0.1 0-0.3 0-0.5 0.1-0.2 0-0.3 0.1-0.4 0.1l0.2-0.6c0.4-0.2 0.7-0.3 1.1-0.4 0.3-0.1 0.7-0.2 1-0.2 0.6 0 1 0.1 1.3 0.4s0.4 0.6 0.4 1v0.5c0 0.2-0.1 0.4-0.1 0.6l-0.6 2c0 0.2-0.1 0.3-0.1 0.6 0 0.2-0.1 0.4-0.1 0.5 0 0.3 0.1 0.5 0.2 0.5 0.1 0.1 0.3 0.1 0.6 0.1 0.1 0 0.3 0 0.5-0.1 0.3 0.2 0.4 0.2 0.5 0.1zm0.1-8.4c0 0.4-0.1 0.7-0.4 0.9s-0.6 0.4-1 0.4-0.7-0.1-1-0.4c-0.3-0.2-0.4-0.5-0.4-0.9s0.1-0.7 0.4-0.9 0.6-0.4 1-0.4 0.7 0.1 1 0.4c0.3 0.2 0.4 0.5 0.4 0.9z" class="st0"/>
<path d="m197.7 42.4c3.9 0 7 3.1 7 7s-3.1 7-7 7-7-3.1-7-7 3.1-7 7-7m0-1c-4.4 0-8 3.6-8 8s3.6 8 8 8 8-3.6 8-8-3.6-8-8-8z"/>
	<path id="H_1_" d="m199.9 53.6l-0.2 0.6-1.1 0.4c-0.3 0.1-0.6 0.1-1 0.1-0.6 0-1-0.1-1.3-0.4s-0.5-0.6-0.5-1v-0.5c0-0.2 0.1-0.4 0.1-0.6l0.6-2c0.1-0.2 0.1-0.4 0.1-0.6s0.1-0.3 0.1-0.5c0-0.3-0.1-0.4-0.2-0.5s-0.3-0.2-0.6-0.2c-0.1 0-0.3 0-0.5 0.1-0.2 0-0.3 0.1-0.4 0.1l0.2-0.6c0.4-0.2 0.7-0.3 1.1-0.4 0.3-0.1 0.7-0.2 1-0.2 0.6 0 1 0.1 1.3 0.4s0.4 0.6 0.4 1v0.5c0 0.2-0.1 0.4-0.1 0.6l-0.6 2c0 0.2-0.1 0.3-0.1 0.6 0 0.2-0.1 0.4-0.1 0.5 0 0.3 0.1 0.5 0.2 0.5 0.1 0.1 0.3 0.1 0.6 0.1 0.1 0 0.3 0 0.5-0.1 0.3 0.2 0.4 0.2 0.5 0.1zm0.1-8.4c0 0.4-0.1 0.7-0.4 0.9s-0.6 0.4-1 0.4c-0.4 0-0.7-0.1-1-0.4-0.3-0.2-0.4-0.5-0.4-0.9s0.1-0.7 0.4-0.9 0.6-0.4 1-0.4c0.4 0 0.7 0.1 1 0.4 0.3 0.2 0.4 0.5 0.4 0.9z"/>
<path class="st16" d="m254 87.4c-5 0-9-4-9-9s4-9 9-9 9 4 9 9c0 4.9-4.1 9-9 9zm0-16c-3.9 0-7 3.1-7 7s3.1 7 7 7 7-3.1 7-7-3.1-7-7-7zm3 8.9l-2.3-2.3v-4.2c0-0.4-0.3-0.8-0.8-0.8s-0.8 0.3-0.8 0.8v4.5c0 0.1 0 0.2 0.1 0.3 0 0.1 0.1 0.2 0.2 0.2l2.5 2.5c0.1 0.1 0.3 0.2 0.5 0.2s0.4-0.1 0.5-0.2c0.4-0.2 0.4-0.7 0.1-1zm-22.7-5.4v-0.2c0-0.1-0.1-0.1-0.1-0.2 0 0 0-0.1-0.1-0.1-0.1-0.1-0.2-0.1-0.3-0.2h-0.3c-0.1 0-0.1 0-0.2-0.1l-5.7-0.4c-0.6 0-1 0.4-1.1 0.9 0 0.6 0.4 1 0.9 1.1l3.2 0.2-3.9 3.3-3.4-2.7c-0.4-0.3-0.9-0.3-1.3 0l-6.3 5.2c-0.4 0.4-0.5 1-0.1 1.4 0.2 0.2 0.5 0.4 0.8 0.4 0.2 0 0.5-0.1 0.6-0.2l5.7-4.7 3.4 2.7c0.4 0.3 0.9 0.3 1.3 0l4.7-3.9-0.1 3.4c0 0.5 0.4 1 0.9 1h0.1c0.5 0 1-0.4 1-1l0.1-5.6c0.2-0.2 0.2-0.3 0.2-0.3z"/>
<path class="st14" d="m97.9 76.1l-3.8 3.7-3.8-3.7-1.2 1.1 5 4.9 5-4.9-1.2-1.1z"/>
<path class="st3" d="m112.1 70.1v6h-6v2h6v6h2v-6h6v-2h-6v-6h-2zm23 6h-6v2h14v-2h-8z"/>
	<path id="D_1_" d="m163.6 75.6c0 2.2-4 7.5-4 7.5s-4-5.3-4-7.5c0-2.2 1.8-4 4-4s4 1.8 4 4z" class="st3"/>
<circle cy="75.6" cx="159.6" r="2" class="st0"/>
	<path class="st41" d="m54.1 51.9c-0.8 3.6-4.3 5.9-7.9 5.1-1-0.2-3.8 0.4-3.8 0.4s0-2.7-0.4-3.3c-0.9-1.4-1.3-3.2-0.9-5 0.8-3.6 4.3-5.9 7.9-5.1 3.6 0.7 5.9 4.3 5.1 7.9z"/>
	<path class="st42" d="m53.1 48c2.5 0.5 4 3 3.5 5.4-0.1 0.7 0.3 2.6 0.3 2.6s-1.8 0-2.3 0.3c-1 0.6-2.2 0.9-3.4 0.6-2.5-0.5-4-3-3.5-5.4s3-4 5.4-3.5z"/>
<path class="st43" d="m54.3 52.1h-4c-0.2 0-0.4-0.2-0.4-0.4s0.2-0.4 0.4-0.4h4c0.2 0 0.4 0.2 0.4 0.4s-0.2 0.4-0.4 0.4zm-1.5 1.6h-2.6c-0.2 0-0.4-0.2-0.4-0.4s0.2-0.4 0.4-0.4h2.6c0.2 0 0.4 0.2 0.4 0.4s-0.2 0.4-0.4 0.4z"/>
<path class="st44" d="m21.2 52.1h-0.2c-0.4 0-0.8-0.3-0.8-0.8v-1.1h0.9"/>
<path d="m21.2 52.3h-0.2c-0.5 0-1-0.4-1-0.9v-1.3h1.1v0.4h-0.7v0.8c0 0.3 0.2 0.5 0.4 0.5h0.1 0.2l0.1 0.5z"/>
<path class="st44" d="m21.1 52.1h0.2c0.4 0 0.8-0.3 0.8-0.8v-1.1h-0.9"/>
<path d="m21.3 52.3h-0.2v-0.4h0.2c0.3 0 0.5-0.2 0.5-0.4v-0.1-0.8h-0.7v-0.4h1.1v1.3c0.1 0.3-0.4 0.8-0.9 0.8z"/>
<path class="st45" d="m21.2 51.2h1.2l1.5 0.7c1.8 0.8 3 1.9 3.3 3.6h-0.1c-1.8 1.1-3.8 1.7-5.9 1.7s-4.1-0.6-5.9-1.7h-0.1c0.3-1.7 1.5-2.8 3.2-3.6l1.6-0.7h1.2"/>
	<path id="I" d="m21.2 57.4c-2.1 0-4.3-0.5-6.1-1.7h-0.1c-0.1 0-0.1-0.1-0.1-0.2 0.3-1.6 1.3-2.8 3.4-3.8l1.6-0.8h2.7l1.6 0.8c2.1 1 3.1 2.1 3.4 3.8 0 0.1 0 0.2-0.1 0.2h-0.1c-2 1.2-4.1 1.8-6.2 1.7zm-5.8-2c1.7 1.1 3.7 1.6 5.8 1.6 2 0 4.1-0.5 5.8-1.6-0.3-1.4-1.2-2.4-3.1-3.3l-1.5-0.7h-2.3l-1.5 0.7c-2 0.9-2.9 1.9-3.2 3.3z" class="st46"/>
	<path id="I_1_" d="m21.2 57.4c-2.1 0-4.3-0.5-6.1-1.7h-0.1c-0.1 0-0.1-0.1-0.1-0.2 0.3-1.6 1.3-2.8 3.4-3.8l1.6-0.8h2.7l1.6 0.8c2.1 1 3.1 2.1 3.4 3.8 0 0.1 0 0.2-0.1 0.2h-0.1c-2 1.2-4.1 1.8-6.2 1.7zm-5.8-2c1.7 1.1 3.7 1.6 5.8 1.6 2 0 4.1-0.5 5.8-1.6-0.3-1.4-1.2-2.4-3.1-3.3l-1.5-0.7h-2.3l-1.5 0.7c-2 0.9-2.9 1.9-3.2 3.3z"/>
<path class="st44" d="m24.5 40.7v6.7c-0.2 1.7-1.6 3-3.4 2.9-1.7 0.1-3.2-1.2-3.4-2.9v-6.7"/>
<path d="m21.1 50.5c-1.8 0.1-3.4-1.3-3.6-3.1v-6.7h0.4v6.7c0.2 1.6 1.6 2.8 3.2 2.7 1.6 0.1 3-1.1 3.2-2.7v-6.6h0.4v6.7c-0.2 1.7-1.8 3.1-3.6 3zm-0.5-6.4h-0.1c-0.6-0.4-1.3-0.4-1.9 0-0.1 0.1-0.2 0.1-0.3 0s-0.1-0.2 0-0.3c0.7-0.5 1.7-0.5 2.4 0 0.1 0.1 0.1 0.2-0.1 0.3zm3.4 0h-0.1c-0.6-0.4-1.3-0.4-1.8 0-0.1 0.1-0.2 0.1-0.3 0s0-0.2 0-0.3c0.7-0.5 1.7-0.5 2.4 0 0.1 0.1 0.1 0.2 0 0.3h-0.2zm-3.1 2.8c-0.1 0-0.2-0.1-0.2-0.2s0.1-0.2 0.2-0.2c0.3 0 0.5-0.2 0.5-0.4v-0.1c0-0.3-0.2-0.5-0.4-0.5h-0.1c-0.1 0-0.2-0.1-0.2-0.2s0.1-0.2 0.2-0.2c0.5 0 0.9 0.5 0.9 1.1-0.2 0.4-0.5 0.6-0.9 0.7z"/>
<circle cy="45.1" cx="19.5"/>
<circle cy="45.1" cx="22.8"/>
<path class="st44" d="m17.2 44.1h0.1c0.2 0 0.4 0.2 0.4 0.4v2c0 0.2-0.2 0.4-0.4 0.4h-0.1c-0.2 0-0.4-0.2-0.4-0.4v-2c0-0.2 0.1-0.4 0.4-0.4z"/>
<path d="m17.3 47.2h-0.1c-0.3 0-0.6-0.3-0.6-0.6v-2c0-0.3 0.3-0.6 0.6-0.6h0.1c0.3 0 0.6 0.3 0.6 0.6v2c0 0.3-0.2 0.6-0.6 0.6zm-0.1-2.9c-0.1 0-0.2 0.1-0.2 0.2v2c0 0.1 0.1 0.2 0.2 0.2h0.1c0.1 0 0.2-0.1 0.2-0.2v-2c0-0.1-0.1-0.2-0.2-0.2h-0.1zm3.9 4c-0.6 0-1.2-0.1-1.7-0.4-0.1 0-0.2-0.2-0.1-0.3s0.2-0.2 0.3-0.1h0.1c1 0.5 2.1 0.5 3 0 0.1-0.1 0.2 0 0.3 0.1s0 0.2-0.1 0.3c-0.7 0.2-1.2 0.4-1.8 0.4z"/>
<path class="st47" d="m15.4 40l5.7 1.6 5.5-1.5-5.6-1.5-5.6 1.4z"/>
<path d="m21.1 41.8l-5.7-1.6c-0.1 0-0.2-0.2-0.1-0.3 0-0.1 0.1-0.1 0.1-0.1l5.6-1.4h0.1l5.6 1.4c0.1 0 0.2 0.1 0.2 0.2s-0.1 0.2-0.2 0.2l-5.6 1.6zm-4.8-1.8l4.8 1.3 4.6-1.2-4.7-1.2-4.7 1.1z"/>
<path class="st47" d="m17.8 42.3c2.2 0.8 4.5 0.8 6.7 0.1v-1.7l-3.4 0.9-3.3-0.9v1.6z"/>
<path d="m21.2 43.1c-1.2 0-2.4-0.2-3.5-0.6-0.1 0-0.1-0.1-0.1-0.2v-1.6c0-0.1 0-0.1 0.1-0.2h0.2l3.2 0.8 3.3-0.9c0.1 0 0.2 0.1 0.2 0.2v1.7c0 0.1-0.1 0.2-0.1 0.2-1 0.4-2.2 0.6-3.3 0.6zm-3.2-1c2 0.7 4.2 0.7 6.2 0v-1.2l-3.1 0.8h-0.1l-3-0.8v1.2zm3.1-1.9h-5.4c-0.1 0-0.2-0.1-0.2-0.2s0.1-0.2 0.2-0.2h5.4c0.1 0 0.2 0.1 0.2 0.2 0 0.2-0.1 0.2-0.2 0.2z"/>
<path d="m15.5 43.3c-0.1 0-0.2-0.1-0.2-0.2v-3c0-0.1 0.1-0.2 0.2-0.2s0.2 0.1 0.2 0.2v3c0 0.1-0.1 0.2-0.2 0.2z"/>
<path d="m15.8 44.6h-0.5c-0.2 0-0.3-0.1-0.4-0.2s-0.1-0.3 0-0.5l0.4-0.9c0-0.1 0.1-0.1 0.2-0.1s0.2 0 0.2 0.1l0.5 0.9c0.1 0.2 0.1 0.3 0 0.5-0.1 0.1-0.2 0.2-0.4 0.2zm-0.3-1l-0.3 0.5h0.5l-0.2-0.5z"/>
<path class="st44" d="m25 44.1h0.1c0.2 0 0.4 0.2 0.4 0.4v2c0 0.2-0.2 0.4-0.4 0.4h-0.1c-0.2 0-0.4-0.2-0.4-0.4v-2c0-0.2 0.2-0.4 0.4-0.4z"/>
<path d="m25.1 47.2h-0.1c-0.3 0-0.6-0.3-0.6-0.6v-2c0-0.3 0.3-0.6 0.6-0.6h0.1c0.3 0 0.6 0.3 0.6 0.6v2c0.1 0.3-0.2 0.6-0.6 0.6zm-0.1-2.9c-0.1 0-0.2 0.1-0.2 0.2v2c0 0.1 0.1 0.2 0.2 0.2h0.1c0.1 0 0.2-0.1 0.2-0.2v-2c0-0.1-0.1-0.2-0.2-0.2h-0.1z"/>
<circle cy="50.7" cx="27.9" r="4.9" class="st48"/>
	<path id="J" d="m27.9 55.9c-2.8 0-5.1-2.3-5.1-5.1s2.3-5.1 5.1-5.1 5.1 2.3 5.1 5.1c0 2.7-2.3 5.1-5.1 5.1zm0-9.9c-2.6 0-4.7 2.1-4.7 4.7s2.1 4.7 4.7 4.7 4.7-2.1 4.7-4.7c0-2.6-2.1-4.7-4.7-4.7z" class="st46"/>
	<path id="J_1_" d="m27.9 55.9c-2.8 0-5.1-2.3-5.1-5.1s2.3-5.1 5.1-5.1 5.1 2.3 5.1 5.1c0 2.7-2.3 5.1-5.1 5.1zm0-9.9c-2.6 0-4.7 2.1-4.7 4.7s2.1 4.7 4.7 4.7 4.7-2.1 4.7-4.7c0-2.6-2.1-4.7-4.7-4.7z"/>
<path d="m27.2 52.8c-0.1 0-0.1 0-0.2-0.1l-1.5-1.7c-0.1-0.1-0.1-0.2 0-0.3s0.2-0.1 0.3 0l1.3 1.5 3.3-3.6c0.1-0.1 0.2-0.1 0.3 0s0.1 0.2 0 0.3l-3.5 3.9z"/>
<path class="st49" d="m273 102.2l0.3-0.3-0.1-0.1-0.4 0.1 0.3-0.3s0-0.1-0.1-0.1l-0.5 0.2 0.2-0.3c-0.2-0.1-0.4-0.1-0.6-0.1-0.7 0-1.4 0.6-1.4 1.2 0 0.7 0.6 1.2 1.4 1.2 0.7 0 1.4-0.6 1.4-1.2 0-0.1 0-0.2-0.1-0.4l-0.4 0.1z"/>
<path class="st50" d="m337.5 108l2.7 0.3c-0.1 0.6-0.4 1-0.7 1.4s-0.8 0.7-1.3 0.9-1.2 0.3-2 0.3-1.4-0.1-1.9-0.2-0.9-0.4-1.3-0.7-0.7-0.7-0.9-1.1-0.3-1-0.3-1.7c0-0.8 0.1-1.4 0.4-1.9 0.2-0.4 0.4-0.7 0.8-1 0.3-0.3 0.7-0.5 1-0.6 0.5-0.2 1.2-0.3 2.1-0.3 1.2 0 2.1 0.2 2.7 0.6s1.1 1.1 1.3 1.9l-2.6 0.4c-0.1-0.3-0.2-0.5-0.5-0.7-0.2-0.2-0.5-0.2-0.9-0.2-0.5 0-0.8 0.2-1.1 0.5s-0.4 0.8-0.4 1.5c0 0.6 0.1 1.1 0.4 1.4s0.6 0.5 1.1 0.5c0.4 0 0.7-0.1 0.9-0.3 0.2-0.3 0.4-0.6 0.5-1m3.6-0.8c0-1 0.4-2 1.1-2.7 0.8-0.7 1.8-1.1 3-1.1 1.5 0 2.6 0.4 3.3 1.3 0.6 0.7 0.9 1.5 0.9 2.5 0 1.1-0.4 2-1.1 2.8-0.7 0.7-1.8 1.1-3.1 1.1-1.2 0-2.1-0.3-2.8-0.9-0.9-0.8-1.3-1.8-1.3-3m2.8 0c0 0.6 0.1 1.1 0.4 1.4s0.6 0.5 1 0.5 0.7-0.2 1-0.5c0.3-0.3 0.4-0.8 0.4-1.5 0-0.6-0.1-1.1-0.4-1.4s-0.6-0.5-1-0.5-0.7 0.2-1 0.5c-0.3 0.4-0.4 0.9-0.4 1.5m6.9-3.6h2.6v1.1c0.4-0.4 0.8-0.8 1.1-0.9 0.4-0.2 0.8-0.3 1.4-0.3s1 0.1 1.4 0.3c0.3 0.2 0.6 0.5 0.8 0.9 0.4-0.5 0.8-0.8 1.2-1s0.8-0.3 1.3-0.3c0.8 0 1.4 0.2 1.8 0.7s0.7 1.2 0.7 2.2v4.6h-2.8v-4.2c0-0.3-0.1-0.6-0.2-0.7-0.2-0.3-0.4-0.4-0.7-0.4s-0.6 0.1-0.8 0.4c-0.2 0.2-0.3 0.6-0.3 1.1v3.8h-2.8v-4c0-0.3 0-0.5-0.1-0.7s-0.2-0.3-0.3-0.4-0.3-0.2-0.5-0.2c-0.3 0-0.6 0.1-0.8 0.4-0.2 0.2-0.3 0.6-0.3 1.2v3.7h-2.8c0.1 0 0.1-7.3 0.1-7.3z"/>
<path class="st51" d="m281.7 103.6h2.6v1.2c0.4-0.5 0.8-0.8 1.2-1s0.9-0.3 1.5-0.3c0.8 0 1.4 0.2 1.8 0.7s0.7 1.2 0.7 2.1v4.6h-2.8v-4c0-0.5-0.1-0.8-0.3-1s-0.4-0.3-0.7-0.3c-0.3 0-0.6 0.1-0.8 0.4s-0.3 0.7-0.3 1.4v3.5h-2.8c-0.1 0-0.1-7.3-0.1-7.3zm11.9 2.3l-2.7-0.3c0.1-0.5 0.2-0.8 0.4-1.1s0.5-0.5 0.8-0.7c0.3-0.1 0.6-0.3 1.1-0.3 0.4-0.1 0.9-0.1 1.5-0.1 0.8 0 1.5 0 2 0.1s0.9 0.3 1.3 0.6c0.2 0.2 0.4 0.5 0.6 0.9 0.1 0.4 0.2 0.7 0.2 1.1v3.2c0 0.3 0 0.6 0.1 0.8 0 0.2 0.1 0.4 0.3 0.7h-2.6c-0.1-0.2-0.2-0.3-0.2-0.4s-0.1-0.3-0.1-0.5c-0.4 0.4-0.7 0.6-1.1 0.8-0.5 0.2-1.1 0.3-1.7 0.3-0.9 0-1.5-0.2-2-0.6s-0.7-0.9-0.7-1.5 0.2-1 0.5-1.4c0.3-0.4 0.9-0.6 1.8-0.8l2-0.4 1-0.3c0-0.3-0.1-0.6-0.2-0.7s-0.4-0.2-0.7-0.2c-0.5 0-0.8 0.1-1 0.2-0.3 0.1-0.5 0.3-0.6 0.6m2.4 1.5c-0.4 0.1-0.8 0.3-1.2 0.4l-1.1 0.4c-0.2 0.2-0.2 0.3-0.2 0.5s0.1 0.4 0.2 0.5c0.2 0.1 0.4 0.2 0.7 0.2s0.6-0.1 0.9-0.2c0.3-0.2 0.5-0.3 0.6-0.6 0.1-0.2 0.2-0.5 0.2-0.8-0.1 0-0.1-0.4-0.1-0.4zm12.1 3.5h-2.6v-1.2c-0.4 0.5-0.8 0.8-1.2 1s-0.9 0.3-1.5 0.3c-0.8 0-1.4-0.2-1.8-0.7s-0.7-1.2-0.7-2.1v-4.6h2.8v4c0 0.5 0.1 0.8 0.3 1s0.4 0.3 0.7 0.3 0.6-0.1 0.8-0.4 0.3-0.7 0.3-1.4v-3.5h2.8v7.3h0.1zm1.7-10.1h2.9v5.2l2.1-2.4h3.4l-2.6 2.5 2.7 4.8h-3.1l-1.5-3-1 1.1v1.9h-2.9v-10.1zm9.4 2.8h2.6v1.2c0.3-0.5 0.5-0.9 0.8-1.1s0.6-0.3 1-0.3 0.9 0.1 1.4 0.4l-0.9 2c-0.3-0.1-0.6-0.2-0.8-0.2-0.4 0-0.6 0.2-0.9 0.5-0.3 0.4-0.4 1.2-0.4 2.4v2.4h-2.8v-7.3zm6.3-2.8h2.8v1.9h-2.8v-1.9zm0 2.8h2.8v7.3h-2.8v-7.3z"/>
<path class="st50" d="m278.8 101.4s-5.2 2.2-4.3 5.8 7 6.1 7 6.1-9.9-2-9.7-6.4c0.1-3.4 5.1-5.7 7-5.5"/>
<path class="st50" d="m282.4 114.6l-0.6-0.1s-2.6-0.5-5.1-1.5c-1.5-0.6-2.7-1.3-3.5-2-1.1-0.9-1.6-1.9-1.6-3 0-2 1.8-3.5 2.9-4.2 1.5-1 3.3-1.7 4.5-1.7h0.6l-0.3 0.1s-1.3 0.5-2.5 1.4c-1.1 0.9-2.4 2.3-2.3 4.2 0.1 0.8 0.5 1.7 1.2 2.5 0.6 0.7 1.5 1.4 2.5 2.1 1.8 1.2 3.6 1.9 3.6 1.9l0.6 0.3zm-3.5-12.4c-1.1 0-3 0.7-4.4 1.7-1 0.7-2.8 2.2-2.8 4.1 0 1 0.5 2 1.6 2.9 0.8 0.7 2 1.4 3.5 2 1.8 0.7 3.6 1.2 4.5 1.4-0.7-0.3-1.9-0.9-3.1-1.7-1.1-0.7-1.9-1.4-2.5-2.1-0.8-0.9-1.2-1.8-1.3-2.6-0.1-0.9 0.2-1.7 0.7-2.5 0.4-0.6 1-1.2 1.7-1.8 0.9-0.7 1.9-1.2 2.3-1.4h-0.2"/>
<path class="st49" d="m331.5 110.5c0 0.7-0.5 1.2-1.2 1.2s-1.2-0.5-1.2-1.2 0.5-1.2 1.2-1.2c0.6 0 1.2 0.5 1.2 1.2"/>
<path class="st3" d="m78.2 77.1l0.8-0.9 3.8 3.9-3.8 4-0.8-0.9 2.9-3.1-2.9-3z"/>
	<path id="K" d="m253.3 114.6h-17.8c-1 0-1.8-0.8-1.8-1.8v-14c0-1 0.8-1.8 1.8-1.8h17.8c1 0 1.8 0.8 1.8 1.8v13.9c0.1 1.1-0.8 1.9-1.8 1.9" class="st0"/>
	<path id="L" d="m253.3 114.6h-17.8c-1 0-1.8-0.8-1.8-1.8v-14c0-1 0.8-1.8 1.8-1.8h17.8c1 0 1.8 0.8 1.8 1.8v13.9c0.1 1.1-0.8 1.9-1.8 1.9z" class="st52"/>
	<path id="K_1_" d="m253.3 112.2h-17.8c-1 0-1.8-0.8-1.8-1.8v-14c0-1 0.8-1.8 1.8-1.8h17.8c1 0 1.8 0.8 1.8 1.8v13.9c0.1 1.1-0.8 1.9-1.8 1.9" class="st0"/>
	<path id="L_1_" d="m253.3 112.2h-17.8c-1 0-1.8-0.8-1.8-1.8v-14c0-1 0.8-1.8 1.8-1.8h17.8c1 0 1.8 0.8 1.8 1.8v13.9c0.1 1.1-0.8 1.9-1.8 1.9z" class="st52"/>
	<path id="M" d="m233.7 99.6v-3.3c0-0.9 0.8-1.7 1.8-1.7h17.8c1 0 1.8 0.8 1.8 1.7v3.3h-21.4z" class="st53"/>
	<path id="M_1_" d="m233.7 99.6v-3.3c0-0.9 0.8-1.7 1.8-1.7h17.8c1 0 1.8 0.8 1.8 1.7v3.3h-21.4z" class="st52"/>
<path class="st0" d="m247.9 105.9c0 1.9-1.6 3.5-3.5 3.5s-3.5-1.6-3.5-3.5 1.6-3.5 3.5-3.5c2 0 3.5 1.6 3.5 3.5"/>
<path class="st52" d="m247.9 105.9c0 1.9-1.6 3.5-3.5 3.5s-3.5-1.6-3.5-3.5 1.6-3.5 3.5-3.5c2 0 3.5 1.6 3.5 3.5z"/>
<path class="st54" d="m243.1 105.9l0.8 0.9 1.9-1.7"/>
<path class="st53" d="m239.5 96.7c-0.5 0-1-0.4-1-1v-1.7c0-0.5 0.4-1 1-1 0.5 0 1 0.4 1 1v1.7c0 0.6-0.5 1-1 1"/>
<path class="st55" d="m239.5 96.7c-0.5 0-1-0.4-1-1v-1.7c0-0.5 0.4-1 1-1 0.5 0 1 0.4 1 1v1.7c0 0.6-0.5 1-1 1z"/>
<path class="st53" d="m249.4 96.7c-0.5 0-1-0.4-1-1v-1.7c0-0.5 0.4-1 1-1 0.5 0 1 0.4 1 0.9v0.1 1.7c0 0.6-0.5 1-1 1"/>
<path class="st55" d="m249.4 96.7c-0.5 0-1-0.4-1-1v-1.7c0-0.5 0.4-1 1-1 0.5 0 1 0.4 1 0.9v0.1 1.7c0 0.6-0.5 1-1 1z"/>
<path class="st16" d="m224 100.2h-12.4c-0.6 0-1.1 0.5-1.1 1.1v12.1c0 0.3 0.4 0.5 0.6 0.3l2.7-1.9c0.1-0.1 0.2-0.1 0.2-0.1h9.9c0.6 0 1.1-0.5 1.1-1.1v-9.4c0.1-0.5-0.4-1-1-1zm-5.8 9.1c0 0.2-0.1 0.3-0.3 0.3h-1.1c-0.2 0-0.3-0.1-0.3-0.3v-0.9c0-0.2 0.1-0.3 0.3-0.3h1.1c0.2 0 0.3 0.1 0.3 0.3v0.9zm1.7-4.7c0 0.6-0.2 1.1-0.7 1.5-0.2 0.1-0.3 0.2-0.5 0.3-0.3 0.2-0.5 0.4-0.5 0.7 0 0.1-0.1 0.2-0.2 0.2h-1.2c-0.2 0-0.2-0.1-0.2-0.2-0.1-0.6 0.3-1 0.7-1.4 0.1-0.1 0.3-0.2 0.4-0.3s0.2-0.1 0.3-0.2c0.3-0.2 0.3-0.6 0-0.9-0.4-0.3-1-0.3-1.3 0.1-0.2 0.1-0.3 0.3-0.4 0.5-0.1 0.1-0.2 0.1-0.3 0l-0.8-0.6c-0.2-0.1-0.2-0.2-0.1-0.4 0.4-0.7 1-1.2 1.8-1.3 0.9-0.2 1.7 0 2.4 0.7 0.3 0.4 0.6 0.8 0.6 1.3z"/>
	<path class="st0" d="m51 86.6c-0.7 0-1.2-0.5-1.2-1.2v-12.4c0-0.7 0.5-1.2 1.2-1.2h7.4l-1.7 1.7h-5.2v11.4h11.8v-2.3l1.7-1.7v4.5c0 0.7-0.5 1.2-1.2 1.2h-12.8z"/>
	<path class="st0" d="m63.3 71.7v-2.1l5.5 5.5-5.5 5.5v-2.2s-2.8-0.5-5.6 1.2c-1.5 1-2.6 2.2-3.2 3.2 0 0 0.2-3.4 2.2-6.6 2.4-3.9 6.6-4.5 6.6-4.5z"/>
</svg>
