<svg xmlns="http://www.w3.org/2000/svg" xmlns:xlink="http://www.w3.org/1999/xlink" width="251" height="113" viewBox="0 0 251 112.4"><style><![CDATA[.A{fill:none}.B{opacity:0.39}.C{fill:#999}.E{fill:none;stroke:#000;stroke-width:0.5;stroke-linecap:round;stroke-linejoin:round;stroke-miterlimit:10}.F{fill:#fe6264;stroke:#000;stroke-width:0.5;stroke-linecap:round;stroke-linejoin:round;stroke-miterlimit:10}.G{fill:#ffca38;stroke:#000;stroke-width:0.5;stroke-linecap:round;stroke-linejoin:round;stroke-miterlimit:10}.H{fill:#4acca9;stroke:#000;stroke-width:0.5;stroke-linecap:round;stroke-linejoin:round;stroke-miterlimit:10}.J{fill:#00c4ef;stroke:#000;stroke-width:0.5;stroke-linecap:round;stroke-linejoin:round;stroke-miterlimit:10}.K{fill:#ab8787;stroke:#000;stroke-width:0.5;stroke-linecap:round;stroke-linejoin:round;stroke-miterlimit:10}.L{fill:#fff;stroke:#000;stroke-width:0.5;stroke-linecap:round;stroke-linejoin:round;stroke-miterlimit:10}.N{fill:#ddd;stroke:#000;stroke-width:0.5;stroke-linecap:round;stroke-linejoin:round;stroke-miterlimit:10}.O{fill:#424242;stroke:#000;stroke-width:0.5;stroke-linecap:round;stroke-linejoin:round;stroke-miterlimit:10}.Q{fill:#fb8a00;stroke:#000;stroke-width:0.5;stroke-linecap:round;stroke-linejoin:round;stroke-miterlimit:10}.R{stroke-width:.5}.S{stroke-linejoin:round}.T{stroke-miterlimit:10}]]></style><path class="C B" d="M173.6 30.5h-21.7a1.11 1.11 0 0 1-1.1-1.1v-.5a1.11 1.11 0 0 1 1.1-1.1h21.7a1.11 1.11 0 0 1 1.1 1.1v.5a1.11 1.11 0 0 1-1.1 1.1z"/><path d="M160.9 16.1H171l-1.3 13.1h-7.4z" fill="#f66" stroke="#000" class="R S T"/><path class="E" d="M169.6 29.2h-7.4l-1.7-16.4h10.8zm-13.5-21l4.2-.1c.6 0 1.2.4 1.4 1l1 3.4m-3.3.2h12.9"/><path class="F" d="M162.9 26H155c-.4 0-.8-.4-.8-.8v-1.1c0-.4.4-.8.8-.8h7.9c.4 0 .8.4.8.8v1.1c0 .4-.4.8-.8.8z"/><path class="G" d="M153.2 25.8h11.4V27a2.22 2.22 0 0 1-2.2 2.2h-7a2.22 2.22 0 0 1-2.2-2.2v-1.2zm.1-2.6h11.3c0-2.5-1.7-4.4-5.7-4.4-3.9-.1-5.6 1.8-5.6 4.4z"/><path class="H" d="M156.3 25.8s3.6.9 3.7 1.6 2.5.9 3.4-1.6h-7.1z"/><path class="C B" d="M138.7 30.5h-21.6c-.6 0-1.2-.5-1.2-1.2v-.4c0-.6.5-1.2 1.2-1.2h21.6c.6 0 1.2.5 1.2 1.2v.4c-.1.7-.6 1.2-1.2 1.2z"/><circle cx="131.7" cy="18.2" r="1.5" fill="#e67581"/><path class="E" d="M128.8 15.7c0-.1 0-.1 0 0 1.7-1.7 4.3-1.7 5.9-.1 0 0 0 .1.1.1m-7.8-1.8c0-.1 0-.1 0 0 2.7-2.7 6.9-2.7 9.5-.1 0 0 0 .1.1.1M125.1 12c3.7-3.7 9.5-3.7 13.2-.1 0 0 0 .1.1.1"/><circle class="J" cx="131.7" cy="18.2" r="1.5"/><path class="K" d="M136.9 27.7h-18.4a1.54 1.54 0 0 1-1.5-1.5v-2.1a1.54 1.54 0 0 1 1.5-1.5h18.4a1.54 1.54 0 0 1 1.5 1.5v2.1a1.54 1.54 0 0 1-1.5 1.5z"/><path class="L" d="M120.6 29.2h-.6c-.7 0-1.3-.6-1.3-1.3v-.2h3.1v.2c0 .7-.5 1.3-1.2 1.3zm14.7 0h-.5c-.7 0-1.3-.6-1.3-1.3v-.2h3.1v.2c-.1.7-.6 1.3-1.3 1.3zm-9.9-3.2h-6a.68.68 0 0 1-.7-.7v-.2a.68.68 0 0 1 .7-.7h6a.68.68 0 0 1 .7.7v.2c0 .3-.3.7-.7.7z"/><circle class="L" cx="128.7" cy="25.1" r="1.1"/><circle class="L" cx="132.1" cy="25.1" r="1.1"/><circle class="L" cx="135.4" cy="25.1" r="1.1"/><path class="L" d="M121.5 22.6h-2.7l.6-6.1V8.9a.68.68 0 1 1 1.4 0v7.6l.7 6.1z"/><path class="C B" d="M208.6 30.2H187c-.6 0-1.2-.5-1.2-1.2v-.4c0-.6.5-1.2 1.2-1.2h21.6c.6 0 1.2.5 1.2 1.2v.4c0 .7-.5 1.2-1.2 1.2z"/><path class="H" d="M187.3 12.2h5.3v2.4h-5.3z"/><path class="H" d="M187.3 14.6h5.3v9.7h-5.3z"/><path class="H" d="M187.3 24.2h5.3v2.2h-5.3z"/><path class="H" d="M187.3 26.4h5.3v2.4h-5.3z"/><path d="M188.9 16.7h2.1v1.9h-2.1z" fill="#ddd" stroke="#050000" class="R S T"/><path class="N" d="M198.4 12.81l5.5-1.535.646 2.31-5.5 1.535z"/><path class="N" d="M199 15.06l5.5-1.535 2.828 10.113-5.5 1.535zm2.836 10.133l5.5-1.535.377 1.348-5.5 1.535z"/><path class="N" d="M202.2 26.51l5.5-1.535.646 2.31-5.5 1.535z"/><path class="G" d="M192.6 7.8h5.3V11h-5.3zm0 5.3h5.3v12h-5.3z"/><path class="G" d="M192.6 11h5.3v2.1h-5.3zm0 14.1h5.3v1.4h-5.3z"/><path class="G" d="M192.6 26.4h5.3v2.4h-5.3z"/><path class="C B" d="M33.7 30.5H12.1c-.6 0-1.2-.5-1.2-1.2v-.4c0-.6.5-1.2 1.2-1.2h21.6c.6 0 1.2.5 1.2 1.2v.4c0 .7-.5 1.2-1.2 1.2z"/><path class="G" d="M13.8 20h18.1v6H13.8zM32 9.7a1.79 1.79 0 0 0-1.8-1.8H15.6a1.79 1.79 0 0 0-1.8 1.8v2.7H32V9.7z"/><path class="J" d="M13.8 12.4h18.1V20H13.8z"/><path class="K" d="M17.7 9.3h10.4v1.6H17.7z"/><path class="O" d="M16 28.9h-.3a1.11 1.11 0 0 1-1.1-1.1V26H17v1.8c0 .6-.4 1.1-1 1.1zm14.1 0h-.3a1.11 1.11 0 0 1-1.1-1.1V26h2.4v1.8c.1.6-.4 1.1-1 1.1z"/><circle class="L" cx="16.9" cy="23.1" r="1"/><circle class="L" cx="28.9" cy="23.1" r="1"/><path class="G" d="M32 15.9h1.8V20H32zm-20 0h1.8V20H12z"/><path class="E" d="M16.5 16.2l3.9 3.8m4.5-3.8l4 3.8"/><path class="C B" d="M33.5 66.8H13c-.6 0-1.2-.5-1.2-1.2v-.3c0-.6.5-1.2 1.2-1.2h20.5c.6 0 1.2.5 1.2 1.2v.4c0 .6-.5 1.1-1.2 1.1z"/><path class="N" d="M13.1 48.2h19.6a.68.68 0 0 1 .7.7v6.5a.68.68 0 0 1-.7.7H13.1a.68.68 0 0 1-.7-.7v-6.5a.68.68 0 0 1 .7-.7z"/><path class="J" d="M14.6,53.2h16.7v2.9H14.6V53.2z"/><path class="E" d="M15.7 54.7h14.4m-1-4h2.1m-12.3 6.5v3.2c0 2.4-2 4.4-4.4 4.4h-.3m2.5-7.6v3.2a2.22 2.22 0 0 1-2.2 2.2h-.3m12.7-5.4v3.2c0 2.4 2 4.4 4.4 4.4h.3m-2.5-7.6v3.2a2.22 2.22 0 0 0 2.2 2.2h.3m-10.1-4.7v2.2m2.8-.4v2.2m-2.8.7v2.2"/><use xlink:href="#B" class="C B"/><path class="O" d="M48.6 25.6l2 2a.61.61 0 0 1 0 .8l-.1.1a.61.61 0 0 1-.8 0l-2-2a.61.61 0 0 1 0-.8l.1-.1a.61.61 0 0 1 .8 0z"/><path class="L" d="M49.7 23.014L60.104 12.62l3.536 3.536L53.245 26.55z"/><path class="F" d="M52.6 20.2l6.1.8-5.5 5.5-3.5-3.5z"/><path class="K" d="M49.02 26.056l1.838-1.838 1.06 1.06-1.838 1.838z"/><path class="E" d="M61.9 14.4l4.8-4.9m-12.5 9.1l1 1m.4-2.4l.7.7m.5-2l1.1 1.1m.1-2.3l.8.7"/><path class="F" d="M68.2 21.3L66 15.7l-2.2 5.6c-.6 1.5.5 3.2 2.2 3.2s2.8-1.6 2.2-3.2z"/><path class="C B" d="M173 65h-20.5c-.6 0-1.2-.5-1.2-1.2v-.4c0-.6.5-1.2 1.2-1.2H173c.6 0 1.2.5 1.2 1.2v.4c0 .7-.5 1.2-1.2 1.2z"/><path class="K" d="M152.3 46.9V63h1.4V46.9c0-.1-.1-.2-.2-.2h-1.1c-.1 0-.1.1-.1.2zm1.4 9.2h19.4c.1 0 .2.1.2.2v2.4h-19.6v-2.6z"/><path class="N" d="M154.1 52.9h6.5v3.3h-6.9v-2.9c0-.3.2-.4.4-.4z"/><path d="M163.9 52.9h8.3c.2 0 .4.2.4.4v2.9h-8.7v-3.3z" fill="#5081d8" stroke="#000" class="R S T"/><path class="K" d="M171.8,58.7h1.4V63h-1.4V58.7z"/><path class="J" d="M161 51.8h2.5c.2 0 .4.2.4.4v4h-3.3v-4c0-.3.2-.4.4-.4z"/><path class="N" d="M155.8 50.7h2.4c.5 0 1 .4 1 1v.2c0 .5-.4 1-1 1h-2.4c-.5 0-1-.4-1-1v-.2a.94.94 0 0 1 1-1z"/><path class="C B" d="M243 65h-20.5c-.6 0-1.2-.5-1.2-1.2v-.4c0-.6.5-1.2 1.2-1.2H243c.6 0 1.2.5 1.2 1.2v.4c-.1.7-.6 1.2-1.2 1.2z"/><path class="N" d="M224 48.2h17.5V63H224z"/><path class="J" d="M226.6 54.9h4.7v4.3h-4.7z"/><path class="G" d="M234 54.9V63h4.8v-8.1zm3-2.7c1.2 0 2.1-1 1.9-2.1l-.2-1.9h-4l.1 1.9c0 1.1 1 2.1 2.2 2.1z"/><path class="F" d="M232.7 52.2c-1.2 0-2.1-1-2.1-2.1l.1-1.9h4l.1 1.9c0 1.1-.9 2.1-2.1 2.1z"/><path class="G" d="M228.3 52.2c1.2 0 2.2-1 2.3-2.1l.1-1.9h-4l-.3 1.9c-.1 1.1.7 2.1 1.9 2.1z"/><path class="F" d="M224 52.2c-1.2 0-2-1-1.7-2.1l.4-1.9h4l-.3 1.9c-.1 1.1-1.2 2.1-2.4 2.1zm17.4 0c-1.2 0-2.3-1-2.4-2.1l-.2-1.9h4l.4 1.9c.2 1.1-.6 2.1-1.8 2.1z"/><path class="F" d="M242.8 48.2h-4.1l-1.4-3.1h3z"/><path class="G" d="M238.7 48.2h-4l-.5-3.1h3.1z"/><path class="F" d="M234.7 48.2h-4l.5-3.1h3z"/><path class="G" d="M231.2 45.1l-.5 3.1h-4l1.5-3.1z"/><path class="F" d="M228.2 45.1l-1.5 3.1h-4l2.4-3.1z"/><path class="O" d="M225.1 42.4h15.2v2.7h-15.2z"/><path class="C B" d="M208 65h-20.5c-.6 0-1.2-.5-1.2-1.2v-.4c0-.6.5-1.2 1.2-1.2H208c.6 0 1.2.5 1.2 1.2v.4c0 .7-.6 1.2-1.2 1.2z"/><path class="L" d="M193 49.6v3c0 .3-.1.6-.2.9l-3.2 5.5c-.2.3-.2.6-.2.9v1.3a1.79 1.79 0 0 0 1.8 1.8h8.3a1.79 1.79 0 0 0 1.8-1.8v-1.3c0-.3-.1-.6-.2-.9l-3.2-5.5c-.2-.3-.2-.6-.2-.9v-3"/><path class="G" d="M201.1 59.9v1.3a1.79 1.79 0 0 1-1.8 1.8H191a1.79 1.79 0 0 1-1.8-1.8v-1.3c0-.3.1-.6.2-.9l2.7-4.7h5.9l2.7 4.7c.4.3.4.6.4.9z"/><path class="E" d="M191.6 49.3h7.2"/><circle class="G" cx="193.5" cy="46.4" r="1"/><circle class="G" cx="190.5" cy="43.6" r="1.5"/><path class="L" d="M203.9 58.8h-.5a1.58 1.58 0 0 1-1.6-1.6v-9.9h3.7v9.9c0 .8-.7 1.6-1.6 1.6z"/><path class="H" d="M203.9 58.8h-.5a1.58 1.58 0 0 1-1.6-1.6v-6.5h3.7v6.5c0 .8-.7 1.6-1.6 1.6z"/><path class="E" d="M200.7 47.3h5.8"/><use xlink:href="#C" class="C B"/><path class="K" d="M85.2 17.9c0 .8.1 1.7.5 2.5.2.5.3 1.1.2 1.6-.2.9-.8 1.6-1.7 2.2-.4.2-.8.5-1.1.7l-.6.4a.53.53 0 0 0-.1.8l1.5 1.5a.53.53 0 0 0 .8-.1l.5-.6.7-1c.6-1 1.2-1.5 2.1-1.8.5-.1 1.1-.1 1.6.2.8.3 1.6.5 2.3.4.1 0 .1-.1 0-.1l-6.7-6.7z"/><path class="J" d="M97 13c-2-2-5.2-2.1-7.8-.6-1.4.7-2.7 2-3.5 3.7-.3.6-.4 1.2-.5 1.8 0 0 .1-.1.1 0l6.7 6.7v.1c1.4-.1 2.8-.8 4.2-2.1 2.8-2.7 3.2-7.2.8-9.6z"/><path class="K" d="M90 18.6c0 .8.1 1.7.5 2.5.2.5.3 1.1.2 1.6-.2.9-.8 1.6-1.7 2.2-.4.2-.8.5-1.1.7l-.5.3a.53.53 0 0 0-.1.8l1.5 1.5a.53.53 0 0 0 .8-.1l.5-.6.7-1c.6-1 1.2-1.5 2.1-1.8.5-.1 1.1-.1 1.6.2.8.3 1.6.5 2.3.4.1 0 .1-.1 0-.1l-6.7-6.7c-.1 0-.1.1-.1.1z"/><path class="F" d="M101.7 13.7c-2-2-5.2-2.1-7.8-.6-1.4.7-2.7 2-3.5 3.7-.3.6-.4 1.2-.5 1.8 0 0 .1-.1.1 0l6.7 6.7v.1c1.4-.1 2.8-.8 4.2-2.1 2.8-2.7 3.3-7.2.8-9.6z"/><circle class="N" cx="98.6" cy="25.6" r="2.5"/><path class="E" d="M98.6 24.1c.9 0 1.7.8 1.6 1.8"/><path class="C B" d="M33.2 103.8H12.6c-.6 0-1.2-.5-1.2-1.2v-.4c0-.6.5-1.2 1.2-1.2h20.5c.6 0 1.2.5 1.2 1.2v.4c0 .7-.5 1.2-1.1 1.2z"/><path class="L" d="M29.7 80.8s.8 3 .4 3.8c-.2.6-.7 1-1.2 1.1-.3.1-.6.1-1-.1-.3-.1-.6-.3-.8-.6-.3-.4-.4-1-.2-1.6.3-.8 2.8-2.6 2.8-2.6z"/><path class="F" d="M28.5 89.6c.5 0 .9.4.9.9 0 .2-.1.4-.3.6s-.4.3-.6.3h-12c-.5 0-.9-.4-.9-.9 0-.2.1-.4.3-.6s.4-.3.6-.3h12z"/><path class="K" d="M28.9 85.7c0 .9-.3 2.4-.7 3.9h-3.4c.8-1.9 1.7-3.6 2.4-4.5.2.3.5.5.8.6.2 0 .6.1.9 0z"/><path class="F" d="M28.5 91.3v8.8c0 .9-.8 1.7-1.7 1.7h-8.5c-.9 0-1.7-.8-1.7-1.7v-8.8h11.9z"/><path class="G" d="M24.6 87.7v1.9h-3.4v-8.8h3.4V86z"/><path class="J" d="M19.6 86.4l.8 3.2h-3.5l-.6-2.3-.7-2.5c1.2.7 2.6.3 3.3-.9l.7 2.5z"/><path class="G" d="M16.4 80.9l2.5 3c-.7 1.2-2.1 1.6-3.3.9l.8-3.9z"/><path class="E" d="M23.4 82.9h1.2m-1.2 2.2h1.2m-1.2 2.3h1.2"/><use xlink:href="#B" y="73.3" class="C B"/><circle class="G" cx="60.7" cy="83.3" r="1.6"/><circle class="O" cx="59.1" cy="81.5" r=".8"/><path class="G" d="M58.8 101.8h-.3c-.4 0-.8-.4-.8-.8v-6.7h1.9v6.6c0 .5-.4.9-.8.9zm9.3-15.1v.3c0 .4-.4.8-.8.8h-6.6v-1.9h6.6c.4 0 .8.3.8.8zm-20.5 3.8v-.3a.75.75 0 0 1 .9-.7l6.6.5-.1 1.9-6.6-.5c-.5-.1-.8-.5-.8-.9zm4.5-2.8v-.3c0-.4.3-.8.7-.9l6.6-.7.2 1.9-6.6.7c-.4.1-.8-.2-.9-.7z"/><path class="F" d="M59.4 85.9l-1.5 3.6-4.8-.3c-.3 4 3.3 7.1 7.2 6.3l.5-.1-.6-4.3 2.3-2.4c.2-.2.3-.5.2-.8l-.5-2.1h-2.8v.1z"/><use xlink:href="#C" y="73.3" class="C B"/><use xlink:href="#D" class="Q"/><circle class="Q" cx="85.8" cy="92.8" r="1.7"/><use xlink:href="#D" x="7" class="J"/><circle class="J" cx="92.8" cy="92.8" r="1.7"/><use xlink:href="#D" x="14" class="F"/><circle class="F" cx="99.8" cy="92.8" r="1.7"/><path class="N" d="M85.3 81.8h15.1v7.1H85.3z"/><path class="C B" d="M138.1 65.1h-20.5c-.6 0-1.2-.5-1.2-1.2v-.4c0-.6.5-1.2 1.2-1.2h20.5c.6 0 1.2.5 1.2 1.2v.4c-.1.7-.6 1.2-1.2 1.2z"/><path class="K" d="M122.2 63.1h-4.6c-.2 0-.3-.2-.3-.3V53c0-.2.2-.3.3-.3h4.6c.2 0 .3.2.3.3v9.8c.1.2-.1.3-.3.3zm15.8 0h-4.6c-.2 0-.3-.2-.3-.3V53c0-.2.2-.3.3-.3h4.6c.2 0 .3.2.3.3v9.8c0 .2-.2.3-.3.3z"/><path class="N" d="M132.7 63.1h-9.8c-.2 0-.3-.2-.3-.3V46c0-.2.2-.3.3-.3h9.8c.2 0 .3.2.3.3v16.8c.1.2-.1.3-.3.3z"/><circle class="O" cx="127.8" cy="57.9" r="3.9"/><circle class="K" cx="127.8" cy="57.9" r="2"/><circle class="O" cx="127.8" cy="50" r="2.6"/><circle class="K" cx="127.8" cy="50" r="1.3"/><circle class="O" cx="135.7" cy="55.2" r="1.3"/><circle class="O" cx="135.7" cy="60.5" r="1.3"/><circle class="O" cx="119.9" cy="55.2" r="1.3"/><circle class="O" cx="119.9" cy="60.5" r="1.3"/><circle cx="132.1" cy="46.6" r=".3"/><circle cx="132.1" cy="62.1" r=".3"/><circle cx="123.5" cy="46.6" r=".3"/><circle cx="123.5" cy="62.1" r=".3"/><use xlink:href="#C" y="34.6" class="C B"/><path class="K" d="M103.3 63.1H92.1v-.2c0-.7.5-1.2 1.2-1.2h8.8c.7 0 1.2.5 1.2 1.2v.2z"/><path class="K" d="M101.9 61.7h-8.4v-.2c0-.7.5-1.2 1.2-1.2h6c.7 0 1.2.5 1.2 1.2v.2zm-19.1 1.2l-.2-.2a.85.85 0 0 1 0-1.3l7.3-7.3 1.5 1.5-7.3 7.3c-.4.4-1 .4-1.3 0z"/><path class="K" d="M93.1 55.4l-3-3-.1.1c-.5.5-.5 1.2 0 1.7l1.3 1.3c.5.5 1.2.5 1.8-.1z"/><path class="G" d="M88.667 50.857l3.465-3.465 5.94 5.94-3.465 3.465z"/><path class="K" d="M87.6 50.8c.3.3.7.3 1 .1l3.6-3.6c.2-.2.2-.6 0-.9l-.1-.1c-.2-.2-.6-.2-.9 0l-3.6 3.6c-.3.3-.3.7 0 .9zm6.9 7l.1.1c.2.2.6.2.9 0l3.6-3.6c.2-.2.2-.6 0-.9l-.1-.1c-.2-.2-.6-.2-.9 0l-3.6 3.6c-.2.3-.2.6 0 .9z"/><use xlink:href="#B" y="34.6" class="C B"/><path class="G" d="M51.9 61.6l13.2-13.2c.3-.3.3-.8 0-1.1l-.2-.2c-.3-.3-.8-.3-1.1 0L50.6 60.3c-.3.3-.3.8 0 1.1l.2.2c.3.3.8.3 1.1 0z"/><path class="K" d="M49.44 55.845l1.838-1.838 6.93 6.93-1.838 1.838zm-.383 2.22l1.273-1.273 4.95 4.95-1.273 1.273zm8.573-10.33l1.838-1.838 6.93 6.93-1.838 1.838z"/><path class="K" d="M60.416 46.852l1.273-1.273 4.95 4.95-1.273 1.273z"/><defs ><path id="B" d="M68.5 30.5H48c-.6 0-1.2-.5-1.2-1.2v-.4c0-.6.5-1.2 1.2-1.2h20.5c.6 0 1.2.5 1.2 1.2v.4c-.1.7-.6 1.2-1.2 1.2z"/><path id="C" d="M103.1 30.5H82.6c-.6 0-1.2-.5-1.2-1.2v-.4c0-.6.5-1.2 1.2-1.2h20.5c.6 0 1.2.5 1.2 1.2v.4c0 .7-.6 1.2-1.2 1.2z"/><path id="D" d="M82.3 101.8v-1.9c0-1.9 1.6-3.5 3.5-3.5s3.5 1.6 3.5 3.5v1.9h-7z"/></defs></svg>