<?xml version="1.0" encoding="utf-8"?>
<!-- Generator: Adobe Illustrator 22.1.0, SVG Export Plug-In . SVG Version: 6.00 Build 0)  -->
<svg version="1.1" id="Layer_1" xmlns="http://www.w3.org/2000/svg" xmlns:xlink="http://www.w3.org/1999/xlink" x="0px" y="0px"
	 width="371px" height="66px" viewBox="0 0 371 66" style="enable-background:new 0 0 371 66;" xml:space="preserve">
<style type="text/css">
	.st0{fill:#FFFFFF;}
	.st1{fill:#E5E5E5;}
	.st2{opacity:0.85;clip-path:url(#SVGID_2_);}
	.st3{fill:#E8E8E8;}
	.st4{fill:#D3D3D3;}
	.st5{fill:#FFCBA7;}
	.st6{fill:#FF4C56;}
	.st7{fill:#CCE7F4;}
	.st8{fill:#FFB738;}
	.st9{filter:url(#Adobe_OpacityMaskFilter);}
	.st10{mask:url(#mask-2_2_);fill:#FFFFFF;}
	.st11{filter:url(#Adobe_OpacityMaskFilter_1_);}
	.st12{mask:url(#mask-4_2_);fill:#FFFFFF;}
	.st13{filter:url(#Adobe_OpacityMaskFilter_2_);}
	.st14{mask:url(#mask-6_2_);fill:#FFFFFF;}
</style>
<g>
	<g>
		<polyline class="st0" points="49.1,16.9 49.1,52.4 22.8,52.4 17.6,57.9 12.3,52.4 4.3,52.4 4.3,8 39.6,8 		"/>
		<path d="M17.6,58.6c-0.2,0-0.4-0.1-0.6-0.2l-5-5.3H4.3c-0.4,0-0.8-0.3-0.8-0.8V8c0-0.4,0.3-0.8,0.8-0.8h35.3
			c0.4,0,0.8,0.3,0.8,0.8c0,0.4-0.3,0.8-0.8,0.8H5.1v42.8h7.2c0.2,0,0.4,0.1,0.6,0.2l4.7,4.9l4.6-4.9c0.1-0.2,0.4-0.2,0.6-0.2h25.5
			V16.9c0-0.4,0.3-0.8,0.8-0.8c0.4,0,0.8,0.3,0.8,0.8v35.5c0,0.4-0.3,0.8-0.8,0.8h-26l-5,5.3C18,58.6,17.8,58.6,17.6,58.6
			C17.6,58.6,17.6,58.6,17.6,58.6z"/>
	</g>
	<g>
		<path class="st1" d="M39.6,8.1l0.1,7.9c0,0.5,0.4,0.9,0.9,0.9l8.5,0L39.6,8.1z"/>
		<path d="M49.1,17.6C49.1,17.6,49.1,17.6,49.1,17.6l-8.5,0c-0.9,0-1.7-0.7-1.7-1.7l-0.1-7.9c0-0.3,0.2-0.6,0.5-0.7
			c0.3-0.1,0.6-0.1,0.8,0.1l9.5,8.8c0.2,0.2,0.3,0.6,0.2,0.9C49.7,17.5,49.4,17.6,49.1,17.6z M40.4,9.9l0.1,6.1c0,0.1,0,0.1,0.1,0.1
			l6.5,0L40.4,9.9z"/>
	</g>
	<g>
		<path d="M30.3,17.3L30.3,17.3c-0.5,0-0.9-0.4-0.9-0.9v0c0-0.5,0.4-0.9,0.9-0.9h0c0.5,0,0.9,0.4,0.9,0.9v0
			C31.2,16.9,30.8,17.3,30.3,17.3z"/>
	</g>
	<g>
		<path d="M42.2,23H11.4c-0.5,0-0.9-0.4-0.9-0.9v0c0-0.5,0.4-0.9,0.9-0.9h30.9c0.5,0,0.9,0.4,0.9,0.9v0C43.1,22.6,42.7,23,42.2,23z"
			/>
	</g>
	<g>
		<path d="M42.2,28.8H11.4c-0.5,0-0.9-0.4-0.9-0.9v0c0-0.5,0.4-0.9,0.9-0.9h30.9c0.5,0,0.9,0.4,0.9,0.9v0
			C43.1,28.4,42.7,28.8,42.2,28.8z"/>
	</g>
	<g>
		<path d="M42.2,34.5H11.4c-0.5,0-0.9-0.4-0.9-0.9v0c0-0.5,0.4-0.9,0.9-0.9h30.9c0.5,0,0.9,0.4,0.9,0.9v0
			C43.1,34.1,42.7,34.5,42.2,34.5z"/>
	</g>
	<g>
		<g>
			<path d="M42.2,40.2H11.4c-0.5,0-0.9-0.4-0.9-0.9l0,0c0-0.5,0.4-0.9,0.9-0.9h30.9c0.5,0,0.9,0.4,0.9,0.9l0,0
				C43.1,39.8,42.7,40.2,42.2,40.2z"/>
		</g>
		<g>
			<path d="M25.9,46H15.3c-0.5,0-0.9-0.4-0.9-0.9v0c0-0.5,0.4-0.9,0.9-0.9h10.6c0.5,0,0.9,0.4,0.9,0.9v0C26.8,45.6,26.4,46,25.9,46z
				"/>
		</g>
		<g>
			<path d="M11.8,46h-0.4c-0.5,0-0.9-0.4-0.9-0.9l0,0c0-0.5,0.4-0.9,0.9-0.9h0.4c0.5,0,0.9,0.4,0.9,0.9l0,0
				C12.7,45.6,12.3,46,11.8,46z"/>
		</g>
	</g>
	<g>
		<path d="M27.7,17.3H11.4c-0.5,0-0.9-0.4-0.9-0.9v0c0-0.5,0.4-0.9,0.9-0.9h16.3c0.5,0,0.9,0.4,0.9,0.9v0
			C28.6,16.9,28.2,17.3,27.7,17.3z"/>
	</g>
	<g>
		<defs>
			<polyline id="SVGID_1_" points="49.1,16.9 49.1,52.4 22.8,52.4 17.6,57.9 12.3,52.4 4.3,52.4 4.3,8 39.6,8 			"/>
		</defs>
		<clipPath id="SVGID_2_">
			<use xlink:href="#SVGID_1_"  style="overflow:visible;"/>
		</clipPath>
		<g class="st2">
			<g>
				<path class="st3" d="M32.6,40.5c0,0.2,7.1-0.8,8.4-8.7c0.1-0.7,0.8-1.1,1.5-0.8c1.8,0.7,4.3,2.7,1.1,9H52c1,0,1.9,0.8,1.9,1.9v0
					c0,1-0.8,1.9-1.9,1.9h-4l2.9,7L48.3,53h2.1c1.3,0,2.3,0.9,2.3,1.9v0c0,1.1-1,1.9-2.3,1.9H34.6"/>
				<path class="st4" d="M50.4,57.8H34.6c-0.5,0-0.9-0.4-0.9-0.9c0-0.5,0.4-0.9,0.9-0.9h15.8c0.7,0,1.4-0.5,1.4-1s-0.6-1-1.4-1h-2.1
					c-0.4,0-0.7-0.2-0.9-0.6c-0.1-0.4,0-0.8,0.3-1l2.1-1.8l-2.7-6.3c-0.1-0.3-0.1-0.6,0.1-0.9c0.2-0.3,0.5-0.4,0.8-0.4h4
					c0.5,0,0.9-0.4,0.9-0.9s-0.4-0.9-0.9-0.9h-8.4c-0.3,0-0.6-0.2-0.8-0.4c-0.2-0.3-0.2-0.6,0-0.9c1.3-2.6,1.7-4.7,1.2-6.1
					c-0.3-0.8-0.9-1.3-1.8-1.6c-0.1,0-0.1,0-0.2,0c0,0-0.1,0.1-0.1,0.1c-1.4,8.1-8.4,9.6-9.4,9.5c-0.5,0-0.9-0.5-0.9-1
					c0-0.6,0.6-1,1.1-0.9c0.6-0.1,6.2-1.2,7.4-7.9c0.1-0.6,0.5-1.1,1-1.4c0.5-0.3,1.2-0.4,1.7-0.1c1.4,0.5,2.4,1.5,2.9,2.7
					c0.6,1.6,0.4,3.7-0.7,6.2H52c1.5,0,2.8,1.3,2.8,2.8s-1.3,2.8-2.8,2.8h-2.6l2.4,5.7c0.2,0.4,0.1,0.8-0.3,1.1l-0.8,0.7
					c1.6,0.2,2.8,1.4,2.8,2.8C53.6,56.5,52.2,57.8,50.4,57.8z M33.5,40.5L33.5,40.5L33.5,40.5z"/>
			</g>
			<g>
				<path class="st3" d="M47.6,48.3h5.9c1.3,0,2.3-1,2.3-2.3v0c0-1.3-1-2.3-2.3-2.3H47"/>
				<path class="st4" d="M53.5,49.3h-5.9c-0.5,0-0.9-0.4-0.9-0.9c0-0.5,0.4-0.9,0.9-0.9h5.9c0.7,0,1.4-0.6,1.4-1.4s-0.6-1.4-1.4-1.4
					H47c-0.5,0-0.9-0.4-0.9-0.9c0-0.5,0.4-0.9,0.9-0.9h6.5c1.8,0,3.2,1.5,3.2,3.2S55.2,49.3,53.5,49.3z"/>
			</g>
			<g>
				<path class="st3" d="M47.6,48.4H52c1.3,0,2.3,1,2.3,2.3v0c0,1.3-1,2.3-2.3,2.3h-5.1"/>
				<path class="st4" d="M52,53.9h-5.1c-0.5,0-0.9-0.4-0.9-0.9c0-0.5,0.4-0.9,0.9-0.9H52c0.7,0,1.4-0.6,1.4-1.4s-0.6-1.4-1.4-1.4
					h-4.4c-0.5,0-0.9-0.4-0.9-0.9c0-0.5,0.4-0.9,0.9-0.9H52c1.8,0,3.2,1.5,3.2,3.2C55.2,52.5,53.7,53.9,52,53.9z"/>
			</g>
			<g>
				<path class="st3" d="M31.2,57.8H29c-2.1,0-3.8-1.7-3.8-3.8V42.3c0-2.1,1.7-3.8,3.8-3.8h2.2c2.1,0,3.8,1.7,3.8,3.8V54
					C35,56.1,33.3,57.8,31.2,57.8z"/>
				<path class="st4" d="M32,58.7h-3.9c-2.1,0-3.9-1.7-3.9-3.9V41.5c0-2.1,1.7-3.9,3.9-3.9H32c2.1,0,3.9,1.7,3.9,3.9v13.4
					C35.9,57,34.2,58.7,32,58.7z M28.1,39.5c-1.1,0-2,0.9-2,2v13.4c0,1.1,0.9,2,2,2H32c1.1,0,2-0.9,2-2V41.5c0-1.1-0.9-2-2-2H28.1z"
					/>
			</g>
		</g>
	</g>
	<g>
		<g>
			<path class="st5" d="M33.4,41.9c0,0.2,7.1-0.8,8.4-8.7c0.1-0.7,0.8-1.1,1.5-0.8c1.8,0.7,4.3,2.7,1.1,9h8.4c1,0,1.9,0.8,1.9,1.9v0
				c0,1-0.8,1.9-1.9,1.9h-4l2.9,7l-2.7,2.3h2.1c1.3,0,2.3,0.9,2.3,1.9v0c0,1.1-1,1.9-2.3,1.9H35.4"/>
			<path d="M51.2,59H35.4c-0.4,0-0.8-0.3-0.8-0.8s0.3-0.8,0.8-0.8h15.8c0.8,0,1.5-0.5,1.5-1.2s-0.7-1.2-1.5-1.2h-2.1
				c-0.3,0-0.6-0.2-0.7-0.5c-0.1-0.3,0-0.6,0.2-0.9l2.2-1.9l-2.7-6.4c-0.1-0.2-0.1-0.5,0.1-0.7c0.1-0.2,0.4-0.3,0.6-0.3h4
				c0.6,0,1.1-0.5,1.1-1.1c0-0.6-0.5-1.1-1.1-1.1h-8.4c-0.3,0-0.5-0.1-0.7-0.4c-0.1-0.2-0.2-0.5,0-0.8c1.3-2.6,1.8-4.8,1.2-6.2
				C44.6,34,44,33.4,43,33.1c-0.1-0.1-0.2,0-0.3,0c0,0-0.1,0.1-0.2,0.2c-1.4,8-8.3,9.5-9.2,9.4c-0.4,0-0.8-0.4-0.8-0.8
				c0-0.5,0.5-0.8,0.9-0.8c0.6-0.1,6.3-1.2,7.5-8.1c0.1-0.6,0.4-1,0.9-1.3c0.5-0.3,1.1-0.3,1.6-0.1c1.3,0.5,2.3,1.4,2.8,2.6
				c0.6,1.6,0.4,3.8-0.7,6.3h7.2c1.5,0,2.6,1.2,2.6,2.6c0,1.5-1.2,2.6-2.6,2.6h-2.8l2.5,5.9c0.1,0.3,0,0.7-0.2,0.9l-1.1,0.9h0
				c1.7,0,3.1,1.2,3.1,2.7S52.9,59,51.2,59z M34.2,41.9L34.2,41.9L34.2,41.9z M34.2,41.9L34.2,41.9L34.2,41.9z M34.1,41.5
				c0.1,0.1,0.1,0.2,0.1,0.4C34.2,41.7,34.1,41.6,34.1,41.5z"/>
		</g>
		<g>
			<path class="st5" d="M48.4,49.7h5.9c1.3,0,2.3-1,2.3-2.3v0c0-1.3-1-2.3-2.3-2.3h-6.5"/>
			<path d="M54.3,50.4h-5.9c-0.4,0-0.8-0.3-0.8-0.8c0-0.4,0.3-0.8,0.8-0.8h5.9c0.8,0,1.5-0.7,1.5-1.5c0-0.8-0.7-1.5-1.5-1.5h-6.5
				c-0.4,0-0.8-0.3-0.8-0.8s0.3-0.8,0.8-0.8h6.5c1.7,0,3.1,1.4,3.1,3.1C57.3,49.1,56,50.4,54.3,50.4z"/>
		</g>
		<g>
			<path class="st5" d="M48.4,49.7h4.4c1.3,0,2.3,1,2.3,2.3v0c0,1.3-1,2.3-2.3,2.3h-5.1"/>
			<path d="M52.8,55.1h-5.1c-0.4,0-0.8-0.3-0.8-0.8s0.3-0.8,0.8-0.8h5.1c0.8,0,1.5-0.7,1.5-1.5c0-0.8-0.7-1.5-1.5-1.5h-4.4
				c-0.4,0-0.8-0.3-0.8-0.8s0.3-0.8,0.8-0.8h4.4c1.7,0,3.1,1.4,3.1,3.1S54.5,55.1,52.8,55.1z"/>
		</g>
		<g>
			<path class="st6" d="M32,59.1h-2.2c-2.1,0-3.8-1.7-3.8-3.8V43.7c0-2.1,1.7-3.8,3.8-3.8H32c2.1,0,3.8,1.7,3.8,3.8v11.7
				C35.8,57.4,34.1,59.1,32,59.1z"/>
			<path d="M32.8,59.9h-3.9c-2.1,0-3.7-1.7-3.7-3.7V42.8c0-2.1,1.7-3.7,3.7-3.7h3.9c2.1,0,3.7,1.7,3.7,3.7v13.4
				C36.6,58.2,34.9,59.9,32.8,59.9z M28.9,40.7c-1.2,0-2.2,1-2.2,2.2v13.4c0,1.2,1,2.2,2.2,2.2h3.9c1.2,0,2.2-1,2.2-2.2V42.8
				c0-1.2-1-2.2-2.2-2.2H28.9z"/>
		</g>
	</g>
</g>
<g>
	<g>
		<polygon class="st0" points="74,46.5 79.2,41.5 114.6,41.5 114.6,13.7 74,13.7 		"/>
		<path d="M74,47.3c-0.1,0-0.2,0-0.3-0.1c-0.3-0.1-0.5-0.4-0.5-0.7V13.7c0-0.4,0.4-0.8,0.8-0.8h40.6c0.4,0,0.8,0.4,0.8,0.8v27.8
			c0,0.4-0.4,0.8-0.8,0.8H79.5l-5,4.8C74.4,47.3,74.2,47.3,74,47.3z M74.8,14.5v30.2l3.8-3.7c0.1-0.1,0.3-0.2,0.5-0.2h34.6V14.5
			H74.8z"/>
	</g>
	<g>
		<g>
			<path d="M112.3,28H81.1c-0.5,0-0.9-0.4-0.9-0.9v0c0-0.5,0.4-0.9,0.9-0.9h31.2c0.5,0,0.9,0.4,0.9,0.9v0
				C113.2,27.6,112.8,28,112.3,28z"/>
		</g>
		<g>
			<path d="M95.8,33.8H85.1c-0.5,0-0.9-0.4-0.9-0.9v0c0-0.5,0.4-0.9,0.9-0.9h10.7c0.5,0,0.9,0.4,0.9,0.9v0
				C96.7,33.4,96.3,33.8,95.8,33.8z"/>
		</g>
		<g>
			<path d="M81.6,33.8h-0.4c-0.5,0-0.9-0.4-0.9-0.9l0,0c0-0.5,0.4-0.9,0.9-0.9h0.4c0.5,0,0.9,0.4,0.9,0.9l0,0
				C82.4,33.4,82,33.8,81.6,33.8z"/>
		</g>
	</g>
	<g>
		<path d="M96.8,22.2H81.4c-0.5,0-0.9-0.4-0.9-0.9v0c0-0.5,0.4-0.9,0.9-0.9h15.4c0.5,0,0.9,0.4,0.9,0.9v0
			C97.7,21.8,97.3,22.2,96.8,22.2z"/>
	</g>
	<g>
		<path class="st6" d="M107.7,38.5h-1.5c-5.3,0-9.5,4.3-9.5,9.5v10.1c0,0.5,0.4,1,1,1h33.1c0.5,0,1-0.4,1-1v-9.9
			c0-5.2-4.2-9.5-9.4-9.5L107.7,38.5z"/>
		<path d="M130.7,59.8H97.6c-1,0-1.7-0.8-1.7-1.7V48c0-5.7,4.6-10.3,10.3-10.3h1.6l14.5,0.1c5.6,0.1,10.2,4.7,10.2,10.3v9.9
			C132.5,59,131.7,59.8,130.7,59.8z M106.2,39.2c-4.8,0-8.8,3.9-8.8,8.8v10.1c0,0.1,0.1,0.2,0.2,0.2h33.1c0.1,0,0.2-0.1,0.2-0.2
			v-9.9c0-4.8-3.9-8.7-8.7-8.8L106.2,39.2z"/>
	</g>
	<g>
		<path class="st5" d="M107.7,38.5c0,0-0.4,4.3,4.9,5.1c5.3,0.9,8.4-1.6,8.2-4.9C120.8,35.4,107.7,38.5,107.7,38.5z"/>
		<path d="M114.7,44.6c-0.7,0-1.4-0.1-2.2-0.2c-5.9-1-5.6-5.9-5.6-6c0-0.3,0.3-0.6,0.6-0.7c1.8-0.4,10.8-2.4,13.3-0.5
			c0.5,0.4,0.8,0.9,0.8,1.5c0.1,1.6-0.6,3.1-1.8,4.2C118.6,44,116.8,44.6,114.7,44.6z M108.5,39.1c0.1,1,0.8,3.2,4.2,3.7
			c2.6,0.4,4.8,0,6.1-1.1c0.9-0.8,1.3-1.8,1.2-3c0-0.1,0-0.2-0.2-0.3C118.5,37.3,112.4,38.2,108.5,39.1z"/>
	</g>
	<g>
		<path class="st5" d="M125.6,23.6c0-0.1,4,1.2,3.3,4.4c-0.7,3.2-3.6,4-4.6,3.5c-1-0.5,0-4.7,0-4.7L125.6,23.6z"/>
		<path d="M125,32.4c-0.4,0-0.7-0.1-1-0.2c-1.4-0.6-1-3.4-0.4-5.6c0,0,0-0.1,0-0.1l1.2-3.2c0-0.1,0.1-0.3,0.3-0.4
			c0.4-0.3,1.2-0.1,2.4,0.6c1.8,1.1,2.6,2.8,2.2,4.6c-0.5,2.3-1.9,3.3-2.8,3.7C126.3,32.2,125.7,32.4,125,32.4z M124.8,30.8
			c0.3,0.1,0.9,0,1.5-0.3c0.6-0.3,1.6-1,1.9-2.7c0.1-0.7,0-1.2-0.3-1.8c-0.5-0.7-1.3-1.2-1.8-1.4l-1,2.5
			C124.8,28.6,124.6,30.3,124.8,30.8z"/>
	</g>
	<g>
		<path class="st5" d="M102.3,23.6c0-0.1-4.2,1.2-3.4,4.4s3.7,4,4.8,3.5c1.1-0.5,0-4.7,0-4.7L102.3,23.6z"/>
		<path d="M102.9,32.4c-0.6,0-1.4-0.2-2.1-0.5c-1.4-0.7-2.4-2-2.8-3.7c-0.4-1.8,0.4-3.4,2.2-4.5c0.7-0.4,1.9-1.1,2.5-0.6
			c0.1,0.1,0.2,0.2,0.3,0.3l1.3,3.2c0,0,0,0.1,0,0.1c0.6,2.2,1,5-0.4,5.6C103.6,32.3,103.3,32.4,102.9,32.4z M101.8,24.6
			c-0.6,0.3-1.4,0.8-1.9,1.5c-0.3,0.5-0.4,1.1-0.3,1.7c0.3,1.5,1.3,2.3,2,2.7c0.7,0.4,1.3,0.4,1.7,0.3c0.2-0.5,0-2.2-0.4-3.7
			L101.8,24.6z"/>
	</g>
	<g>
		<path d="M100.3,20.6L100.3,20.6c-0.5,0-0.9-0.4-0.9-0.9v0c0-0.5,0.4-0.9,0.9-0.9l0,0c0.5,0,0.9,0.4,0.9,0.9v0
			C101.2,20.2,100.8,20.6,100.3,20.6z"/>
	</g>
	<g>
		<path class="st5" d="M101.7,26.9c0,0-0.6,12.6,12,13.3c12.6,0.7,12.8-13.1,12.8-13.1l-2.9-7.7l-14.3-2l-5.4,0
			C104,17.5,99.6,19.9,101.7,26.9z"/>
		<path d="M114.6,41c-0.3,0-0.6,0-0.9,0c-12.5-0.7-12.8-12.5-12.8-14c-2.2-7.4,2.6-10.2,2.7-10.2c0.1-0.1,0.2-0.1,0.4-0.1l5.4,0
			c0,0,0.1,0,0.1,0l14.3,2c0.3,0,0.5,0.2,0.6,0.5l2.9,7.7c0,0.1,0.1,0.2,0.1,0.3c0,0.3-0.1,6.8-4.4,10.9C120.8,40,118,41,114.6,41z
			 M104.2,18.3c-0.7,0.5-3.5,2.8-1.7,8.4c0,0.1,0,0.2,0,0.3c0,0.5-0.4,11.8,11.3,12.5c3.3,0.2,6-0.7,8-2.6c3.5-3.3,3.9-8.7,3.9-9.6
			l-2.7-7.1l-13.7-1.9L104.2,18.3z"/>
	</g>
	<g>
		<path class="st7" d="M101.7,26.9c0,0,0.6-6.7,7.7-6.1c0,0,0.1-6.8-5.6-6.4C98.3,14.9,98.5,24.8,101.7,26.9z"/>
		<path d="M102.4,28.3l-1.1-0.7c-2.4-1.6-3.1-6.2-2.3-9.4c0.7-2.7,2.4-4.3,4.7-4.5c1.7-0.1,3.2,0.3,4.3,1.4c2.2,2.1,2.2,5.6,2.2,5.8
			l0,0.9l-0.8-0.1c-2-0.2-3.5,0.2-4.7,1.2c-1.9,1.6-2.1,4.1-2.1,4.1L102.4,28.3z M104.3,15.3c-0.1,0-0.3,0-0.5,0
			c-2.1,0.2-3,1.9-3.3,3.3c-0.6,2.3-0.2,5.1,0.8,6.7c0.3-1.1,1-2.5,2.4-3.6c1.3-1.1,3-1.6,4.9-1.6c-0.1-1-0.5-2.8-1.6-3.8
			C106.3,15.6,105.4,15.3,104.3,15.3z"/>
	</g>
	<g>
		<path class="st7" d="M126.5,27.1c0,0-2.1-4.5-11.2-2.8c-9.1,1.6-11.4-4.5-11.6-5.8c-0.1-1.3-0.8-8.2,10.8-8.6
			S128.7,20.2,126.5,27.1z"/>
		<path d="M126.7,29.3l-0.9-1.8c-0.1-0.2-2.1-3.9-10.3-2.4c-3.8,0.7-7,0.2-9.3-1.6c-2.3-1.7-3.1-4.1-3.2-4.9
			c-0.3-2.3,0.3-4.3,1.7-5.9c1.9-2.2,5.2-3.4,9.9-3.6c5.9-0.2,9.1,2.3,10.7,4.5c3.3,4.3,3.1,10.1,2,13.7L126.7,29.3z M119.1,23.2
			c3.8,0,5.9,1.2,7,2.3c0.7-3.4,0.3-7.7-2.1-10.8c-2.1-2.7-5.2-4-9.4-3.9c-4.2,0.1-7.2,1.2-8.8,3c-1.1,1.2-1.5,2.9-1.3,4.7
			c0.1,0.4,0.6,2.4,2.5,3.8c2,1.5,4.7,1.9,8.1,1.3C116.7,23.3,118,23.2,119.1,23.2z"/>
	</g>
	<g>
		<path d="M114.3,35.6c-2,0-3.2-1.3-3.3-1.3c-0.2-0.2-0.2-0.6,0-0.8c0.2-0.2,0.6-0.2,0.8,0c0.1,0.1,2.1,2.2,5.2-0.1
			c0.2-0.2,0.6-0.1,0.8,0.1c0.2,0.2,0.1,0.6-0.1,0.8C116.4,35.3,115.3,35.6,114.3,35.6z"/>
	</g>
	<g>
		<circle cx="110.3" cy="29.5" r="0.8"/>
	</g>
	<g>
		<circle cx="117.9" cy="29.5" r="0.8"/>
	</g>
</g>
<g>
	<g>
		<polygon class="st8" points="181.2,22.6 187,34.5 200.1,36.4 190.7,45.6 192.9,58.7 181.2,52.5 169.5,58.7 171.7,45.6 162.2,36.4 
			175.3,34.5 		"/>
		<path d="M169.5,59.3c-0.1,0-0.3,0-0.4-0.1c-0.2-0.1-0.3-0.4-0.3-0.6l2.2-12.7l-9.2-9c-0.2-0.2-0.2-0.4-0.2-0.7
			c0.1-0.2,0.3-0.4,0.5-0.4l12.7-1.9l5.7-11.6c0.2-0.4,0.9-0.4,1.2,0l5.7,11.6l12.7,1.9c0.2,0,0.4,0.2,0.5,0.4
			c0.1,0.2,0,0.5-0.2,0.7l-9.2,9l2.2,12.7c0,0.2-0.1,0.5-0.3,0.6c-0.2,0.1-0.5,0.2-0.7,0l-11.4-6l-11.4,6
			C169.7,59.3,169.6,59.3,169.5,59.3z M163.6,36.9l8.5,8.3c0.2,0.1,0.2,0.4,0.2,0.6l-2,11.7l10.5-5.5c0.2-0.1,0.4-0.1,0.6,0
			l10.5,5.5l-2-11.7c0-0.2,0-0.4,0.2-0.6l8.5-8.3l-11.8-1.7c-0.2,0-0.4-0.2-0.5-0.4l-5.3-10.7l-5.3,10.7c-0.1,0.2-0.3,0.3-0.5,0.4
			L163.6,36.9z"/>
	</g>
	<g>
		<polygon class="st8" points="155.4,40 158.4,46.1 165.2,47.1 160.3,51.9 161.5,58.7 155.4,55.5 149.3,58.7 150.5,51.9 145.6,47.1 
			152.4,46.1 		"/>
		<path d="M161.5,59.3c-0.1,0-0.2,0-0.3-0.1l-5.8-3l-5.8,3c-0.2,0.1-0.5,0.1-0.7,0c-0.2-0.1-0.3-0.4-0.3-0.6l1.1-6.4l-4.7-4.5
			c-0.2-0.2-0.2-0.4-0.2-0.7c0.1-0.2,0.3-0.4,0.5-0.4l6.4-0.9l2.9-5.8c0.2-0.4,0.9-0.4,1.2,0l2.9,5.8l6.4,0.9c0.2,0,0.4,0.2,0.5,0.4
			c0.1,0.2,0,0.5-0.2,0.7l-4.7,4.5l1.1,6.4c0,0.2-0.1,0.5-0.3,0.6C161.7,59.3,161.6,59.3,161.5,59.3z M155.4,54.8
			c0.1,0,0.2,0,0.3,0.1l4.9,2.6l-0.9-5.5c0-0.2,0-0.4,0.2-0.6l4-3.9l-5.5-0.8c-0.2,0-0.4-0.2-0.5-0.4l-2.4-5l-2.4,5
			c-0.1,0.2-0.3,0.3-0.5,0.4l-5.5,0.8l4,3.9c0.2,0.1,0.2,0.4,0.2,0.6l-0.9,5.5l4.9-2.6C155.2,54.8,155.3,54.8,155.4,54.8z"/>
	</g>
	<g>
		<polygon class="st8" points="207,40 210,46.1 216.8,47.1 211.9,51.9 213,58.7 207,55.5 200.9,58.7 202.1,51.9 197.2,47.1 
			203.9,46.1 		"/>
		<path d="M200.9,59.3c-0.1,0-0.3,0-0.4-0.1c-0.2-0.1-0.3-0.4-0.3-0.6l1.1-6.4l-4.7-4.5c-0.2-0.2-0.2-0.4-0.2-0.7
			c0.1-0.2,0.3-0.4,0.5-0.4l6.4-0.9l2.9-5.8c0.2-0.4,0.9-0.4,1.2,0l2.9,5.8l6.4,0.9c0.2,0,0.4,0.2,0.5,0.4c0.1,0.2,0,0.5-0.2,0.7
			l-4.7,4.5l1.1,6.4c0,0.2-0.1,0.5-0.3,0.6c-0.2,0.1-0.5,0.2-0.7,0l-5.8-3l-5.8,3C201.1,59.3,201,59.3,200.9,59.3z M207,54.8
			c0.1,0,0.2,0,0.3,0.1l4.9,2.6l-0.9-5.5c0-0.2,0-0.4,0.2-0.6l4-3.9l-5.5-0.8c-0.2,0-0.4-0.2-0.5-0.4l-2.4-5l-2.4,5
			c-0.1,0.2-0.3,0.3-0.5,0.4l-5.5,0.8l4,3.9c0.2,0.1,0.2,0.4,0.2,0.6l-0.9,5.5l4.9-2.6C206.8,54.8,206.9,54.8,207,54.8z"/>
	</g>
	<g>
		<path d="M181.2,18.4c-0.4,0-0.7-0.3-0.7-0.7V5.3c0-0.4,0.3-0.7,0.7-0.7c0.4,0,0.7,0.3,0.7,0.7v12.4
			C181.9,18.1,181.6,18.4,181.2,18.4z"/>
	</g>
	<g>
		<path d="M166.3,29.5c-0.2,0-0.3-0.1-0.5-0.2l-7.2-7.2c-0.3-0.3-0.3-0.7,0-0.9c0.3-0.3,0.7-0.3,0.9,0l7.2,7.2
			c0.3,0.3,0.3,0.7,0,0.9C166.7,29.4,166.5,29.5,166.3,29.5z"/>
	</g>
	<g>
		<path d="M195.6,29.6c-0.2,0-0.3-0.1-0.5-0.2c-0.3-0.3-0.3-0.7,0-0.9l6.9-6.9c0.3-0.3,0.7-0.3,0.9,0c0.3,0.3,0.3,0.7,0,0.9
			l-6.9,6.9C195.9,29.5,195.8,29.6,195.6,29.6z"/>
	</g>
	<g>
		<path d="M157.6,20.7c-0.2,0-0.3-0.1-0.5-0.2l-0.5-0.5c-0.2-0.3-0.2-0.7,0-0.9c0.3-0.2,0.7-0.2,0.9,0l0.5,0.5
			c0.2,0.3,0.2,0.7,0,0.9C158,20.6,157.8,20.7,157.6,20.7z"/>
	</g>
	<g>
		<path d="M204.3,20.9c-0.2,0-0.3-0.1-0.5-0.2c-0.3-0.3-0.3-0.7,0-0.9l0.7-0.7c0.3-0.3,0.7-0.3,0.9,0c0.3,0.3,0.3,0.7,0,0.9
			l-0.7,0.7C204.6,20.8,204.5,20.9,204.3,20.9z"/>
	</g>
</g>
<g id="Registration_1_">
	<g id="login_1_" transform="translate(-115.000000, -61.000000)">
		<g id="Group-37_1_" transform="translate(115.000000, 61.000000)">
			<g id="Group-36_1_">
				<path id="Fill-1_1_" class="st0" d="M341.2,42.8c-2.3-1.5-4.8-1.6-7.3-0.7c-0.3,0.1-0.5,0.2-0.9,0.3v-6.1c0,0-1.8,0-3.5,0
					l0,21.5l3.5,0V47.4c0-1.1,0.4-1.7,1.4-2c1.4-0.5,2.8-0.5,4.2,0c1,0.4,1.3,0.9,1.3,2l0,9.1c0,0.9,0.7,1.3,1.3,1.3l2.2,0V46.9
					C343.5,45.1,342.7,43.7,341.2,42.8"/>
				<path id="Fill-3_1_" class="st0" d="M297.5,37.8c0,1.2-0.9,2.1-2,2.1c-1.2,0-2.1-0.9-2.1-2.1c0-1.2,1-2.1,2.1-2.1
					C296.5,35.7,297.5,36.7,297.5,37.8"/>
				<path id="Fill-5_1_" class="st0" d="M314.2,42.1h-3c-0.9,0-1.7,0.4-2,0.8c0,0-5,7-5,7l5,7c0.4,0.5,1.1,0.8,2,0.8h3l-5.7-7.8
					L314.2,42.1z"/>
				<path id="Fill-7_1_" class="st0" d="M304.2,36.2l-3.5,0l0,21.5l3.5,0c0-4.9,0-14.7,0-18V36.2z"/>
				<path id="Fill-9_1_" class="st0" d="M293.6,56.4c0,0.9,0.7,1.3,1.3,1.3l2.2,0v-2.3v-1.2V41.9h-3.5v12.3V56.4z"/>
				<path id="Fill-11_1_" class="st0" d="M287.8,42.8c-2.3-1.5-4.8-1.6-7.3-0.7c-0.3,0.1-0.5,0.2-0.9,0.3v-6.1c0,0-2.2,0-3.5,0
					l0,21.5l3.5,0l0-10.3c0-1.1,0.4-1.7,1.4-2c1.4-0.5,2.8-0.5,4.2,0c1,0.4,1.3,0.9,1.3,2l0,9.1c0,0.9,0.7,1.3,1.3,1.3l2.2,0V46.9
					C290.1,45.1,289.3,43.7,287.8,42.8"/>
				<g id="Group-15_1_" transform="translate(82.244898, 34.355905)">
					<g id="Clip-14_1_">
					</g>
					<defs>
						<filter id="Adobe_OpacityMaskFilter" filterUnits="userSpaceOnUse" x="233.1" y="7.1" width="11.5" height="16.7">
							<feColorMatrix  type="matrix" values="1 0 0 0 0  0 1 0 0 0  0 0 1 0 0  0 0 0 1 0"/>
						</filter>
					</defs>
					<mask maskUnits="userSpaceOnUse" x="233.1" y="7.1" width="11.5" height="16.7" id="mask-2_2_">
						<g class="st9">
							<polygon id="path-1_2_" class="st0" points="233.1,7.1 244.7,7.1 244.7,23.8 233.1,23.8 							"/>
						</g>
					</mask>
					<path id="Fill-13_1_" class="st10" d="M244.6,18.2C244.6,18.2,244.6,18.2,244.6,18.2c0-0.1,0-0.1,0-0.2c-0.2-1.1-0.7-2-1.6-2.8
						c-0.5-0.4-1-0.7-1.6-1c-1.3-0.6-2.6-1.1-3.9-1.8c0,0,0.1,0,0.1,0c-0.2-0.2-0.4-0.5-0.4-0.8c0-0.3,0.1-0.5,0.3-0.7v0
						c0,0,0,0,0,0c0,0,0.1-0.1,0.1-0.1c0,0,0,0,0,0c0,0,0,0,0,0c0.1,0,0.1-0.1,0.3-0.1c0.1,0,0.2-0.1,0.3-0.1c0.2,0,0.4-0.1,0.7-0.1
						c0,0,0.1,0,0.1,0c0.1,0,0.2,0,0.4,0c0,0,0,0,0,0c0.1,0,0.2,0,0.3,0c0,0,0,0,0.1,0c0.1,0,0.2,0,0.3,0c1.3,0.1,2.5,0.4,3.7,0.8
						c0,0,0,0,0.1,0c0,0,0,0,0,0v0V8.6c0-0.4-0.1-0.6-0.3-0.8c-0.1-0.1-0.2-0.1-0.4-0.2c-1.5-0.4-2.9-0.6-4.4-0.5
						c-0.4,0-0.9,0.1-1.3,0.2c-2.4,0.4-3.9,1.9-4.2,4c0,0.2,0,0.3,0,0.5c0,0,0,0,0,0c0,1.3,0.6,2.3,1.8,3.2c0.4,0.3,0.8,0.5,1.3,0.8
						c1.3,0.6,2.6,1.1,3.9,1.7c0.1,0,0.2,0.1,0.3,0.1c0,0,0,0,0,0c0.1,0,0.1,0.1,0.2,0.1c0,0,0,0,0,0c0.3,0.2,0.5,0.6,0.5,1
						c0,0.2-0.1,0.5-0.2,0.6c-0.1,0.1-0.1,0.2-0.2,0.3c-0.2,0.2-0.4,0.3-0.7,0.4c0,0-0.1,0-0.1,0c-0.5,0.1-1,0.1-1.4,0.1
						c-1.8,0-3.5-0.5-5-1.3c0,0.9,0,1.7,0,2.6c0,0.9,0.4,1.4,1.3,1.7c0,0,0.1,0,0.1,0c1.3,0.4,2.7,0.6,4.1,0.6c0,0,0.1,0,0.1,0
						c0.5,0,1-0.1,1.5-0.2c2.3-0.5,3.9-2.1,4.1-4.2C244.7,19,244.7,18.6,244.6,18.2"/>
				</g>
				<g id="Group-18_1_" transform="translate(28.299320, 34.355905)">
					<g id="Clip-17_1_">
					</g>
					<defs>
						<filter id="Adobe_OpacityMaskFilter_1_" filterUnits="userSpaceOnUse" x="233.6" y="7.1" width="11.5" height="16.7">
							<feColorMatrix  type="matrix" values="1 0 0 0 0  0 1 0 0 0  0 0 1 0 0  0 0 0 1 0"/>
						</filter>
					</defs>
					<mask maskUnits="userSpaceOnUse" x="233.6" y="7.1" width="11.5" height="16.7" id="mask-4_2_">
						<g class="st11">
							<polygon id="path-3_2_" class="st0" points="233.6,7.1 245.1,7.1 245.1,23.8 233.6,23.8 							"/>
						</g>
					</mask>
					<path id="Fill-16_1_" class="st12" d="M245.1,18.2C245.1,18.2,245.1,18.2,245.1,18.2c0-0.1,0-0.1,0-0.2c-0.2-1.1-0.7-2-1.6-2.8
						c-0.5-0.4-1-0.7-1.6-1c-1.3-0.6-2.6-1.1-3.9-1.8c0,0,0.1,0,0.1,0c-0.2-0.2-0.4-0.5-0.4-0.8c0-0.3,0.1-0.5,0.3-0.7l0,0
						c0,0,0,0,0,0c0,0,0.1-0.1,0.1-0.1c0,0,0,0,0,0c0,0,0,0,0,0c0.1,0,0.1-0.1,0.3-0.1c0.1,0,0.2-0.1,0.3-0.1c0.2,0,0.4-0.1,0.7-0.1
						c0,0,0.1,0,0.1,0c0.1,0,0.2,0,0.4,0c0,0,0,0,0,0c0.1,0,0.2,0,0.3,0c0,0,0,0,0.1,0c0.1,0,0.2,0,0.3,0c1.3,0.1,2.5,0.4,3.7,0.8
						c0,0,0,0,0.1,0c0,0,0,0,0,0v0V8.6c0-0.4-0.1-0.6-0.3-0.8c-0.1-0.1-0.2-0.1-0.4-0.2c-1.5-0.4-2.9-0.6-4.4-0.5
						c-0.4,0-0.9,0.1-1.3,0.2c-2.4,0.4-3.9,1.9-4.2,4c0,0.2,0,0.3,0,0.5c0,0,0,0,0,0c0,1.3,0.6,2.3,1.8,3.2c0.4,0.3,0.8,0.5,1.3,0.8
						c1.3,0.6,2.6,1.1,3.9,1.7c0.1,0,0.2,0.1,0.3,0.1c0,0,0,0,0,0c0.1,0,0.1,0.1,0.2,0.1c0,0,0,0,0,0c0.3,0.2,0.5,0.6,0.5,1
						c0,0.2-0.1,0.5-0.2,0.6c-0.1,0.1-0.1,0.2-0.2,0.3c-0.2,0.2-0.4,0.3-0.7,0.4c0,0-0.1,0-0.1,0c-0.5,0.1-1,0.1-1.4,0.1
						c-1.8,0-3.5-0.5-5-1.3c0,0.9,0,1.7,0,2.6c0,0.9,0.4,1.4,1.3,1.7c0,0,0.1,0,0.1,0c1.3,0.4,2.7,0.6,4.1,0.6c0,0,0.1,0,0.1,0
						c0.5,0,1-0.1,1.5-0.2c2.4-0.5,3.9-2.1,4.1-4.2C245.2,19,245.1,18.6,245.1,18.2"/>
				</g>
				<g id="Group-21_1_" transform="translate(112.312925, 34.355905)">
					<g id="Clip-20_1_">
					</g>
					<defs>
						<filter id="Adobe_OpacityMaskFilter_2_" filterUnits="userSpaceOnUse" x="233.9" y="7.1" width="16.2" height="16.7">
							<feColorMatrix  type="matrix" values="1 0 0 0 0  0 1 0 0 0  0 0 1 0 0  0 0 0 1 0"/>
						</filter>
					</defs>
					<mask maskUnits="userSpaceOnUse" x="233.9" y="7.1" width="16.2" height="16.7" id="mask-6_2_">
						<g class="st13">
							<polygon id="path-5_2_" class="st0" points="233.9,7.1 250,7.1 250,23.8 233.9,23.8 							"/>
						</g>
					</mask>
					<path id="Fill-19_1_" class="st14" d="M242.2,20.2c-2.7,0-4.8-2-4.8-4.7c0-2.6,2.1-4.8,4.7-4.8c2.6,0,4.8,2.1,4.8,4.7
						C246.9,18.1,244.9,20.2,242.2,20.2L242.2,20.2z M246.9,7.5c0,0.4,0,0.8,0,1.2c-4-2.9-8.7-1.5-11.1,1.3c-2.5,3-2.6,7.6-0.1,10.6
						c1.3,1.5,2.9,2.6,4.8,3c2.3,0.4,4.4,0,6.3-1.5c0,0,1.2,1.3,3.2,1.4v-16v0L246.9,7.5z"/>
				</g>
				<path id="Fill-22_1_" class="st0" d="M254.2,16.1c0,0.2,0.1,0.3,0.3,0.3h0.5v-0.5v-0.3v-2.5h-0.7v2.5V16.1z"/>
				<path id="Fill-24_1_" class="st0" d="M253,11.8l0.4-0.1c0,0,0,0.1-0.1,0.1l-0.4,0.2L253,11.8z M251.3,16.7v-3.5h4.4L246.8,7
					l-9.2,6.2h4.3v3.5c1.4-0.8,3-1.3,4.7-1.3C248.4,15.4,249.9,15.9,251.3,16.7L251.3,16.7z"/>
				<path id="Fill-26_1_" class="st0" d="M253.4,11.7l-0.4,0.1l0,0.2l0.4-0.2C253.4,11.8,253.4,11.7,253.4,11.7"/>
				<path id="Fill-28_1_" class="st0" d="M253.3,25.1c0-0.1,0-0.1,0-0.2c1.1,0.2,2.1,0.6,3,1.3c-0.5,4.6-4.3,8.3-9,8.7v-3
					C250.7,31.4,253.3,28.6,253.3,25.1"/>
				<path id="Fill-30_1_" class="st0" d="M240,25.1c0-0.1,0-0.1,0-0.2c-1.1,0.2-2.1,0.6-3,1.3c0.5,4.6,4.3,8.3,9,8.7v-3
					C242.6,31.4,240,28.6,240,25.1"/>
				<path id="Fill-32_1_" class="st0" d="M237.1,26.2c-2.4,1.7-4.1,4.9-4.1,10.9c3.1,2.5,10,7.6,12.2,20.8c0,0,0,0,0,0
					c0,0.2,0.2,0.3,0.3,0.3l0.5,0v-0.6v-0.3v-0.3V34.9C241.3,34.5,237.6,30.8,237.1,26.2"/>
				<path id="Fill-34_1_" class="st0" d="M256.3,26.2c-0.5,4.6-4.3,8.3-9,8.7v22.1v0.3v0.3v0.6l0.5,0c0.1,0,0.3-0.1,0.3-0.2
					c0,0,0,0,0,0c2.2-13.2,9.1-18.3,12.2-20.8C260.3,31,258.7,27.9,256.3,26.2"/>
			</g>
		</g>
	</g>
</g>
</svg>
