<?xml version="1.0" encoding="utf-8"?>
<!-- Generator: Adobe Illustrator 22.1.0, SVG Export Plug-In . SVG Version: 6.00 Build 0)  -->
<svg version="1.1" id="Layer_1" xmlns="http://www.w3.org/2000/svg" xmlns:xlink="http://www.w3.org/1999/xlink" x="0px" y="0px"
	 width="103.5px" height="38.7px" viewBox="0 0 103.5 38.7" style="enable-background:new 0 0 103.5 38.7;" xml:space="preserve">
<style type="text/css">
	.st0{fill:#FFFFFF;}
	.st1{fill:#606060;}
	.st2{fill:none;stroke:#000000;stroke-width:2;stroke-linecap:round;stroke-linejoin:round;stroke-miterlimit:10;}
	.st3{fill:#333333;}
	.st4{fill:none;stroke:#333333;stroke-width:2;stroke-miterlimit:10;}
	.st5{fill:none;stroke:#333333;stroke-miterlimit:10;}
	.st6{fill:#00A5B5;}
	.st7{fill:none;stroke:#00A5B5;stroke-miterlimit:10;}
</style>
<image style="overflow:visible;" width="15" height="14" xlink:href="FB47BA39.jpg"  transform="matrix(6.5333 0 0 1.3571 40.8836 -105.7555)">
</image>
<path class="st0" d="M16.9,19.1l-3.3-3.9c1.9-2.2,1.9-5.5,0-7.7c-1-1.2-2.5-2-4.1-2.1C7.9,5.3,6.4,5.8,5.2,6.8
	c-2.5,2.1-2.8,5.9-0.7,8.5c1.2,1.4,2.9,2.1,4.6,2.1c1.1,0,2.1-0.3,3.1-0.8l3.3,3.9c0.4,0.4,1,0.5,1.4,0.1
	C17.2,20.2,17.3,19.5,16.9,19.1z M6,14c-0.7-0.8-1-1.9-0.9-2.9C5.1,10,5.6,9,6.5,8.3C7.2,7.7,8.1,7.4,9,7.4c0.1,0,0.2,0,0.3,0
	c1.1,0.1,2,0.6,2.7,1.4c0.7,0.8,1,1.9,0.9,2.9c-0.1,1.1-0.6,2-1.4,2.7c0,0,0,0,0,0s0,0,0,0C9.9,15.9,7.4,15.7,6,14z"/>
<polygon points="35.8,12.6 24,12.6 27.2,9.3 25.8,7.9 20.2,13.6 25.8,19.2 27.2,17.8 24,14.6 35.8,14.6 "/>
<polygon class="st1" points="50.8,9 49.4,7.6 45.8,11.2 42.3,7.6 40.9,9 44.4,12.6 40.9,16.1 42.3,17.5 45.8,14 49.4,17.5 
	50.8,16.1 47.2,12.6 "/>
<g>
	<polyline class="st2" points="-4.3,-249.3 2.3,-255.8 6.3,-251.9 13.7,-259.3 	"/>
	<line class="st2" x1="8.3" y1="-259.3" x2="13.7" y2="-259.3"/>
	<line class="st2" x1="13.7" y1="-254" x2="13.7" y2="-259.3"/>
</g>
<path class="st3" d="M12.2-247.6C12.2-247.6,12.2-247.6,12.2-247.6c-0.1-0.1-0.2-0.1-0.2-0.2c0,0-0.1,0-0.1-0.1
	c-0.1-0.1-0.3-0.1-0.4-0.1l-5.4,0c-0.6,0-1,0.4-1,1s0.4,1,1,1l3,0L5-241.8l-2.7-2.7c-0.4-0.4-1-0.4-1.4,0l-6.6,6.4
	c-0.4,0.4-0.4,1,0,1.4c0.4,0.4,1,0.4,1.4,0l5.9-5.8l2.8,2.7c0.4,0.4,1,0.4,1.4,0c0,0,0,0,0,0l4.8-4.8v2.9c0,0.6,0.4,1,1,1
	c0.3,0,0.5-0.1,0.7-0.3c0.2-0.2,0.3-0.4,0.3-0.7v-5.4c0,0,0,0,0,0c0-0.1,0-0.3-0.1-0.4C12.4-247.4,12.3-247.6,12.2-247.6z"/>
<g>
	<path d="M-4.6-292.3c-0.2,0-0.4-0.1-0.5-0.2c-0.3-0.3-0.3-0.8,0-1.1l8.6-8.4c0.3-0.3,0.7-0.3,1,0l4.7,4.5l8-8
		c0.3-0.3,0.8-0.3,1.1,0c0.3,0.3,0.3,0.8,0,1.1l-8.5,8.5c-0.3,0.3-0.8,0.3-1,0L4-300.4l-8.1,7.9C-4.2-292.3-4.4-292.3-4.6-292.3z"/>
</g>
<g>
	<path d="M17.7-304.2h-7c-0.4,0-0.7-0.3-0.7-0.7c0-0.4,0.3-0.7,0.7-0.7h7c0.4,0,0.7,0.3,0.7,0.7C18.5-304.5,18.1-304.2,17.7-304.2z"
		/>
</g>
<g>
	<path d="M17.7-297.2c-0.4,0-0.7-0.3-0.7-0.7v-7c0-0.4,0.3-0.7,0.7-0.7s0.7,0.3,0.7,0.7v7C18.5-297.5,18.1-297.2,17.7-297.2z"/>
</g>
<rect x="-4.3" y="-283.3" width="18" height="18"/>
<circle class="st4" cx="12.4" cy="-229.1" r="7"/>
<line class="st5" x1="12.5" y1="-229.1" x2="12.5" y2="-232.5"/>
<line class="st5" x1="12" y1="-229.1" x2="17.1" y2="-229.1"/>
<g>
	<path class="st3" d="M-11.5-197.3c-4.4,0-8-3.6-8-8s3.6-8,8-8s8,3.6,8,8S-7.1-197.3-11.5-197.3z M-11.5-211.3c-3.3,0-6,2.7-6,6
		s2.7,6,6,6s6-2.7,6-6S-8.2-211.3-11.5-211.3z"/>
</g>
<g>
	<rect x="-11.9" y="-208.6" class="st3" width="1" height="3.4"/>
</g>
<g>
	<rect x="-11.9" y="-205.8" class="st3" width="5.1" height="1"/>
</g>
<g>
	<path class="st3" d="M-170-341.2c-4.7,0-8.5-3.8-8.5-8.5s3.8-8.5,8.5-8.5c4.7,0,8.5,3.8,8.5,8.5S-165.3-341.2-170-341.2z
		 M-170-356.8c-3.9,0-7.1,3.2-7.1,7.1c0,3.9,3.2,7.1,7.1,7.1c3.9,0,7.1-3.2,7.1-7.1C-162.9-353.6-166.1-356.8-170-356.8z"/>
</g>
<g>
	<polygon class="st3" points="-166.1,-345.9 -171,-349.3 -171,-353.8 -169.6,-353.8 -169.6,-350 -165.3,-347 	"/>
</g>
<g>
	<g>
		<path class="st3" d="M67.6,19.9c-4.7,0-8.5-3.8-8.5-8.5s3.8-8.5,8.5-8.5c4.7,0,8.5,3.8,8.5,8.5S72.3,19.9,67.6,19.9z M67.6,4.3
			c-3.9,0-7.1,3.2-7.1,7.1s3.2,7.1,7.1,7.1c3.9,0,7.1-3.2,7.1-7.1S71.5,4.3,67.6,4.3z"/>
	</g>
	<g>
		<polygon class="st3" points="71.5,15.2 66.6,11.7 66.6,7.2 68,7.2 68,11 72.3,14 		"/>
	</g>
</g>
<g>
	<polygon class="st6" points="90.9,10.2 87.9,10.2 87.9,7.2 85.9,7.2 85.9,10.2 82.9,10.2 82.9,12.2 85.9,12.2 85.9,15.2 87.9,15.2 
		87.9,12.2 90.9,12.2 	"/>
	<circle class="st7" cx="86.9" cy="11.2" r="6.5"/>
</g>
</svg>
