<?xml version="1.0" encoding="utf-8"?>
<!-- Generator: Adobe Illustrator 22.1.0, SVG Export Plug-In . SVG Version: 6.00 Build 0)  -->
<svg version="1.1" id="Social_Icons" xmlns="http://www.w3.org/2000/svg" xmlns:xlink="http://www.w3.org/1999/xlink" x="0px"
	 y="0px" width="136.6px" height="25.9px" viewBox="0 0 136.6 25.9" style="enable-background:new 0 0 136.6 25.9;"
	 xml:space="preserve">
<style type="text/css">
	.st0{fill:#0083BE;}
	.st1{fill:#FFFFFF;}
	.st2{fill:#4CC247;}
	.st3{fill:#4CC247;stroke:#FFFFFF;stroke-width:1.3867;stroke-miterlimit:10;}
	.st4{fill:#1CB7EB;}
	.st5{fill:#3B5998;}
	.st6{fill:#191919;}
</style>
<g>
	<g>
		<path id="rect2987_1_" class="st0" d="M31.4,1h18c1.7,0,3,1.3,3,3v18c0,1.7-1.3,3-3,3h-18c-1.7,0-3-1.3-3-3V4
			C28.4,2.3,29.7,1,31.4,1z"/>
		<g id="g9-1_1_" transform="matrix(1.5537946,0,0,1.5537946,-140.87332,-132.64552)">
			<rect id="rect11_1_" x="110.8" y="91.4" class="st1" width="2.6" height="7.8"/>
			<path id="path13-0_1_" class="st1" d="M112.1,87.6c-0.9,0-1.5,0.6-1.5,1.3c0,0.7,0.6,1.3,1.4,1.3h0c0.9,0,1.5-0.6,1.5-1.3
				C113.5,88.2,113,87.6,112.1,87.6L112.1,87.6z"/>
			<path id="path15_1_" class="st1" d="M119.7,91.2c-1.4,0-2,0.8-2.3,1.3v-1.1h-2.6c0,0.7,0,7.8,0,7.8h2.6v-4.3c0-0.2,0-0.5,0.1-0.6
				c0.2-0.5,0.6-0.9,1.3-0.9c0.9,0,1.3,0.7,1.3,1.8v4.2h2.6v-4.5C122.7,92.3,121.4,91.2,119.7,91.2z"/>
		</g>
	</g>
	<g>
		<path id="rect2987_2_" class="st2" d="M3.4,1h18c1.7,0,3,1.3,3,3v18c0,1.7-1.3,3-3,3h-18c-1.7,0-3-1.3-3-3V4C0.4,2.3,1.8,1,3.4,1z
			"/>
		<g>
			<path class="st3" d="M12.4,4.7c-4.5,0-8.1,3.6-8.1,8.1c0,1.8,0.6,3.4,1.5,4.7l-1,3l3.1-1c1.3,0.8,2.8,1.3,4.5,1.3
				c4.5,0,8.1-3.6,8.1-8.1C20.5,8.3,16.9,4.7,12.4,4.7L12.4,4.7L12.4,4.7L12.4,4.7z"/>
			<path class="st1" d="M10.4,9.3C10.3,9,10.2,9,10,8.9c-0.1,0-0.1,0-0.2,0C9.5,8.9,9.2,9,9,9.2c-0.2,0.2-0.7,0.7-0.7,1.7
				c0,1,0.7,2,0.8,2.1c0.1,0.1,1.4,2.2,3.5,3.1c1.6,0.7,2.1,0.6,2.5,0.5c0.5-0.1,1.2-0.5,1.4-1c0.2-0.5,0.2-0.9,0.1-1
				c0-0.1-0.2-0.1-0.4-0.2c-0.2-0.1-1.2-0.6-1.4-0.7c-0.2-0.1-0.4,0-0.5,0.2c-0.2,0.3-0.4,0.6-0.5,0.7c-0.1,0.1-0.3,0.1-0.5,0.1
				c-0.2-0.1-0.9-0.3-1.6-1c-0.6-0.5-1-1.2-1.1-1.4c-0.1-0.2,0-0.3,0.1-0.4c0.1-0.1,0.2-0.2,0.3-0.3c0.1-0.1,0.2-0.2,0.2-0.3
				c0.1-0.1,0-0.3,0-0.4C11,10.7,10.6,9.7,10.4,9.3z"/>
		</g>
	</g>
	<g>
		<path id="rect2987_3_" class="st4" d="M59.3,1h18c1.7,0,3,1.3,3,3v18c0,1.7-1.3,3-3,3h-18c-1.7,0-3-1.3-3-3V4
			C56.3,2.3,57.6,1,59.3,1z"/>
		<g>
			<g>
				<path class="st1" d="M76.5,8.4c-0.6,0.3-1.3,0.5-1.9,0.6c0.7-0.4,1.2-1.1,1.5-2c-0.6,0.4-1.3,0.7-2.2,0.9
					c-0.6-0.7-1.5-1.1-2.4-1.1c-1.8,0-3.4,1.6-3.4,3.6c0,0.3,0,0.6,0.1,0.8c-2.8-0.1-5.3-1.6-6.9-3.7c-0.3,0.5-0.4,1.1-0.4,1.8
					c0,1.3,0.6,2.3,1.5,3c-0.6,0-1.1-0.2-1.5-0.4v0.1c0,1.7,1.1,3.2,2.7,3.5c-0.3,0.1-0.6,0.1-0.9,0.1c-0.2,0-0.4,0-0.6-0.1
					c0.4,1.5,1.6,2.5,3.1,2.5c-1.1,0.9-2.6,1.5-4.1,1.5c-0.3,0-0.5,0-0.8-0.1c1.5,1,3.2,1.6,5.1,1.6c6.1,0,9.5-5.4,9.5-10.2
					c0-0.1,0-0.3,0-0.4C75.5,9.7,76,9.1,76.5,8.4z"/>
			</g>
		</g>
	</g>
	<g>
		<path id="rect2987_4_" class="st5" d="M87.2,1h18c1.7,0,3,1.3,3,3v18c0,1.7-1.3,3-3,3h-18c-1.7,0-3-1.3-3-3V4
			C84.2,2.3,85.6,1,87.2,1z"/>
		<path id="f_1_" class="st1" d="M99.8,25v-9.1h3l0.8-3.8h-3.8v-1.5c0-1.5,0.8-2.3,2.3-2.3h1.5V4.6c-0.8,0-1.7,0-3,0
			c-2.8,0-4.5,2.2-4.5,5.3v2.3h-3v3.8h3V25H99.8z"/>
	</g>
	<g>
		<path id="rect2987_5_" class="st6" d="M115.2,1h18c1.7,0,3,1.3,3,3v18c0,1.7-1.3,3-3,3h-18c-1.7,0-3-1.3-3-3V4
			C112.2,2.3,113.5,1,115.2,1z"/>
		<g id="Icons_with_numbers">
			<g id="Group" transform="translate(-336.000000, 0.000000)">
				<path id="Shape" class="st1" d="M461.9,13.4l5,4.3c-0.2,0.2-0.4,0.3-0.7,0.3h-12c-0.3,0-0.5-0.1-0.7-0.3l5-4.3l1.7,1.5
					L461.9,13.4z M460.2,14l-6.7-5.8c0.2-0.2,0.4-0.3,0.7-0.3h12c0.3,0,0.5,0.1,0.7,0.3L460.2,14z M467.2,17.2l-4.9-4.1l4.9-4.2
					V17.2L467.2,17.2z M453.1,17.2V8.8L458,13L453.1,17.2L453.1,17.2z"/>
			</g>
		</g>
	</g>
</g>
</svg>
