<svg xmlns="http://www.w3.org/2000/svg" xmlns:xlink="http://www.w3.org/1999/xlink" width="169" height="39"><style><![CDATA[.B{stroke:#000}.C{stroke-linejoin:round}.D{stroke-width:.5}.E{stroke-linecap:round}.F{fill:#fff}.G{fill:#fe6264}.H{mask:url(#F)}.I{fill:#fb8a00}.J{fill:#00c4ef}.K{stroke-width:.407}.L{stroke-width:.399}]]></style><defs><path id="A" d="M0 25.502h19.8V0H0z"/><path id="B" d="M14.316 14.78v11.94h3.457V14.78"/><path id="C" d="M13.56 26.67v-1.19h4.897v1.19"/><path id="D" d="M42.728 8.31V25.7c0 .465.377.842.843.842h13.013c.466 0 .843-.377.843-.842V6.363c0-.465-.377-.843-.843-.843h-11.3"/><path id="E" d="M45.283 5.52v2.425c0 .28-.227.506-.506.506l-2.05-.14 2.555-2.79z"/></defs><g fill="none" fill-rule="evenodd"><path d="M29.724 29.485H2.277C1.572 29.485 1 28.93 1 28.243S1.572 27 2.277 27h27.447c.705 0 1.276.556 1.276 1.243s-.57 1.242-1.276 1.242m35 0H37.277c-.705 0-1.277-.556-1.277-1.242S36.572 27 37.277 27h27.447c.705 0 1.276.556 1.276 1.243s-.57 1.242-1.276 1.242m42 0H79.277c-.705 0-1.277-.556-1.277-1.242S78.572 27 79.277 27h27.447c.705 0 1.276.556 1.276 1.243s-.57 1.242-1.276 1.242" opacity=".344" fill="#999"/><path d="M78.67 18.25h2.423l4.424 2.927c.274.218.673.012.664-.347l-.08-2.58h3.38c.742 0 1.343-.62 1.343-1.386v-8.15c0-.765-.6-1.386-1.343-1.386H78.67c-.742 0-1.343.62-1.343 1.386v8.15c0 .766.6 1.386 1.343 1.386" class="F"/><path d="M78.67 18.25h2.423l4.424 2.927c.274.218.673.012.664-.347l-.08-2.58h3.38c.742 0 1.343-.62 1.343-1.386v-8.15c0-.765-.6-1.386-1.343-1.386H78.67c-.742 0-1.343.62-1.343 1.386v8.15c0 .766.6 1.386 1.343 1.386z" class="B C D"/><path d="M105.032 24.24h-6.15l-6.035 3.78c-.373.283-.916.015-.904-.448l.108-3.333h-1.766c-1.013 0-1.833-.8-1.833-1.8V11.92c0-.99.82-1.79 1.833-1.79h14.747c1.012 0 1.833.802 1.833 1.79v10.53c0 .99-.82 1.8-1.833 1.8" fill="#008489"/><path d="M105.032 24.24h-6.15l-6.035 3.78c-.373.283-.916.015-.904-.448l.108-3.333h-1.766c-1.013 0-1.833-.8-1.833-1.8V11.92c0-.99.82-1.79 1.833-1.79h14.747c1.012 0 1.833.802 1.833 1.79v10.53c0 .99-.82 1.8-1.833 1.8z" class="B C D"/><path d="M97.1 20.234a.7.7 0 0 1 .694.703.69.69 0 0 1-.694.703.7.7 0 0 1-.695-.703.7.7 0 0 1 .695-.703m.01-.704a.7.7 0 0 1-.695-.703c0-.937.818-1.648 1.617-2.223a1.29 1.29 0 0 0 .369-1.255c-.15-.478-.753-.765-1.247-.765h-.001c-.54 0-1.213.255-1.475.97-.134.365-.535.548-.893.415s-.543-.54-.408-.905c.42-1.145 1.5-1.888 2.777-1.888 1.005 0 2.2.6 2.57 1.742.35 1.104-.2 2.33-.888 2.832-.93.667-1.03.974-1.03 1.075a.7.7 0 0 1-.695.704" class="F"/><path d="M86.792 11.12H80.86a.33.33 0 0 1-.326-.33c0-.182.146-.33.326-.33h5.933c.18 0 .326.148.326.33a.33.33 0 0 1-.326.33m-.001 2.265H80.86c-.18 0-.326-.148-.326-.33s.146-.33.326-.33h5.933c.18 0 .326.148.326.33s-.146.33-.326.33m-2.917 2.265H80.86c-.18 0-.326-.148-.326-.33s.146-.33.326-.33h3.017a.33.33 0 0 1 .326.33.33.33 0 0 1-.326.33" fill="#000"/><path d="M148.724 29.485h-27.447c-.705 0-1.277-.556-1.277-1.242S120.572 27 121.277 27h27.447c.705 0 1.276.556 1.276 1.243s-.57 1.242-1.276 1.242" fill="#999" opacity=".344"/><g transform="translate(125 3)"><path d="M16.594 23.33H1.04c-.442 0-.8-.363-.8-.8V1.05c0-.448.36-.8.8-.8h15.555c.442 0 .8.362.8.8v21.47c0 .447-.36.8-.8.8" class="J"/><path d="M16.594 23.33H1.04c-.442 0-.8-.363-.8-.8V1.05c0-.448.36-.8.8-.8h15.555c.442 0 .8.362.8.8v21.47c0 .447-.36.8-.8.8z" class="B C D"/><path d="M18.75 25.262H3.195c-.442 0-.8-.363-.8-.8V2.98c0-.447.358-.81.8-.81H18.75c.442 0 .8.362.8.81v21.472c0 .447-.36.8-.8.8" class="F"/><path d="M18.75 25.262H3.195c-.442 0-.8-.363-.8-.8V2.98c0-.447.358-.81.8-.81H18.75c.442 0 .8.362.8.81v21.472c0 .447-.36.8-.8.8z" class="B C D"/><path d="M8.99 6.336h7.784" class="F"/><path d="M8.99 6.336h7.784" class="B C D E"/><path d="M8.99 7.84h4.5" class="F"/><path d="M8.99 7.84h4.5" class="B C D E"/><path d="M8.99 13.06h7.784" class="F"/><path d="M8.99 13.06h7.784" class="B C D E"/><path d="M8.99 14.563h4.5" class="F"/><path d="M8.99 14.563h4.5" class="B C D E"/><path d="M8.99 19.783h7.784" class="F"/><path d="M8.99 19.783h7.784" class="B C D E"/><path d="M8.99 21.286h4.5" class="F"/><path d="M8.99 21.286h4.5" class="B C D E"/><mask id="F" class="F"><use xlink:href="#A"/></mask><path d="M4.595 8.758h2.822V5.905H4.595z" class="H I"/><path d="M4.595 8.758h2.822V5.905H4.595z" class="B C D H"/><path d="M4.595 15.063h2.822V12.2H4.595z" class="H I"/><path d="M4.595 15.063h2.822V12.2H4.595z" class="B C D H"/><path d="M4.595 21.783h2.822V18.93H4.595z" class="H I"/><path d="M4.595 21.783h2.822V18.93H4.595z" class="B C D H"/></g><path d="M6.312 26.706h19.396V14.694H6.312z" class="I"/><path d="M6.312 26.706h19.396V14.694H6.312z" class="B C D"/><use xlink:href="#B" class="F"/><use xlink:href="#B" class="B C D E"/><use xlink:href="#C" class="F"/><use xlink:href="#C" class="B C D E"/><use xlink:href="#B" x="8.284" class="F"/><use xlink:href="#B" x="8.284" class="B C D E"/><use xlink:href="#C" x="8.283" class="F"/><use xlink:href="#C" x="8.283" class="B C D E"/><use xlink:href="#B" x="-8.281" class="F"/><use xlink:href="#B" x="-8.281" class="B C D E"/><use xlink:href="#C" x="-8.28" class="F"/><use xlink:href="#C" x="-8.28" class="B C D E"/><path d="M4.5 28.666h23v-1.95h-23z" class="F"/><path d="M4.5 28.666h23v-1.95h-23z" class="B C D"/><path d="M27.5 13.255v1.53h-23v-1.53" class="F"/><path d="M27.5 13.255v1.53h-23v-1.53" class="B C D E"/><path d="M3.25 13.203h25.52L16 4.25z" class="J"/><path d="M3.25 13.204L16 4.25l12.77 8.953z" class="B C D"/><path d="M18.028 9.53a2.02 2.02 0 0 0-2.018-2.018 2.02 2.02 0 0 0-2.017 2.018 2.02 2.02 0 0 0 2.017 2.018 2.02 2.02 0 0 0 2.018-2.018" class="F"/><g class="B C D"><path d="M18.028 9.53a2.02 2.02 0 0 0-2.018-2.018 2.02 2.02 0 0 0-2.017 2.018 2.02 2.02 0 0 0 2.017 2.018 2.02 2.02 0 0 0 2.018-2.018z"/><path d="M3.25 13.204L16 4.25l12.77 8.953z"/></g><path d="M58.2 28.103H41.957c-.4 0-.707-.316-.707-.707V4.83a.71.71 0 0 1 .707-.707H58.2a.71.71 0 0 1 .707.707v22.565c0 .39-.317.707-.707.707" class="J"/><path d="M58.2 28.103H41.957c-.4 0-.707-.316-.707-.707V4.83a.71.71 0 0 1 .707-.707H58.2a.71.71 0 0 1 .707.707v22.565c0 .39-.317.707-.707.707z" class="B C D"/><use xlink:href="#D" class="F"/><use xlink:href="#D" class="B C D E"/><path d="M45.502 5.507l.133 2.848c0 .28-.227.506-.506.506l-2.5-.325 2.873-3.03z" fill="#d8d8d8"/><use xlink:href="#E" class="F"/><use xlink:href="#E" class="B C D"/><path d="M44.925 9.862H55.23" class="G"/><path d="M44.925 9.862H55.23" class="B C D E"/><path d="M44.925 14.075h8.027" class="G"/><path d="M44.925 14.075h8.027" class="B C D E"/><path d="M49.428 11.968H44.87" class="G"/><path d="M49.428 11.968H44.87m.333 4.626l.612.612 1.314-1.314" class="B C D E"/><path d="M45.27 19.1l1.4 1.4" class="G"/><path d="M45.27 19.1l1.4 1.4" class="B C D E"/><path d="M46.67 19.1l-1.4 1.4" class="G"/><path d="M46.67 19.1l-1.4 1.4" class="B C D E"/><path d="M45.27 22.35l1.4 1.4" class="G"/><path d="M45.27 22.35l1.4 1.4" class="B C D E"/><path d="M46.67 22.35l-1.4 1.4" class="G"/><path d="M46.67 22.35l-1.4 1.4" class="B C D E"/><path d="M52.58 3.18h-.785v-.23a.7.7 0 0 0-.699-.701H49.06a.7.7 0 0 0-.7.701v.23h-.785a.7.7 0 0 0-.7.7v1.68a.7.7 0 0 0 .7.7h5.006a.7.7 0 0 0 .7-.7V3.88a.7.7 0 0 0-.7-.7" class="J"/><path d="M52.58 3.18h-.785v-.23a.7.7 0 0 0-.699-.701H49.06a.7.7 0 0 0-.7.701v.23h-.785a.7.7 0 0 0-.7.7v1.68a.7.7 0 0 0 .7.7h5.006a.7.7 0 0 0 .7-.7V3.88a.7.7 0 0 0-.7-.7z" class="B C D"/><path d="M47.97 5.372h4.218" class="G"/><path d="M47.97 5.372h4.218" class="B C D E"/><path d="M63.112 21.832a7.19 7.19 0 0 0-7.187-7.187 7.19 7.19 0 0 0-7.186 7.187 7.19 7.19 0 0 0 7.186 7.187 7.19 7.19 0 0 0 7.187-7.187" class="I"/><path d="M63.112 21.832a7.19 7.19 0 0 0-7.187-7.187 7.19 7.19 0 0 0-7.186 7.187 7.19 7.19 0 0 0 7.186 7.187 7.19 7.19 0 0 0 7.187-7.187z" class="B C D"/><path d="M61.633 21.832a5.71 5.71 0 0 0-5.708-5.708 5.71 5.71 0 0 0-5.709 5.708 5.71 5.71 0 0 0 5.709 5.708 5.71 5.71 0 0 0 5.708-5.708" class="F"/><path d="M61.633 21.832a5.71 5.71 0 0 0-5.708-5.708 5.71 5.71 0 0 0-5.709 5.708 5.71 5.71 0 0 0 5.709 5.708 5.71 5.71 0 0 0 5.708-5.708z" class="B C K"/><path d="M56.69 21.832c0-.422-.342-.764-.764-.764s-.763.342-.763.764.34.764.763.764.764-.342.764-.764" class="F"/><g class="B C"><g class="K"><path d="M56.69 21.832c0-.422-.342-.764-.764-.764s-.763.342-.763.764.34.764.763.764.764-.342.764-.764z"/><path d="M55.925 16.912v.822m0 8.303v.82m4.975-4.97h-.822m-8.304 0h-.822" class="E"/></g><path d="M59.442 18.37l-.58.58M53 24.82l-.58.58m7.022.002l-.58-.58M53 18.95l-.58-.58" stroke-width=".163" class="E"/></g><path d="M54.213 18.355l1.256 2.683" fill="#ffb000"/><path d="M54.213 18.355l1.256 2.683" class="B C E L"/><path d="M56.742 22.232l2.55.796" fill="#ffb000"/><path d="M56.742 22.232l2.55.796" class="B C E L"/></g></svg>