<?xml version="1.0" encoding="utf-8"?>
<!-- Generator: Adobe Illustrator 23.0.4, SVG Export Plug-In . SVG Version: 6.00 Build 0)  -->
<svg version="1.1" id="Layer_1" xmlns="http://www.w3.org/2000/svg" xmlns:xlink="http://www.w3.org/1999/xlink" x="0px" y="0px"
	 width="62px" height="27px" viewBox="0 0 62 27" style="enable-background:new 0 0 62 27;" xml:space="preserve">
<style type="text/css">
	.st0{fill-rule:evenodd;clip-rule:evenodd;fill:#F4A600;}
	.st1{fill-rule:evenodd;clip-rule:evenodd;fill:#FFFFFF;stroke:#000000;}
</style>
<title>Artboard</title>
<desc>Created with Sketch.</desc>
<g id="Artboard">
	<path id="Star" class="st0" d="M13.5,22l-6.3,3.3c-0.5,0.3-1.1,0.1-1.4-0.4c-0.1-0.2-0.1-0.4-0.1-0.6l1.2-7
		c0.1-0.3-0.1-0.7-0.3-0.9l-5.1-4.9c-0.4-0.4-0.4-1,0-1.4C1.8,9.9,2,9.8,2.2,9.7l7-1c0.3,0,0.6-0.3,0.8-0.5l3.1-6.3
		c0.2-0.5,0.8-0.7,1.3-0.5c0.2,0.1,0.4,0.3,0.5,0.5L18,8.2c0.1,0.3,0.4,0.5,0.8,0.5l7,1c0.5,0.1,0.9,0.6,0.8,1.1
		c0,0.2-0.1,0.4-0.3,0.6l-5.1,4.9c-0.2,0.2-0.3,0.6-0.3,0.9l1.2,7c0.1,0.5-0.3,1.1-0.8,1.2c-0.2,0-0.4,0-0.6-0.1L14.5,22
		C14.2,21.8,13.8,21.8,13.5,22z"/>
	<path id="Star-Copy" class="st1" d="M46.9,22.2l-6.3,3.3c-0.5,0.3-1.1,0.1-1.4-0.4c-0.1-0.2-0.1-0.4-0.1-0.6l1.2-7
		c0.1-0.3-0.1-0.7-0.3-0.9L35,11.6c-0.4-0.4-0.4-1,0-1.4c0.2-0.2,0.4-0.3,0.6-0.3l7-1c0.3,0,0.6-0.3,0.8-0.5L46.5,2
		c0.2-0.5,0.8-0.7,1.3-0.5C48,1.7,48.2,1.8,48.3,2l3.1,6.3c0.1,0.3,0.4,0.5,0.8,0.5l7,1c0.5,0.1,0.9,0.6,0.8,1.1
		c0,0.2-0.1,0.4-0.3,0.6l-5.1,4.9c-0.2,0.2-0.3,0.6-0.3,0.9l1.2,7c0.1,0.5-0.3,1.1-0.8,1.2c-0.2,0-0.4,0-0.6-0.1l-6.3-3.3
		C47.5,22,47.2,22,46.9,22.2z"/>
</g>
</svg>
